<?xml version="1.0" encoding="UTF-8" standalone="no"?>
<!DOCTYPE svg PUBLIC "-//W3C//DTD SVG 1.1//EN" "http://www.w3.org/Graphics/SVG/1.1/DTD/svg11.dtd">
<svg xmlns="http://www.w3.org/2000/svg">
<metadata>
Created by FontPrep 20130207 at Sat Apr 11 15:15:32 2015
 By Christoph
Copyright (c) 2015 by Volkswagen AG. All rights reserved.
</metadata>
<defs>
<font id="194f5394ae2e9c74dc3c441b92862d1d">
  <font-face font-family="Font" font-weight="800" font-stretch="normal" units-per-em="2048" panose-1="2 11 9 4 4 2 0 0 0 3" ascent="1638" descent="-410" x-height="987" cap-height="1393" bbox="-410 -506 2404 1962" underline-thickness="204" underline-position="-20" unicode-range="U+0020-FB02"/>
<missing-glyph horiz-adv-x="1091" d="M850 119v1155h-608v-1155h608zM123 1393h846v-1393h-846v1393z"/>
    <glyph glyph-name=".notdef" horiz-adv-x="1091" d="M850 119v1155h-608v-1155h608zM123 1393h846v-1393h-846v1393z"/>
    <glyph glyph-name="glyph1" horiz-adv-x="0"/>
    <glyph glyph-name="glyph2" horiz-adv-x="446"/>
    <glyph glyph-name="space" unicode=" " horiz-adv-x="446"/>
    <glyph glyph-name="exclam" unicode="!" horiz-adv-x="604" d="M92 178q0 92 56.5 150.5t152.5 58.5t152.5 -58.5t56.5 -150.5t-56.5 -150.5t-152.5 -58.5t-152.5 58.5t-56.5 150.5zM123 1393h358v-289l-67 -574h-224l-67 574v289z"/>
    <glyph glyph-name="quotedbl" unicode="&quot;" horiz-adv-x="1001" d="M553 1393h344v-185l-49 -377h-246l-49 377v185zM104 1393h345v-185l-50 -377h-245l-50 377v185z"/>
    <glyph glyph-name="numbersign" unicode="#" horiz-adv-x="1558" d="M571 522h312l96 324h-311zM174 0v20l82 287h-195v215h256l97 324h-176v215h235l98 332h246v-21l-92 -311h313l99 332h247v-21l-92 -311h205v-215h-264l-96 -324h184v-215h-246l-90 -307h-246v20l82 287h-313l-88 -307h-246z"/>
    <glyph glyph-name="dollar" unicode="$" d="M717 256q98 30 98 129t-98 131v-260zM422 1016q0 -105 104 -137v266q-66 -16 -85 -49t-19 -80zM109 998q0 158 101 273t310 144v162h207v-158q196 -15 350 -86l-96 -274q-112 55 -254 78v-301q219 -65 311 -153.5t92 -265.5t-105 -290t-298 -145v-203h-207v192 q-221 12 -440 119l96 275q82 -41 165 -73t179 -40v305l-84 29q-174 53 -250.5 153.5t-76.5 258.5z"/>
    <glyph glyph-name="percent" unicode="%" horiz-adv-x="1716" d="M264 0v20l946 1373h250v-21l-946 -1372h-250zM709 1024q0 -184 -81 -286t-243 -101q-162 0 -243 101q-81 102 -81 286t81 286t243 101q162 1 243 -101t81 -286zM287 1024q-1 -115 25 -153q26 -37 72 -37t73 38t26 152q0 115 -26 153q-27 37 -73 37t-72 -37 q-25 -38 -25 -153zM1653 369q0 -183 -81 -285t-243 -102t-243 101q-80 101 -80 285t80 286q81 102 243 102t243 -102t81 -285zM1231 369q-1 -115 25 -153t72 -38t73 38t26 153t-27 153t-72 37q-46 1 -72 -37t-25 -153z"/>
    <glyph glyph-name="ampersand" unicode="&amp;" horiz-adv-x="1609" d="M596 1042q0 -43 33 -79.5t73 -73.5l29 18q41 27 76 59.5t35 74.5t-32 73t-93 31t-91 -30t-30 -73zM461 378q0 -50 41.5 -86t113.5 -36q131 0 236 78l-225 227l-21 -10q-145 -58 -145 -173zM1587 0h-411l-125 123q-227 -154 -470 -154t-362 101.5t-119 281.5 q0 209 134 283.5t204 109.5l-22 23q-61 61 -109.5 130t-48.5 155q0 172 123 271t328 99t330.5 -99t125.5 -266t-111.5 -241t-166.5 -108l186 -185q109 113 223 285l240 -166q-162 -218 -260 -317l311 -306v-20z"/>
    <glyph glyph-name="quotesingle" unicode="'" horiz-adv-x="552" d="M104 1393h345v-185l-50 -377h-245l-50 377v185z"/>
    <glyph glyph-name="parenleft" unicode="(" horiz-adv-x="628" d="M383 514.5q0 -461.5 182 -874.5l-194 -76q-195 260 -243 531.5t-48 482.5t84.5 470.5t206.5 417.5l194 -75q-182 -415 -182 -876.5z"/>
    <glyph glyph-name="parenright" unicode=")" horiz-adv-x="628" d="M246 518q0 461 -183 873l195 75q195 -260 243 -532t48 -482.5t-83 -465.5t-208 -422l-195 76q183 417 183 878z"/>
    <glyph glyph-name="asterisk" unicode="*" horiz-adv-x="915" d="M344 702l29 207l-6 2l-170 -123l-115 195l203 84v4l-203 84l113 197l172 -127l4 2l-27 207h227l-26 -207l4 -2l172 127l113 -197l-203 -84v-4l203 -84l-115 -195l-170 123l-6 -2l28 -207h-227z"/>
    <glyph glyph-name="plus" unicode="+" d="M741 684h385v-254h-385v-418h-274v418h-385v254h385v414h274v-414z"/>
    <glyph glyph-name="comma" unicode="," horiz-adv-x="563" d="M467 342v-20l-180 -631h-246v20l106 631h320z"/>
    <glyph glyph-name="hyphen" unicode="-" horiz-adv-x="851" d="M113 428v254h626v-254h-626z"/>
    <glyph glyph-name="period" unicode="." horiz-adv-x="585" d="M84 178q0 92 56.5 150.5t152.5 58.5t152.5 -58.5t56.5 -150.5t-56.5 -150.5t-152.5 -58.5t-152.5 58.5t-56.5 150.5z"/>
    <glyph glyph-name="slash" unicode="/" horiz-adv-x="1003" d="M47 0v20l608 1373h301v-21l-608 -1372h-301z"/>
    <glyph glyph-name="zero" unicode="0" d="M51 696q0 168 32 302.5t98.5 228.5t171 145t252 51t252 -51t171 -145t98 -228.5t31.5 -302.5t-31.5 -302t-98 -228t-171 -145.5t-252 -51.5t-252 51.5t-171 145.5t-98.5 228t-32 302zM412 696.5q0 -235.5 45 -338t147.5 -102.5t147.5 102.5t45 338t-45 338t-147.5 102.5 t-147.5 -102.5t-45 -338z"/>
    <glyph glyph-name="one" unicode="1" d="M197 979v287l358 127h270v-1112h258v-281h-915v281h309v778h-4l-254 -80h-22z"/>
    <glyph glyph-name="two" unicode="2" d="M578 281h526v-281h-1016v238l524 501q55 53 86 103t31 130t-54 122.5t-132 42.5t-142.5 -45t-128.5 -109l-188 215q117 142 263.5 183.5t250.5 41.5q220 0 356 -115.5t136 -318.5q0 -147 -57.5 -247.5t-143.5 -176.5l-311 -280v-4z"/>
    <glyph glyph-name="three" unicode="3" d="M707 1028.5q0 108.5 -176 108.5t-332 -68l-99 262q202 92 426 92q541 0 541 -385q0 -125 -64.5 -205.5t-150.5 -103.5v-4q106 -35 180 -121t74 -227q0 -294 -211 -351t-365 -57q-259 0 -460 105l82 270q155 -88 372 -88q123 0 172 41t49 117t-50 109.5t-171 33.5h-233 v281h225q111 0 151 41t40 149.5z"/>
    <glyph glyph-name="four" unicode="4" d="M1030 913v-358h141v-281h-141v-274h-348v274h-645v240l373 879h344l-346 -838h274v358h348z"/>
    <glyph glyph-name="five" unicode="5" d="M489 612q-29 0 -274 -14l-45 43l74 752h807v-281h-498l-25 -215q20 2 25 2h47q236 0 372 -109.5t136 -343.5t-156.5 -355.5t-449.5 -121.5q-222 0 -434 76l75 287q180 -76 339 -76t212.5 52t53.5 133t-58.5 126t-200.5 45z"/>
    <glyph glyph-name="six" unicode="6" d="M422 463q0 -98 51 -152.5t143.5 -54.5t143.5 54.5t51 152.5t-51 152.5t-143.5 54.5t-143.5 -54.5t-51 -152.5zM740 956q193 0 312 -127.5t119 -350.5q0 -222 -145.5 -365.5t-412.5 -143.5t-409.5 142.5t-142.5 351.5q0 153 46.5 251.5t99.5 182.5l317 496h387v-21 l-319 -440l2 -4q56 28 146 28z"/>
    <glyph glyph-name="seven" unicode="7" d="M739 1112h-628v281h1005v-240l-555 -1153h-364v20l542 1088v4z"/>
    <glyph glyph-name="eight" unicode="8" d="M191 83.5q-142 114.5 -142 305.5q0 141 65.5 229.5t176.5 129.5v4q-91 42 -140 109.5t-49 182.5q0 170 125 274.5t377 104.5t377 -104.5t125 -274.5t-75 -222t-113 -70v-4q111 -41 176 -129.5t65 -204.5t-34.5 -193.5t-141.5 -164.5t-378.5 -87t-413.5 114.5zM604.5 256 q106.5 0 150.5 48t44 122t-44 122t-150.5 48t-150.5 -48t-44 -122t44 -122t150.5 -48zM604 881q72 0 114 34.5t42 104.5t-42 104.5t-114 34.5t-113.5 -34.5t-41.5 -104.5t41.5 -104.5t113.5 -34.5z"/>
    <glyph glyph-name="nine" unicode="9" d="M786 930q0 98 -51 152t-143 54t-143 -54t-51 -152t50 -152q52 -54 144 -55q92 1 143 55t51 152zM37 918q0 216 146 360t411 145q266 0 410 -142q143 -142 143 -351q0 -99 -24 -189t-122 -245l-317 -496h-387v21l319 440l-2 4q-55 -27 -145 -28t-171 31q-166 66 -229 249 q-32 91 -32 201z"/>
    <glyph glyph-name="colon" unicode=":" horiz-adv-x="610" d="M103 792q0 88 54 144q55 56 147 56t146 -56t54 -144t-54 -145q-54 -56 -146 -56t-147 56q-54 56 -54 145zM103 171q0 89 54 145q55 56 147 56t146 -56t54 -145t-54 -145t-146 -56t-146 56t-55 145z"/>
    <glyph glyph-name="semicolon" unicode=";" horiz-adv-x="606" d="M471 342v-20l-180 -631h-246v20l107 631h319zM120 792q0 88 54 144t146 56t146 -56t55 -144q0 -88 -54 -145q-55 -56 -147 -56t-146 56t-54 145z"/>
    <glyph glyph-name="less" unicode="&lt;" d="M1098 1122v-274l-736 -291v-6l736 -293v-272h-23l-1022 436v264l1022 436h23z"/>
    <glyph glyph-name="equal" unicode="=" d="M1126 434v-254h-1044v254h1044zM1126 932v-254h-1044v254h1044z"/>
    <glyph glyph-name="greater" unicode="&gt;" d="M111 -14v272l735 293v6l-735 291v274h22l1022 -436v-264l-1022 -436h-22z"/>
    <glyph glyph-name="question" unicode="?" horiz-adv-x="1060" d="M272 178q0 92 56.5 150.5t153 58.5t152.5 -58.5t56 -150.5t-56 -150.5t-152.5 -58.5t-153 58.5t-56.5 150.5zM528 1423q208 0 335.5 -103.5t127.5 -295.5q0 -240 -144.5 -309.5t-203.5 -89.5l-22 -95h-273l-18 267q124 29 189 67.5t88.5 68t23.5 77.5t-34 87.5t-103 39.5 q-147 0 -289 -113l-154 223q200 176 477 176z"/>
    <glyph glyph-name="at" unicode="@" horiz-adv-x="1947" d="M1004 811q-114 0 -173 -90t-59 -217q0 -68 33 -111t114 -43t146 49l63 365q-58 47 -124 47zM982 -287q-425 0 -662.5 217t-237.5 643q0 182 62.5 344t253.5 354.5t630 192.5q398 0 615 -213t217 -553q0 -287 -135.5 -443.5t-335.5 -156.5q-199 0 -277 131h-4 q-115 -106 -265 -106t-241.5 100t-91.5 258q0 218 122.5 386.5t325.5 168.5q90 0 145.5 -31.5t96.5 -64.5h2l41 72h176l-98 -504q-23 -109 -2.5 -155t105.5 -46t146.5 91t61.5 300q0 388 -217 475t-394 87t-312.5 -56.5t-267.5 -198t-132 -441.5t163 -473t503 -173 q134 0 346 53l43 -194q-170 -64 -382 -64z"/>
    <glyph glyph-name="A" unicode="A" horiz-adv-x="1419" d="M707 1047l-164 -527h334l-164 527h-6zM1423 0h-381l-77 248h-510l-78 -248h-381l504 1393h422z"/>
    <glyph glyph-name="B" unicode="B" horiz-adv-x="1368" d="M934 437q0 157 -170 157h-270v-313h270q170 -1 170 156zM874 983q0 68 -35.5 98.5t-107.5 30.5h-237v-258h237q72 0 107.5 30.5t35.5 98.5zM1057 725q237 -87 237 -309q0 -116 -28.5 -191t-123 -150t-380.5 -75h-617v1393h588q250 0 376 -88t126 -291 q0 -115 -53.5 -182.5t-124.5 -102.5v-4z"/>
    <glyph glyph-name="C" unicode="C" horiz-adv-x="1245" d="M1102 1063q-167 74 -314 74q-157 0 -251.5 -121.5t-94.5 -319.5t95 -319t245 -121q90 0 161 17.5t159 56.5l90 -271q-188 -90 -384 -90q-359 0 -542.5 198t-183.5 529t183 529t517 198q222 0 410 -90z"/>
    <glyph glyph-name="D" unicode="D" horiz-adv-x="1415" d="M588 281q225 0 302 96t77 319t-77 319.5t-302 96.5h-94v-831h94zM145 1393h469q387 0 550 -174t163 -523t-163.5 -522.5t-549.5 -173.5h-469v1393z"/>
    <glyph glyph-name="E" unicode="E" horiz-adv-x="1210" d="M1110 1393v-281h-616v-274h546v-281h-546v-276h622v-281h-971v1393h965z"/>
    <glyph glyph-name="F" unicode="F" horiz-adv-x="1181" d="M1110 1393v-281h-616v-334h546v-280h-546v-498h-349v1393h965z"/>
    <glyph glyph-name="G" unicode="G" horiz-adv-x="1439" d="M1333 780v-702q-171 -74 -329 -91.5t-236 -17.5q-328 0 -508 196.5t-180 515.5t193 530.5t548 211.5q202 0 325.5 -42t164.5 -62l-101 -268q-76 29 -171 57.5t-207 28.5q-206 0 -299 -120.5t-93 -323.5q0 -204 85 -320.5t261 -116.5q109 0 199 29v227l-227 31v237h575z "/>
    <glyph glyph-name="H" unicode="H" horiz-adv-x="1503" d="M1010 557h-516v-557h-349v1393h349v-555h516v555h348v-1393h-348v557z"/>
    <glyph glyph-name="I" unicode="I" horiz-adv-x="638" d="M494 0h-349v1393h349v-1393z"/>
    <glyph glyph-name="J" unicode="J" horiz-adv-x="1013" d="M368 256q162 0 162 178v959h349v-981q0 -223 -130.5 -333t-365.5 -110q-137 0 -226 44t-155 100l150 249q115 -106 216 -106z"/>
    <glyph glyph-name="K" unicode="K" horiz-adv-x="1370" d="M494 614v-614h-349v1393h349v-668h4l467 668h376v-21l-503 -690l530 -662v-20h-395l-475 614h-4z"/>
    <glyph glyph-name="L" unicode="L" horiz-adv-x="1101" d="M494 1393v-1112h575v-281h-924v1393h349z"/>
    <glyph glyph-name="M" unicode="M" horiz-adv-x="1742" d="M1597 1393v-1393h-348v829h-4l-213 -479h-321l-213 479h-4v-829h-349v1393h375l348 -697h6l349 697h374z"/>
    <glyph glyph-name="N" unicode="N" horiz-adv-x="1538" d="M1044 539v854h349v-1393h-369l-526 854h-4v-854h-349v1393h371l524 -854h4z"/>
    <glyph glyph-name="O" unicode="O" horiz-adv-x="1572" d="M261.5 1219.5q179.5 203.5 525 203.5t525 -203.5t179.5 -523.5t-180 -523.5t-524.5 -203.5t-524.5 203.5t-180 523.5t179.5 523.5zM442 696.5q0 -94.5 18.5 -174.5t60.5 -139t107.5 -93t158 -34t158 34t107.5 93t60 139t18 174.5t-18 174t-60 139t-107.5 93.5t-158 34 t-158 -34t-107.5 -93.5t-60.5 -139t-18.5 -174z"/>
    <glyph glyph-name="P" unicode="P" horiz-adv-x="1255" d="M645 707q102 0 148.5 50t46.5 152.5t-45 152.5t-150 50h-151v-405h151zM145 0v1393h555q263 0 382.5 -131.5t119.5 -350.5q0 -342 -181 -414.5t-321 -72.5h-206v-424h-349z"/>
    <glyph glyph-name="Q" unicode="Q" horiz-adv-x="1572" d="M442 696.5q0 -94.5 18.5 -174.5t60.5 -139t107.5 -93t158 -34t158 34t107.5 93t60 139t18 174.5t-18 174t-60 139t-107.5 93.5t-158 34t-158 -34t-107.5 -93.5t-60.5 -139t-18.5 -174zM261.5 1219.5q179.5 203.5 525 203.5t525 -203t179.5 -524q0 -184 -62.5 -337.5 t-191.5 -252.5l311 -159l-153 -273l-506 301q-49 -6 -103 -6q-344 0 -524 203.5t-180 523.5t179.5 523.5z"/>
    <glyph glyph-name="R" unicode="R" horiz-adv-x="1390" d="M748 801q163 0 163 155.5t-163 155.5h-254v-311h254zM145 0v1393h629q268 0 384 -115t116 -320q0 -156 -75 -260t-218 -143l362 -522v-33h-378l-340 520h-131v-520h-349z"/>
    <glyph glyph-name="S" unicode="S" horiz-adv-x="1181" d="M623 1143q-86 0 -129 -35t-43 -86t23.5 -83t90.5 -54l146 -47q225 -76 315 -160.5t90 -247.5q0 -225 -148.5 -343t-391.5 -118t-510 121l96 275q94 -47 191.5 -81t205.5 -34q201 0 201 133q0 57 -42 89t-151 67l-145 47q-174 53 -251 153.5t-77 241.5q0 201 134 321.5 t387 120.5t448 -90l-96 -274q-178 84 -344 84z"/>
    <glyph glyph-name="T" unicode="T" horiz-adv-x="1181" d="M1147 1393v-281h-383v-1112h-348v1112h-381v281h1112z"/>
    <glyph glyph-name="U" unicode="U" horiz-adv-x="1462" d="M731 256q256 0 256 340v797h346v-785q0 -472 -221 -555.5t-456 -83.5t-381 163t-146 476v785h346v-797q0 -340 256 -340z"/>
    <glyph glyph-name="V" unicode="V" horiz-adv-x="1400" d="M4 1393h381l315 -1049h7l311 1049h379v-21l-473 -1372h-445l-475 1372v21z"/>
    <glyph glyph-name="W" unicode="W" horiz-adv-x="2107" d="M2087 1393v-21l-371 -1372h-426l-235 975h-4l-234 -975h-426l-371 1372v21h375l211 -985h4l236 985h416l235 -985h4l211 985h375z"/>
    <glyph glyph-name="X" unicode="X" horiz-adv-x="1318" d="M1286 1393v-21l-373 -672l373 -680v-20h-377l-247 502h-5l-247 -502h-377v20l370 680l-370 672v21h370l254 -498h5l253 498h371z"/>
    <glyph glyph-name="Y" unicode="Y" horiz-adv-x="1318" d="M1323 1393v-21l-489 -827v-545h-349v545l-489 827v21h381l280 -541h5l280 541h381z"/>
    <glyph glyph-name="Z" unicode="Z" horiz-adv-x="1245" d="M1157 1393v-240l-649 -868v-4h649v-281h-1089v238l645 870v4h-598v281h1042z"/>
    <glyph glyph-name="bracketleft" unicode="[" horiz-adv-x="688" d="M627 1434v-195l-226 -27v-1396l226 -27v-195h-502v1840h502z"/>
    <glyph glyph-name="backslash" unicode="\" horiz-adv-x="1003" d="M47 1393h301l608 -1373v-20h-301l-608 1372v21z"/>
    <glyph glyph-name="bracketright" unicode="]" horiz-adv-x="688" d="M563 1434v-1840h-502v195l226 27v1396l-226 27v195h502z"/>
    <glyph glyph-name="asciicircum" unicode="^" horiz-adv-x="1030" d="M1065 762h-338l-207 371h-8l-207 -371h-338v20l381 652h334l383 -652v-20z"/>
    <glyph glyph-name="underscore" unicode="_" horiz-adv-x="1030" d="M102 -256v215h826v-215h-826z"/>
    <glyph glyph-name="grave" unicode="`" d="M338 1454h348l180 -299v-20h-295l-233 301v18z"/>
    <glyph glyph-name="a" unicode="a" horiz-adv-x="1134" d="M377 315q0 -92 102 -92t187 58v135h-103q-186 0 -186 -101zM920 -25q-157 0 -218 119h-4q-53 -45 -139 -85t-180 -40q-168 0 -249 87.5t-81 219.5q0 169 117 253.5t385 84.5h115v31q0 57 -39 81t-111 24q-156 0 -328 -66l-73 248q211 86 424 86t333.5 -100.5 t120.5 -317.5v-354q0 -18 5.5 -24.5t23.5 -6.5h59v-223q-79 -17 -161 -17z"/>
    <glyph glyph-name="b" unicode="b" horiz-adv-x="1222" d="M612 748q-95 0 -166 -52v-405q69 -51 164 -51q201 0 201 254t-199 254zM446 1434v-521h5q39 35 101 70t159 35q213 0 327.5 -138.5t114.5 -386t-114.5 -386t-327.5 -138.5q-109 0 -173.5 41t-111.5 84h-4l-35 -94h-276v1434h335z"/>
    <glyph glyph-name="c" unicode="c" horiz-adv-x="962" d="M614 -31q-266 0 -407 139.5t-141 385t141 385t407 139.5q159 0 297 -53l-71 -252q-109 37 -171 37q-63 0 -103 -7.5t-75.5 -33t-59 -76.5t-23.5 -173.5t67.5 -171t162.5 -48.5q96 0 202 36l71 -253q-141 -54 -297 -54z"/>
    <glyph glyph-name="d" unicode="d" horiz-adv-x="1222" d="M614 750q-202 0 -202 -256t202 -256q93 0 162 51v409q-70 52 -162 52zM1112 1434v-1434h-276l-35 94h-4q-64 -59 -128.5 -92t-156.5 -33q-213 0 -327.5 138.5t-114.5 386t114.5 386t327.5 138.5q96 0 158.5 -35t101.5 -70h4v521h336z"/>
    <glyph glyph-name="e" unicode="e" horiz-adv-x="1110" d="M582 782q-147 0 -174 -182h340q2 10 2 12v15q0 68 -38 111.5t-130 43.5zM1051 588q0 -92 -15 -193h-628q17 -132 98.5 -145.5t136.5 -13.5q133 0 289 57l67 -250q-181 -74 -395 -74q-268 0 -403 139t-135 377t133 385.5t374 147.5t359.5 -120.5t118.5 -309.5z"/>
    <glyph glyph-name="f" unicode="f" horiz-adv-x="784" d="M644 1174q-48 0 -75.5 -18.5t-27.5 -70.5v-98h213v-254h-213v-733h-336v733h-172v201l172 53v129q0 328 350 328q110 0 199 -21v-262q-62 13 -110 13z"/>
    <glyph glyph-name="g" unicode="g" horiz-adv-x="1216" d="M559 -168q109 0 160 46t51 159v53h-4q-39 -31 -100.5 -63.5t-163.5 -32.5q-203 0 -318.5 142.5t-115.5 365.5t115.5 369.5t322.5 146.5q109 0 172 -38t113 -87h4l34 94h277v-881q0 -285 -142.5 -413.5t-385.5 -128.5t-424 110l100 240q131 -82 305 -82zM610 750 q-200 0 -200 -244t200 -244q87 0 160 53v381q-73 54 -160 54z"/>
    <glyph glyph-name="h" unicode="h" horiz-adv-x="1204" d="M742 1018q174 0 267 -107.5t93 -300.5v-610h-336v590q0 78 -34 119t-121 41t-165 -76v-674h-335v1434h335v-521h5q117 105 291 105z"/>
    <glyph glyph-name="i" unicode="i" horiz-adv-x="559" d="M94 1315q0 74 46 126t140.5 52t140.5 -52t46 -126t-46 -126t-140.5 -52t-140.5 52t-46 126zM113 0v987h333v-987h-333z"/>
    <glyph glyph-name="j" unicode="j" horiz-adv-x="561" d="M94 1315q0 74 46 126t140.5 52t140.5 -52t46 -126t-46 -126t-140.5 -52t-140.5 52t-46 126zM10 -168q55 0 79 28.5t24 88.5v1038h336v-1016q0 -217 -99.5 -312t-296.5 -95q-66 0 -143 14v264q45 -10 100 -10z"/>
    <glyph glyph-name="k" unicode="k" horiz-adv-x="1146" d="M446 457v-457h-335v1434h335v-881h5l305 434h362v-20l-340 -453l359 -494v-20h-375l-311 457h-5z"/>
    <glyph glyph-name="l" unicode="l" horiz-adv-x="608" d="M106 281v1153h334v-1172q0 -23 8.5 -32t30.5 -9h88v-223q-101 -18 -188 -18q-150 0 -211.5 70.5t-61.5 230.5z"/>
    <glyph glyph-name="m" unicode="m" horiz-adv-x="1832" d="M1395 590q0 162 -127 162q-65 0 -108.5 -26t-74.5 -54q6 -25 7 -60v-612h-336v590q0 160 -146 160q-57 0 -95 -24t-69 -52v-674h-335v987h276l35 -94h4q125 125 301 125q213 0 299 -141h4q127 141 324 141q112 0 244.5 -62t132.5 -346v-610h-336v590z"/>
    <glyph glyph-name="n" unicode="n" horiz-adv-x="1204" d="M611 750q-87 0 -165 -76v-674h-335v987h276l35 -94h4q41 43 118 84t191 41q180 0 273.5 -107.5t93.5 -300.5v-610h-336v590q0 78 -34 119t-121 41z"/>
    <glyph glyph-name="o" unicode="o" horiz-adv-x="1212" d="M1010 117q-139 -148 -401 -148q-263 0 -404.5 149t-141.5 376q0 228 141.5 376t404.5 148q262 0 401 -147.5t139 -376.5t-139 -377zM406 494q0 -139 59 -197.5t145 -58.5t141.5 58t55.5 197.5t-55.5 198t-143.5 58.5q-143 0 -172.5 -93t-29.5 -163z"/>
    <glyph glyph-name="p" unicode="p" horiz-adv-x="1220" d="M811 494q0 256 -203 256q-92 0 -162 -52v-409q69 -51 162 -51q203 0 203 256zM711 -31q-146 0 -260 105h-5v-480h-335v1393h276l35 -94h4q47 43 111.5 84t173.5 41q213 0 327.5 -138.5t114.5 -386t-114.5 -386t-327.5 -138.5z"/>
    <glyph glyph-name="q" unicode="q" horiz-adv-x="1220" d="M612 750q-202 0 -202 -256t202 -256q93 0 162 51v409q-70 52 -162 52zM774 -406v480h-4q-39 -35 -101.5 -70t-158.5 -35q-213 0 -327.5 138.5t-114.5 386t114.5 386t327.5 138.5q109 0 173.5 -41t111.5 -84h4l35 94h276v-1393h-336z"/>
    <glyph glyph-name="r" unicode="r" horiz-adv-x="796" d="M678 1018q54 0 94 -10l-22 -306q-144 18 -213.5 -6t-90.5 -47v-649h-335v987h276l49 -113h4q29 59 80 101.5t158 42.5z"/>
    <glyph glyph-name="s" unicode="s" horiz-adv-x="993" d="M489 223q123 0 123 64q0 29 -29.5 43t-97.5 28l-110 23q-291 55 -291 303q0 158 114.5 246t325.5 88q119 0 205 -17.5t180 -56.5l-88 -246q-153 66 -283 66t-130 -59q0 -25 24.5 -39.5t89.5 -28.5l109 -23q301 -64 301 -307q0 -166 -119 -252t-335 -86t-425 101l92 245 q184 -92 344 -92z"/>
    <glyph glyph-name="t" unicode="t" horiz-adv-x="897" d="M590 -31q-111 0 -246 34.5t-135 281.5v448h-182v201l182 53v230h336v-230h295v-254h-295v-385q0 -110 121 -110q71 0 163 30v-266q-128 -33 -239 -33z"/>
    <glyph glyph-name="u" unicode="u" horiz-adv-x="1204" d="M593 238q87 0 165 75v674h336v-987h-277l-35 94h-4q-41 -43 -117.5 -84t-191.5 -41q-180 0 -273.5 107.5t-93.5 300.5v610h336v-590q0 -78 34 -118.5t121 -40.5z"/>
    <glyph glyph-name="v" unicode="v" horiz-adv-x="1126" d="M10 987h338l213 -661h4l211 661h340v-20l-364 -967h-377l-365 967v20z"/>
    <glyph glyph-name="w" unicode="w" horiz-adv-x="1744" d="M25 987h333l144 -643h4l180 643h373l180 -643h4l143 643h334v-20l-276 -967h-371l-199 676h-4l-198 -676h-371l-276 967v20z"/>
    <glyph glyph-name="x" unicode="x" horiz-adv-x="1110" d="M31 0v20l297 474l-297 473v20h350l172 -311h4l172 311h350v-20l-297 -473l297 -474v-20h-350l-172 309h-4l-172 -309h-350z"/>
    <glyph glyph-name="y" unicode="y" horiz-adv-x="1112" d="M256 -436q-78 0 -160 16v262q51 -10 115 -10t99.5 20.5t58.5 75.5l32 82l-397 957v20h340l213 -641h6l201 641h342v-20l-430 -1082q-70 -172 -175.5 -246.5t-244.5 -74.5z"/>
    <glyph glyph-name="z" unicode="z" horiz-adv-x="999" d="M920 987v-201l-424 -528v-4h424v-254h-857v201l422 528v4h-389v254h824z"/>
    <glyph glyph-name="braceleft" unicode="{" horiz-adv-x="751" d="M500 260v-283q0 -109 26.5 -138t62.5 -39.5t97 -10.5v-195h-39q-241 0 -331.5 90.5t-90.5 309.5v248q0 76 -36.5 113.5t-139.5 37.5v242q102 0 139 38t37 113v248q0 219 90 309.5t332 90.5h39v-195q-115 0 -150.5 -39t-35.5 -149v-283q0 -96 -40 -159.5t-147 -92.5v-4 q106 -29 146.5 -92.5t40.5 -159.5z"/>
    <glyph glyph-name="bar" unicode="|" horiz-adv-x="475" d="M350 -406h-225v1840h225v-1840z"/>
    <glyph glyph-name="braceright" unicode="}" horiz-adv-x="751" d="M252 768v283q0 110 -26.5 139t-62.5 39t-97 10v195h38q242 0 332 -90.5t90 -309.5v-248q0 -76 37 -113.5t139 -37.5v-242q-102 0 -139 -38t-37 -113v-248q0 -219 -90.5 -309.5t-331.5 -90.5h-38v195q114 0 150 39.5t36 148.5v283q0 96 40 159.5t146 92.5v4 q-106 29 -146 92.5t-40 159.5z"/>
    <glyph glyph-name="asciitilde" unicode="~" horiz-adv-x="1212" d="M397 741q98 0 188.5 -38.5t142.5 -56t116 -17.5t99.5 20.5t70.5 50.5l123 -159q-53 -78 -135 -121t-164 -43t-135.5 17.5t-145 56t-169.5 38.5t-114 -20t-71 -51l-123 160q108 163 317 163z"/>
    <glyph glyph-name="uni00A0" unicode=" " horiz-adv-x="446"/>
    <glyph glyph-name="exclamdown" unicode="¡" horiz-adv-x="585" d="M502 809q0 -93 -56 -151t-153 -58q-96 0 -153 58q-56 58 -56 150t56 151t152 59t154 -58q56 -58 56 -151zM471 -405h-358v288l67 574h223l68 -574v-288z"/>
    <glyph glyph-name="cent" unicode="¢" d="M645 729q-123 -45 -123 -234t123 -239v473zM848 -197h-203v170q-225 23 -345 159t-120 361.5t120 361.5t345 159v170h203v-174q88 -12 178 -45l-72 -254q-58 21 -106 28v-491q52 7 106 28l72 -253q-87 -32 -178 -46v-174z"/>
    <glyph glyph-name="sterling" unicode="£" d="M127 236q129 64 129 190q0 60 -10 145h-140v234h105q-16 101 -16 203q0 201 138.5 308t372.5 107t429 -90l-99 -276q-68 29 -139.5 54.5t-165.5 25.5q-176 0 -176 -183q0 -61 18 -149h357v-234h-318q4 -32 4 -63q0 -147 -94 -223v-4h565v-281h-960v236z"/>
    <glyph glyph-name="currency" unicode="¤" horiz-adv-x="1245" d="M231 551q0 100 39 178l-190 191l178 176l193 -195q73 31 171.5 31t172.5 -31l192 195l178 -176l-190 -191q39 -78 39 -178t-37 -168l192 -193l-180 -178l-190 195q-76 -33 -178.5 -33t-174.5 33l-190 -195l-180 178l192 193q-37 68 -37 168zM502 553q0 -150 120.5 -150.5 t120.5 149.5t-88 150t-120.5 -32.5t-32.5 -116.5z"/>
    <glyph glyph-name="yen" unicode="¥" d="M1225 1393v-21l-307 -551h229v-233h-369v-123h369v-234h-369v-231h-348v231h-369v234h369v123h-369v233h230l-307 551v21h381l235 -500h8l236 500h381z"/>
    <glyph glyph-name="brokenbar" unicode="¦" horiz-adv-x="507" d="M141 754v680h226v-680h-226zM367 274v-680h-226v680h226z"/>
    <glyph glyph-name="section" unicode="§" horiz-adv-x="1232" d="M780 371q23 16 48.5 97.5t-136.5 133.5l-223 72q-23 -16 -48.5 -96.5t136.5 -135.5zM182 29q250 -117 431 -117q180 0 180 70q0 39 -27 60t-94 44l-275 90q-139 47 -213.5 120t-74.5 193q0 178 165 252v4q-78 41 -121.5 118t-43.5 173q0 191 140 289t389 98t441 -71 l-94 -287q-210 78 -344 78q-182 0 -182 -90q0 -31 20.5 -50.5t91.5 -41.5l215 -68q201 -62 280 -143t79 -205q0 -155 -170 -242v-4q122 -57 146 -145t24 -125q0 -194 -146.5 -296t-388.5 -102q-182 0 -326.5 44t-193.5 67z"/>
    <glyph glyph-name="dieresis" unicode="¨" d="M662 1310q0 75 46 120t123.5 45t123.5 -45.5t46 -119.5t-46 -118.5t-123.5 -44.5t-123.5 44t-46 119zM205 1310q0 75 46 120t124 45t124 -45.5t46 -119.5t-46 -118.5t-124 -44.5t-124 44t-46 119z"/>
    <glyph glyph-name="copyright" unicode="©" horiz-adv-x="1617" d="M426.5 303.5q156.5 -158.5 401.5 -158.5t382.5 155.5t137.5 394t-146.5 395.5t-393.5 157t-392.5 -156t-145.5 -392.5t156.5 -395zM827 297q-199 0 -302 106.5t-103 293t103.5 293t301.5 106.5q124 0 238 -58l-57 -180q-100 41 -177 41t-125.5 -50t-48.5 -152.5 t48.5 -152.5t128.5 -50t174 41l57 -181q-112 -57 -238 -57zM82 696.5q0 153.5 55.5 286.5t153.5 231.5t231 153.5t287 55t287 -55t231 -153.5t153.5 -231.5t55.5 -286.5t-55.5 -287t-153.5 -231.5t-231 -153.5t-287 -55.5t-287 55.5t-231 153.5t-153.5 231.5t-55.5 287z"/>
    <glyph glyph-name="ordfeminine" unicode="ª" horiz-adv-x="811" d="M98 385v203h627v-203h-627zM496 766q-91 -68 -208 -68t-167.5 57.5t-50.5 143.5q0 207 301 207h92v14q0 45 -74 45q-120 0 -233 -41l-37 193q161 41 302 41q304 0 304 -281v-360h-205l-22 49h-2zM313 920q0 -52 53 -52t97 33v76h-76q-74 0 -74 -57z"/>
    <glyph glyph-name="guillemotleft" unicode="«" horiz-adv-x="1177" d="M55 565l338 461l203 -115l-201 -362l205 -359l-207 -110l-338 461v24zM559 565l338 461l203 -115l-201 -362l205 -359l-207 -110l-338 461v24z"/>
    <glyph glyph-name="logicalnot" unicode="¬" d="M918 432h-863v254h1088v-491h-225v237z"/>
    <glyph glyph-name="uni00AD" unicode="­" horiz-adv-x="851" d="M113 428v254h626v-254h-626z"/>
    <glyph glyph-name="registered" unicode="®" horiz-adv-x="1073" d="M541 1184q53 0 53 45t-53 45h-62v-90h62zM557 1378q170 0 170 -147q0 -100 -94 -133l115 -156v-10h-146l-98 158h-23v-158h-137v446h213zM307 907q98 -98 241 -98t229.5 96.5t86.5 240.5t-92 243.5t-236 99.5t-235.5 -98.5t-91.5 -242t98 -241.5zM203.5 1482.5 q133.5 135.5 333 135.5t333.5 -136t134 -334q0 -197 -134.5 -331.5t-333 -134.5t-332.5 134t-134 332q0 199 133.5 334.5z"/>
    <glyph glyph-name="macron" unicode="¯" d="M291 1151v248h627v-248h-627z"/>
    <glyph glyph-name="degree" unicode="°" horiz-adv-x="909" d="M74 1065q0 82 27.5 147.5t76.5 112.5t120 72.5t157 25.5t156.5 -25.5t119.5 -72.5t77 -112.5t28 -147.5t-28 -147.5t-77 -112.5t-119.5 -72.5t-156.5 -25.5t-157 25.5t-120 72.5t-76.5 112.5t-27.5 147.5zM301 1065q0 -70 42 -108.5t111.5 -38.5t111.5 38.5t42 108.5 t-42 108.5t-111.5 38.5t-111.5 -38.5t-42 -108.5z"/>
    <glyph glyph-name="plusminus" unicode="±" d="M1126 254v-254h-1044v254h1044zM741 895h385v-254h-385v-272h-274v272h-385v254h385v412h274v-412z"/>
    <glyph glyph-name="uni00B2" unicode="²" horiz-adv-x="684" d="M344 1655q124 0 204 -70q81 -70 81 -184q0 -78 -37 -138t-125 -116l-88 -55v-5h252v-188h-586v174l264 191q53 41 74 64q20 24 20 56t-19 53t-61 21q-72 -1 -157 -90l-123 145q121 142 301 142z"/>
    <glyph glyph-name="uni00B3" unicode="³" horiz-adv-x="679" d="M635 1102q0 -219 -332 -219q-164 0 -276 57l55 182q83 -43 206 -44q122 -1 122 57q0 45 -74 47h-160v176h143q70 0 70 47q0 55 -100 55t-183 -35l-61 183q140 46 256 47q315 0 313 -213q0 -70 -32 -107t-88 -57v-2q141 -30 141 -174z"/>
    <glyph glyph-name="acute" unicode="´" d="M338 1135v20l180 299h348v-18l-233 -301h-295z"/>
    <glyph glyph-name="mu" unicode="µ" horiz-adv-x="1232" d="M612 240q88 0 164 75v672h336v-987h-276l-35 94h-4q-41 -43 -118 -84t-192 -41q-23 0 -32 2v-377h-334v1393h336v-588q0 -78 33.5 -118.5t121.5 -40.5z"/>
    <glyph glyph-name="paragraph" unicode="¶" horiz-adv-x="1339" d="M492 557q-307 0 -372 157.5t-65 257.5q0 194 118 307.5t319 113.5h759v-205h-137v-1594h-221v1594h-178v-1594h-223v963z"/>
    <glyph glyph-name="periodcentered" unicode="·" horiz-adv-x="598" d="M92 602q0 92 56 150t152 59q96 0 154 -58q56 -59 56 -151t-56 -150t-152 -58t-154 58q-56 58 -56 150z"/>
    <glyph glyph-name="cedilla" unicode="¸" d="M508 -285q67 0 67 37q0 29 -34.5 34t-89.5 5l-13 23l80 200h193l-43 -98q133 -23 133 -152q0 -81 -59.5 -140.5t-167.5 -59.5q-107 0 -181 24l33 142q45 -15 82 -15z"/>
    <glyph glyph-name="uni00B9" unicode="¹" horiz-adv-x="514" d="M29 1327v199l252 112h165v-739h-215v512h-6l-178 -84h-18z"/>
    <glyph glyph-name="ordmasculine" unicode="º" horiz-adv-x="798" d="M39 1028.5q0 67.5 22.5 128t67.5 104.5t112.5 70.5t157.5 26.5t158 -26.5t113 -70.5t67.5 -104.5t22.5 -128t-22.5 -128t-67.5 -104.5t-113 -71t-158 -27t-157.5 27t-112.5 71t-67.5 104.5t-22.5 128zM96 385v203h606v-203h-606zM522 1028q0 133 -123 133t-123 -133 t123 -133t123 133z"/>
    <glyph glyph-name="guillemotright" unicode="»" horiz-adv-x="1177" d="M618 541l-337 -461l-207 110l205 359l-201 362l203 115l337 -461v-24zM1122 541l-338 -461l-206 110l204 359l-200 362l202 115l338 -461v-24z"/>
    <glyph glyph-name="onequarter" unicode="¼" horiz-adv-x="1667" d="M201 0v20l946 1373h250v-21l-946 -1372h-250zM61 1081v199l252 113h166v-740h-215v512h-6l-178 -84h-19zM1522 500v-168h86v-189h-86v-143h-215v143h-363v162l154 434h227l-133 -405v-2h115v168h215z"/>
    <glyph glyph-name="onehalf" unicode="½" horiz-adv-x="1662" d="M201 0v20l946 1373h250v-21l-946 -1372h-250zM61 1081v199l252 113h166v-740h-215v512h-6l-178 -84h-19zM1335 188h252v-188h-586v174l265 191q53 41 73 65q21 24 21 54q0 32 -20 54t-61 22q-72 -1 -157 -91l-123 145q121 142 306 142q186 0 258 -148q23 -48 23 -116 q-1 -142 -163 -244l-88 -55v-5z"/>
    <glyph glyph-name="threequarters" unicode="¾" horiz-adv-x="1765" d="M299 0v20l946 1373h250v-21l-946 -1372h-250zM1620 500v-168h86v-189h-86v-143h-215v143h-363v162l154 434h227l-133 -405v-2h115v168h215zM674 850q0 -219 -332 -219q-166 0 -276 57l55 182q83 -43 206 -44q122 -1 122 57q0 47 -74 47h-160v176h143q70 0 70 47 q0 55 -99 55t-184 -34l-61 182q144 47 256 47q313 0 313 -213q-1 -70 -33 -107t-88 -57v-2q142 -30 142 -174z"/>
    <glyph glyph-name="questiondown" unicode="¿" horiz-adv-x="1052" d="M784 807q0 -93 -56 -151t-152 -58t-153 58q-56 58 -56 150t56 151q57 59 153 59t152 -58t56 -151zM426 -26q0 -48 34 -86q34 -40 103 -39q148 0 289 112l154 -223q-200 -176 -478 -176q-320 0 -428 226q-34 75 -34 171q1 247 226 351q62 30 122 50l22 95h273l18 -267 q-123 -28 -188 -67t-89 -69t-24 -78z"/>
    <glyph glyph-name="Agrave" unicode="À" horiz-adv-x="1419" d="M707 1047l-164 -527h334l-164 527h-6zM1423 0h-381l-77 248h-510l-78 -248h-381l504 1393h422zM360 1839h361l127 -295v-20h-287l-201 299v16z"/>
    <glyph glyph-name="Aacute" unicode="Á" horiz-adv-x="1419" d="M707 1047l-164 -527h334l-164 527h-6zM1423 0h-381l-77 248h-510l-78 -248h-381l504 1393h422zM567 1524v20l127 295h361v-16l-201 -299h-287z"/>
    <glyph glyph-name="Acircumflex" unicode="Â" horiz-adv-x="1419" d="M707 1047l-164 -527h334l-164 527h-6zM1423 0h-381l-77 248h-510l-78 -248h-381l504 1393h422zM1135 1524h-299l-129 151l-125 -151h-299v20l249 297h353l250 -297v-20z"/>
    <glyph glyph-name="Atilde" unicode="Ã" horiz-adv-x="1419" d="M707 1047l-164 -527h334l-164 527h-6zM1423 0h-381l-77 248h-510l-78 -248h-381l504 1393h422zM324 1708q35 68 102 108q144 85 313 -10q35 -18 70 -33t82 -15q95 -1 147 67l56 -162q-44 -108 -169 -142q-84 -22 -145 -1q-61 22 -131 56t-122 35t-84 -17t-64 -54z"/>
    <glyph glyph-name="Adieresis" unicode="Ä" horiz-adv-x="1419" d="M707 1047l-164 -527h334l-164 527h-6zM1423 0h-381l-77 248h-510l-78 -248h-381l504 1393h422zM1147 1682q0 -78 -48 -124t-130 -46t-130 45q-48 46 -48 125t48 126t130 47t130 -47t48 -126zM629 1682q0 -78 -48 -124t-130 -46q-83 0 -131 45q-48 46 -48 125t48 126 t131 47q82 0 130 -47t48 -126z"/>
    <glyph glyph-name="Aring" unicode="Å" horiz-adv-x="1415" d="M629 1577q0 -35 21.5 -57.5t58 -22.5t58 22.5t21.5 57.5t-21.5 57.5t-58 22.5t-58 -22.5t-21.5 -57.5zM705 1026l-164 -506h333l-163 506h-6zM981 1575q0 -119 -82 -189l522 -1386h-381l-77 248h-510l-78 -248h-381l522 1386q-80 68 -80 188t75 188.5t197.5 68.5 t197.5 -68.5t75 -187.5z"/>
    <glyph glyph-name="AE" unicode="Æ" horiz-adv-x="2000" d="M936 520v563h-8l-316 -563h324zM1901 1393v-281h-617v-274h547v-281h-547v-276h623v-281h-971v248h-479l-146 -248h-370v20l817 1373h1143z"/>
    <glyph glyph-name="Ccedilla" unicode="Ç" horiz-adv-x="1245" d="M633 -285q67 0 67 37q0 29 -34 34t-91 5l-12 23l67 167q-226 37 -367 189q-181 195 -181 525t183 529t517 199q220 0 410 -90l-90 -270q-163 72 -317 73t-248 -121q-95 -123 -95 -319q0 -197 95 -318q95 -122 245 -122q90 0 161 17t159 57l90 -271q-170 -82 -376 -89 l-23 -54q133 -23 133 -152q0 -80 -60 -140t-166 -60q-108 0 -182 24l33 142q45 -15 82 -15z"/>
    <glyph glyph-name="Egrave" unicode="È" horiz-adv-x="1210" d="M1110 1393v-281h-616v-274h546v-281h-546v-276h622v-281h-971v1393h965zM317 1839h361l127 -295v-20h-287l-201 299v16z"/>
    <glyph glyph-name="Eacute" unicode="É" horiz-adv-x="1210" d="M1110 1393v-281h-616v-274h546v-281h-546v-276h622v-281h-971v1393h965zM483 1524v20l127 295h361v-16l-201 -299h-287z"/>
    <glyph glyph-name="Ecircumflex" unicode="Ê" horiz-adv-x="1210" d="M1110 1393v-281h-616v-274h546v-281h-546v-276h622v-281h-971v1393h965zM1059 1524h-299l-129 151l-125 -151h-299v20l250 297h352l250 -297v-20z"/>
    <glyph glyph-name="Edieresis" unicode="Ë" horiz-adv-x="1210" d="M1110 1393v-281h-616v-274h546v-281h-546v-276h622v-281h-971v1393h965zM1069 1682q0 -78 -48 -124t-130 -46t-130 45q-48 46 -48 125t48 126t130 47t130 -47t48 -126zM551 1682q0 -78 -48 -124t-130 -46t-130 45q-48 46 -48 125t48 126t130 47t130 -47t48 -126z"/>
    <glyph glyph-name="Igrave" unicode="Ì" horiz-adv-x="638" d="M494 0h-349v1393h349v-1393zM-23 1839h361l127 -295v-20h-287l-201 299v16z"/>
    <glyph glyph-name="Iacute" unicode="Í" horiz-adv-x="638" d="M494 0h-349v1393h349v-1393zM182 1524v20l127 295h361v-16l-201 -299h-287z"/>
    <glyph glyph-name="Icircumflex" unicode="Î" horiz-adv-x="638" d="M494 0h-349v1393h349v-1393zM743 1524h-299l-129 151l-125 -151h-299v20l250 297h353l249 -297v-20z"/>
    <glyph glyph-name="Idieresis" unicode="Ï" horiz-adv-x="638" d="M494 0h-349v1393h349v-1393zM575 1855q83 0 131 -47t48 -126q0 -78 -48 -124t-130 -46t-131 45q-48 46 -48 125t48 126t130 47zM-121 1682q0 79 48 126t130 47t130 -47q49 -47 49 -126q0 -78 -48 -124t-131 -46q-82 0 -130 45q-48 46 -48 125z"/>
    <glyph glyph-name="Eth" unicode="Ð" horiz-adv-x="1419" d="M592 281q225 0 302 96t77 319t-77 319.5t-302 96.5h-94v-287h202v-280h-202v-264h94zM150 545h-82v280h82v568h468q388 0 550.5 -174t162.5 -523t-162.5 -522.5t-550.5 -173.5h-468v545z"/>
    <glyph glyph-name="Ntilde" unicode="Ñ" horiz-adv-x="1538" d="M1044 539v854h349v-1393h-369l-526 854h-4v-854h-349v1393h371l524 -854h4zM383 1708q35 68 102 108q142 83 314 -10q35 -18 69 -33t82 -15q94 -1 148 67l55 -162q-45 -109 -169 -142q-83 -22 -145 -1q-61 22 -131 56t-122 35q-51 1 -83 -17t-65 -54z"/>
    <glyph glyph-name="Ograve" unicode="Ò" horiz-adv-x="1572" d="M82 695q0 151 42 284q86 272 349 387q133 57 313 57q347 0 534 -213q171 -193 171 -513t-179 -523t-526 -205q-180 0 -313 58q-262 112 -349 385q-42 132 -42 283zM442 696q0 -202 85 -321t259 -119q175 0 260 118q84 118 84 322q0 311 -186 407q-66 34 -158 34t-158 -34 q-131 -68 -167 -233q-19 -80 -19 -174zM479 1839h361l127 -295v-20h-287l-201 299v16z"/>
    <glyph glyph-name="Oacute" unicode="Ó" horiz-adv-x="1572" d="M82 695q0 151 42 284q86 272 349 387q133 57 313 57q347 0 534 -213q171 -193 171 -513t-179 -523t-526 -205q-180 0 -313 58q-262 112 -349 385q-42 132 -42 283zM442 696q0 -202 85 -321t259 -119q175 0 260 118q84 118 84 322q0 311 -186 407q-66 34 -158 34t-158 -34 q-131 -68 -167 -233q-19 -80 -19 -174zM645 1524v20l127 295h361v-16l-201 -299h-287z"/>
    <glyph glyph-name="Ocircumflex" unicode="Ô" horiz-adv-x="1572" d="M82 695q0 151 42 284q86 272 349 387q133 57 313 57q347 0 534 -213q171 -193 171 -513t-179 -523t-526 -205q-180 0 -313 58q-262 112 -349 385q-42 132 -42 283zM442 696q0 -202 85 -321t259 -119q175 0 260 118q84 118 84 322q0 311 -186 407q-66 34 -158 34t-158 -34 q-131 -68 -167 -233q-19 -80 -19 -174zM1214 1524h-299l-129 151l-124 -151h-300v20l250 297h353l249 -297v-20z"/>
    <glyph glyph-name="Otilde" unicode="Õ" horiz-adv-x="1572" d="M82 695q0 151 42 284q86 272 349 387q133 57 313 57q347 0 534 -213q171 -193 171 -513t-179 -523t-526 -205q-180 0 -313 58q-262 112 -349 385q-42 132 -42 283zM442 696q0 -202 85 -321t259 -119q175 0 260 118q84 118 84 322q0 311 -186 407q-66 34 -158 34t-158 -34 q-131 -68 -167 -233q-19 -80 -19 -174zM403 1708q35 68 103 108q141 83 313 -10q35 -18 70 -33t82 -15q95 -1 147 67l56 -162q-29 -72 -98 -111q-68 -39 -141 -40t-176 49t-153 50q-51 1 -83 -17t-64 -54z"/>
    <glyph glyph-name="Odieresis" unicode="Ö" horiz-adv-x="1572" d="M82 695q0 151 42 284q86 272 349 387q133 57 313 57q347 0 534 -213q171 -193 171 -513t-179 -523t-526 -205q-180 0 -313 58q-262 112 -349 385q-42 132 -42 283zM442 696q0 -202 85 -321t259 -119q175 0 260 118q84 118 84 322q0 311 -186 407q-66 34 -158 34t-158 -34 q-131 -68 -167 -233q-19 -80 -19 -174zM1227 1682q0 -78 -48 -124t-130 -46q-83 0 -131 45q-48 46 -48 125t48 126t131 47q82 0 130 -47t48 -126zM352 1682q0 79 48 126t130 47t130 -47t48 -126q0 -78 -48 -124t-130 -46t-130 45q-48 46 -48 125z"/>
    <glyph glyph-name="multiply" unicode="×" d="M604 733l340 340l176 -178l-340 -340l340 -338l-176 -176l-340 338l-340 -338l-176 176l338 338l-338 340l176 178z"/>
    <glyph glyph-name="Oslash" unicode="Ø" horiz-adv-x="1572" d="M776 1137q-165 0 -249.5 -119.5t-84.5 -285.5t35 -261l443 643q-62 23 -144 23zM1130 725q0 123 -49 231l-456 -665q70 -35 162 -35t157.5 34t107.5 93t60 139t18 203zM268 166q-186 194 -186 522q0 329 179.5 532t524.5 203q174 0 308 -55l71 105l185 -123l-70 -101 q211 -194 211 -553q0 -320 -180 -523.5t-525 -203.5q-191 0 -337 68l-74 -109l-187 123z"/>
    <glyph glyph-name="Ugrave" unicode="Ù" horiz-adv-x="1462" d="M475 596q0 -340 256 -340t256 340v797h346v-785q0 -471 -328 -596q-114 -43 -274 -43q-466 0 -568 369q-34 119 -34 270v785h346v-797zM379 1839h360l127 -295v-20h-286l-201 299v16z"/>
    <glyph glyph-name="Uacute" unicode="Ú" horiz-adv-x="1462" d="M475 596q0 -340 256 -340t256 340v797h346v-785q0 -471 -328 -596q-114 -43 -274 -43q-466 0 -568 369q-34 119 -34 270v785h346v-797zM590 1524v20l127 295h360v-16l-200 -299h-287z"/>
    <glyph glyph-name="Ucircumflex" unicode="Û" horiz-adv-x="1462" d="M475 596q0 -340 256 -340t256 340v797h346v-785q0 -471 -328 -596q-114 -43 -274 -43q-466 0 -568 369q-34 119 -34 270v785h346v-797zM1155 1524h-299l-129 151l-125 -151h-299v20l250 297h352l250 -297v-20z"/>
    <glyph glyph-name="Udieresis" unicode="Ü" horiz-adv-x="1462" d="M475 596q0 -340 256 -340t256 340v797h346v-785q0 -471 -328 -596q-114 -43 -274 -43q-466 0 -568 369q-34 119 -34 270v785h346v-797zM1167 1682q0 -78 -48 -124t-130 -46t-130 45q-48 46 -48 125t48 126t130 47t130 -47t48 -126zM649 1682q0 -78 -48 -124t-130 -46 t-130 45q-48 46 -48 125t48 126t130 47t130 -47t48 -126z"/>
    <glyph glyph-name="Yacute" unicode="Ý" horiz-adv-x="1318" d="M1323 1393v-21l-489 -827v-545h-349v545l-489 827v21h381l280 -541h5l280 541h381zM516 1524v20l127 295h361v-16l-201 -299h-287z"/>
    <glyph glyph-name="Thorn" unicode="Þ" horiz-adv-x="1241" d="M625 512q102 0 148 50t46 152.5t-45 153t-149 50.5h-131v-406h131zM145 0v1393h349v-195h186q264 0 383 -132.5t119 -348.5q0 -344 -181.5 -416t-320.5 -72h-186v-229h-349z"/>
    <glyph glyph-name="germandbls" unicode="ß" horiz-adv-x="1323" d="M819 1015q0 159 -137 159t-186.5 -53.5t-49.5 -188.5v-932h-335v911q0 262 148.5 397.5t387.5 135.5q238 0 376 -113t138 -303q0 -92 -41 -162.5t-108 -107.5v-4q173 -68 211.5 -175.5t38.5 -183.5q0 -221 -138.5 -323.5t-429.5 -102.5q-80 0 -119 6v269q38 -6 138 -6 t153.5 43t53.5 142t-63.5 138t-164.5 39h-84v248h60q63 0 107 42t44 125z"/>
    <glyph glyph-name="agrave" unicode="à" horiz-adv-x="1134" d="M377 315q0 -92 102 -92t187 58v135h-103q-186 0 -186 -101zM379 -31q-166 0 -247 86t-83 221q0 168 118 254t384 84h115v31q0 57 -39 81t-111 24q-156 0 -328 -66l-73 248q211 86 424 86t333 -100t121 -318v-354q0 -18 5 -24t24 -7h59v-223q-70 -15 -159 -16 q-90 -1 -141 30q-50 31 -79 88h-4q-53 -45 -139 -85t-180 -40zM219 1454h348l181 -299v-20h-295l-234 301v18z"/>
    <glyph glyph-name="aacute" unicode="á" horiz-adv-x="1134" d="M377 315q0 -92 102 -92t187 58v135h-103q-186 0 -186 -101zM379 -31q-166 0 -247 86t-83 221q0 168 118 254t384 84h115v31q0 57 -39 81t-111 24q-156 0 -328 -66l-73 248q211 86 424 86t333 -100t121 -318v-354q0 -18 5 -24t24 -7h59v-223q-70 -15 -159 -16 q-90 -1 -141 30q-50 31 -79 88h-4q-53 -45 -139 -85t-180 -40zM387 1135v20l180 299h348v-18l-233 -301h-295z"/>
    <glyph glyph-name="acircumflex" unicode="â" horiz-adv-x="1134" d="M377 315q0 -92 102 -92t187 58v135h-103q-186 0 -186 -101zM379 -31q-166 0 -247 86t-83 221q0 168 118 254t384 84h115v31q0 57 -39 81t-111 24q-156 0 -328 -66l-73 248q211 86 424 86t333 -100t121 -318v-354q0 -18 5 -24t24 -7h59v-223q-70 -15 -159 -16 q-90 -1 -141 30q-50 31 -79 88h-4q-53 -45 -139 -85t-180 -40zM932 1135h-268l-97 135l-92 -135h-268v20l182 299h361l182 -299v-20z"/>
    <glyph glyph-name="atilde" unicode="ã" horiz-adv-x="1134" d="M377 315q0 -92 102 -92t187 58v135h-103q-186 0 -186 -101zM379 -31q-166 0 -247 86t-83 221q0 168 118 254t384 84h115v31q0 57 -39 81t-111 24q-156 0 -328 -66l-73 248q211 86 424 86t333 -100t121 -318v-354q0 -18 5 -24t24 -7h59v-223q-70 -15 -159 -16 q-90 -1 -141 30q-50 31 -79 88h-4q-53 -45 -139 -85t-180 -40zM408 1479q64 1 105 -15q42 -16 77 -34q36 -18 70 -34t81 -16q94 -1 148 68l55 -162q-28 -69 -98 -110q-69 -41 -143 -41t-174 50q-41 19 -77 35t-81 15q-79 0 -142 -72l-55 168q35 68 102 108q68 40 132 40z "/>
    <glyph glyph-name="adieresis" unicode="ä" horiz-adv-x="1134" d="M377 315q0 -92 102 -92t187 58v135h-103q-186 0 -186 -101zM379 -31q-166 0 -247 86t-83 221q0 168 118 254t384 84h115v31q0 57 -39 81t-111 24q-156 0 -328 -66l-73 248q211 86 424 86t333 -100t121 -318v-354q0 -18 5 -24t24 -7h59v-223q-70 -15 -159 -16 q-90 -1 -141 30q-50 31 -79 88h-4q-53 -45 -139 -85t-180 -40zM625 1310q0 75 46 120t124 45t124 -45t46 -120t-46 -119t-124 -44t-124 44t-46 119zM168 1310q0 75 46 120t124 45t124 -45t46 -120t-46 -119t-124 -44t-124 44t-46 119z"/>
    <glyph glyph-name="aring" unicode="å" horiz-adv-x="1134" d="M377 315q0 -92 102 -92t187 58v135h-103q-186 0 -186 -101zM379 -31q-166 0 -247 86t-83 221q0 168 118 254t384 84h115v31q0 57 -39 81t-111 24q-156 0 -328 -66l-73 248q211 86 424 86t333 -100t121 -318v-354q0 -18 5 -24t24 -7h59v-223q-70 -15 -159 -16 q-90 -1 -141 30q-50 31 -79 88h-4q-53 -45 -139 -85t-180 -40zM303 1335q0 113 73 177q74 64 194 65q120 0 193 -65q73 -66 73 -178t-73 -176t-194 -64t-193 64t-73 177zM489 1335q1 -33 21 -53t59 -20t60 20q20 20 20 53t-20 53q-19 20 -59 21q-40 -1 -60 -21t-21 -53z"/>
    <glyph glyph-name="ae" unicode="æ" horiz-adv-x="1714" d="M537 410q-160 0 -160 -94t106 -93q84 0 138.5 54.5t54.5 132.5h-139zM1354 631q0 151 -168 151q-143 0 -174 -178h340q2 10 2 12v15zM536 1018q210 0 320 -119q128 119 344 119t335.5 -117.5t119.5 -304.5q0 -116 -15 -197h-628q14 -96 67 -129.5t177 -33.5t280 57 l68 -250q-181 -74 -396 -74q-274 0 -401 168q-61 -70 -156.5 -119t-220.5 -49t-253 49t-128 258q0 167 115.5 250.5t386.5 83.5h125v35q0 105 -158 105t-330 -66l-73 248q211 86 421 86z"/>
    <glyph glyph-name="ccedilla" unicode="ç" horiz-adv-x="962" d="M467 -285q65 0 68 37q0 29 -35 34t-90 5l-13 23l67 168q-159 29 -257 127q-141 139 -141 385t141 385t407 139q159 0 297 -53l-71 -252q-155 53 -261 33q-173 -33 -171 -252q1 -158 82 -216q53 -38 147 -38q95 0 203 36l71 -253q-124 -48 -261 -53l-23 -54 q133 -23 133 -152q0 -80 -59 -140t-167 -60t-182 24l33 142q45 -15 82 -15z"/>
    <glyph glyph-name="egrave" unicode="è" horiz-adv-x="1110" d="M254 1454h348l180 -299v-20h-295l-233 301v18zM582 782q-147 0 -174 -182h340q2 10 2 16v11q0 67 -38 111t-130 44zM1051 578q0 -102 -15 -183h-628q12 -91 65 -125t178 -34t281 57l67 -250q-181 -74 -395 -74q-267 0 -404 141q-136 141 -135 376q1 236 135 384t374 148 q241 0 359 -121q118 -120 118 -319z"/>
    <glyph glyph-name="eacute" unicode="é" horiz-adv-x="1110" d="M440 1135v20l181 299h348v-18l-234 -301h-295zM582 782q-147 0 -174 -182h340q2 10 2 16v11q0 67 -38 111t-130 44zM1051 578q0 -102 -15 -183h-628q12 -91 65 -125t178 -34t281 57l67 -250q-181 -74 -395 -74q-267 0 -404 141q-136 141 -135 376q1 236 135 384t374 148 q241 0 359 -121q118 -120 118 -319z"/>
    <glyph glyph-name="ecircumflex" unicode="ê" horiz-adv-x="1110" d="M952 1135h-268l-96 135l-92 -135h-269v20l183 299h360l182 -299v-20zM582 782q-147 0 -174 -182h340q2 10 2 16v11q0 67 -38 111t-130 44zM1051 578q0 -102 -15 -183h-628q12 -91 65 -125t178 -34t281 57l67 -250q-181 -74 -395 -74q-267 0 -404 141q-136 141 -135 376 q1 236 135 384t374 148q241 0 359 -121q118 -120 118 -319z"/>
    <glyph glyph-name="edieresis" unicode="ë" horiz-adv-x="1110" d="M649 1310q0 75 46 120t124 45t124 -45t46 -120t-46 -119t-124 -44t-124 44t-46 119zM362 1147q-78 0 -124 44t-45 119q0 75 46 120q45 45 123 45t124 -45t46 -120t-46 -119t-124 -44zM582 782q-147 0 -174 -182h340q2 10 2 16v11q0 67 -38 111t-130 44zM1051 578 q0 -102 -15 -183h-628q12 -91 65 -125t178 -34t281 57l67 -250q-181 -74 -395 -74q-267 0 -404 141q-136 141 -135 376q1 236 135 384t374 148q241 0 359 -121q118 -120 118 -319z"/>
    <glyph glyph-name="igrave" unicode="ì" horiz-adv-x="557" d="M-104 1454h348l180 -299v-20h-295l-233 301v18zM113 0v987h333v-987h-333z"/>
    <glyph glyph-name="iacute" unicode="í" horiz-adv-x="557" d="M141 1135v20l181 299h348v-18l-234 -301h-295zM111 0v987h333v-987h-333z"/>
    <glyph glyph-name="icircumflex" unicode="î" horiz-adv-x="559" d="M113 0v987h333v-987h-333zM645 1135h-268l-96 135l-93 -135h-268v20l182 299h361l182 -299v-20z"/>
    <glyph glyph-name="idieresis" unicode="ï" horiz-adv-x="559" d="M342 1310q0 75 46 120t124 45t124 -45t46 -120t-46 -119t-124 -44t-124 44t-46 119zM-115 1310q0 75 46 120t124 45t124 -45t46 -120t-46 -119t-124 -44t-124 44t-46 119zM113 0v987h333v-987h-333z"/>
    <glyph glyph-name="eth" unicode="ð" horiz-adv-x="1230" d="M408 481.5q0 -116.5 47 -180t159.5 -63.5t159.5 63.5t47 180t-47 180t-159.5 63.5t-159.5 -63.5t-47 -180zM1163 508q0 -241 -142.5 -390t-410.5 -149q-267 0 -405.5 140.5t-138.5 371.5q0 354 172 433t293 79t169 -37l2 5q-29 58 -102 137l-223 -70l-70 205l150 47 q-32 44 -135 133v21h370q55 -62 60 -68l182 55l70 -204l-119 -39q278 -377 278 -670z"/>
    <glyph glyph-name="ntilde" unicode="ñ" horiz-adv-x="1204" d="M611 750q-87 0 -165 -76v-674h-335v987h276l35 -94h4q41 43 118 84t191 41q179 0 273 -108t94 -300v-610h-336v590q0 78 -34 119t-121 41zM450 1479q64 1 106 -15t77 -34t69 -34t82 -16q94 -1 148 68l55 -162q-28 -69 -98 -110q-69 -41 -143 -41t-174 50q-40 19 -76 35 t-82 15q-79 0 -142 -72l-55 168q35 68 102 108t131 40z"/>
    <glyph glyph-name="ograve" unicode="ò" horiz-adv-x="1212" d="M1149 492q0 -226 -139 -375t-401 -148t-404 149t-142 376t142 376t403 148q139 0 241 -42q201 -84 267 -280q32 -96 33 -204zM406 494q0 -140 59 -198t145 -58t142 58q55 58 55 198t-55 197q-55 58 -144 59q-144 0 -187 -139q-15 -47 -15 -117zM250 1454h348l180 -299 v-20h-295l-233 301v18z"/>
    <glyph glyph-name="oacute" unicode="ó" horiz-adv-x="1212" d="M1149 492q0 -226 -139 -375t-401 -148t-404 149t-142 376t142 376t403 148q139 0 241 -42q201 -84 267 -280q32 -96 33 -204zM406 494q0 -140 59 -198t145 -58t142 58q55 58 55 198t-55 197q-55 58 -144 59q-144 0 -187 -139q-15 -47 -15 -117zM436 1135v20l180 299h349 v-18l-234 -301h-295z"/>
    <glyph glyph-name="ocircumflex" unicode="ô" horiz-adv-x="1212" d="M1149 492q0 -226 -139 -375t-401 -148t-404 149t-142 376t142 376t403 148q139 0 241 -42q201 -84 267 -280q32 -96 33 -204zM406 494q0 -140 59 -198t145 -58t142 58q55 58 55 198t-55 197q-55 58 -144 59q-144 0 -187 -139q-15 -47 -15 -117zM967 1135h-269l-96 135 l-92 -135h-268v20l182 299h360l183 -299v-20z"/>
    <glyph glyph-name="otilde" unicode="õ" horiz-adv-x="1212" d="M1149 492q0 -226 -139 -375t-401 -148t-404 149t-142 376t142 376t403 148q139 0 241 -42q201 -84 267 -280q32 -96 33 -204zM406 494q0 -140 59 -198t145 -58t142 58q55 58 55 198t-55 197q-55 58 -144 59q-144 0 -187 -139q-15 -47 -15 -117zM453 1479q63 1 105 -15 t77 -34t70 -34t81 -16q93 -1 148 68l55 -162q-28 -69 -98 -110q-69 -41 -143 -41t-174 50q-40 19 -76 35t-82 15q-79 0 -142 -72l-55 168q35 68 103 108t131 40z"/>
    <glyph glyph-name="odieresis" unicode="ö" horiz-adv-x="1212" d="M1149 492q0 -226 -139 -375t-401 -148t-404 149t-142 376t142 376t403 148q139 0 241 -42q201 -84 267 -280q32 -96 33 -204zM406 494q0 -140 59 -198t145 -58t142 58q55 58 55 198t-55 197q-55 58 -144 59q-144 0 -187 -139q-15 -47 -15 -117zM664 1310q0 75 46 120 t124 45t124 -45t46 -120t-46 -119t-124 -44t-124 44t-46 119zM207 1310q0 75 46 120t124 45t124 -45t46 -120t-46 -119t-124 -44t-124 44t-46 119z"/>
    <glyph glyph-name="divide" unicode="÷" d="M1126 682v-254h-1044v254h1044zM387 936q0 88 54 144q53 56 145 55q92 0 146 -56q54 -55 54 -143t-54 -144t-146 -56t-146 56t-53 144zM387 170q0 88 54 144q53 56 145 55q92 0 146 -56q54 -55 54 -143t-54 -144t-146 -56t-146 56t-53 144z"/>
    <glyph glyph-name="oslash" unicode="ø" horiz-adv-x="1212" d="M406 520q0 -62 4 -94l262 313q-74 24 -170 -14t-96 -205zM807 494q0 45 -6 81l-271 -325q37 -12 78 -12q88 0 143.5 58.5t55.5 197.5zM178 147q-115 136 -115 356q0 219 141.5 367t403.5 148q136 0 254 -49l72 86l160 -125l-66 -80q121 -148 121 -366t-139 -366.5 t-402 -148.5q-147 0 -266 54l-80 -97l-158 133z"/>
    <glyph glyph-name="ugrave" unicode="ù" horiz-adv-x="1204" d="M438 397q0 -79 34 -119t121 -40t165 75v674h336v-987h-277l-35 94h-4q-41 -43 -118 -84t-191 -41q-180 0 -273 108t-94 300v610h336v-590zM209 1454h348l180 -299v-20h-295l-233 301v18z"/>
    <glyph glyph-name="uacute" unicode="ú" horiz-adv-x="1204" d="M438 397q0 -79 34 -119t121 -40t165 75v674h336v-987h-277l-35 94h-4q-41 -43 -118 -84t-191 -41q-180 0 -273 108t-94 300v610h336v-590zM446 1135v20l181 299h348v-18l-234 -301h-295z"/>
    <glyph glyph-name="ucircumflex" unicode="û" horiz-adv-x="1204" d="M438 397q0 -79 34 -119t121 -40t165 75v674h336v-987h-277l-35 94h-4q-41 -43 -118 -84t-191 -41q-180 0 -273 108t-94 300v610h336v-590zM963 1135h-269l-96 135l-92 -135h-268v20l182 299h360l183 -299v-20z"/>
    <glyph glyph-name="udieresis" unicode="ü" horiz-adv-x="1204" d="M438 397q0 -79 34 -119t121 -40t165 75v674h336v-987h-277l-35 94h-4q-41 -43 -118 -84t-191 -41q-180 0 -273 108t-94 300v610h336v-590zM657 1310q0 75 46 120t124 45t124 -45t46 -120t-46 -119t-124 -44t-124 44t-46 119zM201 1310q0 75 46 120t124 45t124 -45 t46 -120t-46 -119t-124 -44t-124 44t-46 119z"/>
    <glyph glyph-name="yacute" unicode="ý" horiz-adv-x="1112" d="M256 -436q-78 0 -160 16v262q51 -10 115 -10q63 0 99 20t59 76l32 82l-397 957v20h340l213 -641h6l201 641h342v-20l-430 -1082q-70 -173 -175 -247t-245 -74zM432 1135v20l180 299h349v-18l-234 -301h-295z"/>
    <glyph glyph-name="thorn" unicode="þ" horiz-adv-x="1220" d="M612 748q-95 0 -166 -52v-405q69 -51 164 -51q201 0 201 254t-199 254zM711 -31q-146 0 -260 105h-5v-480h-335v1840h335v-521h5q39 35 101 70t159 35q213 0 327.5 -138.5t114.5 -386t-114.5 -386t-327.5 -138.5z"/>
    <glyph glyph-name="ydieresis" unicode="ÿ" horiz-adv-x="1112" d="M256 -436q-78 0 -160 16v262q51 -10 115 -10q63 0 99 20t59 76l32 82l-397 957v20h340l213 -641h6l201 641h342v-20l-430 -1082q-70 -173 -175 -247t-245 -74zM623 1310q0 75 46 120t124 45q77 0 123 -45t46 -120t-46 -119t-124 -44t-123 44q-46 44 -46 119zM166 1310 q0 75 46 120t124 45t124 -45t46 -120t-46 -119t-124 -44t-124 44t-46 119z"/>
    <glyph glyph-name="Amacron" unicode="Ā" horiz-adv-x="1419" d="M707 1047l-164 -527h334l-164 527h-6zM1423 0h-381l-77 248h-510l-78 -248h-381l504 1393h422zM395 1530v248h627v-248h-627z"/>
    <glyph glyph-name="amacron" unicode="ā" horiz-adv-x="1134" d="M377 315q0 -92 102 -92t187 58v135h-103q-186 0 -186 -101zM379 -31q-166 0 -247 86t-83 221q0 168 118 254t384 84h115v31q0 57 -39 81t-111 24q-156 0 -328 -66l-73 248q211 86 424 86t333 -100t121 -318v-354q0 -18 5 -24t24 -7h59v-223q-70 -15 -159 -16 q-90 -1 -141 30q-50 31 -79 88h-4q-53 -45 -139 -85t-180 -40zM252 1151v248h627v-248h-627z"/>
    <glyph glyph-name="Abreve" unicode="Ă" horiz-adv-x="1419" d="M707 1047l-164 -527h334l-164 527h-6zM1423 0h-381l-77 248h-510l-78 -248h-381l504 1393h422zM993 1864l101 -160q-73 -93 -133 -126q-118 -64 -252 -65q-251 0 -385 191l100 160q136 -90 284 -90q149 0 285 90z"/>
    <glyph glyph-name="abreve" unicode="ă" horiz-adv-x="1134" d="M377 315q0 -92 102 -92t187 58v135h-103q-186 0 -186 -101zM379 -31q-166 0 -247 86t-83 221q0 168 118 254t384 84h115v31q0 57 -39 81t-111 24q-156 0 -328 -66l-73 248q211 86 424 86t333 -100t121 -318v-354q0 -18 5 -24t24 -7h59v-223q-70 -15 -159 -16 q-90 -1 -141 30q-50 31 -79 88h-4q-53 -45 -139 -85t-180 -40zM565 1384q91 0 153 23t122 61l100 -159q-57 -70 -145 -122q-87 -52 -229 -52t-230 52t-146 122l101 159q59 -40 121 -62t153 -22z"/>
    <glyph glyph-name="Aogonek" unicode="Ą" horiz-adv-x="1419" d="M707 1047l-164 -527h334l-164 527h-6zM1178 -436q-135 0 -204 60t-69 155q0 138 129 217q4 2 8 5l-77 247h-510l-78 -248h-381l504 1393h422l501 -1393h-30q-97 -16 -135 -53t-37 -82q0 -63 82 -66q54 0 100 31l22 -221q-112 -45 -247 -45z"/>
    <glyph glyph-name="aogonek" unicode="ą" horiz-adv-x="1134" d="M377 315q0 -92 102 -92t187 58v135h-103q-186 0 -186 -101zM891 -436q-133 0 -192.5 60.5t-59.5 154.5q0 146 147 223q-55 29 -84 92h-4q-53 -45 -139 -85t-180 -40q-168 0 -249 87.5t-81 219.5q0 169 117 253.5t385 84.5h115v31q0 57 -39 81t-111 24q-156 0 -328 -66 l-73 248q211 86 424 86t333.5 -106.5t120.5 -333.5v-332q0 -18 5.5 -24.5t23.5 -6.5h59v-223q-20 -16 -72.5 -52t-52.5 -94q0 -57 58 -57q35 0 80 31l22 -211q-92 -45 -225 -45z"/>
    <glyph glyph-name="Cacute" unicode="Ć" horiz-adv-x="1245" d="M808 -31q-359 0 -542 198q-184 198 -184 528t183 529t517 199q220 0 410 -90l-90 -270q-163 72 -317 73t-248 -121q-95 -123 -95 -319q0 -197 95 -318q95 -122 245 -122q90 0 161 17t159 57l90 -271q-188 -90 -384 -90zM604 1524v20l127 295h361v-16l-201 -299h-287z"/>
    <glyph glyph-name="cacute" unicode="ć" horiz-adv-x="962" d="M66 494q0 246 141 385t407 139q159 0 297 -53l-71 -252q-155 53 -261 33q-173 -33 -171 -252q1 -158 82 -216q53 -38 147 -38q95 0 203 36l71 -253q-137 -52 -297 -54q-266 -1 -407 139t-141 386zM395 1135v20l180 299h349v-18l-234 -301h-295z"/>
    <glyph glyph-name="Ccircumflex" unicode="Ĉ" horiz-adv-x="1245" d="M808 -31q-359 0 -542 198q-184 198 -184 528t183 529t517 199q220 0 410 -90l-90 -270q-163 72 -317 73t-248 -121q-95 -123 -95 -319q0 -197 95 -318q95 -122 245 -122q90 0 161 17t159 57l90 -271q-188 -90 -384 -90zM1198 1524h-299l-129 151l-125 -151h-299v20 l250 297h352l250 -297v-20z"/>
    <glyph glyph-name="ccircumflex" unicode="ĉ" horiz-adv-x="962" d="M66 494q0 246 141 385t407 139q159 0 297 -53l-71 -252q-155 53 -261 33q-173 -33 -171 -252q1 -158 82 -216q53 -38 147 -38q95 0 203 36l71 -253q-137 -52 -297 -54q-266 -1 -407 139t-141 386zM930 1135h-268l-97 135l-92 -135h-268v20l182 299h361l182 -299v-20z"/>
    <glyph glyph-name="Cdotaccent" unicode="Ċ" horiz-adv-x="1245" d="M808 -31q-359 0 -542 198q-184 198 -184 528t183 529t517 199q220 0 410 -90l-90 -270q-163 72 -317 73t-248 -121q-95 -123 -95 -319q0 -197 95 -318q95 -122 245 -122q90 0 161 17t159 57l90 -271q-188 -90 -384 -90zM584 1683q0 74 46 126q46 53 140 53t140 -52 t46 -127q0 -73 -46 -125t-140 -52t-140 51q-46 52 -46 126z"/>
    <glyph glyph-name="cdotaccent" unicode="ċ" horiz-adv-x="962" d="M66 494q0 246 141 385t407 139q159 0 297 -53l-71 -252q-155 53 -261 33q-173 -33 -171 -252q1 -158 82 -216q53 -38 147 -38q95 0 203 36l71 -253q-137 -52 -297 -54q-266 -1 -407 139t-141 386zM379 1315q0 74 46 126t140 52q95 0 141 -52t46 -126t-46 -126t-140 -52 t-141 52q-46 52 -46 126z"/>
    <glyph glyph-name="Ccaron" unicode="Č" horiz-adv-x="1245" d="M808 -31q-359 0 -542 198q-184 198 -184 528t183 529t517 199q220 0 410 -90l-90 -270q-163 72 -317 73t-248 -121q-95 -123 -95 -319q0 -197 95 -318q95 -122 245 -122q90 0 161 17t159 57l90 -271q-188 -90 -384 -90zM344 1841h299l129 -151l125 151h299v-20l-250 -297 h-352l-250 297v20z"/>
    <glyph glyph-name="ccaron" unicode="č" horiz-adv-x="962" d="M66 494q0 246 141 385t407 139q159 0 297 -53l-71 -252q-155 53 -261 33q-173 -33 -171 -252q1 -158 82 -216q53 -38 147 -38q95 0 203 36l71 -253q-137 -52 -297 -54q-266 -1 -407 139t-141 386zM205 1454h268l96 -135l93 135h268v-20l-182 -299h-361l-182 299v20z"/>
    <glyph glyph-name="Dcaron" unicode="Ď" horiz-adv-x="1415" d="M588 281q225 0 301 94t77 320q1 225 -76 321t-302 96h-94v-831h94zM145 1393h469q387 0 550 -174t163 -523q0 -350 -163 -523t-550 -173h-469v1393zM236 1841h299l129 -151l124 151h299v-20l-249 -297h-353l-249 297v20z"/>
    <glyph glyph-name="dcaron" unicode="ď" horiz-adv-x="1245" d="M412 494q0 -256 202 -256q93 0 162 51v409q-67 50 -162 52q-202 0 -202 -256zM1112 1434v-1434h-276l-35 94h-4q-65 -60 -127 -91q-62 -32 -158 -34q-213 1 -328 139t-114 386q0 248 114 386q115 138 328 138q96 0 158 -35t102 -70h4v521h336zM1573 1393v-21l-141 -381 h-248v21l57 381h332z"/>
    <glyph glyph-name="Dcroat" unicode="Đ" horiz-adv-x="1419" d="M592 281q225 0 301 94t77 320q1 225 -76 321t-302 96h-94v-287h202v-280h-202v-264h94zM150 545h-82v280h82v568h468q386 0 550 -173t163 -523q0 -350 -163 -523q-163 -174 -550 -174h-468v545z"/>
    <glyph glyph-name="dcroat" unicode="đ" horiz-adv-x="1224" d="M614 750q-202 0 -202 -256t202 -256q93 0 162 51v409q-70 52 -162 52zM1112 1434v-97h86v-247h-86v-1090h-276l-35 94h-4q-64 -59 -128.5 -92t-156.5 -33q-213 0 -327.5 138.5t-114.5 386t114.5 386t327.5 138.5q96 0 158.5 -35t101.5 -70h4v177h-205v247h205v97h336z "/>
    <glyph glyph-name="Emacron" unicode="Ē" horiz-adv-x="1210" d="M1110 1393v-281h-616v-274h546v-281h-546v-276h622v-281h-971v1393h965zM317 1530v248h627v-248h-627z"/>
    <glyph glyph-name="emacron" unicode="ē" horiz-adv-x="1110" d="M276 1151v248h627v-248h-627zM582 782q-147 0 -174 -182h340q2 10 2 16v11q0 67 -38 111t-130 44zM1051 578q0 -102 -15 -183h-628q12 -91 65 -125t178 -34t281 57l67 -250q-181 -74 -395 -74q-267 0 -404 141q-136 141 -135 376q1 236 135 384t374 148q241 0 359 -121 q118 -120 118 -319z"/>
    <glyph glyph-name="Ebreve" unicode="Ĕ" horiz-adv-x="1210" d="M1110 1393v-281h-616v-274h546v-281h-546v-276h622v-281h-971v1393h965zM632 1774q150 0 283 90l101 -160q-73 -93 -133 -126q-118 -64 -252 -65q-251 0 -385 191l100 160q136 -90 286 -90z"/>
    <glyph glyph-name="ebreve" unicode="ĕ" horiz-adv-x="1110" d="M590 1384q92 0 153 23t121 61l101 -159q-57 -70 -145 -122t-230 -52t-230 52t-145 122l100 159q127 -84 275 -84zM582 782q-147 0 -174 -182h340q2 10 2 16v11q0 67 -38 111t-130 44zM1051 578q0 -102 -15 -183h-628q12 -91 65 -125t178 -34t281 57l67 -250 q-181 -74 -395 -74q-267 0 -404 141q-136 141 -135 376q1 236 135 384t374 148q241 0 359 -121q118 -120 118 -319z"/>
    <glyph glyph-name="Edotaccent" unicode="Ė" horiz-adv-x="1210" d="M1110 1393v-281h-616v-274h546v-281h-546v-276h622v-281h-971v1393h965zM444 1683q0 74 46 126q46 53 140 53t141 -52q46 -52 46 -127q0 -73 -46 -125t-140 -52q-95 0 -141 51q-46 52 -46 126z"/>
    <glyph glyph-name="edotaccent" unicode="ė" horiz-adv-x="1110" d="M401 1315q0 74 46 126q47 52 141 52t140 -52t46 -126t-46 -126t-140 -52t-141 52q-46 52 -46 126zM582 782q-147 0 -174 -182h340q2 10 2 16v11q0 67 -38 111t-130 44zM1051 578q0 -102 -15 -183h-628q12 -91 65 -125t178 -34t281 57l67 -250q-181 -74 -395 -74 q-267 0 -404 141q-136 141 -135 376q1 236 135 384t374 148q241 0 359 -121q118 -120 118 -319z"/>
    <glyph glyph-name="Eogonek" unicode="Ę" horiz-adv-x="1210" d="M901 -436q-135 0 -204 60t-68 155q0 140 129 217q3 2 7 4h-620v1393h965v-281h-616v-274h546v-281h-546v-276h622v-281q-98 -16 -135 -53t-37 -77q0 -68 82 -71q54 0 100 31l23 -221q-113 -45 -248 -45z"/>
    <glyph glyph-name="eogonek" unicode="ę" horiz-adv-x="1112" d="M582 782q-147 0 -174 -182h340q2 10 2 12v15q0 68 -38 111.5t-130 43.5zM524 -250q0 116 103 219h-23q-268 0 -403 139t-135 377t133 385.5t374 147.5t359.5 -120.5t118.5 -305.5q0 -96 -15 -197h-628q17 -132 98.5 -145.5t136.5 -13.5q133 0 289 57l67 -250 q-71 -43 -114 -85t-43 -106q0 -63 57 -63q37 0 80 31l22 -211q-92 -45 -249 -45t-192.5 74.5t-35.5 111.5z"/>
    <glyph glyph-name="Ecaron" unicode="Ě" horiz-adv-x="1210" d="M1110 1393v-281h-616v-274h546v-281h-546v-276h622v-281h-971v1393h965zM205 1841h299l129 -151l125 151h299v-20l-250 -297h-352l-250 297v20z"/>
    <glyph glyph-name="ecaron" unicode="ě" horiz-adv-x="1110" d="M227 1454h269l96 -135l92 135h268v-20l-182 -299h-360l-183 299v20zM582 782q-147 0 -174 -182h340q2 10 2 16v11q0 67 -38 111t-130 44zM1051 578q0 -102 -15 -183h-628q12 -91 65 -125t178 -34t281 57l67 -250q-181 -74 -395 -74q-267 0 -404 141q-136 141 -135 376 q1 236 135 384t374 148q241 0 359 -121q118 -120 118 -319z"/>
    <glyph glyph-name="Gcircumflex" unicode="Ĝ" horiz-adv-x="1439" d="M1333 780v-702q-109 -47 -263 -78t-312 -31q-158 -1 -287 53t-216 149q-175 191 -175 510t182 518q204 224 559 224q213 0 394 -65q54 -18 96 -39l-101 -268q-76 29 -171 57t-207 29q-302 0 -370 -266q-22 -81 -22 -175q0 -208 85 -324t261 -116q109 0 199 29v227 l-227 31v237h575zM1202 1524h-299l-129 151l-125 -151h-299v20l250 297h352l250 -297v-20z"/>
    <glyph glyph-name="gcircumflex" unicode="ĝ" horiz-adv-x="1216" d="M559 -168q109 0 160 46t51 159v53h-4q-39 -32 -100 -64q-62 -32 -164 -32q-204 0 -320 145t-115 364q1 220 115 367q114 148 324 148q109 0 172 -38t113 -87h4l34 94h277v-881q0 -286 -142 -414t-405 -128q-216 0 -405 110l100 240q131 -82 305 -82zM410 502 q0 -238 200 -240q90 0 160 53v381q-70 52 -164 53t-145 -61t-51 -186zM977 1135h-268l-97 135l-92 -135h-268v20l182 299h361l182 -299v-20z"/>
    <glyph glyph-name="Gbreve" unicode="Ğ" horiz-adv-x="1439" d="M1333 780v-702q-109 -47 -263 -78t-312 -31q-158 -1 -287 53t-216 149q-175 191 -175 510t182 518q204 224 559 224q213 0 394 -65q54 -18 96 -39l-101 -268q-76 29 -171 57t-207 29q-302 0 -370 -266q-22 -81 -22 -175q0 -208 85 -324t261 -116q109 0 199 29v227 l-227 31v237h575zM1061 1864l100 -160q-74 -94 -133 -126q-117 -63 -252 -65q-246 0 -385 191l101 160q136 -90 285 -90q148 0 284 90z"/>
    <glyph glyph-name="gbreve" unicode="ğ" horiz-adv-x="1216" d="M559 -168q109 0 160 46t51 159v53h-4q-39 -32 -100 -64q-62 -32 -164 -32q-204 0 -320 145t-115 364q1 220 115 367q114 148 324 148q109 0 172 -38t113 -87h4l34 94h277v-881q0 -286 -142 -414t-405 -128q-216 0 -405 110l100 240q131 -82 305 -82zM410 502 q0 -238 200 -240q90 0 160 53v381q-70 52 -164 53t-145 -61t-51 -186zM614 1384q92 0 154 23t121 61l100 -159q-57 -70 -145 -122t-230 -52t-229 52q-88 52 -145 122l100 159q58 -40 120 -62t154 -22z"/>
    <glyph glyph-name="Gdotaccent" unicode="Ġ" horiz-adv-x="1439" d="M1333 780v-702q-109 -47 -263 -78t-312 -31q-158 -1 -287 53t-216 149q-175 191 -175 510t182 518q204 224 559 224q213 0 394 -65q54 -18 96 -39l-101 -268q-76 29 -171 57t-207 29q-302 0 -370 -266q-22 -81 -22 -175q0 -208 85 -324t261 -116q109 0 199 29v227 l-227 31v237h575zM590 1683q0 74 46 126q46 53 140 53t140 -52t46 -127q0 -73 -46 -125t-140 -52t-140 51q-46 52 -46 126z"/>
    <glyph glyph-name="gdotaccent" unicode="ġ" horiz-adv-x="1216" d="M559 -168q109 0 160 46t51 159v53h-4q-39 -32 -100 -64q-62 -32 -164 -32q-204 0 -320 145t-115 364q1 220 115 367q114 148 324 148q109 0 172 -38t113 -87h4l34 94h277v-881q0 -286 -142 -414t-405 -128q-216 0 -405 110l100 240q131 -82 305 -82zM410 502 q0 -238 200 -240q90 0 160 53v381q-70 52 -164 53t-145 -61t-51 -186zM426 1315q0 74 46 126t140 52t140 -52t47 -126q0 -74 -46 -126q-47 -52 -141 -52t-140 52t-46 126z"/>
    <glyph glyph-name="uni0122" unicode="Ģ" horiz-adv-x="1439" d="M1333 780v-702q-109 -47 -263 -78t-312 -31q-158 -1 -287 53t-216 149q-175 191 -175 510t182 518q204 224 559 224q213 0 394 -65q54 -18 96 -39l-101 -268q-76 29 -171 57t-207 29q-302 0 -370 -266q-22 -81 -22 -175q0 -208 85 -324t261 -116q109 0 199 29v227 l-227 31v237h575zM967 -104v-21l-142 -381h-247v21l57 381h332z"/>
    <glyph glyph-name="uni0123" unicode="ģ" horiz-adv-x="1216" d="M559 -168q109 0 160 46t51 159v53h-4q-39 -32 -100 -64q-62 -32 -164 -32q-204 0 -320 145t-115 364q1 220 115 367q114 148 324 148q109 0 172 -38t113 -87h4l34 94h277v-881q0 -286 -142 -414t-405 -128q-216 0 -405 110l100 240q131 -82 305 -82zM410 502 q0 -238 200 -240q90 0 160 53v381q-70 52 -164 53t-145 -61t-51 -186zM444 1114v21l142 381h248v-21l-58 -381h-332z"/>
    <glyph glyph-name="Hcircumflex" unicode="Ĥ" horiz-adv-x="1503" d="M1010 557h-516v-557h-349v1393h349v-555h516v555h348v-1393h-348v557zM1178 1524h-299l-129 151l-125 -151h-299v20l249 297h353l250 -297v-20z"/>
    <glyph glyph-name="hcircumflex" unicode="ĥ" horiz-adv-x="1204" d="M742 1018q174 0 266 -108q94 -108 94 -300v-610h-336v590q0 78 -34 119t-121 41t-165 -76v-674h-335v1434h335v-521h5q117 105 291 105zM1028 1524h-299l-129 151l-125 -151h-299v20l250 297h352l250 -297v-20z"/>
    <glyph glyph-name="Hbar" unicode="Ħ" horiz-adv-x="1519" d="M1018 838v151h-516v-151h516zM1018 557h-516v-557h-348v989h-101v248h101v156h348v-156h516v156h348v-156h100v-248h-100v-989h-348v557z"/>
    <glyph glyph-name="hbar" unicode="ħ" horiz-adv-x="1206" d="M744 1018q174 0 267 -107.5t93 -300.5v-610h-336v590q0 78 -34 119t-122 41t-163 -76v-674h-336v1090h-86v247h86v97h336v-97h204v-247h-204v-177h4q117 105 291 105z"/>
    <glyph glyph-name="Itilde" unicode="Ĩ" horiz-adv-x="638" d="M494 0h-349v1393h349v-1393zM-68 1708q35 68 103 108q141 83 313 -10q35 -18 70 -33t82 -15q95 -1 147 67l55 -162q-44 -108 -168 -142q-84 -22 -145 -1q-61 22 -131 56t-122 35t-84 -17t-64 -54z"/>
    <glyph glyph-name="itilde" unicode="ĩ" horiz-adv-x="559" d="M0 1439q68 40 144 40t169 -49q35 -18 70 -34t82 -16q95 -1 147 68l56 -162q-29 -70 -98 -111q-70 -40 -144 -40t-173 50q-40 19 -77 35t-82 15q-80 0 -141 -72l-55 168q35 68 102 108zM113 0v987h333v-987h-333z"/>
    <glyph glyph-name="Imacron" unicode="Ī" horiz-adv-x="638" d="M494 0h-349v1393h349v-1393zM4 1530v248h627v-248h-627z"/>
    <glyph glyph-name="imacron" unicode="ī" horiz-adv-x="559" d="M-29 1151v248h627v-248h-627zM113 0v987h333v-987h-333z"/>
    <glyph glyph-name="Ibreve" unicode="Ĭ" horiz-adv-x="638" d="M494 0h-349v1393h349v-1393zM318 1774q148 0 284 90l100 -160q-74 -94 -133 -126q-117 -63 -252 -65q-246 0 -385 191l101 160q137 -90 285 -90z"/>
    <glyph glyph-name="ibreve" unicode="ĭ" horiz-adv-x="559" d="M283 1384q92 0 153 23t121 61l100 -159q-57 -70 -145 -122t-229 -52t-229 52t-146 122l100 159q127 -84 275 -84zM113 0v987h333v-987h-333z"/>
    <glyph glyph-name="Iogonek" unicode="Į" horiz-adv-x="638" d="M8 -221q0 138 129 217q4 2 8 5v1392h349v-1393q-96 -16 -134 -53q-37 -37 -36 -82q0 -63 82 -66q54 0 100 31l22 -221q-112 -45 -247 -45t-204 60t-69 155z"/>
    <glyph glyph-name="iogonek" unicode="į" horiz-adv-x="559" d="M94 1315q0 74 46 126t140 52t141 -52q46 -52 46 -126t-46 -126t-140 -52t-141 52q-46 52 -46 126zM113 987h333v-987h3q-21 -16 -45 -34q-87 -62 -89 -124q0 -53 66 -53q35 0 80 31l22 -211q-92 -45 -228 -45t-204 59t-67 146q0 125 129 231v987z"/>
    <glyph glyph-name="Idotaccent" unicode="İ" horiz-adv-x="638" d="M494 0h-349v1393h349v-1393zM131 1683q0 74 46 126q46 53 140 53q95 0 141 -52t46 -127q0 -73 -46 -125t-140 -52t-141 51q-46 52 -46 126z"/>
    <glyph glyph-name="dotlessi" unicode="ı" horiz-adv-x="555" d="M111 0v987h333v-987h-333z"/>
    <glyph glyph-name="IJ" unicode="Ĳ" horiz-adv-x="1652" d="M494 0h-349v1393h349v-1393zM1169 434v959h349v-981q0 -223 -130 -333t-366 -110q-137 0 -226 44t-155 100l150 249q115 -106 217 -106q162 0 161 178z"/>
    <glyph glyph-name="ij" unicode="ĳ" horiz-adv-x="1120" d="M94 1315q0 74 46 126t140 52t141 -52q46 -52 46 -126t-46 -126t-140 -52t-141 52q-46 52 -46 126zM113 0v987h333v-987h-333zM653 1315q0 74 46 126q47 52 141 52t140 -52t46 -126t-46 -126t-140 -52t-141 52q-46 52 -46 126zM569 -168q55 0 79 29t24 88v1038h336v-1016 q0 -217 -100 -312t-296 -95q-66 0 -143 14v264q45 -10 100 -10z"/>
    <glyph glyph-name="Jcircumflex" unicode="Ĵ" horiz-adv-x="1013" d="M368 256q162 0 162 178v959h349v-981q0 -223 -130 -333t-366 -110q-137 0 -226 44t-155 100l150 249q115 -106 216 -106zM1126 1524h-299l-129 151l-125 -151h-299v20l250 297h353l249 -297v-20z"/>
    <glyph glyph-name="jcircumflex" unicode="ĵ" horiz-adv-x="561" d="M10 -168q55 0 79 29t24 88v1038h336v-1016q1 -217 -99 -312t-297 -95q-66 0 -143 14v264q45 -10 100 -10zM645 1135h-268l-96 135l-93 -135h-268v20l182 299h361l182 -299v-20z"/>
    <glyph glyph-name="uni0136" unicode="Ķ" horiz-adv-x="1370" d="M494 614v-614h-349v1393h349v-668h4l467 668h376v-21l-503 -690l530 -662v-20h-395l-475 614h-4zM838 -104v-21l-142 -381h-247v21l57 381h332z"/>
    <glyph glyph-name="uni0137" unicode="ķ" horiz-adv-x="1146" d="M446 457v-457h-335v1434h335v-881h5l305 434h362v-20l-340 -453l359 -494v-20h-375l-311 457h-5zM762 -104v-21l-141 -381h-248v21l57 381h332z"/>
    <glyph glyph-name="kgreenlandic" unicode="ĸ" horiz-adv-x="1138" d="M446 424v-424h-335v987h335v-467h5l307 467h356v-14l-354 -484l368 -475v-14h-362l-315 424h-5z"/>
    <glyph glyph-name="Lacute" unicode="Ĺ" horiz-adv-x="1101" d="M494 1393v-1112h575v-281h-924v1393h349zM184 1524v20l127 295h361v-16l-201 -299h-287z"/>
    <glyph glyph-name="lacute" unicode="ĺ" horiz-adv-x="608" d="M106 1434h334v-1172q0 -23 8 -32t31 -9h88v-223q-101 -18 -188 -18q-150 0 -211 70t-62 231v1153zM131 1524v20l127 295h360v-16l-200 -299h-287z"/>
    <glyph glyph-name="uni013B" unicode="Ļ" horiz-adv-x="1101" d="M494 1393v-1112h575v-281h-924v1393h349zM786 -104v-21l-141 -381h-248v21l58 381h331z"/>
    <glyph glyph-name="uni013C" unicode="ļ" horiz-adv-x="608" d="M106 1434h334v-1172q0 -23 8 -32t31 -9h88v-223q-101 -18 -188 -18q-150 0 -211 70t-62 231v1153zM504 -104v-21l-142 -381h-247v21l57 381h332z"/>
    <glyph glyph-name="Lcaron" unicode="Ľ" horiz-adv-x="1107" d="M494 1393v-1112h575v-281h-924v1393h349zM1034 1393v-21l-141 -381h-248v21l57 381h332z"/>
    <glyph glyph-name="lcaron" unicode="ľ" horiz-adv-x="628" d="M106 1434h334v-1172q0 -23 8 -32t31 -9h88v-223q-101 -18 -188 -18q-150 0 -211 70t-62 231v1153zM901 1393v-21l-141 -381h-248v21l57 381h332z"/>
    <glyph glyph-name="Ldot" unicode="Ŀ" horiz-adv-x="1155" d="M494 1393v-1112h575v-281h-924v1393h349zM646 746q0 88 54 144t146 57q92 0 146 -56q54 -57 54 -145t-54 -144t-146 -56t-146 56t-54 144z"/>
    <glyph glyph-name="ldot" unicode="ŀ" horiz-adv-x="913" d="M106 1434h334v-1172q0 -23 8 -32t31 -9h88v-223q-101 -18 -188 -18q-150 0 -211 70t-62 231v1153zM504 728q0 88 54 144t146 56t147 -56q54 -56 54 -144t-54 -144t-146 -56t-147 56q-54 56 -54 144z"/>
    <glyph glyph-name="Lslash" unicode="Ł" horiz-adv-x="1128" d="M520 1393v-506l268 127h21v-289l-289 -137v-307h576v-281h-924v422l-100 -47h-21v289l121 57v672h348z"/>
    <glyph glyph-name="lslash" unicode="ł" horiz-adv-x="731" d="M475 -20q-150 0 -211 70.5t-61 230.5v153l-111 -53h-20v291l131 61v701h334v-541l147 72h21v-291l-168 -80v-332q0 -23 8 -32t30 -9h89v-223q-101 -18 -189 -18z"/>
    <glyph glyph-name="Nacute" unicode="Ń" horiz-adv-x="1538" d="M1044 539v854h349v-1393h-369l-526 854h-4v-854h-349v1393h371l524 -854h4zM614 1524v20l127 295h361v-16l-201 -299h-287z"/>
    <glyph glyph-name="nacute" unicode="ń" horiz-adv-x="1204" d="M611 750q-87 0 -165 -76v-674h-335v987h276l35 -94h4q41 43 118 84t191 41q179 0 273 -108t94 -300v-610h-336v590q0 78 -34 119t-121 41zM471 1135v20l180 299h348v-18l-233 -301h-295z"/>
    <glyph glyph-name="uni0145" unicode="Ņ" horiz-adv-x="1538" d="M1044 539v854h349v-1393h-369l-526 854h-4v-854h-349v1393h371l524 -854h4zM934 -104v-21l-141 -381h-248v21l57 381h332z"/>
    <glyph glyph-name="uni0146" unicode="ņ" horiz-adv-x="1204" d="M611 750q-87 0 -165 -76v-674h-335v987h276l35 -94h4q41 43 118 84t191 41q179 0 273 -108t94 -300v-610h-336v590q0 78 -34 119t-121 41zM770 -104v-21l-141 -381h-248v21l57 381h332z"/>
    <glyph glyph-name="Ncaron" unicode="Ň" horiz-adv-x="1538" d="M1044 539v854h349v-1393h-369l-526 854h-4v-854h-349v1393h371l524 -854h4zM342 1841h299l129 -151l125 151h299v-20l-250 -297h-352l-250 297v20z"/>
    <glyph glyph-name="ncaron" unicode="ň" horiz-adv-x="1204" d="M611 750q-87 0 -165 -76v-674h-335v987h276l35 -94h4q41 43 118 84t191 41q179 0 273 -108t94 -300v-610h-336v590q0 78 -34 119t-121 41zM240 1454h268l96 -135l92 135h269v-20l-183 -299h-360l-182 299v20z"/>
    <glyph glyph-name="napostrophe" unicode="ŉ" horiz-adv-x="1206" d="M612 750q-88 0 -163 -76v-674h-336v987h276l35 -94h4q41 43 118 84t191 41q179 0 273 -108t94 -300v-610h-336v590q0 78 -34 119t-122 41zM299 1379v-18l-128 -346h-226v18l52 346h302z"/>
    <glyph glyph-name="Eng" unicode="Ŋ" horiz-adv-x="1538" d="M1047 -8v8l-549 854h-4v-854h-349v1393h371l524 -854h4v854h349v-1454q0 -184 -100.5 -279.5t-291.5 -95.5q-100 0 -186 16v281q50 -11 106 -11t91 30t35 112z"/>
    <glyph glyph-name="eng" unicode="ŋ" horiz-adv-x="1204" d="M611 748q-87 0 -165 -76v-672h-335v987h276l35 -94h4q41 43 118 84t191 41q180 0 273.5 -107.5t93.5 -300.5v-639q0 -217 -99.5 -312t-295.5 -95q-67 0 -144 14v264q45 -10 101 -10t79 28.5t23 88.5v639q0 78 -34 119t-121 41z"/>
    <glyph glyph-name="Omacron" unicode="Ō" horiz-adv-x="1572" d="M82 695q0 151 42 284q86 272 349 387q133 57 313 57q347 0 534 -213q171 -193 171 -513t-179 -523t-526 -205q-180 0 -313 58q-262 112 -349 385q-42 132 -42 283zM442 696q0 -202 85 -321t259 -119q175 0 260 118q84 118 84 322q0 311 -186 407q-66 34 -158 34t-158 -34 q-131 -68 -167 -233q-19 -80 -19 -174zM475 1530v248h627v-248h-627z"/>
    <glyph glyph-name="omacron" unicode="ō" horiz-adv-x="1212" d="M1149 492q0 -226 -139 -375t-401 -148t-404 149t-142 376t142 376t403 148q139 0 241 -42q201 -84 267 -280q32 -96 33 -204zM406 494q0 -140 59 -198t145 -58t142 58q55 58 55 198t-55 197q-55 58 -144 59q-144 0 -187 -139q-15 -47 -15 -117zM291 1151v248h627v-248 h-627z"/>
    <glyph glyph-name="Obreve" unicode="Ŏ" horiz-adv-x="1572" d="M82 695q0 151 42 284q86 272 349 387q133 57 313 57q347 0 534 -213q171 -193 171 -513t-179 -523t-526 -205q-180 0 -313 58q-262 112 -349 385q-42 132 -42 283zM442 696q0 -202 85 -321t259 -119q175 0 260 118q84 118 84 322q0 311 -186 407q-66 34 -158 34t-158 -34 q-131 -68 -167 -233q-19 -80 -19 -174zM1073 1864l101 -160q-73 -93 -133 -126q-118 -64 -253 -65q-246 0 -385 191l101 160q136 -90 284 -90q149 0 285 90z"/>
    <glyph glyph-name="obreve" unicode="ŏ" horiz-adv-x="1212" d="M1149 492q0 -226 -139 -375t-401 -148t-404 149t-142 376t142 376t403 148q139 0 241 -42q201 -84 267 -280q32 -96 33 -204zM406 494q0 -140 59 -198t145 -58t142 58q55 58 55 198t-55 197q-55 58 -144 59q-144 0 -187 -139q-15 -47 -15 -117zM604 1384q92 0 154 23 t121 61l100 -159q-57 -70 -145 -122t-230 -52t-229 52q-88 52 -146 122l101 159q58 -40 120 -62t154 -22z"/>
    <glyph glyph-name="Ohungarumlaut" unicode="Ő" horiz-adv-x="1572" d="M82 695q0 151 42 284q86 272 349 387q133 57 313 57q347 0 534 -213q171 -193 171 -513t-179 -523t-526 -205q-180 0 -313 58q-262 112 -349 385q-42 132 -42 283zM442 696q0 -202 85 -321t259 -119q175 0 260 118q84 118 84 322q0 311 -186 407q-66 34 -158 34t-158 -34 q-131 -68 -167 -233q-19 -80 -19 -174zM891 1524v20l182 297h348v-20l-256 -297h-274zM408 1524v20l180 297h348v-20l-254 -297h-274z"/>
    <glyph glyph-name="ohungarumlaut" unicode="ő" horiz-adv-x="1212" d="M1149 492q0 -226 -139 -375t-401 -148t-404 149t-142 376t142 376t403 148q139 0 241 -42q201 -84 267 -280q32 -96 33 -204zM406 494q0 -140 59 -198t145 -58t142 58q55 58 55 198t-55 197q-55 58 -144 59q-144 0 -187 -139q-15 -47 -15 -117zM682 1135v20l182 299h348 v-18l-235 -301h-295zM199 1135v20l180 299h348v-18l-233 -301h-295z"/>
    <glyph glyph-name="OE" unicode="Œ" horiz-adv-x="2078" d="M786 1137q-175 0 -259.5 -119.5t-84.5 -375t126 -321t243 -65.5t203 55v770q-86 54 -228 54v2zM262 172.5q-180 203.5 -180 523.5t179.5 523.5t524.5 203.5q131 0 236 -30h956v-281h-616v-274h547v-281h-547v-276h623v-281h-967q-137 -31 -232 -31q-344 0 -524 203.5z "/>
    <glyph glyph-name="oe" unicode="œ" horiz-adv-x="1859" d="M1329 782q-147 0 -174 -182h340q2 10 2 12v15q0 68 -38 111.5t-130 43.5zM406 494q0 -139 59 -197.5t145 -58.5t141.5 58t55.5 197.5t-55.5 198t-143.5 58.5q-143 0 -172.5 -93t-29.5 -163zM973 125q-128 -156 -377 -156q-250 0 -391.5 149t-141.5 376q0 228 141.5 376 t391.5 148q249 0 379 -160q115 160 350 160t354 -119.5t119 -306.5q0 -102 -14 -197h-629q17 -132 98.5 -145.5t137.5 -13.5q133 0 288 57l68 -250q-181 -74 -395 -74q-263 0 -379 156z"/>
    <glyph glyph-name="Racute" unicode="Ŕ" horiz-adv-x="1390" d="M748 801q163 -1 163 155t-163 156h-254v-311h254zM145 0v1393h629q268 0 384 -115t116 -320q0 -156 -75 -260t-218 -143l362 -522v-33h-378l-340 520h-131v-520h-349zM514 1524v20l127 295h360v-16l-200 -299h-287z"/>
    <glyph glyph-name="racute" unicode="ŕ" horiz-adv-x="796" d="M678 1018q54 0 94 -10l-22 -306q-145 19 -214 -6q-69 -24 -90 -47v-649h-335v987h276l49 -113h4q29 60 80 102t158 42zM248 1135v20l180 299h348v-18l-233 -301h-295z"/>
    <glyph glyph-name="uni0156" unicode="Ŗ" horiz-adv-x="1390" d="M748 801q163 -1 163 155t-163 156h-254v-311h254zM145 0v1393h629q268 0 384 -115t116 -320q0 -156 -75 -260t-218 -143l362 -522v-33h-378l-340 520h-131v-520h-349zM868 -104v-21l-141 -381h-248v21l58 381h331z"/>
    <glyph glyph-name="uni0157" unicode="ŗ" horiz-adv-x="796" d="M678 1018q54 0 94 -10l-22 -306q-145 19 -214 -6q-69 -24 -90 -47v-649h-335v987h276l49 -113h4q29 60 80 102t158 42zM446 -104v-21l-141 -381h-248v21l58 381h331z"/>
    <glyph glyph-name="Rcaron" unicode="Ř" horiz-adv-x="1390" d="M748 801q163 -1 163 155t-163 156h-254v-311h254zM145 0v1393h629q268 0 384 -115t116 -320q0 -156 -75 -260t-218 -143l362 -522v-33h-378l-340 520h-131v-520h-349zM236 1841h299l129 -151l124 151h299v-20l-249 -297h-353l-249 297v20z"/>
    <glyph glyph-name="rcaron" unicode="ř" horiz-adv-x="798" d="M680 1018q54 0 94 -10l-22 -306q-145 19 -214 -6q-69 -24 -89 -47v-649h-336v987h276l49 -113h4q29 60 80 102t158 42zM68 1454h268l96 -135l92 135h269v-20l-183 -299h-360l-182 299v20z"/>
    <glyph glyph-name="Sacute" unicode="Ś" horiz-adv-x="1179" d="M623 1143q-86 0 -129 -35t-43 -86q-1 -51 23 -83t91 -54l146 -47q225 -76 316 -161q91 -86 89 -247q0 -225 -148 -343t-391 -118t-511 121l96 275q94 -47 191 -81t212 -34q195 0 195 133q0 57 -42 89t-151 67l-145 47q-174 53 -251 153t-77 242q0 201 134 322t388 121 t447 -91l-96 -274q-178 84 -344 84zM467 1524v20l127 295h360v-16l-200 -299h-287z"/>
    <glyph glyph-name="sacute" unicode="ś" horiz-adv-x="993" d="M489 223q125 0 123 64q0 29 -29 43q-30 14 -98 28l-110 23q-294 56 -291 303q0 158 115 246t325 88q119 0 205 -18t180 -56l-88 -246q-149 64 -297 66q-118 0 -116 -59q0 -25 24 -39t90 -29l109 -23q301 -64 301 -307q0 -166 -119 -252t-335 -86t-425 101l92 245 q184 -92 344 -92zM332 1135v20l180 299h348v-18l-233 -301h-295z"/>
    <glyph glyph-name="Scircumflex" unicode="Ŝ" horiz-adv-x="1179" d="M623 1143q-86 0 -129 -35t-43 -86q-1 -51 23 -83t91 -54l146 -47q225 -76 316 -161q91 -86 89 -247q0 -225 -148 -343t-391 -118t-511 121l96 275q94 -47 191 -81t212 -34q195 0 195 133q0 57 -42 89t-151 67l-145 47q-174 53 -251 153t-77 242q0 201 134 322t388 121 t447 -91l-96 -274q-178 84 -344 84zM1038 1524h-299l-129 151l-125 -151h-299v20l250 297h352l250 -297v-20z"/>
    <glyph glyph-name="scircumflex" unicode="ŝ" horiz-adv-x="993" d="M489 223q125 0 123 64q0 29 -29 43q-30 14 -98 28l-110 23q-294 56 -291 303q0 158 115 246t325 88q119 0 205 -18t180 -56l-88 -246q-149 64 -297 66q-118 0 -116 -59q0 -25 24 -39t90 -29l109 -23q301 -64 301 -307q0 -166 -119 -252t-335 -86t-425 101l92 245 q184 -92 344 -92zM862 1135h-268l-96 135l-92 -135h-269v20l182 299h361l182 -299v-20z"/>
    <glyph glyph-name="Scedilla" unicode="Ş" horiz-adv-x="1181" d="M496 -285q67 0 67 37q0 29 -35 34t-90 5l-12 23l63 158q-192 13 -423 118l96 275q94 -47 191 -81t212 -34q195 0 195 133q0 57 -42 89t-151 67l-145 47q-174 53 -251 153t-77 242q0 201 134 322t388 121t447 -91l-96 -274q-178 84 -344 84q-86 0 -129 -35t-43 -86 q-1 -51 23 -83t91 -54l146 -47q225 -76 316 -161q91 -86 89 -247q0 -225 -148 -343q-110 -87 -286 -110l-27 -61q133 -23 133 -152q0 -82 -59 -141t-167 -59q-107 0 -181 24l33 142q45 -15 82 -15z"/>
    <glyph glyph-name="scedilla" unicode="ş" horiz-adv-x="993" d="M489 223q125 0 123 64q0 29 -29 43q-30 14 -98 28l-110 23q-294 56 -291 303q0 158 115 246t325 88q119 0 205 -18t180 -56l-88 -246q-149 64 -297 66q-118 0 -116 -59q0 -25 24 -39t90 -29l109 -23q301 -64 301 -307q0 -166 -119 -252q-87 -63 -220 -80l-26 -59 q133 -23 133 -152q0 -82 -59 -141t-166 -59t-182 24l33 142q45 -15 82 -15q67 0 67 37q0 29 -35 34t-90 5l-12 23l63 159q-176 14 -348 97l92 245q184 -92 344 -92z"/>
    <glyph glyph-name="Scaron" unicode="Š" horiz-adv-x="1179" d="M623 1143q-86 0 -129 -35t-43 -86q-1 -51 23 -83t91 -54l146 -47q225 -76 316 -161q91 -86 89 -247q0 -225 -148 -343t-391 -118t-511 121l96 275q94 -47 191 -81t212 -34q195 0 195 133q0 57 -42 89t-151 67l-145 47q-174 53 -251 153t-77 242q0 201 134 322t388 121 t447 -91l-96 -274q-178 84 -344 84zM186 1841h299l129 -151l125 151h299v-20l-250 -297h-352l-250 297v20z"/>
    <glyph glyph-name="scaron" unicode="š" horiz-adv-x="993" d="M489 223q125 0 123 64q0 29 -29 43q-30 14 -98 28l-110 23q-294 56 -291 303q0 158 115 246t325 88q119 0 205 -18t180 -56l-88 -246q-149 64 -297 66q-118 0 -116 -59q0 -25 24 -39t90 -29l109 -23q301 -64 301 -307q0 -166 -119 -252t-335 -86t-425 101l92 245 q184 -92 344 -92zM135 1454h268l97 -135l92 135h268v-20l-182 -299h-361l-182 299v20z"/>
    <glyph glyph-name="uni0162" unicode="Ţ" horiz-adv-x="1181" d="M489 -285q68 0 68 37q0 29 -35 34t-90 5l-12 23l74 186h-78v1112h-381v281h1112v-281h-383v-1112h-78l-37 -84q133 -23 133 -152q0 -82 -59 -141t-167 -59q-107 0 -181 24l33 142q45 -15 81 -15z"/>
    <glyph glyph-name="uni0163" unicode="ţ" horiz-adv-x="897" d="M209 733h-182v201l182 53v230h336v-230h295v-254h-295v-385q0 -112 121 -110q71 0 163 30v-266q-110 -28 -234 -32l-24 -54q133 -23 134 -152q1 -80 -59 -140t-167 -60t-182 24l33 142q45 -15 82 -15q67 0 67 37q0 29 -35 34t-90 5l-12 23l69 173q-205 53 -202 298v448z "/>
    <glyph glyph-name="Tcaron" unicode="Ť" horiz-adv-x="1181" d="M1147 1393v-281h-383v-1112h-348v1112h-381v281h1112zM160 1841h299l129 -151l125 151h299v-20l-250 -297h-352l-250 297v20z"/>
    <glyph glyph-name="tcaron" unicode="ť" horiz-adv-x="897" d="M209 733h-182v201l182 53v230h336v-230h295v-254h-295v-385q0 -112 121 -110q71 0 163 30v-266q-122 -31 -236 -32q-115 0 -179 16q-208 53 -205 299v448zM999 1377v-18l-127 -342h-223v18l52 342h298z"/>
    <glyph glyph-name="Tbar" unicode="Ŧ" horiz-adv-x="1179" d="M762 569v-569h-346v569h-221v248h221v295h-381v281h1112v-281h-385v-295h223v-248h-223z"/>
    <glyph glyph-name="tbar" unicode="ŧ" horiz-adv-x="897" d="M590 -31q-111 0 -246 34.5t-135 281.5v90h-129v248h129v110h-182v201l182 53v230h336v-230h295v-254h-295v-110h162v-248h-162v-27q0 -110 121 -110q71 0 163 30v-266q-128 -33 -239 -33z"/>
    <glyph glyph-name="Utilde" unicode="Ũ" horiz-adv-x="1462" d="M475 596q0 -340 256 -340t256 340v797h346v-785q0 -471 -328 -596q-114 -43 -274 -43q-466 0 -568 369q-34 119 -34 270v785h346v-797zM344 1708q35 68 102 108q142 83 314 -10q36 -18 70 -33t81 -15q94 -1 148 67l55 -162q-45 -109 -169 -142q-83 -22 -145 -1 q-61 22 -131 56t-122 35q-51 1 -83 -17t-65 -54z"/>
    <glyph glyph-name="utilde" unicode="ũ" horiz-adv-x="1204" d="M438 397q0 -79 34 -119t121 -40t165 75v674h336v-987h-277l-35 94h-4q-41 -43 -118 -84t-191 -41q-180 0 -273 108t-94 300v610h336v-590zM446 1479q64 1 106 -15t77 -34t69 -34t82 -16q94 -1 148 68l55 -162q-28 -69 -98 -110q-69 -41 -143 -41t-174 50q-40 19 -76 35 t-82 15q-79 0 -142 -72l-55 168q35 68 102 108t131 40z"/>
    <glyph glyph-name="Umacron" unicode="Ū" horiz-adv-x="1462" d="M475 596q0 -340 256 -340t256 340v797h346v-785q0 -471 -328 -596q-114 -43 -274 -43q-466 0 -568 369q-34 119 -34 270v785h346v-797zM416 1530v248h626v-248h-626z"/>
    <glyph glyph-name="umacron" unicode="ū" horiz-adv-x="1204" d="M438 397q0 -79 34 -119t121 -40t165 75v674h336v-987h-277l-35 94h-4q-41 -43 -118 -84t-191 -41q-180 0 -273 108t-94 300v610h336v-590zM287 1151v248h626v-248h-626z"/>
    <glyph glyph-name="Ubreve" unicode="Ŭ" horiz-adv-x="1462" d="M475 596q0 -340 256 -340t256 340v797h346v-785q0 -471 -328 -596q-114 -43 -274 -43q-466 0 -568 369q-34 119 -34 270v785h346v-797zM727 1774q149 0 285 90l100 -160q-74 -94 -133 -126q-117 -63 -252 -65q-251 0 -385 191l100 160q136 -90 285 -90z"/>
    <glyph glyph-name="ubreve" unicode="ŭ" horiz-adv-x="1204" d="M438 397q0 -79 34 -119t121 -40t165 75v674h336v-987h-277l-35 94h-4q-41 -43 -118 -84t-191 -41q-180 0 -273 108t-94 300v610h336v-590zM598 1384q92 0 154 23t120 61l101 -159q-57 -70 -145 -122t-230 -52q-141 0 -229 52t-146 122l101 159q58 -40 120 -62t154 -22z "/>
    <glyph glyph-name="Uring" unicode="Ů" horiz-adv-x="1462" d="M475 596q0 -340 256 -340t256 340v797h346v-785q0 -471 -328 -596q-114 -43 -274 -43q-466 0 -568 369q-34 119 -34 270v785h346v-797zM455 1712q-1 118 75 184t199 66t199 -67t76 -183t-76 -184q-76 -66 -199 -66t-199 66t-75 184zM647 1712q0 -35 23 -55q24 -21 60 -21 t58 20t23 56q0 35 -23 55q-24 21 -60 21t-58 -20t-23 -56z"/>
    <glyph glyph-name="uring" unicode="ů" horiz-adv-x="1204" d="M438 397q0 -79 34 -119t121 -40t165 75v674h336v-987h-277l-35 94h-4q-41 -43 -118 -84t-191 -41q-180 0 -273 108t-94 300v610h336v-590zM334 1335q0 113 73 177t193 65q120 0 194 -65q72 -66 72 -178t-72 -176t-194 -64t-194 64t-72 177zM520 1335q0 -33 20 -53t60 -20 q39 0 59 20t21 53q0 33 -20 53t-60 21q-40 -1 -60 -21t-20 -53z"/>
    <glyph glyph-name="Uhungarumlaut" unicode="Ű" horiz-adv-x="1462" d="M475 596q0 -340 256 -340t256 340v797h346v-785q0 -471 -328 -596q-114 -43 -274 -43q-466 0 -568 369q-34 119 -34 270v785h346v-797zM809 1524v20l182 297h348v-20l-256 -297h-274zM326 1524v20l180 297h348v-20l-254 -297h-274z"/>
    <glyph glyph-name="uhungarumlaut" unicode="ű" horiz-adv-x="1204" d="M438 397q0 -79 34 -119t121 -40t165 75v674h336v-987h-277l-35 94h-4q-41 -43 -118 -84t-191 -41q-180 0 -273 108t-94 300v610h336v-590zM686 1135v20l182 299h349v-18l-236 -301h-295zM203 1135v20l180 299h348v-18l-233 -301h-295z"/>
    <glyph glyph-name="Uogonek" unicode="Ų" horiz-adv-x="1462" d="M747 -436q-135 0 -203 60t-69 155q0 127 106 201q-334 55 -418 358q-34 119 -34 270v785h346v-797q0 -340 256 -340t256 340v797h346v-785q0 -550 -446 -627q-39 -15 -68 -43t-28 -73q0 -63 81 -66q54 0 101 31l22 -221q-113 -45 -248 -45z"/>
    <glyph glyph-name="uogonek" unicode="ų" horiz-adv-x="1204" d="M900 -436q-136 0 -204 59t-68 145t54 154t123 111l-23 61h-4q-41 -43 -118 -84t-191 -41q-180 0 -273 108t-94 300v610h336v-590q0 -79 34 -119t121 -40t165 75v674h336v-987q-20 -16 -44 -34q-89 -65 -89 -124q0 -53 65 -53q35 0 80 31l22 -211q-92 -45 -228 -45z"/>
    <glyph glyph-name="Wcircumflex" unicode="Ŵ" horiz-adv-x="2107" d="M2087 1393v-21l-371 -1372h-426l-235 975h-4l-234 -975h-426l-371 1372v21h375l211 -985h4l236 985h416l235 -985h4l211 985h375zM1483 1524h-299l-129 151l-125 -151h-299v20l250 297h352l250 -297v-20z"/>
    <glyph glyph-name="wcircumflex" unicode="ŵ" horiz-adv-x="1744" d="M25 987h333l144 -643h4l180 643h373l180 -643h4l143 643h334v-20l-276 -967h-371l-199 676h-4l-198 -676h-371l-276 967v20zM1237 1135h-268l-97 135l-92 -135h-268v20l182 299h361l182 -299v-20z"/>
    <glyph glyph-name="Ycircumflex" unicode="Ŷ" horiz-adv-x="1318" d="M1323 1393v-21l-489 -827v-545h-349v545l-489 827v21h381l280 -541h5l280 541h381zM1081 1524h-299l-129 151l-125 -151h-299v20l250 297h352l250 -297v-20z"/>
    <glyph glyph-name="ycircumflex" unicode="ŷ" horiz-adv-x="1112" d="M256 -436q-78 0 -160 16v262q51 -10 115 -10q63 0 99 20t59 76l32 82l-397 957v20h340l213 -641h6l201 641h342v-20l-430 -1082q-70 -173 -175 -247t-245 -74zM928 1135h-269l-96 135l-92 -135h-268v20l182 299h360l183 -299v-20z"/>
    <glyph glyph-name="Ydieresis" unicode="Ÿ" horiz-adv-x="1318" d="M1323 1393v-21l-489 -827v-545h-349v545l-489 827v21h381l280 -541h5l280 541h381zM915 1855q83 0 131 -47t48 -126q0 -78 -48 -124t-130 -46t-131 45q-48 46 -48 125t48 126t130 47zM575 1682q0 -78 -48 -124t-130 -46t-130 45q-48 46 -48 125t48 126t130 47t130 -47 t48 -126z"/>
    <glyph glyph-name="Zacute" unicode="Ź" horiz-adv-x="1245" d="M1157 1393v-240l-649 -868v-4h649v-281h-1089v238l645 870v4h-598v281h1042zM481 1524v20l127 295h361v-16l-201 -299h-287z"/>
    <glyph glyph-name="zacute" unicode="ź" horiz-adv-x="999" d="M920 987v-201l-424 -528v-4h424v-254h-857v201l422 528v4h-389v254h824zM365 1135v20l180 299h348v-18l-234 -301h-294z"/>
    <glyph glyph-name="Zdotaccent" unicode="Ż" horiz-adv-x="1245" d="M1157 1393v-240l-649 -868v-4h649v-281h-1089v238l645 870v4h-598v281h1042zM461 1683q0 74 46 126q46 53 140 53t140 -52q47 -52 47 -127q0 -73 -46 -125t-141 -52q-94 0 -140 51q-46 52 -46 126z"/>
    <glyph glyph-name="zdotaccent" unicode="ż" horiz-adv-x="999" d="M920 987v-201l-424 -528v-4h424v-254h-857v201l422 528v4h-389v254h824zM334 1315q0 74 46 126t140 52t140 -52t46 -126t-46 -126t-140 -52t-140 52t-46 126z"/>
    <glyph glyph-name="Zcaron" unicode="Ž" horiz-adv-x="1245" d="M1157 1393v-240l-649 -868v-4h649v-281h-1089v238l645 870v4h-598v281h1042zM219 1841h299l129 -151l125 151h299v-20l-250 -297h-352l-250 297v20z"/>
    <glyph glyph-name="zcaron" unicode="ž" horiz-adv-x="999" d="M920 987v-201l-424 -528v-4h424v-254h-857v201l422 528v4h-389v254h824zM160 1454h268l96 -135l92 135h269v-20l-183 -299h-360l-182 299v20z"/>
    <glyph glyph-name="florin" unicode="ƒ" d="M229 -166q45 0 66.5 16.5t32.5 71.5l112 647h-164l46 242h161l52 285q31 174 123 250.5t262 76.5q120 0 213 -20l-37 -268q-70 18 -118 18t-69.5 -16.5t-31.5 -71.5l-46 -254h203l-43 -242h-203l-118 -678q-31 -174 -123 -250.5t-262 -76.5q-121 0 -213 20l37 269 q75 -19 120 -19z"/>
    <glyph glyph-name="Aringacute" unicode="Ǻ" horiz-adv-x="1415" d="M629 1578q-1 -36 21 -58t59 -23q37 0 59 23t20 58q0 35 -25 60h-109q-25 -24 -25 -60zM705 1026l-164 -506h333l-163 506h-6zM981 1571q0 -113 -82 -185l522 -1386h-381l-77 248h-510l-78 -248h-381l522 1386q-80 68 -80 188t75 188q56 52 140 65l20 35h334v-11l-87 -100 q63 -67 63 -180z"/>
    <glyph glyph-name="aringacute" unicode="ǻ" horiz-adv-x="1134" d="M377 315q0 -92 102 -92t187 58v135h-103q-186 0 -186 -101zM379 -31q-166 0 -247 86t-83 221q0 168 118 254t384 84h115v31q0 57 -39 81t-111 24q-156 0 -328 -66l-73 248q211 86 424 86t333 -100t121 -318v-354q0 -18 5 -24t24 -7h59v-223q-70 -15 -159 -16 q-90 -1 -141 30q-50 31 -79 88h-4q-53 -45 -139 -85t-180 -40zM303 1316q0 106 65 160t154 65l89 116h334v-14l-172 -175q57 -58 57 -158t-72 -160t-191 -61q-119 1 -191 61t-73 166zM488 1316q0 -31 20 -50t58 -19t59 19q20 19 21 50q0 31 -20 50t-59 19t-59 -19t-20 -50z "/>
    <glyph glyph-name="AEacute" unicode="Ǽ" horiz-adv-x="2000" d="M936 520v563h-8l-316 -563h324zM1901 1393v-281h-617v-274h547v-281h-547v-276h623v-281h-971v248h-479l-146 -248h-370v20l817 1373h1143zM1161 1524v20l127 295h361v-16l-201 -299h-287z"/>
    <glyph glyph-name="aeacute" unicode="ǽ" horiz-adv-x="1714" d="M537 410q-160 0 -160 -94t106 -93q85 1 139 55t54 132h-139zM1354 631q0 151 -168 151q-143 0 -174 -178h340q2 10 2 16v11zM536 1018q210 0 320 -119q128 119 344 119t335 -117q120 -117 120 -305q0 -116 -15 -197h-628q14 -96 67 -130q53 -33 177 -33t280 57l68 -250 q-181 -74 -396 -74q-272 0 -401 168q-146 -168 -406 -168q-176 0 -263 86t-89 221q0 251 267 313q95 22 235 21h125v35q0 105 -158 105t-330 -66l-73 248q211 86 421 86zM745 1135v20l181 299h348v-18l-234 -301h-295z"/>
    <glyph glyph-name="Oslashacute" unicode="Ǿ" horiz-adv-x="1570" d="M442 712q0 -143 35 -241l443 643q-62 23 -144 23t-147 -34q-187 -96 -187 -391zM1130 725q0 123 -49 231l-456 -665q69 -35 161 -35t158 34t108 93t60 139t18 203zM268 166q-186 194 -186 523t171 521q189 213 533 213q174 0 308 -55l71 105l185 -123l-70 -101 q211 -194 211 -553q0 -319 -179 -522t-526 -205q-191 0 -337 68l-74 -109l-187 123zM645 1524v20l127 295h361v-16l-201 -299h-287z"/>
    <glyph glyph-name="oslashacute" unicode="ǿ" horiz-adv-x="1214" d="M408 520q0 -60 4 -94l262 313q-75 24 -144 -4q-37 -14 -64 -45q-58 -64 -58 -170zM809 494q0 45 -6 81l-271 -325q37 -12 78 -12q88 0 144 58q55 59 55 198zM610 1018q141 0 254 -49l72 86l160 -125l-66 -80q121 -148 121 -366t-139 -366t-402 -149q-147 0 -266 54 l-80 -97l-158 133l74 88q-116 138 -115 356q1 219 143 367q141 148 402 148zM438 1135v20l180 299h349v-18l-234 -301h-295z"/>
    <glyph glyph-name="uni0218" unicode="Ș" horiz-adv-x="1179" d="M623 1143q-86 0 -129 -35t-43 -86q-1 -51 23 -83t91 -54l146 -47q225 -76 316 -161q91 -86 89 -247q0 -225 -148 -343t-391 -118t-511 121l96 275q94 -47 191 -81t212 -34q195 0 195 133q0 57 -42 89t-151 67l-145 47q-174 53 -251 153t-77 242q0 201 134 322t388 121 t447 -91l-96 -274q-178 84 -344 84zM788 -104v-21l-141 -381h-248v21l58 381h331z"/>
    <glyph glyph-name="uni0219" unicode="ș" horiz-adv-x="993" d="M489 223q125 0 123 64q0 29 -29 43q-30 14 -98 28l-110 23q-294 56 -291 303q0 158 115 246t325 88q119 0 205 -18t180 -56l-88 -246q-149 64 -297 66q-118 0 -116 -59q0 -25 24 -39t90 -29l109 -23q301 -64 301 -307q0 -166 -119 -252t-335 -86t-425 101l92 245 q184 -92 344 -92zM692 -104v-21l-141 -381h-248v21l57 381h332z"/>
    <glyph glyph-name="uni021A" unicode="Ț" horiz-adv-x="1181" d="M1147 1393v-281h-383v-1112h-348v1112h-381v281h1112zM752 -104v-21l-142 -381h-248v21l58 381h332z"/>
    <glyph glyph-name="uni021B" unicode="ț" horiz-adv-x="897" d="M209 733h-182v201l182 53v230h336v-230h295v-254h-295v-385q0 -112 121 -110q71 0 163 30v-266q-122 -31 -236 -32q-115 0 -179 16q-208 53 -205 299v448zM698 -104v-21l-141 -381h-248v21l58 381h331z"/>
    <glyph glyph-name="uni0237" unicode="ȷ" horiz-adv-x="557" d="M8 -168q55 0 79 28.5t24 88.5v1038h335v-1016q0 -217 -99 -312t-296 -95q-66 0 -143 14v264q45 -10 100 -10z"/>
    <glyph glyph-name="circumflex" unicode="ˆ" d="M965 1135h-269l-96 135l-92 -135h-268v20l182 299h360l183 -299v-20z"/>
    <glyph glyph-name="caron" unicode="ˇ" d="M240 1454h268l96 -135l92 135h269v-20l-183 -299h-360l-182 299v20z"/>
    <glyph glyph-name="uni02C9" unicode="ˉ" d="M291 1171v248h627v-248h-627z"/>
    <glyph glyph-name="breve" unicode="˘" d="M602 1384q92 0 153.5 23t121.5 61l100 -159q-57 -70 -145.5 -122t-229.5 -52t-229 52t-146 122l101 159q59 -39 120.5 -61.5t153.5 -22.5z"/>
    <glyph glyph-name="dotaccent" unicode="˙" d="M418 1315q0 74 46 126t140 52t140.5 -52t46.5 -126t-46.5 -126t-140.5 -52t-140 52t-46 126z"/>
    <glyph glyph-name="ring" unicode="˚" d="M338 1335.5q0 112.5 72.5 177t193.5 64.5t193.5 -64.5t72.5 -177t-72.5 -177t-193.5 -64.5t-193.5 64.5t-72.5 177zM524 1335.5q0 -32.5 20.5 -53t59.5 -20.5t59.5 20.5t20.5 53t-20.5 53t-59.5 20.5t-59.5 -20.5t-20.5 -53z"/>
    <glyph glyph-name="ogonek" unicode="˛" d="M580 -436q-136 0 -203.5 59.5t-67.5 144.5t60.5 162.5t158.5 126.5l246 -57q-20 -16 -76.5 -58t-56.5 -100q0 -53 66 -53q36 0 79 31l23 -211q-93 -45 -229 -45z"/>
    <glyph glyph-name="tilde" unicode="˜" d="M807.5 1380q70.5 0 124.5 68l55 -162q-29 -71 -97.5 -111t-128.5 -40t-104.5 15t-84.5 34.5t-76.5 35t-81.5 15.5q-78 0 -142 -72l-55 168q35 68 102 108t131 40t106 -15.5t77 -34t69.5 -34t105 -15.5z"/>
    <glyph glyph-name="hungarumlaut" unicode="˝" d="M580 1135v20l182 299h348v-18l-236 -301h-294zM96 1135v20l180 299h349v-18l-234 -301h-295z"/>
    <glyph glyph-name="tonos" unicode="΄" d="M446 1135v20l72 361h330v-19l-141 -362h-261z"/>
    <glyph glyph-name="dieresistonos" unicode="΅" d="M465 1094v20l72 361h329v-19l-141 -362h-260zM860 1249.5q0 71.5 43 115.5t117 44t117 -44t43 -115.5t-43 -115.5t-117 -44t-117 44t-43 115.5zM98 1249.5q0 71.5 43 115.5t117 44t117 -44t43 -115.5t-43 -115.5t-117 -44t-117 44t-43 115.5z"/>
    <glyph glyph-name="Alphatonos" unicode="Ά" horiz-adv-x="1536" d="M823 1047l-164 -527h334l-164 527h-6zM1540 0h-381l-78 248h-510l-77 -248h-381l503 1393h422zM55 1032v21l66 340h344v-17l-139 -344h-271z"/>
    <glyph glyph-name="anoteleia" unicode="·" horiz-adv-x="598" d="M92 602q0 92 56 150t152 59q96 0 154 -58q56 -59 56 -151t-56 -150t-152 -58t-154 58q-56 58 -56 150z"/>
    <glyph glyph-name="Epsilontonos" unicode="Έ" horiz-adv-x="1540" d="M1440 1393v-281h-617v-274h547v-281h-547v-276h623v-281h-971v1393h965zM6 1032v21l66 340h344v-17l-140 -344h-270z"/>
    <glyph glyph-name="Etatonos" unicode="Ή" horiz-adv-x="1832" d="M1339 557h-516v-557h-348v1393h348v-555h516v555h349v-1393h-349v557zM6 1032v21l66 340h344v-17l-140 -344h-270z"/>
    <glyph glyph-name="Iotatonos" unicode="Ί" horiz-adv-x="968" d="M823 0h-348v1393h348v-1393zM6 1032v21l66 340h344v-17l-140 -344h-270z"/>
    <glyph glyph-name="Omicrontonos" unicode="Ό" horiz-adv-x="1847" d="M527 182q-171 193 -171 514t171 514q189 213 534 213t533 -213q171 -193 171 -513t-179 -523t-524 -204q-344 -1 -535 212zM717 696q0 -309 186 -406q66 -34 158 -34q177 0 265 127q77 108 79 313q0 310 -186 407q-66 34 -158 34q-177 0 -265 -127q-79 -111 -79 -314z M10 1032v21l66 340h344v-17l-139 -344h-271z"/>
    <glyph glyph-name="Upsilontonos" unicode="Ύ" horiz-adv-x="1849" d="M1849 1393v-21l-489 -827v-545h-348v545l-490 827v21h381l281 -541h4l280 541h381zM49 1032v21l66 340h344v-17l-140 -344h-270z"/>
    <glyph glyph-name="Omegatonos" unicode="Ώ" horiz-adv-x="1908" d="M1092 1423q180 0 312 -53t219 -141t130 -201t43 -224q0 -207 -80 -338q-80 -132 -203 -185h302v-281h-650v240q57 35 108 77q158 136 160 414q1 278 -185 373q-64 33 -156 33q-171 0 -264 -121q-78 -102 -78 -275q0 -281 159 -424q49 -43 109 -77v-240h-649v281h301 q-195 89 -259 325q-24 86 -24 198t43 224q91 238 349 342q133 53 313 53zM14 1032v21l66 340h344v-17l-139 -344h-271z"/>
    <glyph glyph-name="iotadieresistonos" unicode="ΐ" horiz-adv-x="641" d="M440 -31q-154 0 -240 75t-85 228v715h336v-661q0 -41 14 -65q14 -23 62 -23t100 16v-268q-123 -17 -187 -17zM147 1094v20l72 361h330v-19l-141 -362h-261zM543 1249q0 72 43 116q42 44 116 44t117 -44t43 -116q0 -71 -43 -115t-117 -44t-116 44t-43 115zM-219 1249 q0 72 43 116t117 44q75 0 117 -44t42 -116q0 -71 -43 -115t-117 -44t-116 44q-43 44 -43 115z"/>
    <glyph glyph-name="Alpha" unicode="Α" horiz-adv-x="1417" d="M707 1047l-164 -527h334l-164 527h-6zM1423 0h-381l-77 248h-510l-78 -248h-381l504 1393h422z"/>
    <glyph glyph-name="Beta" unicode="Β" horiz-adv-x="1368" d="M934 437q0 157 -170 157h-270v-313h270q170 -1 170 156zM874 983q0 69 -36 99t-107 30h-237v-258h237q71 0 107 30t36 99zM1057 725q237 -87 237 -309q0 -116 -28 -191q-57 -153 -257 -200q-101 -25 -247 -25h-617v1393h588q250 0 376 -88t126 -291q0 -115 -53 -183 t-125 -102v-4z"/>
    <glyph glyph-name="Gamma" unicode="Γ" horiz-adv-x="1101" d="M145 0v1393h924v-281h-575v-1112h-349z"/>
    <glyph glyph-name="uni0394" unicode="Δ" horiz-adv-x="1415" d="M707 1057l-256 -776h520l-258 776h-6zM1419 0h-1419v10l498 1383h424l497 -1383v-10z"/>
    <glyph glyph-name="Epsilon" unicode="Ε" horiz-adv-x="1210" d="M1110 1393v-281h-616v-274h546v-281h-546v-276h622v-281h-971v1393h965z"/>
    <glyph glyph-name="Zeta" unicode="Ζ" horiz-adv-x="1245" d="M1157 1393v-240l-649 -868v-4h649v-281h-1089v238l645 870v4h-598v281h1042z"/>
    <glyph glyph-name="Eta" unicode="Η" horiz-adv-x="1503" d="M1010 557h-516v-557h-349v1393h349v-555h516v555h348v-1393h-348v557z"/>
    <glyph glyph-name="Theta" unicode="Θ" horiz-adv-x="1572" d="M261.5 1219.5q179.5 203.5 525 203.5t525 -203.5t179.5 -523.5t-180 -523.5t-524.5 -203.5t-524.5 203.5t-180 523.5t179.5 523.5zM442 696.5q0 -94.5 18.5 -174.5t60.5 -139t107.5 -93t158 -34t158 34t107.5 93t60 139t18 174.5t-18 174t-60 139t-107.5 93.5t-158 34 t-158 -34t-107.5 -93.5t-60.5 -139t-18.5 -174zM535 557v281h483v-281h-483z"/>
    <glyph glyph-name="Iota" unicode="Ι" horiz-adv-x="638" d="M494 0h-349v1393h349v-1393z"/>
    <glyph glyph-name="Kappa" unicode="Κ" horiz-adv-x="1370" d="M494 614v-614h-349v1393h349v-668h4l467 668h376v-21l-503 -690l530 -662v-20h-395l-475 614h-4z"/>
    <glyph glyph-name="Lambda" unicode="Λ" horiz-adv-x="1376" d="M379 0h-381l477 1393h424l477 -1393h-381l-305 1022h-6z"/>
    <glyph glyph-name="Mu" unicode="Μ" horiz-adv-x="1742" d="M1597 1393v-1393h-348v829h-4l-213 -479h-321l-213 479h-4v-829h-349v1393h375l348 -697h6l349 697h374z"/>
    <glyph glyph-name="Nu" unicode="Ν" horiz-adv-x="1538" d="M1044 539v854h349v-1393h-369l-526 854h-4v-854h-349v1393h371l524 -854h4z"/>
    <glyph glyph-name="Xi" unicode="Ξ" d="M100 1104v289h1006v-289h-1006zM166 553v289h870v-289h-870zM1112 289v-289h-1012v289h1012z"/>
    <glyph glyph-name="Omicron" unicode="Ο" horiz-adv-x="1572" d="M82 695q0 151 42 284q86 272 349 387q133 57 313 57q347 0 534 -213q171 -193 171 -513t-179 -523t-526 -205q-180 0 -313 58q-262 112 -349 385q-42 132 -42 283zM442 696q0 -202 85 -321t259 -119q175 0 260 118q84 118 84 322q0 311 -186 407q-66 34 -158 34t-158 -34 q-131 -68 -167 -233q-19 -80 -19 -174z"/>
    <glyph glyph-name="Pi" unicode="Π" horiz-adv-x="1505" d="M1012 1112h-518v-1112h-349v1393h1215v-1393h-348v1112z"/>
    <glyph glyph-name="Rho" unicode="Ρ" horiz-adv-x="1255" d="M645 707q102 0 149 50q46 50 46 152q0 103 -45 153t-150 50h-151v-405h151zM145 0v1393h555q263 0 392 -142q112 -125 110 -340q0 -346 -267 -449q-95 -38 -235 -38h-206v-424h-349z"/>
    <glyph glyph-name="Sigma" unicode="Σ" horiz-adv-x="1204" d="M119 1393h995v-281h-598l293 -395l-328 -436h633v-281h-1028v250l338 459l-305 432v252z"/>
    <glyph glyph-name="Tau" unicode="Τ" horiz-adv-x="1181" d="M1147 1393v-281h-383v-1112h-348v1112h-381v281h1112z"/>
    <glyph glyph-name="Upsilon" unicode="Υ" horiz-adv-x="1327" d="M1327 1393v-21l-489 -827v-545h-349v545l-489 827v21h381l281 -541h4l280 541h381z"/>
    <glyph glyph-name="Phi" unicode="Φ" horiz-adv-x="1761" d="M420 693q0 -134 64 -216t223 -108v651q-231 -38 -259 -152.5t-28 -174.5zM1343 693q0 133 -64.5 217t-223.5 110v-651q233 38 260.5 151t27.5 173zM57 890.5q0 312.5 650 383.5v119h348v-119q496 -51 573.5 -257t77.5 -386t-155 -330.5t-496 -185.5v-115h-348v115 q-501 52 -575.5 257.5t-74.5 518z"/>
    <glyph glyph-name="Chi" unicode="Χ" horiz-adv-x="1318" d="M1286 1393v-21l-373 -672l373 -680v-20h-377l-247 502h-5l-247 -502h-377v20l370 680l-370 672v21h370l254 -498h5l253 498h371z"/>
    <glyph glyph-name="Psi" unicode="Ψ" horiz-adv-x="1630" d="M989 0h-348v301q-549 15 -549 612v480h346v-492q0 -170 41.5 -235.5t161.5 -77.5v805h348v-805q120 13 161.5 78t41.5 235v492h346v-480q0 -444 -201.5 -526t-347.5 -86v-301z"/>
    <glyph glyph-name="uni03A9" unicode="Ω" horiz-adv-x="1634" d="M819 1423q181 0 313 -53t219 -141t130 -201t43 -224q0 -203 -80 -337q-80 -133 -203 -186h301v-281h-649v240q136 83 192 180q76 128 76 321q0 268 -185 363q-65 33 -157 33q-171 0 -263 -121q-77 -100 -79 -275q0 -280 160 -424q49 -43 108 -77v-240h-649v281h301 q-192 87 -259 325q-24 86 -24 198t44 224q43 112 130 201q87 88 219 141t312 53z"/>
    <glyph glyph-name="Iotadieresis" unicode="Ϊ" horiz-adv-x="638" d="M494 0h-349v1393h349v-1393zM575 1855q83 0 131 -47t48 -126q0 -78 -48 -124t-130 -46t-131 45q-48 46 -48 125t48 126t130 47zM-121 1682q0 79 48 126t130 47t130 -47q49 -47 49 -126q0 -78 -48 -124t-131 -46q-82 0 -130 45q-48 46 -48 125z"/>
    <glyph glyph-name="Upsilondieresis" unicode="Ϋ" horiz-adv-x="1327" d="M1327 1393v-21l-489 -827v-545h-349v545l-489 827v21h381l281 -541h4l280 541h381zM1100 1682q0 -78 -48 -124t-130 -46t-130 45q-48 46 -49 125q1 79 49 126t130 47t130 -47t48 -126zM403 1855q83 0 131 -47t48 -126q0 -78 -48 -124t-130 -46t-131 45q-48 46 -48 125 t48 126t130 47z"/>
    <glyph glyph-name="alphatonos" unicode="ά" horiz-adv-x="1280" d="M410 494q0 -134 48 -194t126 -60q133 0 213 254q-80 254 -213 254q-78 0 -126 -60t-48 -194zM68 494q0 248 120 386t326 138q167 0 282 -115q30 -31 48 -59h6l35 143h336l-142 -493l142 -494h-336l-35 143h-6q-107 -171 -346 -173q-82 0 -165 33q-167 68 -233 265 q-32 99 -32 226zM508 1135v20l72 361h329v-19l-141 -362h-260z"/>
    <glyph glyph-name="epsilontonos" unicode="έ" horiz-adv-x="1024" d="M461 1135v20l71 361h330v-19l-141 -362h-260zM440 686q0 -65 88 -65h256v-248h-266q-114 0 -112 -64q0 -39 36 -55t136 -16q201 0 350 65l49 -258q-191 -76 -412 -76q-503 0 -499 293q0 102 47 160t133 86v4q-68 29 -107 78t-39 139q0 289 467 289q216 0 389 -66 l-61 -252q-131 48 -262 49t-162 -17t-31 -46z"/>
    <glyph glyph-name="etatonos" unicode="ή" horiz-adv-x="1204" d="M611 748q-87 0 -165 -76v-672h-335v987h276l35 -94h4q41 43 118 84t191 41q179 0 273 -108t94 -300v-1016h-336v994q0 78 -34 119t-121 41zM506 1135v20l72 361h329v-19l-141 -362h-260z"/>
    <glyph glyph-name="iotatonos" unicode="ί" horiz-adv-x="638" d="M113 272v715h336v-661q0 -41 14 -65q14 -23 62 -23t100 16v-268q-123 -17 -187 -17q-154 0 -240 75t-85 228zM156 1135v20l71 361h330v-19l-141 -362h-260z"/>
    <glyph glyph-name="upsilondieresistonos" unicode="ΰ" horiz-adv-x="1179" d="M440 1135v20l72 361h330v-19l-142 -362h-260zM764 483q0 198 -76 504h336q56 -219 66 -320q10 -99 10 -209t-35 -207q-102 -282 -475 -282q-237 0 -364 117q-126 117 -126 311v590h336v-557q0 -98 35 -145t118 -47t129 60t46 185z"/>
    <glyph glyph-name="alpha" unicode="α" horiz-adv-x="1280" d="M410 493.5q0 -135.5 48 -194.5t126 -59q133 0 213 254q-80 254 -213 254q-78 0 -126 -59.5t-48 -195zM844 143q-108 -174 -346 -174q-82 0 -165 34t-141.5 100.5t-91 165t-32.5 286.5t121 325.5t329 137.5t326 -174h6l35 143h336l-142 -493l142 -494h-336l-35 143h-6z "/>
    <glyph glyph-name="beta" unicode="β" horiz-adv-x="1222" d="M608 238q210 0 211 180q0 104 -60.5 147t-180.5 43h-48v248h37q74 0 111 37t37 136t-47 122t-80 23q-68 0 -105 -40.5t-37 -140.5v-706q48 -49 162 -49zM446 45v-451h-335v1379q0 248 128 359.5t356 111.5t345 -107.5t117 -292.5q0 -117 -56.5 -190.5t-123.5 -101.5v-4 q110 -27 197 -118t87 -219q0 -228 -127 -335t-338 -107q-70 0 -138.5 21.5t-106.5 54.5h-5z"/>
    <glyph glyph-name="gamma" unicode="γ" horiz-adv-x="1132" d="M717 -406h-336v410l-373 963v20h340l201 -668h4q127 274 165 419t58 249h338v-20q-91 -405 -397 -977v-396z"/>
    <glyph glyph-name="delta" unicode="δ" horiz-adv-x="1210" d="M602 238q92 0 149.5 50t57.5 144q0 140 -89 215.5t-132 106.5q-184 -137 -185 -312q0 -100 53.5 -152t145.5 -52zM753 1174q-65 0 -94.5 -13.5t-29.5 -45.5t39 -65.5t96 -75.5t125.5 -94.5t165 -164t96.5 -299.5t-148.5 -317.5t-396.5 -129.5t-396.5 135t-148.5 355 t131.5 326t196.5 141q-35 35 -63.5 81.5t-28.5 124.5t37 139.5t121.5 117t236.5 55.5q151 0 223 -19v-268q-97 17 -162 17z"/>
    <glyph glyph-name="epsilon" unicode="ε" horiz-adv-x="1024" d="M895 700q-137 50 -296 50t-159 -64t88 -65h256v-248h-266q-68 0 -90 -17.5t-22 -51.5t36.5 -50t186.5 -16t299 65l49 -258q-191 -76 -412 -76q-395 0 -447 113.5t-52 197.5q0 167 180 228v4q-68 29 -107 78t-39 139q0 139 109.5 214t342.5 75t404 -66z"/>
    <glyph glyph-name="zeta" unicode="ζ" horiz-adv-x="987" d="M961 1434v-213q-158 -172 -266.5 -290t-175 -200t-96.5 -136t-30 -105t37 -89.5t92.5 -69t213 -104t157.5 -303.5q0 -178 -191 -317l-225 151q74 62 74 118t-37 91t-92 65.5t-213 107.5t-158 298q0 152 95.5 282t187.5 229.5t209 226.5v4h-445v254h863z"/>
    <glyph glyph-name="eta" unicode="η" horiz-adv-x="1204" d="M611 748q-87 0 -165 -76v-672h-335v987h276l35 -94h4q41 43 118 84t191 41q180 0 273.5 -107.5t93.5 -300.5v-1016h-336v994q0 78 -34 119t-121 41z"/>
    <glyph glyph-name="theta" unicode="θ" horiz-adv-x="1200" d="M600 238q102 0 140 85t42 261h-370q8 -176 47 -261t141 -85zM600 1176q-94 0 -139 -82t-47 -256h372q-2 174 -47 256t-139 82zM600 1444q143 0 242.5 -52.5t161 -148.5t88 -232.5t26.5 -304t-26.5 -304t-88 -232.5t-161 -148.5t-242.5 -52.5t-242.5 52.5t-161 148.5 t-88 232.5t-26.5 304t26.5 304t88 232.5t161 148.5t242.5 52.5z"/>
    <glyph glyph-name="iota" unicode="ι" horiz-adv-x="638" d="M113 272v715h336v-661q0 -41 14 -64.5t62 -23.5t100 16v-268q-123 -17 -187 -17q-154 0 -239.5 75t-85.5 228z"/>
    <glyph glyph-name="kappa" unicode="κ" horiz-adv-x="1140" d="M446 424v-424h-335v987h335v-467h5l307 467h356v-14l-354 -484l368 -475v-14h-362l-315 424h-5z"/>
    <glyph glyph-name="lambda" unicode="λ" horiz-adv-x="1114" d="M245 1176q-48 0 -71 -7v258q120 33 256 2.5t203 -210.5l473 -1199v-20h-344l-201 637h-6l-209 -637h-342v20l404 957l-46 119q-16 47 -42.5 63.5t-74.5 16.5z"/>
    <glyph glyph-name="uni03BC" unicode="μ" horiz-adv-x="1212" d="M449 399q-1 -79 33 -119t121 -40t165 75v672h336v-987h-277l-34 94h-5q-42 -43 -118 -84t-191 -41q-23 0 -33 2v-377h-333v1393h336v-588z"/>
    <glyph glyph-name="nu" unicode="ν" horiz-adv-x="1138" d="M12 987h340l203 -668h4q93 199 139 336t84 332h336v-20q-109 -491 -375 -967h-376l-355 967v20z"/>
    <glyph glyph-name="xi" unicode="ξ" horiz-adv-x="993" d="M229 1180h-217v254h953v-254h-273q-123 0 -183 -40t-60 -130t57 -132t186 -42h142v-252h-142q-152 0 -219 -28t-67 -122q0 -49 40.5 -80.5t101 -57.5t132.5 -51.5t132 -65.5t101 -98t41 -151q0 -129 -79.5 -210.5t-120.5 -112.5l-228 151q31 25 58.5 55.5t27.5 72.5 t-41 71t-101 54.5t-132 53t-173.5 98t-101.5 221.5q0 152 78 229t199 112v4q-156 38 -195 117.5t-39 136.5t32 110.5t91 82.5v4z"/>
    <glyph glyph-name="omicron" unicode="ο" horiz-adv-x="1212" d="M1149 492q0 -226 -139 -375t-401 -148t-404 149t-142 376t142 376t403 148q139 0 241 -42q201 -84 267 -280q32 -96 33 -204zM406 494q0 -140 59 -198t145 -58t142 58q55 58 55 198t-55 197q-55 58 -144 59q-144 0 -187 -139q-15 -47 -15 -117z"/>
    <glyph glyph-name="pi" unicode="π" horiz-adv-x="1378" d="M1100 -31q-154 0 -242 71t-88 212v481h-199v-733h-335v733h-201v254h1268v-254h-197v-407q0 -88 88 -88q34 0 92 16v-268q-123 -17 -186 -17z"/>
    <glyph glyph-name="rho" unicode="ρ" d="M98 -406v941q0 237 134.5 360t361.5 123q270 0 410.5 -147t140.5 -374t-127.5 -377.5t-343.5 -150.5q-84 0 -144.5 24.5t-91.5 53.5h-4v-453h-336zM602 238q201 0 201.5 255t-195.5 255q-98 0 -136 -54.5t-38 -138.5v-260q25 -23 73 -40t95 -17z"/>
    <glyph glyph-name="sigma1" unicode="ς" horiz-adv-x="935" d="M669 748q-63 0 -103 -6.5t-99 -49t-59 -198.5q0 -70 34.5 -112t86 -74t198.5 -98.5t147 -279.5q0 -88 -55 -175t-135 -148l-225 151q73 64 73 117t-34.5 81t-86 52.5t-112.5 54t-147 119t-86 323.5q0 235 141 374t407 139q159 0 297 -53l-71 -254q-108 37 -171 37z"/>
    <glyph glyph-name="sigma" unicode="σ" horiz-adv-x="1251" d="M1020 733v-4q59 -39 94 -112.5t35 -167.5q0 -203 -138.5 -341.5t-403.5 -138.5t-404.5 143.5t-139.5 367.5q0 223 140 365t405 142h594v-254h-182zM528.5 717q-122.5 0 -122.5 -239.5t200.5 -239.5t200.5 215.5t-78 239.5t-200.5 24z"/>
    <glyph glyph-name="tau" unicode="τ" horiz-adv-x="1013" d="M654 -31q-196 0 -273.5 75.5t-77.5 254.5v434h-276v254h936v-254h-324v-385q0 -58 22.5 -98t231.5 18v-266q-132 -33 -239 -33z"/>
    <glyph glyph-name="upsilon" unicode="υ" horiz-adv-x="1179" d="M764 483q0 198 -76 504h336q56 -222 66 -320.5t10 -208.5t-68.5 -299.5t-441.5 -189.5q-238 0 -364 116.5t-126 311.5v590h336v-557q0 -98 35 -145t118 -47t129 60t46 185z"/>
    <glyph glyph-name="phi" unicode="φ" horiz-adv-x="1542" d="M1029 748q-55 0 -76 -47t-21 -179v-268q98 12 150.5 73.5t52.5 207.5t-39 179.5t-67 33.5zM412 518q0 -137 39.5 -191t144.5 -75v321q0 223 101.5 334t322.5 111q324 0 390.5 -182.5t66.5 -313.5q0 -211 -129 -352t-416 -180v-396h-336v390q-403 51 -464.5 231t-61.5 281 q0 220 106 491h342q-106 -260 -106 -469z"/>
    <glyph glyph-name="chi" unicode="χ" horiz-adv-x="1142" d="M1130 987v-20l-344 -672l344 -680v-21h-356l-205 478l-202 -478h-355v21l338 680l-338 672v20h350l207 -471l213 471h348z"/>
    <glyph glyph-name="psi" unicode="ψ" horiz-adv-x="1579" d="M623 -25q-523 0 -523 428v584h336v-567q0 -110 42 -145t145 -35v1194h335v-1194q201 0 201 249q0 188 -84 498h344q62 -218 72 -322t10 -176q0 -268 -139 -391t-404 -123v-381h-335v381z"/>
    <glyph glyph-name="omega" unicode="ω" horiz-adv-x="1691" d="M1190 -31q-237 0 -342 178h-4q-69 -121 -170 -149.5t-172 -28.5q-203 0 -316.5 120t-113.5 382q0 147 41 272t98 244h367v-20q-74 -131 -119 -252t-45 -278t50 -178t93 -21t82 42t39 150v305h336v-305q0 -109 39 -150.5t81 -41.5q78 0 111 50.5t33 178.5q0 127 -45 248 t-119 252v20h367q57 -119 98 -244t41 -272q0 -262 -112.5 -382t-317.5 -120z"/>
    <glyph glyph-name="iotadieresis" unicode="ϊ" horiz-adv-x="641" d="M440 -31q-154 0 -240 75t-85 228v715h336v-661q0 -41 14 -65q14 -23 62 -23t100 16v-268q-123 -17 -187 -17zM354 1310q0 75 46 120t124 45t124 -45t46 -120t-46 -119t-124 -44t-124 44t-46 119zM-102 1310q0 75 46 120t124 45t124 -45t46 -120t-46 -119t-124 -44 t-124 44t-46 119z"/>
    <glyph glyph-name="upsilondieresis" unicode="ϋ" horiz-adv-x="1179" d="M764 483q0 198 -76 504h336q56 -219 66 -320q10 -99 10 -209t-35 -207q-102 -282 -475 -282q-237 0 -364 117q-126 117 -126 311v590h336v-557q0 -98 35 -145t118 -47t129 60t46 185zM633 1310q0 75 46 120t124 45t124 -45t46 -120t-46 -119t-124 -44t-124 44t-46 119z M176 1310q0 75 46 120t124 45t124 -45t46 -120t-46 -119t-124 -44t-124 44t-46 119z"/>
    <glyph glyph-name="omicrontonos" unicode="ό" horiz-adv-x="1212" d="M1149 492q0 -226 -139 -375t-401 -148t-404 149t-142 376t142 376t403 148q139 0 241 -42q201 -84 267 -280q32 -96 33 -204zM406 494q0 -140 59 -198t145 -58t142 58q55 58 55 198t-55 197q-55 58 -144 59q-144 0 -187 -139q-15 -47 -15 -117zM487 1135v20l72 361h330 v-19l-141 -362h-261z"/>
    <glyph glyph-name="upsilontonos" unicode="ύ" horiz-adv-x="1179" d="M442 1135v20l72 361h330v-19l-142 -362h-260zM764 483q0 198 -76 504h336q56 -219 66 -320q10 -99 10 -209t-35 -207q-102 -282 -475 -282q-237 0 -364 117q-126 117 -126 311v590h336v-557q0 -98 35 -145t118 -47t129 60t46 185z"/>
    <glyph glyph-name="omegatonos" unicode="ώ" horiz-adv-x="1691" d="M414 455q0 -217 126 -217q60 0 99 42t39 150v305h336v-305q0 -108 39 -150t81 -42t66 10q45 19 68 101q10 42 10 106q0 139 -45 260t-119 252v20h367q57 -119 98 -244t41 -272q0 -262 -113 -382t-317 -120q-237 0 -342 178h-4q-100 -175 -342 -178q-203 0 -317 120 t-113 382q0 147 41 272t98 244h367v-20q-74 -131 -119 -252t-45 -260zM725 1135v20l72 361h329v-19l-141 -362h-260z"/>
    <glyph glyph-name="uni0400" unicode="Ѐ" horiz-adv-x="1210" d="M1110 1393v-281h-616v-274h546v-281h-546v-276h622v-281h-971v1393h965zM317 1839h361l127 -295v-20h-287l-201 299v16z"/>
    <glyph glyph-name="uni0401" unicode="Ё" horiz-adv-x="1210" d="M1110 1393v-281h-616v-274h546v-281h-546v-276h622v-281h-971v1393h965zM1065 1682q0 -78 -48 -124t-130 -46t-130 45q-48 46 -48 125t48 126t130 47t130 -47t48 -126zM547 1682q0 -78 -48 -124t-130 -46q-83 0 -131 45q-48 46 -48 125t48 126t131 47q82 0 130 -47 t48 -126z"/>
    <glyph glyph-name="uni0402" unicode="Ђ" horiz-adv-x="1474" d="M1065 397q0 91 -41 147t-155 56t-218 -29v-571h-348v1112h-262v281h989v-281h-379v-260q110 29 253 29q261 0 391 -134t130 -344q0 -347 -370 -733l-264 193q274 316 274 534z"/>
    <glyph glyph-name="uni0403" unicode="Ѓ" horiz-adv-x="1142" d="M1110 1393v-281h-616v-1112h-349v1393h965zM479 1524v20l127 295h361v-16l-201 -299h-287z"/>
    <glyph glyph-name="uni0404" unicode="Є" horiz-adv-x="1247" d="M808 -31q-359 0 -542.5 198t-183.5 529t183 529t517 198q222 0 410 -90l-90 -270q-88 39 -159 56.5t-161 17.5q-127 0 -212 -83t-113 -218h504v-283h-504q31 -135 115 -216t192 -81t179 17.5t159 56.5l90 -271q-188 -90 -384 -90z"/>
    <glyph glyph-name="uni0405" unicode="Ѕ" horiz-adv-x="1179" d="M623 1143q-86 0 -129 -35t-43 -86q-1 -51 23 -83t91 -54l146 -47q225 -76 316 -161q91 -86 89 -247q0 -225 -148 -343t-391 -118t-511 121l96 275q94 -47 191 -81t212 -34q195 0 195 133q0 57 -42 89t-151 67l-145 47q-174 53 -251 153t-77 242q0 201 134 322t388 121 t447 -91l-96 -274q-178 84 -344 84z"/>
    <glyph glyph-name="uni0406" unicode="І" horiz-adv-x="638" d="M494 0h-349v1393h349v-1393z"/>
    <glyph glyph-name="uni0407" unicode="Ї" horiz-adv-x="638" d="M494 0h-349v1393h349v-1393zM575 1855q83 0 131 -47t48 -126q0 -78 -48 -124t-130 -46t-131 45q-48 46 -48 125t48 126t130 47zM-121 1682q0 79 48 126t130 47t130 -47q49 -47 49 -126q0 -78 -48 -124t-131 -46q-82 0 -130 45q-48 46 -48 125z"/>
    <glyph glyph-name="uni0408" unicode="Ј" horiz-adv-x="1013" d="M368 256q162 0 162 178v959h349v-981q0 -223 -130 -333t-366 -110q-137 0 -226 44t-155 100l150 249q115 -106 216 -106z"/>
    <glyph glyph-name="uni0409" unicode="Љ" horiz-adv-x="2101" d="M1282 281h238q100 0 136 50t36 121.5t-36 123t-136 51.5h-238v-346zM1282 1393v-486h268q502 1 502 -453t-502 -454h-616v1112h-299l-25 -397q-27 -441 -137.5 -560.5t-213.5 -147t-239 -27.5v290q51 0 96.5 14.5t98.5 90t70 366.5l28 652h969z"/>
    <glyph glyph-name="uni040A" unicode="Њ" horiz-adv-x="2131" d="M1313 281h237q100 0 136 50t36 121.5t-35.5 123t-136.5 51.5h-237v-346zM1581 907q502 1 502 -453t-502 -454h-616v627h-471v-627h-349v1393h349v-486h471v486h348v-486h268z"/>
    <glyph glyph-name="uni040B" unicode="Ћ" horiz-adv-x="1488" d="M649 895q149 61 349 61t305.5 -113.5t105.5 -295.5v-547h-348v508q0 162 -178 162q-134 0 -234 -54v-616h-348v1112h-260v281h989v-281h-381v-217z"/>
    <glyph glyph-name="uni040C" unicode="Ќ" horiz-adv-x="1370" d="M494 614v-614h-349v1393h349v-668h4l467 668h376v-21l-503 -690l530 -662v-20h-395l-475 614h-4zM551 1524v20l127 295h360v-16l-200 -299h-287z"/>
    <glyph glyph-name="uni040D" unicode="Ѝ" horiz-adv-x="1538" d="M1393 1393v-1393h-349v854h-4l-526 -854h-369v1393h349v-854h4l524 854h371zM434 1839h361l127 -295v-20h-287l-201 299v16z"/>
    <glyph glyph-name="uni040E" unicode="Ў" horiz-adv-x="1177" d="M236 0h-93v281h68q122 0 155 14q34 15 47 35t27 53l13 37l-443 952v21h363l231 -619h6l230 619h352v-21l-424 -1016q-95 -223 -211 -294q-61 -38 -139 -50t-182 -12zM609 1774q148 0 284 90l100 -160q-74 -94 -133 -126q-117 -63 -252 -65q-246 0 -385 191l101 160 q137 -90 285 -90z"/>
    <glyph glyph-name="uni040F" unicode="Џ" horiz-adv-x="1486" d="M145 0v1393h349v-1112h499v1112h348v-1393h-448l-25 -289h-250l-24 289h-449z"/>
    <glyph glyph-name="uni0410" unicode="А" horiz-adv-x="1417" d="M707 1047l-164 -527h334l-164 527h-6zM1423 0h-381l-77 248h-510l-78 -248h-381l504 1393h422z"/>
    <glyph glyph-name="uni0411" unicode="Б" horiz-adv-x="1329" d="M494 891h268q502 1 502 -445t-502 -446h-617v1393h1004v-281h-655v-221zM494 281h237q100 0 136 46t36 117.5t-36 118.5t-136 47h-237v-329z"/>
    <glyph glyph-name="uni0412" unicode="В" horiz-adv-x="1368" d="M934 437q0 157 -170 157h-270v-313h270q170 -1 170 156zM874 983q0 69 -36 99t-107 30h-237v-258h237q71 0 107 30t36 99zM1057 725q237 -87 237 -309q0 -116 -28 -191q-57 -153 -257 -200q-101 -25 -247 -25h-617v1393h588q250 0 376 -88t126 -291q0 -115 -53 -183 t-125 -102v-4z"/>
    <glyph glyph-name="uni0413" unicode="Г" horiz-adv-x="1142" d="M1110 1393v-281h-616v-1112h-349v1393h965z"/>
    <glyph glyph-name="uni0414" unicode="Д" horiz-adv-x="1556" d="M973 281v831h-336l-14 -246q-17 -393 -109 -585h459zM1321 1393v-1112h182l-51 -570h-244l-22 289h-858l-21 -289h-244l-49 570h144q122 157 141 579l23 533h999z"/>
    <glyph glyph-name="uni0415" unicode="Е" horiz-adv-x="1210" d="M1110 1393v-281h-616v-274h546v-281h-546v-276h622v-281h-971v1393h965z"/>
    <glyph glyph-name="uni0416" unicode="Ж" horiz-adv-x="2101" d="M1225 614v-614h-348v614h-5l-475 -614h-395v20l530 662l-503 690v21h377l466 -668h5v668h348v-668h4l467 668h377v-21l-504 -690l530 -662v-20h-395l-475 614h-4z"/>
    <glyph glyph-name="uni0417" unicode="З" horiz-adv-x="1153" d="M680 992q0 146 -175 145q-175 0 -333 -68l-98 262q206 94 426 92q540 0 540 -385q0 -125 -65 -206q-65 -80 -150 -103v-4q107 -35 181 -121t73 -227q0 -294 -314 -379q-107 -29 -261 -29q-259 0 -461 105l82 270q155 -88 373 -88q123 0 172 41t49 117t-50 110t-171 33 h-234v281h225q111 0 151 41t40 113z"/>
    <glyph glyph-name="uni0418" unicode="И" horiz-adv-x="1538" d="M1393 1393v-1393h-349v854h-4l-526 -854h-369v1393h349v-854h4l524 854h371z"/>
    <glyph glyph-name="uni0419" unicode="Й" horiz-adv-x="1538" d="M1393 1393v-1393h-349v854h-4l-526 -854h-369v1393h349v-854h4l524 854h371zM770 1774q149 0 285 90l100 -160q-74 -94 -133 -126q-117 -63 -252 -65q-251 0 -385 191l100 160q136 -90 285 -90z"/>
    <glyph glyph-name="uni041A" unicode="К" horiz-adv-x="1370" d="M494 614v-614h-349v1393h349v-668h4l467 668h376v-21l-503 -690l530 -662v-20h-395l-475 614h-4z"/>
    <glyph glyph-name="uni041B" unicode="Л" horiz-adv-x="1513" d="M20 -20v290q51 0 96.5 14.5t98.5 90t70 366.5l28 652h1055v-1393h-348v1112h-385l-25 -397q-27 -441 -137.5 -560.5t-213.5 -147t-239 -27.5z"/>
    <glyph glyph-name="uni041C" unicode="М" horiz-adv-x="1742" d="M1597 1393v-1393h-348v829h-4l-213 -479h-321l-213 479h-4v-829h-349v1393h375l348 -697h6l349 697h374z"/>
    <glyph glyph-name="uni041D" unicode="Н" horiz-adv-x="1503" d="M1010 557h-516v-557h-349v1393h349v-555h516v555h348v-1393h-348v557z"/>
    <glyph glyph-name="uni041E" unicode="О" horiz-adv-x="1572" d="M82 695q0 151 42 284q86 272 349 387q133 57 313 57q347 0 534 -213q171 -193 171 -513t-179 -523t-526 -205q-180 0 -313 58q-262 112 -349 385q-42 132 -42 283zM442 696q0 -202 85 -321t259 -119q175 0 260 118q84 118 84 322q0 311 -186 407q-66 34 -158 34t-158 -34 q-131 -68 -167 -233q-19 -80 -19 -174z"/>
    <glyph glyph-name="uni041F" unicode="П" horiz-adv-x="1505" d="M1012 1112h-518v-1112h-349v1393h1215v-1393h-348v1112z"/>
    <glyph glyph-name="uni0420" unicode="Р" horiz-adv-x="1255" d="M645 707q102 0 149 50q46 50 46 152q0 103 -45 153t-150 50h-151v-405h151zM145 0v1393h555q263 0 392 -142q112 -125 110 -340q0 -346 -267 -449q-95 -38 -235 -38h-206v-424h-349z"/>
    <glyph glyph-name="uni0421" unicode="С" horiz-adv-x="1245" d="M808 -31q-359 0 -542 198q-184 198 -184 528t183 529t517 199q220 0 410 -90l-90 -270q-163 72 -317 73t-248 -121q-95 -123 -95 -319q0 -197 95 -318q95 -122 245 -122q90 0 161 17t159 57l90 -271q-188 -90 -384 -90z"/>
    <glyph glyph-name="uni0422" unicode="Т" horiz-adv-x="1181" d="M1147 1393v-281h-383v-1112h-348v1112h-381v281h1112z"/>
    <glyph glyph-name="uni0423" unicode="У" horiz-adv-x="1177" d="M143 0v281h68q122 0 155 14t46.5 34.5t27.5 53.5l13 37l-443 952v21h363l231 -619h6l230 619h352v-21l-424 -1016q-95 -222 -204 -289t-328 -67h-93z"/>
    <glyph glyph-name="uni0424" unicode="Ф" horiz-adv-x="1761" d="M420 693q0 -132 64 -215t223 -109v651q-231 -38 -274 -214q-13 -54 -13 -113zM1343 693q0 203 -147 283q-55 30 -141 44v-651q154 25 221 107t67 217zM57 693q0 510 650 581v119h348v-119q496 -51 614 -365q37 -98 37 -215t-37 -216q-116 -312 -614 -363v-115h-348v115 q-650 68 -650 578z"/>
    <glyph glyph-name="uni0425" unicode="Х" horiz-adv-x="1318" d="M1286 1393v-21l-373 -672l373 -680v-20h-377l-247 502h-5l-247 -502h-377v20l370 680l-370 672v21h370l254 -498h5l253 498h371z"/>
    <glyph glyph-name="uni0426" unicode="Ц" horiz-adv-x="1576" d="M145 0v1393h349v-1112h499v1112h348v-1112h179l-50 -570h-245l-23 289h-1057z"/>
    <glyph glyph-name="uni0427" unicode="Ч" horiz-adv-x="1345" d="M852 436q-149 -61 -349 -61t-305.5 113.5t-105.5 295.5v609h348v-570q0 -161 178 -161q136 0 234 53v678h348v-1393h-348v436z"/>
    <glyph glyph-name="uni0428" unicode="Ш" horiz-adv-x="2125" d="M145 0v1393h349v-1112h395v1112h348v-1112h395v1112h348v-1393h-1835z"/>
    <glyph glyph-name="uni0429" unicode="Щ" horiz-adv-x="2215" d="M145 0v1393h349v-1112h395v1112h348v-1112h395v1112h348v-1112h179l-50 -570h-243l-25 289h-1696z"/>
    <glyph glyph-name="uni042A" unicode="Ъ" horiz-adv-x="1454" d="M635 281h237q100 0 136 50t36 121.5t-35.5 123t-136.5 51.5h-237v-346zM37 1393h598v-486h268q502 1 502 -453t-502 -454h-616v1112h-250v281z"/>
    <glyph glyph-name="uni042B" unicode="Ы" horiz-adv-x="1867" d="M1722 0h-348v1393h348v-1393zM494 281h237q100 0 136 50t36 122q0 73 -36 123t-136 51h-237v-346zM145 1393h349v-486h268q502 1 502 -453t-502 -454h-617v1393z"/>
    <glyph glyph-name="uni042C" unicode="Ь" horiz-adv-x="1312" d="M494 281h237q100 0 136 50t36 121.5t-36 123t-136 51.5h-237v-346zM145 1393h349v-486h268q502 1 502 -453t-502 -454h-617v1393z"/>
    <glyph glyph-name="uni042D" unicode="Э" horiz-adv-x="1249" d="M441 1423q360 0 543 -198.5t183 -528.5q0 -331 -183.5 -529t-516.5 -198q-220 0 -410 90l90 271q88 -39 158.5 -56.5t178.5 -17.5t193 81t116 216h-504v283h504q-29 135 -114 218t-212 83q-90 0 -160.5 -17.5t-159.5 -56.5l-90 270q188 90 384 90z"/>
    <glyph glyph-name="uni042E" unicode="Ю" horiz-adv-x="2269" d="M1139 696.5q0 -94.5 18.5 -174.5t60.5 -139t107.5 -93t157.5 -34t157.5 34t107.5 93t60.5 139t18.5 174.5t-18.5 174t-60.5 139t-107.5 93.5t-157.5 34t-157.5 -34t-107.5 -93.5t-60.5 -139t-18.5 -174zM1493 -31q-315 0 -491 159.5t-216 428.5h-292v-557h-349v1393h349 v-555h292q59 409 298 497t409 88t303 -57t262 -203.5t129 -466.5t-129 -466t-262 -203.5t-303 -57.5z"/>
    <glyph glyph-name="uni042F" unicode="Я" horiz-adv-x="1390" d="M643 1112q-164 0 -164 -155.5t164 -155.5h254v311h-254zM897 0v520h-131l-340 -520h-379v33l363 522q-143 39 -218 143.5t-75 259.5q0 205 115.5 320t383.5 115h629v-1393h-348z"/>
    <glyph glyph-name="uni0430" unicode="а" horiz-adv-x="1134" d="M377 315q0 -92 102 -92t187 58v135h-103q-186 0 -186 -101zM379 -31q-166 0 -247 86t-83 221q0 168 118 254t384 84h115v31q0 57 -39 81t-111 24q-156 0 -328 -66l-73 248q211 86 424 86t333 -100t121 -318v-354q0 -18 5 -24t24 -7h59v-223q-70 -15 -159 -16 q-90 -1 -141 30q-50 31 -79 88h-4q-53 -45 -139 -85t-180 -40z"/>
    <glyph glyph-name="uni0431" unicode="б" horiz-adv-x="1216" d="M424 456.5q0 -102.5 53 -154.5t139 -52t139.5 52t53.5 154.5t-53.5 155t-139.5 52.5t-139 -52.5t-53 -155zM733 944q197 0 307.5 -131t110.5 -347t-136.5 -356.5t-410.5 -140.5t-398 181.5t-124 453.5q0 385 133.5 587t338 220.5t356 27.5t216.5 25v-293 q-59 -19 -245 -27t-277 -37q-92 -30 -134 -94.5t-46 -191.5l8 -2q104 125 301 125z"/>
    <glyph glyph-name="uni0432" unicode="в" horiz-adv-x="1173" d="M1067 721q0 -160 -147 -221v-4q74 -18 131 -73.5t57 -166.5t-87.5 -183.5t-320.5 -72.5h-589v987h579q377 0 377 -266zM641 606q84 0 84 53.5t-18.5 71t-65.5 17.5h-195v-142h195zM680 252q86 0 86 73.5t-86 73.5h-234v-147h234z"/>
    <glyph glyph-name="uni0433" unicode="г" horiz-adv-x="905" d="M881 987v-254h-435v-733h-335v987h770z"/>
    <glyph glyph-name="uni0434" unicode="д" horiz-adv-x="1306" d="M793 258v475h-236l-4 -84q-11 -252 -74 -391h314zM1128 987v-729h119l-47 -504h-219l-33 246h-635l-26 -246h-221l-50 504h121q68 78 78 209t12 174l15 346h886z"/>
    <glyph glyph-name="uni0435" unicode="е" horiz-adv-x="1110" d="M582 782q-147 0 -174 -182h340q2 10 2 16v11q0 67 -38 111t-130 44zM1051 578q0 -102 -15 -183h-628q12 -91 65 -125t178 -34t281 57l67 -250q-181 -74 -395 -74q-267 0 -404 141q-136 141 -135 376q1 236 135 384t374 148q241 0 359 -121q118 -120 118 -319z"/>
    <glyph glyph-name="uni0436" unicode="ж" horiz-adv-x="1742" d="M12 0v20l373 469l-354 478v20h352l315 -459h4v459h336v-459h4l316 459h354v-20l-356 -478l373 -469v-20h-363l-324 424h-4v-424h-336v424h-4l-323 -424h-363z"/>
    <glyph glyph-name="uni0437" unicode="з" horiz-adv-x="1024" d="M778 508q180 -62 180 -228q0 -84 -52.5 -197.5t-446.5 -113.5q-221 0 -412 76l49 258q147 -65 298 -65t187.5 16t36.5 50t-22.5 51.5t-89.5 17.5h-266v248h256q88 1 88 65t-158 64t-297 -50l-61 252q173 66 405 66q451 0 451 -289q0 -90 -39 -139t-107 -78v-4z"/>
    <glyph glyph-name="uni0438" unicode="и" horiz-adv-x="1251" d="M1141 987v-987h-336v512h-6l-336 -512h-352v987h335v-512h9l329 512h357z"/>
    <glyph glyph-name="uni0439" unicode="й" horiz-adv-x="1251" d="M633 1384q92 0 153 23t121 61l101 -159q-58 -70 -146 -122t-229 -52t-229 52t-146 122l100 159q127 -84 275 -84zM1141 987v-987h-336v512h-6l-336 -512h-352v987h335v-512h9l329 512h357z"/>
    <glyph glyph-name="uni043A" unicode="к" horiz-adv-x="1144" d="M111 987h335v-459h5l315 459h354v-20l-356 -478l373 -469v-20h-363l-323 424h-5v-424h-335v987z"/>
    <glyph glyph-name="uni043B" unicode="л" horiz-adv-x="1261" d="M815 733h-242l-16 -244q-16 -285 -108.5 -370.5t-187.5 -109t-230 -23.5v268q90 0 142 58t60 208l27 467h891v-987h-336v733z"/>
    <glyph glyph-name="uni043C" unicode="м" horiz-adv-x="1441" d="M1331 987v-987h-336v500h-4l-135 -312h-270l-135 312h-5v-500h-335v987h376l232 -485h4l231 485h377z"/>
    <glyph glyph-name="uni043D" unicode="н" horiz-adv-x="1230" d="M784 369h-338v-369h-335v987h335v-364h338v364h336v-987h-336v369z"/>
    <glyph glyph-name="uni043E" unicode="о" horiz-adv-x="1212" d="M1149 492q0 -226 -139 -375t-401 -148t-404 149t-142 376t142 376t403 148q139 0 241 -42q201 -84 267 -280q32 -96 33 -204zM406 494q0 -140 59 -198t145 -58t142 58q55 58 55 198t-55 197q-55 58 -144 59q-144 0 -187 -139q-15 -47 -15 -117z"/>
    <glyph glyph-name="uni043F" unicode="п" horiz-adv-x="1230" d="M784 733h-338v-733h-335v987h1009v-987h-336v733z"/>
    <glyph glyph-name="uni0440" unicode="р" horiz-adv-x="1220" d="M612 750q-95 0 -166 -52v-409q69 -51 164 -51q201 0 201 255q0 256 -199 257zM111 -406v1393h276l35 -94h4q47 43 112 84t173 41q213 0 327 -138t115 -386q0 -248 -115 -386t-327 -139q-97 0 -159 35t-101 70h-5v-480h-335z"/>
    <glyph glyph-name="uni0441" unicode="с" horiz-adv-x="962" d="M66 494q0 246 141 385t407 139q159 0 297 -53l-71 -252q-155 53 -261 33q-173 -33 -171 -252q1 -158 82 -216q53 -38 147 -38q95 0 203 36l71 -253q-137 -52 -297 -54q-266 -1 -407 139t-141 386z"/>
    <glyph glyph-name="uni0442" unicode="т" horiz-adv-x="954" d="M926 987v-254h-281v-733h-336v733h-280v254h897z"/>
    <glyph glyph-name="uni0443" unicode="у" horiz-adv-x="1112" d="M256 -436q-78 0 -160 16v262q51 -10 115 -10q63 0 99 20t59 76l32 82l-397 957v20h340l213 -641h6l201 641h342v-20l-430 -1082q-70 -173 -175 -247t-245 -74z"/>
    <glyph glyph-name="uni0444" unicode="ф" horiz-adv-x="1810" d="M584 748q-172 0 -172 -254t174 -254q84 0 151 51v405q-71 52 -153 52zM1226 748q-83 0 -153 -52v-405q69 -51 152 -51q174 0 174 254t-173 254zM1073 1434v-514h4q31 35 95.5 66.5t156.5 31.5q199 0 305.5 -138.5t106.5 -386t-106.5 -386t-305.5 -138.5q-92 0 -156.5 32 t-95.5 67h-4v-474h-336v474h-4q-31 -35 -95.5 -67t-156.5 -32q-199 0 -305 138.5t-106 386t106.5 386t304.5 138.5q92 0 156.5 -32t95.5 -66h4v514h336z"/>
    <glyph glyph-name="uni0445" unicode="х" horiz-adv-x="1110" d="M31 0v20l297 474l-297 473v20h350l172 -311h4l172 311h350v-20l-297 -473l297 -474v-20h-350l-172 309h-4l-172 -309h-350z"/>
    <glyph glyph-name="uni0446" unicode="ц" horiz-adv-x="1312" d="M111 0v987h335v-737h332v737h336v-737h162l-49 -496h-221l-33 246h-862z"/>
    <glyph glyph-name="uni0447" unicode="ч" horiz-adv-x="1093" d="M420 266q-194 0 -274 93t-80 251v377h335v-319q0 -70 24 -101.5t89 -31.5t133 45v407h336v-987h-336v317q-118 -51 -227 -51z"/>
    <glyph glyph-name="uni0448" unicode="ш" horiz-adv-x="1716" d="M111 0v987h335v-733h244v733h336v-733h244v733h336v-987h-1495z"/>
    <glyph glyph-name="uni0449" unicode="щ" horiz-adv-x="1804" d="M111 0v987h335v-733h244v733h336v-733h244v733h336v-733h159l-49 -500h-221l-33 246h-1351z"/>
    <glyph glyph-name="uni044A" unicode="ъ" horiz-adv-x="1187" d="M719 254q86 0 86 87t-86 87h-164v-174h164zM37 987h518v-305h184q211 0 309.5 -82t98.5 -259t-98.5 -259t-309.5 -82h-520v731h-182v256z"/>
    <glyph glyph-name="uni044B" unicode="ы" horiz-adv-x="1560" d="M610 254q86 0 86 87t-86 87h-164v-174h164zM446 987v-305h185q211 0 309 -82t98 -259t-98 -259t-309 -82h-520v987h335zM1116 0v987h334v-987h-334z"/>
    <glyph glyph-name="uni044C" unicode="ь" horiz-adv-x="1079" d="M610 254q86 0 86 87t-86 87h-164v-174h164zM446 987v-305h185q211 0 309 -82t98 -259t-98 -259t-309 -82h-520v987h335z"/>
    <glyph glyph-name="uni044D" unicode="э" horiz-adv-x="987" d="M365 1018q266 0 411.5 -139.5t145.5 -385t-145.5 -385t-411.5 -139.5q-178 0 -312 54l72 253q106 -36 215 -36q174 0 221 125h-342v253h342q-47 132 -221 132q-106 0 -215 -37l-72 252q138 53 312 53z"/>
    <glyph glyph-name="uni044E" unicode="ю" horiz-adv-x="1800" d="M993 494q0 -139 59.5 -197.5t145.5 -58.5t141.5 58t55.5 197.5t-55.5 197t-143.5 57.5q-143 0 -173 -92t-30 -162zM1598 117q-139 -148 -402 -148q-221 0 -356.5 107.5t-173.5 283.5h-220v-360h-335v987h335v-373h216q33 180 171 292t382 112t383 -147.5t139 -376.5 t-139 -377z"/>
    <glyph glyph-name="uni044F" unicode="я" horiz-adv-x="1155" d="M709 551v182h-148q-70 0 -97.5 -20.5t-27.5 -71.5t28 -69.5t97 -20.5h148zM709 0v297h-60l-252 -297h-358v23l268 296q-213 65 -213 316t147.5 301.5t262.5 50.5h540v-987h-335z"/>
    <glyph glyph-name="uni0450" unicode="ѐ" horiz-adv-x="1110" d="M252 1454h348l180 -299v-20h-295l-233 301v18zM582 782q-147 0 -174 -182h340q2 10 2 16v11q0 67 -38 111t-130 44zM1051 578q0 -102 -15 -183h-628q12 -91 65 -125t178 -34t281 57l67 -250q-181 -74 -395 -74q-267 0 -404 141q-136 141 -135 376q1 236 135 384t374 148 q241 0 359 -121q118 -120 118 -319z"/>
    <glyph glyph-name="uni0451" unicode="ё" horiz-adv-x="1110" d="M829 1147q-78 0 -124 44t-46 119q1 75 47 120t124 45t123 -45q46 -45 46 -120t-46 -119t-124 -44zM203 1310q0 75 46 120t124 45t124 -45t46 -120t-46 -119t-124 -44t-124 44t-46 119zM582 782q-147 0 -174 -182h340q2 10 2 16v11q0 67 -38 111t-130 44zM1051 578 q0 -102 -15 -183h-628q12 -91 65 -125t178 -34t281 57l67 -250q-181 -74 -395 -74q-267 0 -404 141q-136 141 -135 376q1 236 135 384t374 148q241 0 359 -121q118 -120 118 -319z"/>
    <glyph glyph-name="uni0452" unicode="ђ" horiz-adv-x="1187" d="M768 508q0 127 -33 183.5t-103 56.5q-123 0 -186 -80v-668h-333v1083h-88v248h88v103h333v-103h205v-248h-205v-168h5q39 39 111.5 71t160.5 32q387 0 387 -510q0 -323 -215 -823l-285 114q158 408 158 709z"/>
    <glyph glyph-name="uni0453" unicode="ѓ" horiz-adv-x="905" d="M324 1135v20l180 299h348v-18l-234 -301h-294zM881 987v-254h-435v-733h-335v987h770z"/>
    <glyph glyph-name="uni0454" unicode="є" horiz-adv-x="983" d="M66 493.5q0 245.5 145 385t412 139.5q173 0 311 -53l-72 -252q-109 37 -218 37t-156.5 -43t-61.5 -89h342v-253h-342q47 -125 221 -125q109 0 215 36l72 -253q-141 -54 -311 -54q-266 0 -411.5 139.5t-145.5 385z"/>
    <glyph glyph-name="uni0455" unicode="ѕ" horiz-adv-x="993" d="M489 223q125 0 123 64q0 29 -29 43q-30 14 -98 28l-110 23q-294 56 -291 303q0 158 115 246t325 88q119 0 205 -18t180 -56l-88 -246q-149 64 -297 66q-118 0 -116 -59q0 -25 24 -39t90 -29l109 -23q301 -64 301 -307q0 -166 -119 -252t-335 -86t-425 101l92 245 q184 -92 344 -92z"/>
    <glyph glyph-name="uni0456" unicode="і" horiz-adv-x="559" d="M94 1315q0 74 46 126t140 52t141 -52q46 -52 46 -126t-46 -126t-140 -52t-141 52q-46 52 -46 126zM113 0v987h333v-987h-333z"/>
    <glyph glyph-name="uni0457" unicode="ї" horiz-adv-x="559" d="M342 1310q0 75 46 120t124 45t124 -45t46 -120t-46 -119t-124 -44t-124 44t-46 119zM-115 1310q0 75 46 120t124 45t124 -45t46 -120t-46 -119t-124 -44t-124 44t-46 119zM113 0v987h333v-987h-333z"/>
    <glyph glyph-name="uni0458" unicode="ј" horiz-adv-x="561" d="M94 1315q0 74 46 126t140 52t141 -52q46 -52 46 -126t-46 -126t-140 -52t-141 52q-46 52 -46 126zM10 -168q55 0 79 29t24 88v1038h336v-1016q1 -217 -99 -312t-297 -95q-66 0 -143 14v264q45 -10 100 -10z"/>
    <glyph glyph-name="uni0459" unicode="љ" horiz-adv-x="1701" d="M1233 254q86 0 86 87t-86 87h-164v-174h164zM733 733h-160l-16 -244q-16 -285 -108.5 -370.5t-187.5 -109t-230 -23.5v268q90 0 142 58t60 208l27 467h809v-305h184q211 0 309.5 -82t98.5 -259t-98.5 -259t-309.5 -82h-520v733z"/>
    <glyph glyph-name="uni045A" unicode="њ" horiz-adv-x="1728" d="M1260 254q86 0 86 87t-86 87h-164v-174h164zM1096 987v-305h184q211 0 309.5 -82t98.5 -259t-98.5 -259t-309.5 -82h-520v428h-314v-428h-335v987h335v-305h314v305h336z"/>
    <glyph glyph-name="uni045B" unicode="ћ" horiz-adv-x="1206" d="M744 1018q174 0 266 -108q94 -108 94 -300v-610h-336v590q0 78 -34 119t-122 41t-163 -76v-674h-336v1090h-86v247h86v97h336v-97h204v-247h-204v-177h4q117 105 291 105z"/>
    <glyph glyph-name="uni045C" unicode="ќ" horiz-adv-x="1144" d="M426 1135v20l180 299h348v-18l-233 -301h-295zM111 987h335v-459h5l315 459h354v-20l-356 -478l373 -469v-20h-363l-323 424h-5v-424h-335v987z"/>
    <glyph glyph-name="uni045D" unicode="ѝ" horiz-adv-x="1251" d="M283 1454h348l180 -299v-20h-295l-233 301v18zM1141 987v-987h-336v512h-6l-336 -512h-352v987h335v-512h9l329 512h357z"/>
    <glyph glyph-name="uni045E" unicode="ў" horiz-adv-x="1112" d="M256 -436q-78 0 -160 16v262q51 -10 115 -10q63 0 99 20t59 76l32 82l-397 957v20h340l213 -641h6l201 641h342v-20l-430 -1082q-70 -173 -175 -247t-245 -74zM569 1384q91 0 153 23t122 61l100 -159q-57 -70 -145 -122q-87 -52 -229 -52t-230 52t-145 122l100 159 q59 -40 121 -62t153 -22z"/>
    <glyph glyph-name="uni045F" unicode="џ" horiz-adv-x="1214" d="M111 0v987h335v-733h322v733h336v-987h-352l-33 -246h-223l-33 246h-352z"/>
    <glyph glyph-name="uni0462" unicode="Ѣ" horiz-adv-x="1480" d="M662 281h237q100 0 136 50t36 121.5t-36 123t-136 51.5h-237v-346zM313 1034h-262v281h262v78h349v-78h376v-281h-376v-127h268q502 1 502 -453t-502 -454h-617v1034z"/>
    <glyph glyph-name="uni0463" unicode="ѣ" horiz-adv-x="1183" d="M717 254q86 0 86 87t-86 87h-164v-174h164zM553 1434v-426h303v-254h-303v-72h184q211 0 309.5 -82t98.5 -259t-98.5 -259t-309.5 -82h-520v754h-180v254h180v426h336z"/>
    <glyph glyph-name="uni0472" unicode="Ѳ" horiz-adv-x="1572" d="M786.5 1137q-149.5 0 -228.5 -83t-103 -216h663q-25 133 -103.5 216t-228 83zM786.5 256q149.5 0 228.5 83t103 218h-663q23 -135 102.5 -218t229 -83zM261.5 1219.5q179.5 203.5 525 203.5t525 -203.5t179.5 -523.5t-180 -523.5t-524.5 -203.5t-524.5 203.5t-180 523.5 t179.5 523.5z"/>
    <glyph glyph-name="uni0473" unicode="ѳ" horiz-adv-x="1212" d="M418 381q42 -143 190 -143t187 143h-377zM795 604q-37 144 -187 144t-190 -144h377zM1010 117q-139 -148 -401 -148q-263 0 -404.5 149t-141.5 376q0 228 141.5 376t404.5 148q262 0 401 -147.5t139 -376.5t-139 -377z"/>
    <glyph glyph-name="uni0474" unicode="Ѵ" horiz-adv-x="1456" d="M1423 1423v-280q-101 0 -129 -56.5t-41 -95.5l-329 -991h-445l-475 1372v21h381l315 -1049h7l208 690q33 106 68 181t113 141.5t327 66.5z"/>
    <glyph glyph-name="uni0475" unicode="ѵ" horiz-adv-x="1161" d="M1124 1010v-260q-66 0 -100.5 -30t-62.5 -118l-209 -602h-377l-365 967v20h338l213 -661h4l90 301q33 113 65 186.5t81 117.5t124.5 61.5t198.5 17.5z"/>
    <glyph glyph-name="uni0490" unicode="Ґ" horiz-adv-x="1146" d="M502 1112v-1112h-357v1393h623l41 288h270l41 -569h-618z"/>
    <glyph glyph-name="uni0491" unicode="ґ" horiz-adv-x="915" d="M446 733v-733h-335v987h501l45 217h217l21 -471h-449z"/>
    <glyph glyph-name="uni0E3F" unicode="฿" horiz-adv-x="1239" d="M711 854q90 20 90 129t-90 131v-260zM459 850h80v268h-80v-268zM459 276h80v322h-80v-322zM817 434q0 59 -20.5 101.5t-85.5 58.5v-318q106 22 106 158zM1118 998q0 -100 -45 -167t-106 -102v-4q98 -41 149 -115.5t51 -199.5q0 -205 -113.5 -302.5t-342.5 -107.5v-221 h-172v221h-416v1393h416v184h172v-191q297 -19 352 -153.5t55 -234.5z"/>
    <glyph glyph-name="Wgrave" unicode="Ẁ" horiz-adv-x="2107" d="M2087 1393v-21l-371 -1372h-426l-235 975h-4l-234 -975h-426l-371 1372v21h375l211 -985h4l236 985h416l235 -985h4l211 985h375zM717 1839h360l127 -295v-20h-286l-201 299v16z"/>
    <glyph glyph-name="wgrave" unicode="ẁ" horiz-adv-x="1744" d="M25 987h333l144 -643h4l180 643h373l180 -643h4l143 643h334v-20l-276 -967h-371l-199 676h-4l-198 -676h-371l-276 967v20zM494 1454h348l180 -299v-20h-295l-233 301v18z"/>
    <glyph glyph-name="Wacute" unicode="Ẃ" horiz-adv-x="2107" d="M2087 1393v-21l-371 -1372h-426l-235 975h-4l-234 -975h-426l-371 1372v21h375l211 -985h4l236 985h416l235 -985h4l211 985h375zM913 1524v20l127 295h361v-16l-201 -299h-287z"/>
    <glyph glyph-name="wacute" unicode="ẃ" horiz-adv-x="1744" d="M25 987h333l144 -643h4l180 643h373l180 -643h4l143 643h334v-20l-276 -967h-371l-199 676h-4l-198 -676h-371l-276 967v20zM727 1135v20l180 299h348v-18l-233 -301h-295z"/>
    <glyph glyph-name="Wdieresis" unicode="Ẅ" horiz-adv-x="2107" d="M2087 1393v-21l-371 -1372h-426l-235 975h-4l-234 -975h-426l-371 1372v21h375l211 -985h4l236 985h416l235 -985h4l211 985h375zM1495 1682q0 -78 -48 -124t-130 -46t-130 45q-48 46 -48 125t48 126t130 47t130 -47t48 -126zM977 1682q0 -78 -48 -124t-130 -46t-130 45 q-48 46 -48 125t48 126t130 47t130 -47t48 -126z"/>
    <glyph glyph-name="wdieresis" unicode="ẅ" horiz-adv-x="1744" d="M25 987h333l144 -643h4l180 643h373l180 -643h4l143 643h334v-20l-276 -967h-371l-199 676h-4l-198 -676h-371l-276 967v20zM934 1310q0 75 46 120t124 45t124 -45t46 -120t-46 -119t-124 -44t-124 44t-46 119zM477 1310q0 75 46 120t124 45t124 -45t46 -120t-46 -119 t-124 -44t-124 44t-46 119z"/>
    <glyph glyph-name="uni1E9E" unicode="ẞ" horiz-adv-x="1474" d="M724 1130q-120 0 -183.5 -74.5t-63.5 -246.5v-809h-348v784q0 309 144.5 474t467.5 165q254 0 519 -141v-268l-203 -205v-4q155 -29 249.5 -127t94.5 -254q0 -231 -133 -343t-367 -112q-151 0 -250 21v280q97 -20 190 -20t146 47t53 126t-48 123t-146 44h-131v241 l229 248q-100 51 -220 51z"/>
    <glyph glyph-name="Ygrave" unicode="Ỳ" horiz-adv-x="1318" d="M1323 1393v-21l-489 -827v-545h-349v545l-489 827v21h381l280 -541h5l280 541h381zM313 1839h361l127 -295v-20h-287l-201 299v16z"/>
    <glyph glyph-name="ygrave" unicode="ỳ" horiz-adv-x="1112" d="M256 -436q-78 0 -160 16v262q51 -10 115 -10q63 0 99 20t59 76l32 82l-397 957v20h340l213 -641h6l201 641h342v-20l-430 -1082q-70 -173 -175 -247t-245 -74zM174 1454h348l180 -299v-20h-294l-234 301v18z"/>
    <glyph glyph-name="endash" unicode="–" horiz-adv-x="1214" d="M113 428v254h989v-254h-989z"/>
    <glyph glyph-name="emdash" unicode="—" horiz-adv-x="1906" d="M113 428v254h1681v-254h-1681z"/>
    <glyph glyph-name="quoteleft" unicode="‘" horiz-adv-x="577" d="M76 762v20l180 611h246v-21l-107 -610h-319z"/>
    <glyph glyph-name="quoteright" unicode="’" horiz-adv-x="567" d="M514 1391v-21l-180 -631h-246v21l107 631h319z"/>
    <glyph glyph-name="quotesinglbase" unicode="‚" horiz-adv-x="563" d="M467 342v-20l-180 -631h-246v20l106 631h320z"/>
    <glyph glyph-name="quotedblleft" unicode="“" horiz-adv-x="1048" d="M547 762v20l180 611h246v-21l-107 -610h-319zM76 762v20l180 611h246v-21l-107 -610h-319z"/>
    <glyph glyph-name="quotedblright" unicode="”" horiz-adv-x="1038" d="M514 1393v-21l-180 -631h-246v21l107 631h319zM987 1393v-21l-180 -631h-246v21l107 631h319z"/>
    <glyph glyph-name="quotedblbase" unicode="„" horiz-adv-x="1038" d="M467 342v-20l-180 -631h-246v20l106 631h320zM942 342v-20l-180 -631h-246v20l107 631h319z"/>
    <glyph glyph-name="dagger" unicode="†" horiz-adv-x="950" d="M362 987v447h226v-447h307v-207h-307v-1186h-226v1186h-307v207h307z"/>
    <glyph glyph-name="daggerdbl" unicode="‡" horiz-adv-x="1028" d="M401 987v447h226v-447h305v-207h-305v-532h305v-207h-305v-447h-226v447h-305v207h305v532h-305v207h305z"/>
    <glyph glyph-name="bullet" unicode="•" horiz-adv-x="802" d="M133 596q0 119 73 193.5t195.5 74.5t195.5 -74.5t73 -193.5t-73 -193.5t-195.5 -74.5t-195.5 74.5t-73 193.5z"/>
    <glyph glyph-name="ellipsis" unicode="…" horiz-adv-x="1728" d="M86 178q0 92 56 150t152 59q96 0 153 -58q57 -59 57 -151t-56 -150t-153 -58t-153 58t-56 150zM655 178q1 92 57 150t152 59q96 0 152 -58q56 -59 57 -151q0 -92 -56 -150q-57 -58 -153 -58t-152 58t-57 150zM1227 178q0 92 56 150q57 58 153 59q96 0 152 -58 q56 -59 56 -151t-56 -150t-152 -58t-152 58t-57 150z"/>
    <glyph glyph-name="perthousand" unicode="‰" horiz-adv-x="2465" d="M266 0v20l946 1373h250v-21l-946 -1372h-250zM2404 369q0 -183 -81 -285t-243 -102t-242 101q-81 101 -81 285t81 286t243 102q163 0 243 -102t80 -285zM1982 369q0 -115 26 -153t72 -38t72 38t27 153q0 115 -27 153q-26 38 -72 37q-46 1 -72 -37t-26 -153zM713 1024 q0 -184 -81 -286t-243 -101q-162 0 -243 101q-80 102 -80 286t80 286q81 101 243 101q162 1 243 -101t81 -286zM291 1024q-1 -115 25 -153q26 -37 72 -37t73 38t26 152q0 115 -26 153q-27 37 -73 37t-72 -37q-25 -38 -25 -153zM1657 369q0 -183 -81 -285t-243 -102 q-163 0 -243 101t-80 285t81 286t243 102t242 -102q81 -102 81 -285zM1235 369q0 -115 26 -153q25 -38 71 -38t73 38t27 153t-27 153t-73 37q-46 1 -72 -37t-25 -153z"/>
    <glyph glyph-name="guilsinglleft" unicode="‹" horiz-adv-x="673" d="M55 565l338 461l203 -115l-201 -362l205 -359l-207 -110l-338 461v24z"/>
    <glyph glyph-name="guilsinglright" unicode="›" horiz-adv-x="673" d="M618 541l-337 -461l-207 110l205 359l-201 362l203 115l337 -461v-24z"/>
    <glyph glyph-name="fraction" unicode="⁄" horiz-adv-x="378" d="M-410 0v20l947 1373h249v-21l-946 -1372h-250z"/>
    <glyph glyph-name="uni2070" unicode="⁰" horiz-adv-x="737" d="M692 1268q0 -184 -81 -286t-243 -101q-162 0 -242 101q-81 102 -81 286t81 285t243 101q163 0 243 -100q80 -102 80 -286zM270 1268q0 -115 26 -153t72 -38t72 38t27 153q0 114 -27 152q-26 38 -72 38t-72 -38t-26 -152z"/>
    <glyph glyph-name="uni2074" unicode="⁴" horiz-adv-x="727" d="M610 1399v-168h86v-189h-86v-143h-215v143h-362v162l153 434h228l-133 -405v-2h114v168h215z"/>
    <glyph glyph-name="uni2075" unicode="⁵" horiz-adv-x="659" d="M387 1143q0 65 -113 65q-80 0 -168 -12l-24 27l33 415h475v-182l-285 -4l-6 -61h31q133 1 209 -55q75 -56 75 -186q-1 -269 -342 -267q-151 0 -249 49l51 186q96 -41 177 -41q81 -1 109 15t27 51z"/>
    <glyph glyph-name="uni2076" unicode="⁶" horiz-adv-x="684" d="M260 1157q0 -88 90 -88t90 88t-90 88t-90 -88zM440 1405q90 0 155 -61q66 -61 66 -185q1 -123 -88 -200q-89 -76 -231 -76t-222 79t-81 199q0 33 9 85t61 124l192 268h254v-10l-190 -235l2 -2q31 14 73 14z"/>
    <glyph glyph-name="uni2077" unicode="⁷" horiz-adv-x="645" d="M373 1450h-344v188h596v-178l-293 -561h-240v10l281 539v2z"/>
    <glyph glyph-name="uni2078" unicode="⁸" horiz-adv-x="733" d="M367 1655q295 0 293 -209q0 -103 -109 -148v-2q61 -16 101 -64t40 -139t-78 -151t-247 -59q-168 0 -247 59q-79 58 -79 150t40 140t101 64v2q-40 16 -74 52t-34 118q0 80 71 134q72 53 222 53zM289 1438q-1 -62 77 -62t78 62t-78 61q-78 1 -77 -61zM262 1139 q0 -78 105 -78q59 1 78 23t20 55q0 78 -98 78q-59 0 -82 -23t-23 -55z"/>
    <glyph glyph-name="uni2079" unicode="⁹" horiz-adv-x="686" d="M426 1380q0 88 -90 88t-90 -88t90 -88t90 88zM246 1133q-90 0 -155 62q-66 62 -66 184q0 123 88 198t231 77q142 1 222 -78t81 -200q0 -33 -9 -85t-60 -124l-193 -268h-254v10l191 236l-3 2q-31 -14 -73 -14z"/>
    <glyph glyph-name="uni207A" unicode="⁺" horiz-adv-x="569" d="M375 1360h145v-180h-145v-144h-180v144h-146v180h146v145h180v-145z"/>
    <glyph glyph-name="uni207B" unicode="⁻" horiz-adv-x="610" d="M541 1360v-180h-471v180h471z"/>
    <glyph glyph-name="uni207D" unicode="⁽" horiz-adv-x="380" d="M223 723q-184 273 -184 527t124 463q32 54 60 97l127 -67q-84 -193 -103 -333q-9 -66 -9 -144t13 -172t44 -173q32 -79 55 -133z"/>
    <glyph glyph-name="uni207E" unicode="⁾" horiz-adv-x="382" d="M160 1810q184 -273 184 -524q0 -252 -124 -465q-32 -55 -60 -98l-129 65q62 143 88 240t26 208q0 110 -9 174t-24 122q-15 57 -37 107t-44 104z"/>
    <glyph glyph-name="uni2080" unicode="₀" horiz-adv-x="737" d="M692 125q0 -183 -81 -285t-243 -102t-242 101q-81 101 -81 285t81 286t243 102q163 0 243 -102t80 -285zM270 125q0 -115 26 -153t72 -38t72 38t27 153q0 115 -27 153q-26 38 -72 38t-72 -38t-26 -153z"/>
    <glyph glyph-name="uni2081" unicode="₁" horiz-adv-x="512" d="M27 184v199l252 113h165v-740h-215v512h-6l-178 -84h-18z"/>
    <glyph glyph-name="uni2082" unicode="₂" horiz-adv-x="686" d="M344 512q126 0 206 -70t79 -184q0 -78 -37 -138t-125 -116l-88 -55v-4h252v-189h-586v174l264 191q53 41 74 64q20 24 20 56q0 31 -19 53t-61 22q-72 -1 -157 -91l-123 146q120 141 301 141z"/>
    <glyph glyph-name="uni2083" unicode="₃" horiz-adv-x="679" d="M635 -41q0 -219 -332 -219q-164 0 -276 57l55 183q85 -44 207 -45q121 -1 121 57q0 47 -74 47h-160v176h143q70 0 70 47q0 55 -99 55t-184 -34l-61 182q144 47 256 47q315 0 313 -213q0 -71 -32 -107t-88 -57v-2q141 -30 141 -174z"/>
    <glyph glyph-name="uni2084" unicode="₄" horiz-adv-x="727" d="M610 256v-168h86v-188h-86v-144h-215v144h-362v161l153 435h228l-133 -406v-2h114v168h215z"/>
    <glyph glyph-name="uni2085" unicode="₅" horiz-adv-x="657" d="M385 0q0 64 -113 66q-80 0 -168 -13l-24 27l33 416h475v-183l-285 -4l-6 -61h31q133 0 209 -55q75 -55 75 -185q-1 -267 -342 -268q-150 0 -250 49l52 186q91 -39 175 -40q83 -1 111 15t27 50z"/>
    <glyph glyph-name="uni2086" unicode="₆" horiz-adv-x="686" d="M260 14q0 -88 90 -88t90 88t-90 88t-90 -88zM440 262q90 0 155 -61q66 -61 66 -184q1 -123 -89 -200t-231 -77t-221 79t-81 199q0 33 9 85t61 124l192 269h254v-11l-190 -235l2 -2q31 14 73 14z"/>
    <glyph glyph-name="uni2087" unicode="₇" horiz-adv-x="645" d="M373 307h-344v189h596v-179l-293 -561h-240v11l281 538v2z"/>
    <glyph glyph-name="uni2088" unicode="₈" horiz-adv-x="733" d="M74 302q0 210 293 210t293 -210q0 -104 -109 -146v-2q61 -16 101 -64t40 -140q0 -90 -78 -150t-247 -60q-168 0 -247 59t-79 151q0 165 141 204v2q-108 43 -108 146zM289 294q-1 -62 77 -61q78 -1 78 61t-78 62t-77 -62zM262 -4q0 -78 105 -78q59 0 78 23t20 55 q0 78 -98 78q-59 0 -82 -23t-23 -55z"/>
    <glyph glyph-name="uni2089" unicode="₉" horiz-adv-x="686" d="M426 238q0 88 -90 88t-90 -88t90 -88t90 88zM246 -10q-90 0 -155 62q-66 62 -66 184q0 124 89 200t231 76q141 0 221 -79t81 -200q0 -33 -9 -85t-60 -123l-193 -269h-254v11l191 235l-3 2q-31 -14 -73 -14z"/>
    <glyph glyph-name="uni208D" unicode="₍" horiz-adv-x="380" d="M223 -420q-184 273 -184 529t124 461q32 54 60 98l127 -68q-57 -132 -85 -233q-27 -102 -27 -212t13 -203t44 -173q32 -80 55 -133z"/>
    <glyph glyph-name="uni208E" unicode="₎" horiz-adv-x="382" d="M344 123q0 -232 -124 -445q-32 -55 -60 -98l-129 66q63 145 88 241q26 97 26 206q0 110 -14 207t-46 172t-54 128l129 68q184 -273 184 -545z"/>
    <glyph glyph-name="colonmonetary" unicode="₡" horiz-adv-x="1226" d="M416 693q0 -142 53 -253l129 656q-86 -51 -134 -156t-48 -247zM596 299q50 -28 80 -33l168 864q-41 6 -84 7zM55 696q0 309 158.5 502.5t448.5 220.5l32 158h152l-31 -156l84 -8l33 164h153l-38 -199q95 -33 118 -45l-90 -270q-60 26 -84 33l-166 -838q113 10 250 72 l90 -271q-183 -86 -395 -90l-37 -190h-151l39 201q-73 13 -84 16l-41 -217h-156l53 270q-166 88 -252 255t-86 392z"/>
    <glyph glyph-name="lira" unicode="₤" horiz-adv-x="1181" d="M516 281h565v-281h-960v236q66 33 95.5 75.5t33.5 104.5h-150v233h129l-14 94h-115v234h88v31q0 201 139 308t373 107q235 0 428 -90l-98 -276q-68 29 -139.5 54.5t-161.5 25.5q-168 0 -180 -160h375v-234h-344l18 -94h326v-233h-326q-20 -82 -82 -131v-4z"/>
    <glyph glyph-name="uni20A6" unicode="₦" horiz-adv-x="1605" d="M465 1196l12 -201h78l-86 201h-4zM1137 197l-11 231h-90l94 -231h7zM496 776v-129h186l-49 129h-137zM1114 647v129h-201l45 -129h156zM1419 428v-428h-504l-157 428h-262v-428h-306v428h-96v219h96v129h-96v219h96v398h508l144 -398h272v398h305v-398h92v-219h-92v-129 h92v-219h-92z"/>
    <glyph glyph-name="uni20A8" unicode="₨" d="M1026 0h-405l-502 485v207h231q113 0 158 29t55 74h-481l74 233h411q-32 107 -217 107h-268l74 258h987l-74 -234h-285v-4q79 -37 123 -127h236l-74 -233h-149q-20 -186 -143.5 -255t-211.5 -89l461 -418v-33z"/>
    <glyph glyph-name="uni20AA" unicode="₪" horiz-adv-x="1673" d="M1561 1393v-856q0 -305 -100.5 -395.5t-211 -116t-270.5 -25.5h-455v1016h277v-758h178q156 0 209 50.5t53 221.5v863h320zM883 377v485q0 171 -53 222t-209 51h-179v-1135h-319v1393h498q160 0 263 -26t164.5 -88t86 -165.5t24.5 -257.5v-479h-276z"/>
    <glyph glyph-name="dong" unicode="₫" horiz-adv-x="1275" d="M596 848q-101 0 -147 -39t-46 -170t172 -131q129 0 209 55v225q-87 60 -188 60zM199 0v203h917v-203h-917zM1118 1137v-856h-276l-35 92h-4q-51 -47 -126 -83t-196 -36q-184 0 -294.5 104.5t-110.5 319.5t110.5 319.5t294.5 104.5q109 0 183.5 -32t113.5 -66h4v133h-168 v190h168v66h336v-66h74v-190h-74z"/>
    <glyph glyph-name="Euro" unicode="€" d="M793 256q152 0 294 76l93 -273q-186 -90 -379 -90q-363 0 -464 167t-132 267h-191l74 234h76q-2 16 -2 19v44q0 41 2 60h-150l72 233h119q61 201 206.5 315.5t374.5 114.5t404 -86l-100 -278q-59 33 -124 54.5t-165 21.5q-158 0 -240 -142h502l-70 -233h-491 q-2 -16 -2 -20v-48q0 -43 2 -55h459l-70 -234h-326q76 -147 228 -147z"/>
    <glyph glyph-name="uni20AD" unicode="₭" horiz-adv-x="1325" d="M1264 0h-390l-292 561h-60v-561h-348v561h-94v252h94v580h348v-580h60l282 580h379v-21l-319 -559h276v-252h-270l334 -541v-20z"/>
    <glyph glyph-name="uni20AE" unicode="₮" horiz-adv-x="1202" d="M1159 1393v-281h-383v-192l195 65v-205l-195 -65v-115l195 66v-205l-195 -66v-395h-348v279l-188 -62v205l188 61v115l-188 -61v204l188 62v309h-381v281h1112z"/>
    <glyph glyph-name="uni20B1" unicode="₱" horiz-adv-x="1296" d="M537 1057h225q-14 39 -51 53t-97 14h-77v-67zM614 530q139 0 154 78h-231v-78h77zM805 879h-268v-93h268v93zM616 262h-67v-262h-342v600h-117v193h117v79h-117v193h117v328h409q201 0 322 -88t162 -240h131v-193h-111v-79h111v-193h-133q-39 -154 -161 -246t-321 -92z "/>
    <glyph glyph-name="uni20B2" unicode="₲" horiz-adv-x="1234" d="M420 696q0 -193 22.5 -263.5t44 -99t50.5 -48.5v813q-117 -84 -117 -402zM723 -221h-186v203q-219 36 -342 230.5t-123 467.5q0 274 121 471t344 256v170h186v-154q173 -6 268.5 -36.5t124.5 -45.5l-84 -266q-137 60 -309 60v-883q62 5 108 22v240l-59 18v248h371v-702 q-159 -90 -420 -105v-194z"/>
    <glyph glyph-name="uni20B4" unicode="₴" horiz-adv-x="1234" d="M586 1423q247 0 369 -112t122 -310h64v-231h-215l-131 -121v-4h346v-231h-660q0 -90 32 -127t128 -37q194 0 385 110l84 -270q-129 -72 -268.5 -96.5t-231.5 -24.5q-221 0 -335.5 101t-118.5 344h-70v231h244l139 121v4h-383v231h655q2 66 -31.5 103t-151.5 37t-279 -84 l-91 276q206 90 398 90z"/>
    <glyph glyph-name="uni20B5" unicode="₵" horiz-adv-x="1222" d="M420 695q0 -153 56 -261t159 -153v829q-102 -43 -158.5 -152.5t-56.5 -262.5zM840 -221h-205v198q-275 35 -425.5 226.5t-150.5 491.5t149.5 492.5t426.5 227.5v162h205v-158q172 -13 329 -86l-90 -270q-137 58 -239 70v-875q94 9 239 72l90 -271q-154 -71 -329 -86v-194 z"/>
    <glyph glyph-name="uni2113" unicode="ℓ" horiz-adv-x="856" d="M565 1124q0 78 -43 78q-23 0 -31 -17.5t-8 -62.5v-264q82 103 82 266zM227 250v108q-21 -21 -59 -47l-127 195q125 93 186 156v421q0 182 74 281.5t213 99.5t215 -82t76 -231q0 -295 -322 -592v-248q0 -96 78 -96t162 53l78 -211q-121 -88 -277 -88q-155 0 -226 76 t-71 205z"/>
    <glyph glyph-name="uni2116" unicode="№" horiz-adv-x="2287" d="M1032 539v854h348v-1393h-368l-527 854h-4v-854h-348v1393h371l524 -854h4zM1497 1028q0 141 90 233q99 97 269 97t266 -92t96 -238q0 -222 -203 -303q-67 -27 -157 -27t-158 27q-136 54 -180 175q-23 60 -23 128zM1554 385v203h607v-203h-607zM1980 1028q0 133 -122 133 t-123 -133q0 -106 81 -128q22 -5 42 -5q122 0 122 133z"/>
    <glyph glyph-name="uni2117" unicode="℗" horiz-adv-x="1617" d="M426.5 303.5q156.5 -158.5 401.5 -158.5t382.5 155.5t137.5 394t-146.5 395.5t-393.5 157t-392.5 -156t-145.5 -392.5t156.5 -395zM854 711q88 0 88 95t-88 95h-72v-190h72zM549 313v766h346q143 0 211 -75t68 -232.5t-101.5 -198.5t-177.5 -41h-113v-219h-233zM82 696.5 q0 153.5 55.5 286.5t153.5 231.5t231 153.5t287 55t287 -55t231 -153.5t153.5 -231.5t55.5 -286.5t-55.5 -287t-153.5 -231.5t-231 -153.5t-287 -55.5t-287 55.5t-231 153.5t-153.5 231.5t-55.5 287z"/>
    <glyph glyph-name="trademark" unicode="™" horiz-adv-x="1523" d="M627 1434v-146h-166v-428h-185v428h-165v146h516zM1395 1434v-574h-187v314h-2l-71 -209h-154l-76 209h-2v-314h-178v574h217l113 -279h2l123 279h215z"/>
    <glyph glyph-name="Omega" unicode="Ω" horiz-adv-x="1642" d="M821 1423q180 0 312.5 -53t219.5 -141t130 -201t43 -224q0 -206 -79.5 -337.5t-203.5 -185.5h301v-281h-649v240q137 84 202.5 197t65.5 304q0 268 -125 332t-256.5 64t-217 -112t-85.5 -284q0 -284 104.5 -375.5t164.5 -125.5v-240h-650v281h301q-194 88 -238 249.5 t-44 273.5t43 224.5t130 200.5t219 141t312 53z"/>
    <glyph glyph-name="estimated" unicode="℮" horiz-adv-x="1323" d="M667 1135q-208 0 -333 -129v-330h678v330q-137 129 -345 129zM688 -31q-272 0 -435 180t-163 446q0 267 162.5 442t419.5 175t417.5 -165t170.5 -433l-15 -20h-911v-412q133 -127 338 -127q277 0 420 217l75 -55q-96 -133 -213.5 -190.5t-265.5 -57.5z"/>
    <glyph glyph-name="onethird" unicode="⅓" horiz-adv-x="1669" d="M201 0v20l946 1373h250v-21l-946 -1372h-250zM61 1081v199l252 113h166v-740h-215v512h-6l-178 -84h-19zM1602 203q0 -219 -333 -219q-164 0 -276 57l56 182q88 -45 208 -45q121 0 119 58q0 45 -73 47h-160v176h143q70 0 70 47q0 55 -101 55t-182 -35l-61 183 q140 46 256 47q313 0 313 -213q0 -70 -33 -107t-88 -57v-2q142 -30 142 -174z"/>
    <glyph glyph-name="twothirds" unicode="⅔" horiz-adv-x="1761" d="M299 0v20l946 1373h250v-21l-946 -1372h-250zM377 1405q125 0 205 -70t80 -184q0 -78 -37 -138t-125 -116l-88 -55v-4h252v-189h-586v174l264 191q53 41 74 64q20 24 20 56t-19 54t-61 20q-73 -1 -157 -90l-123 146q120 141 301 141zM1698 203q0 -219 -332 -219 q-166 0 -276 57l55 182q88 -45 208 -45t120 58q0 45 -74 47h-160v176h143q70 0 70 47q0 55 -100 55t-183 -35l-61 183q140 46 256 47q313 0 313 -213q-1 -70 -33 -107t-88 -57v-2q142 -30 142 -174z"/>
    <glyph glyph-name="oneeighth" unicode="⅛" horiz-adv-x="1677" d="M201 0v20l946 1373h250v-21l-946 -1372h-250zM61 1081v199l252 113h166v-740h-215v512h-6l-178 -84h-19zM1581 547q0 -102 -108 -148v-2q61 -16 101 -64t40 -139q0 -90 -79 -150t-247 -60t-247 59t-79 151q1 167 142 203v2q-41 17 -75 53t-34 116t72 134q72 53 221 54 q293 0 293 -209zM1288 477q78 -1 78 61t-77 62t-79 -61q0 -62 78 -62zM1288 162q59 0 79 22q19 23 19 56q0 79 -98 77q-59 -1 -82 -23t-22 -54q0 -78 104 -78z"/>
    <glyph glyph-name="threeeighths" unicode="⅜" horiz-adv-x="1767" d="M293 0v20l946 1373h250v-21l-946 -1372h-250zM1706 194q0 -90 -79 -150t-247 -60t-246 59t-79 151q0 92 40 139q40 48 101 64v2q-41 17 -75 53t-34 116t72 134q72 53 221 54q296 0 294 -209q0 -102 -109 -148v-2q61 -16 101 -64t40 -139zM1303 538q-1 -62 77 -61 q78 -1 78 61t-78 62t-77 -62zM1380 162q59 0 79 22q19 23 20 56q0 79 -99 77q-59 -1 -82 -23t-22 -54q0 -78 104 -78zM670 850q0 -219 -332 -219q-165 0 -277 57l56 182q83 -43 206 -44t121 57q0 47 -73 47h-160v176h143q70 0 70 47q0 55 -100 55t-183 -34l-61 182 q144 47 256 47q313 0 313 -213q0 -70 -33 -107t-88 -57v-2q142 -30 142 -174z"/>
    <glyph glyph-name="fiveeighths" unicode="⅝" horiz-adv-x="1736" d="M256 0v20l946 1373h250v-21l-946 -1372h-250zM426 897q0 64 -113 66q-80 0 -168 -13l-24 27l33 416h475v-183l-285 -4l-6 -61h31q133 0 209 -55q76 -56 76 -186q-1 -267 -343 -267q-150 0 -250 49l52 186q91 -39 175 -40q82 -2 110 14t28 51zM1671 194q-1 -90 -79 -150 t-246 -60t-247 59t-79 151t40 139q40 48 101 64v2q-41 17 -75 53t-33 103q0 94 71 147q72 53 222 54q294 0 292 -210q0 -103 -108 -147v-2q61 -16 101 -64t40 -139zM1268 538q0 -62 78 -61q78 -1 77 61q1 62 -77 62t-78 -62zM1241 240q0 -78 105 -78q59 0 78 22t20 56 q0 79 -98 77q-59 -1 -82 -23t-23 -54z"/>
    <glyph glyph-name="seveneighths" unicode="⅞" horiz-adv-x="1638" d="M164 0v20l946 1373h250v-21l-946 -1372h-250zM1577 194q0 -90 -79 -150t-247 -60q-169 0 -247 59t-78 151t40 139q40 48 101 64v2q-41 17 -75 53t-34 116t72 134q72 53 221 54q295 0 293 -209q0 -102 -108 -148v-2q61 -16 101 -64t40 -139zM1174 538q0 -62 78 -61 q78 -1 77 61q1 62 -77 62t-78 -62zM1251 162q59 0 79 22q19 23 20 56q0 79 -99 77q-59 -1 -82 -23t-22 -54q0 -78 104 -78zM412 1204h-344v189h596v-179l-293 -561h-240v11l281 538v2z"/>
    <glyph glyph-name="arrowleft" unicode="←" horiz-adv-x="1826" d="M1827 838v-287h-1204l448 -420l-211 -215l-778 778l778 779l211 -216l-448 -419h1204z"/>
    <glyph glyph-name="arrowup" unicode="↑" horiz-adv-x="1826" d="M1096 -178h-287v1204l-420 -448l-215 210l778 779l779 -779l-215 -210l-420 448v-1204z"/>
    <glyph glyph-name="arrowright" unicode="→" horiz-adv-x="1826" d="M82 551v287h1204l-448 419l211 216l778 -779l-778 -778l-211 215l448 420h-1204z"/>
    <glyph glyph-name="arrowdown" unicode="↓" horiz-adv-x="1826" d="M811 1565h287v-1205l420 449l215 -211l-779 -778l-778 778l215 211l420 -449v1205z"/>
    <glyph glyph-name="uni2196" unicode="↖" horiz-adv-x="1808" d="M328 256v1100h1099v-291l-616 10l852 -852l-203 -203l-852 852l10 -616h-290z"/>
    <glyph glyph-name="uni2197" unicode="↗" horiz-adv-x="1810" d="M547 1356h1100v-1100h-291l10 616l-852 -852l-203 203l852 852l-616 -10v291z"/>
    <glyph glyph-name="uni2198" unicode="↘" horiz-adv-x="1810" d="M1645 1139v-1100h-1100v291l616 -11l-852 852l203 203l852 -852l-10 617h291z"/>
    <glyph glyph-name="uni2199" unicode="↙" horiz-adv-x="1808" d="M1425 39h-1099v1100h290l-10 -617l852 852l203 -203l-852 -852l616 11v-291z"/>
    <glyph glyph-name="partialdiff" unicode="∂" horiz-adv-x="1275" d="M595 725q-87 0 -138 -68.5t-51 -179t55 -174t127 -63.5q224 0 256 342q-37 53 -99.5 98t-149.5 45zM1190 690q0 -321 -159.5 -521t-455.5 -200q-232 0 -372 149.5t-140 358.5q0 256 137.5 387t338.5 131q129 0 202.5 -43t116.5 -92l4 4q-41 189 -220 236t-304 49l39 285 q386 0 545 -150.5t213.5 -292t54.5 -301.5z"/>
    <glyph glyph-name="Delta" unicode="∆" horiz-adv-x="1517" d="M756 1057l-256 -776h520l-258 776h-6zM1468 0h-1419v10l498 1383h424l497 -1383v-10z"/>
    <glyph glyph-name="product" unicode="∏" horiz-adv-x="1478" d="M997 1153h-516v-1559h-348v1840h1213v-1840h-349v1559z"/>
    <glyph glyph-name="summation" unicode="∑" horiz-adv-x="1288" d="M96 1434h1090v-281h-707l537 -616l-572 -662h773v-281h-1154v250l582 684l-549 654v252z"/>
    <glyph glyph-name="minus" unicode="−" d="M1126 682v-254h-1044v254h1044z"/>
    <glyph glyph-name="uni2215" unicode="∕" horiz-adv-x="1163" d="M-16 0v20l946 1373h250v-21l-947 -1372h-249z"/>
    <glyph glyph-name="uni2219" unicode="∙" horiz-adv-x="598" d="M92 602q0 92 56 150t152 59q96 0 154 -58q56 -59 56 -151t-56 -150t-152 -58t-154 58q-56 58 -56 150z"/>
    <glyph glyph-name="radical" unicode="√" horiz-adv-x="1361" d="M10 455h312l233 -535h4l504 1473h309l-639 -1799h-350l-373 840v21z"/>
    <glyph glyph-name="infinity" unicode="∞" horiz-adv-x="1515" d="M1167 555q0 41 -25.5 72.5t-63.5 31.5t-67.5 -23.5t-78.5 -80.5q49 -57 78.5 -80.5t67.5 -23.5t63.5 31.5t25.5 72.5zM398 211q-58 0 -118.5 25.5t-103.5 70.5t-66.5 108.5t-23.5 178.5t91 210t235 95q97 0 167 -33t179 -147q106 114 177.5 147t155.5 33q85 0 145 -25.5 t103 -70.5t67 -108.5t24 -178t-91.5 -210t-234.5 -95.5q-97 0 -168.5 33t-177.5 147q-145 -156 -223.5 -168t-136.5 -12zM348 555q0 -41 25.5 -72.5t63.5 -31.5t68 23.5t79 80.5q-49 57 -79 80.5t-68 23.5t-63.5 -31.5t-25.5 -72.5z"/>
    <glyph glyph-name="integral" unicode="∫" horiz-adv-x="1069" d="M161 -166q46 0 67.5 16.5t31.5 71.5l207 1174q31 174 123 250.5t262 76.5q120 0 213 -20l-37 -268q-70 18 -118 18t-69.5 -16.5t-31.5 -71.5l-207 -1174q-31 -174 -123 -250.5t-262 -76.5q-121 0 -213 20l37 269q74 -19 120 -19z"/>
    <glyph glyph-name="approxequal" unicode="≈" d="M379 510q70 0 125 -17.5t107.5 -39t105.5 -39t117 -17.5t99.5 20.5t70.5 51.5l122 -160q-53 -78 -134.5 -121t-163.5 -43t-136.5 17.5t-151.5 56.5t-173 39t-112 -20.5t-71 -51.5l-123 160q109 164 318 164zM397 981q96 0 190.5 -39t147.5 -56.5t117 -17.5t99.5 20.5 t70.5 51.5l123 -160q-53 -78 -135 -121t-164 -43t-136.5 17.5t-150.5 56.5t-173 39q-76 0 -112 -20.5t-71 -51.5l-123 160q109 164 317 164z"/>
    <glyph glyph-name="notequal" unicode="≠" d="M975 1108v-21l-72 -155h223v-254h-333l-111 -244h444v-254h-555l-82 -180h-266v20l72 160h-213v254h324l110 244h-434v254h545l82 176h266z"/>
    <glyph glyph-name="lessequal" unicode="≤" d="M1116 254v-254h-1044v254h1044zM1116 1292v-274l-694 -209v-6l694 -211v-273h-22l-1022 355v264l1022 354h22z"/>
    <glyph glyph-name="greaterequal" unicode="≥" d="M1137 254v-254h-1045v254h1045zM92 319v273l694 211v6l-694 209v274h23l1022 -354v-264l-1022 -355h-23z"/>
    <glyph glyph-name="lozenge" unicode="◊" horiz-adv-x="1234" d="M848 694l-236 385l-227 -397l238 -371zM55 670l426 723h262l435 -682l-424 -711h-267z"/>
    <glyph glyph-name="circle" unicode="○" horiz-adv-x="1638" d="M416 294.5q160 -163.5 403 -163.5t402 164.5t159 400.5q0 237 -159 401.5t-402 164.5t-403 -164t-160 -402t160 -401.5zM123 696.5q0 147.5 53 275.5t146.5 221t221.5 146.5t275.5 53.5t275.5 -53.5t221 -146.5t146.5 -221t53.5 -275.5t-53.5 -275.5t-146.5 -221.5 t-221 -146.5t-275.5 -53t-275.5 53t-221.5 146.5t-146.5 221.5t-53 275.5z"/>
    <glyph glyph-name="H18533" unicode="●" horiz-adv-x="1638" d="M123 698.5q0 147.5 53 274.5t146.5 220t220.5 146.5t274.5 53.5t275.5 -53.5t222 -146.5t147.5 -220t53.5 -274.5t-53.5 -275.5t-147.5 -222.5t-222 -147.5t-275.5 -53t-274.5 53t-220.5 147.5t-146.5 222.5t-53 275.5z"/>
    <glyph glyph-name="uni25DC" unicode="◜" horiz-adv-x="696" d="M696 1262q-243 0 -403 -164t-160 -402h-133q0 147 53 275.5t146.5 221.5t221.5 146.5t275 53.5v-131z"/>
    <glyph glyph-name="uni25DD" unicode="◝" horiz-adv-x="696" d="M0 1393q147 0 275 -53.5t221.5 -146.5t146.5 -221t53 -276h-135q0 237 -159 401.5t-402 164.5v131z"/>
    <glyph glyph-name="uni25DE" unicode="◞" horiz-adv-x="696" d="M0 131q243 0 402 164.5t159 400.5h135q0 -147 -53 -275t-146.5 -221.5t-221.5 -146.5t-275 -53v131z"/>
    <glyph glyph-name="uni25DF" unicode="◟" horiz-adv-x="696" d="M696 0q-147 0 -275 53t-221.5 146.5t-146.5 221.5t-53 275h133q0 -237 160 -401t403 -164v-131z"/>
    <glyph glyph-name="uniEA01" unicode="" horiz-adv-x="2048" d="M1206 610h-360v-385h-238v961h238v-385h360v385h236v-961h-236v385zM1755 -47v1464h-1464v-1464h1464zM141 1567h1764v-1764h-1764v1764z"/>
    <glyph glyph-name="uniEA02" unicode="" horiz-adv-x="2048" d="M1082 203q-128 0 -218 35.5t-151.5 102.5t-93 159t-31.5 262.5t127 307t356 136.5q149 0 283 -61l-62 -189q-66 31 -112.5 42.5t-108.5 11.5q-98 0 -165.5 -76t-67.5 -229.5t67.5 -228.5t168.5 -75t218 52l62 -189q-144 -61 -272 -61zM1755 -47v1464h-1464v-1464h1464z M141 1567h1764v-1764h-1764v1764z"/>
    <glyph glyph-name="uniEA03" unicode="" horiz-adv-x="2048" d="M1028 1014q-63 0 -91 -25.5t-28 -60.5t17.5 -54.5t70.5 -35.5l107 -33q141 -43 208.5 -106.5t67.5 -176.5q0 -147 -104.5 -233t-279.5 -86q-174 0 -341 86l60 188q87 -49 170.5 -64.5t120.5 -15.5q131 0 131 97q0 35 -25 54t-100 44l-111 35q-135 45 -185 115.5 t-50 162.5q0 141 98 221t263 80t306 -61l-61 -189q-118 58 -244 58zM1755 -47v1464h-1464v-1464h1464zM141 1567h1764v-1764h-1764v1764z"/>
    <glyph glyph-name="uniEA04" unicode="" horiz-adv-x="2048" d="M1206 225h236v961h-236v-385h-360v385h-238v-961h238v385h360v-385zM141 1567h1764v-1764h-1764v1764z"/>
    <glyph glyph-name="uniEA05" unicode="" horiz-adv-x="2048" d="M1087 1206q-133 0 -223 -36.5t-151.5 -102.5t-93 -158t-31.5 -262t125.5 -307t357.5 -137q135 0 283 61l-62 189q-118 -52 -219 -52q-100 0 -167.5 75t-67.5 228.5t67.5 229.5t170.5 76t216 -54l62 189q-134 61 -267 61zM141 1567h1764v-1764h-1764v1764z"/>
    <glyph glyph-name="uniEA06" unicode="" horiz-adv-x="2048" d="M1380 522q0 113 -67.5 176.5t-208.5 106.5l-107 33q-53 16 -70.5 35.5t-17.5 54.5t28 60.5t91 25.5q124 0 244 -58l61 189q-142 61 -306 61q-165 0 -263 -79.5t-98 -221.5q0 -92 50 -162.5t185 -115.5l111 -35q76 -25 100.5 -44.5t24.5 -53.5q0 -96 -131 -97 q-103 0 -185 33t-106 47l-60 -188q164 -86 340 -86t280.5 86t104.5 233zM141 1567h1764v-1764h-1764v1764z"/>
    <glyph glyph-name="uniF6C3" unicode="" d="M799 -104v-21l-142 -381h-247v21l57 381h332z"/>
    <glyph glyph-name="uniF6E1" unicode="" horiz-adv-x="387" d="M338 27v-17l-150 -461h-170v15l74 463h246z"/>
    <glyph glyph-name="uniF6E2" unicode="" horiz-adv-x="389" d="M338 1165v-16l-150 -461h-170v14l74 463h246z"/>
    <glyph glyph-name="uniF6E5" unicode="" horiz-adv-x="567" d="M68 37v180h432v-180h-432z"/>
    <glyph glyph-name="uniF6E6" unicode="" horiz-adv-x="571" d="M70 1180v180h432v-180h-432z"/>
    <glyph glyph-name="uniF6E7" unicode="" horiz-adv-x="393" d="M45 -109q0 70 41 114t111 44q71 0 111 -44t40 -114q0 -69 -41 -113t-111 -44t-110 44q-41 44 -41 113z"/>
    <glyph glyph-name="uniF6E8" unicode="" horiz-adv-x="393" d="M45 1034q0 70 41 114t111 44q71 0 111 -44t40 -114t-41 -114t-111 -43q-70 -1 -110 43q-41 44 -41 114z"/>
    <glyph glyph-name="uniF8FF" unicode="" horiz-adv-x="1091" d="M850 119v1155h-608v-1155h608zM123 1393h846v-1393h-846v1393z"/>
    <glyph glyph-name="uniFB01" unicode="ﬁ" horiz-adv-x="1368" d="M903 1308.5q0 73.5 44 129t142.5 55.5t142.5 -55.5t44 -129t-44 -129t-142.5 -55.5t-142.5 55.5t-44 129zM644 1174q-48 0 -75.5 -18.5t-27.5 -70.5v-98h714v-987h-333v733h-381v-733h-336v733h-172v201l172 53v129q0 328 350 328q110 0 199 -21v-262q-62 13 -110 13z "/>
    <glyph glyph-name="uniFB02" unicode="ﬂ" horiz-adv-x="1411" d="M541 987h213v-254h-213v-733h-336v733h-172v201l172 53v129q0 328 350 328q55 0 119 -8t80 -13v-262q-135 29 -186 -5q-28 -18 -27 -71v-98zM1182 -20q-150 0 -211 70t-62 231v1153h334v-1172q0 -23 8 -32t31 -9h88v-223q-101 -18 -188 -18z"/>
    <glyph glyph-name="zero.pnum" horiz-adv-x="1323" d="M92 696q0 168 33 302.5t102.5 228.5t177 145t257 51t257 -51t177 -145t102.5 -228.5t33 -302.5t-33 -302t-102.5 -228t-177 -145.5t-257 -51.5t-257 51.5t-177 145.5t-102.5 228t-33 302zM455 696.5q0 -233.5 45 -337t161.5 -103.5t161.5 103.5t45 337t-45 337 t-161.5 103.5t-161.5 -103.5t-45 -337z"/>
    <glyph glyph-name="one.pnum" horiz-adv-x="835" d="M53 958v299l383 136h269v-1393h-349v1053h-4l-276 -95h-23z"/>
    <glyph glyph-name="two.pnum" horiz-adv-x="1196" d="M573 281h527v-281h-1016v238l524 501q55 53 86 103t31 130t-54 122t-132 43q-78 0 -143 -45t-128 -109l-188 215q119 145 330 203q80 23 184 23q219 -1 356 -116q137 -114 135 -319q0 -147 -57 -247t-143 -177l-312 -280v-4z"/>
    <glyph glyph-name="three.pnum" horiz-adv-x="1183" d="M696 992q0 146 -175 145q-175 0 -333 -68l-98 262q206 94 426 92q541 0 541 -385q0 -124 -65 -205t-150 -104v-4q106 -35 180 -121t74 -227q0 -294 -315 -379q-107 -29 -261 -29q-259 0 -461 105l82 270q155 -88 373 -88q123 0 172 41t49 117t-50 110t-171 33h-233v281 h225q110 0 150 41t40 113z"/>
    <glyph glyph-name="four.pnum" horiz-adv-x="1282" d="M1063 913v-358h162v-281h-162v-274h-348v274h-656v240l373 879h344l-346 -838h285v358h348z"/>
    <glyph glyph-name="five.pnum" horiz-adv-x="1169" d="M471 612q-32 0 -274 -14l-45 43l73 752h807v-281h-497l-25 -215q20 2 38 2h34q236 1 372 -109t136 -344t-157 -355q-157 -122 -450 -122q-216 0 -434 76l76 287q181 -76 339 -76t212 52q53 52 53 133t-58 126t-200 45z"/>
    <glyph glyph-name="six.pnum" horiz-adv-x="1245" d="M440 463q0 -99 52 -153t143 -54q92 0 143 54t51 152t-51 153t-143 55q-91 0 -143 -54t-52 -153zM758 956q194 0 313 -128t119 -350q0 -221 -146 -365t-413 -144q-267 1 -409 143t-142 351q0 97 23 187t122 247l318 496h387v-21l-320 -440l2 -4q56 28 146 28z"/>
    <glyph glyph-name="seven.pnum" horiz-adv-x="1103" d="M690 1112h-629v281h1006v-240l-555 -1153h-365v20l543 1088v4z"/>
    <glyph glyph-name="eight.pnum" horiz-adv-x="1282" d="M86 389q0 141 66 229t176 130v4q-138 64 -174 183q-14 46 -15 109q0 170 125 274t377 105q252 0 377 -104t125 -275t-115 -249q-35 -25 -74 -43v-4q110 -42 176 -130t66 -229q0 -188 -142 -304t-413 -116q-139 0 -243 31q-210 62 -278 220q-34 77 -34 169zM641 256 q106 0 151 48q44 48 44 122t-44 122t-150 48t-152 -48q-44 -48 -44 -122t44 -122t151 -48zM485 1020q0 -139 156 -139t156 139q0 70 -42 104t-114 35q-72 0 -114 -35t-42 -104z"/>
    <glyph glyph-name="nine.pnum" horiz-adv-x="1245" d="M805 930q0 98 -51 152q-52 54 -144 54t-143 -54t-51 -152t51 -152t143 -55q92 0 144 54q51 55 51 153zM55 918q0 110 36 199q77 190 280 266q104 40 242 40q266 0 410 -143t142 -350q0 -97 -23 -187t-122 -247l-318 -496h-387v21l320 440l-2 4q-55 -27 -145 -28t-172 31 q-166 65 -229 249q-32 91 -32 201z"/>
    <glyph glyph-name="a.salt" horiz-adv-x="1093" d="M377 315q0 -92 102 -92t187 58v135h-103q-186 0 -186 -101zM49 276q0 169 117 253.5t385 84.5h115v31q0 57 -39 81t-111 24q-156 0 -328 -66l-73 248q211 86 424 86t333.5 -106.5t120.5 -333.5v-578h-268l-33 94h-4q-147 -125 -312 -125t-246 87.5t-81 219.5z"/>
    <glyph glyph-name="agrave.aalt" horiz-adv-x="1093" d="M377 315q0 -92 102 -92t187 58v135h-103q-186 0 -186 -101zM666 614v31q0 57 -39 81t-111 24q-156 0 -328 -66l-73 248q211 86 424 86t333 -106t121 -334v-578h-268l-33 94h-4q-147 -125 -311 -125t-245 86t-83 221q0 168 118 254t384 84h115zM201 1454h348l180 -299v-20 h-295l-233 301v18z"/>
    <glyph glyph-name="aacute.aalt" horiz-adv-x="1093" d="M377 315q0 -92 102 -92t187 58v135h-103q-186 0 -186 -101zM666 614v31q0 57 -39 81t-111 24q-156 0 -328 -66l-73 248q211 86 424 86t333 -106t121 -334v-578h-268l-33 94h-4q-147 -125 -311 -125t-245 86t-83 221q0 168 118 254t384 84h115zM381 1135v20l180 299h348 v-18l-233 -301h-295z"/>
    <glyph glyph-name="acircumflex.aalt" horiz-adv-x="1093" d="M377 315q0 -92 102 -92t187 58v135h-103q-186 0 -186 -101zM666 614v31q0 57 -39 81t-111 24q-156 0 -328 -66l-73 248q211 86 424 86t333 -106t121 -334v-578h-268l-33 94h-4q-147 -125 -311 -125t-245 86t-83 221q0 168 118 254t384 84h115zM930 1135h-268l-97 135 l-92 -135h-268v20l182 299h361l182 -299v-20z"/>
    <glyph glyph-name="atilde.aalt" horiz-adv-x="1093" d="M377 315q0 -92 102 -92t187 58v135h-103q-186 0 -186 -101zM666 614v31q0 57 -39 81t-111 24q-156 0 -328 -66l-73 248q211 86 424 86t333 -106t121 -334v-578h-268l-33 94h-4q-147 -125 -311 -125t-245 86t-83 221q0 168 118 254t384 84h115zM404 1479q64 1 105 -15 q42 -16 77 -34q36 -18 70 -34t81 -16q94 -1 148 68l55 -162q-28 -69 -98 -110q-69 -41 -143 -41t-174 50q-41 19 -77 35t-81 15q-79 0 -142 -72l-55 168q35 68 102 108q68 40 132 40z"/>
    <glyph glyph-name="adieresis.aalt" horiz-adv-x="1093" d="M377 315q0 -92 102 -92t187 58v135h-103q-186 0 -186 -101zM666 614v31q0 57 -39 81t-111 24q-156 0 -328 -66l-73 248q211 86 424 86t333 -106t121 -334v-578h-268l-33 94h-4q-147 -125 -311 -125t-245 86t-83 221q0 168 118 254t384 84h115zM627 1310q0 75 46 120 t124 45t124 -45t46 -120t-46 -119t-124 -44t-124 44t-46 119zM170 1310q0 75 46 120t124 45t124 -45t46 -120t-46 -119t-124 -44t-124 44t-46 119z"/>
    <glyph glyph-name="aring.aalt" horiz-adv-x="1093" d="M299 1335q0 113 73 177q74 64 194 65q120 0 193 -65q73 -66 73 -178t-74 -176q-72 -64 -193 -64t-193 64t-73 177zM485 1335q1 -33 21 -53t59 -20t60 20q20 20 20 53t-20 53q-19 20 -59 21q-40 -1 -60 -21t-21 -53zM377 315q0 -92 102 -92t187 58v135h-103 q-186 0 -186 -101zM666 614v31q0 57 -39 81t-111 24q-156 0 -328 -66l-73 248q211 86 424 86t333 -106t121 -334v-578h-268l-33 94h-4q-147 -125 -311 -125t-245 86t-83 221q0 168 118 254t384 84h115z"/>
    <glyph glyph-name="amacron.aalt" horiz-adv-x="1093" d="M377 315q0 -92 102 -92t187 58v135h-103q-186 0 -186 -101zM666 614v31q0 57 -39 81t-111 24q-156 0 -328 -66l-73 248q211 86 424 86t333 -106t121 -334v-578h-268l-33 94h-4q-147 -125 -311 -125t-245 86t-83 221q0 168 118 254t384 84h115zM252 1151v248h627v-248 h-627z"/>
    <glyph glyph-name="abreve.aalt" horiz-adv-x="1093" d="M377 315q0 -92 102 -92t187 58v135h-103q-186 0 -186 -101zM666 614v31q0 57 -39 81t-111 24q-156 0 -328 -66l-73 248q211 86 424 86t333 -106t121 -334v-578h-268l-33 94h-4q-147 -125 -311 -125t-245 86t-83 221q0 168 118 254t384 84h115zM563 1384q91 0 153 23 t122 61l100 -159q-57 -70 -145 -122q-87 -52 -229 -52t-230 52t-146 122l101 159q59 -40 121 -62t153 -22z"/>
    <glyph glyph-name="aogonek.aalt" horiz-adv-x="1093" d="M377 315q0 -92 102 -92t187 58v135h-103q-186 0 -186 -101zM528 -232q0 86 55 155q55 70 129 115l-20 56h-4q-147 -125 -311 -125t-245 86t-83 221q0 168 118 254t384 84h115v31q0 57 -39 81t-111 24q-156 0 -328 -66l-73 248q211 86 424 86t333 -106t121 -334v-578 q-20 -16 -44 -34q-89 -65 -89 -124q0 -53 66 -53q35 0 80 31l22 -211q-92 -45 -228 -45t-204 59t-68 145z"/>
    <glyph glyph-name="aringacute.aalt" horiz-adv-x="1093" d="M377 315q0 -92 102 -92t187 58v135h-103q-186 0 -186 -101zM666 614v31q0 57 -39 81t-111 24q-156 0 -328 -66l-73 248q211 86 424 86t333 -106t121 -334v-578h-268l-33 94h-4q-147 -125 -311 -125t-245 86t-83 221q0 168 118 254t384 84h115zM320 1316q0 106 64 160 t152 64l89 117h335v-14l-171 -174q57 -59 57 -159t-72 -160t-191 -61q-119 1 -191 61t-72 166zM504 1316q0 -31 20 -50t58 -19t60 19q20 19 20 50t-20 50t-58 19t-60 -19q-20 -19 -20 -50z"/>
    <glyph glyph-name="uni0444.aalt" horiz-adv-x="1544" d="M604 -406v390q-271 19 -404.5 156.5t-133.5 353.5q0 333 198.5 417t339.5 93v430h336v-430q266 -15 402.5 -155.5t136.5 -354.5q0 -215 -134 -353t-405 -157v-390h-336zM1137 494q0 219 -197 258v-519q100 20 148.5 82t48.5 179zM408 494q0 -117 48 -178.5t148 -82.5v519 q-196 -39 -196 -258z"/>
    <glyph glyph-name="Euro.aalt" horiz-adv-x="1253" d="M801 256q152 0 295 76l92 -273q-186 -90 -379 -90q-363 0 -464 167t-132 267h-137v234h96q-2 16 -2 19v44q0 41 2 60h-98v233h139q61 201 206.5 315.5t374.5 114.5t404 -86l-100 -278q-59 33 -124 54.5t-165 21.5q-158 0 -240 -142h351v-233h-410q-2 -16 -2 -20v-48 q0 -43 2 -55h410v-234h-347q76 -147 228 -147z"/>
    <glyph glyph-name="uni20A8.aalt" d="M1085 1028v-233h-149q-21 -188 -142.5 -256t-211.5 -88l460 -418v-33h-405l-502 485v207h232q113 0 157.5 29t55.5 74h-445v233h449q-32 107 -217 107h-232v258h950v-234h-284v-4q76 -35 123 -127h161z"/>
    <glyph glyph-name="registered.aalt" horiz-adv-x="1617" d="M821 766q47 0 60.5 22.5t13.5 46.5t-13.5 46t-60.5 22h-119v-137h119zM1133 836q0 -185 -160 -232l198 -272v-19h-245l-185 277h-39v-277h-227v766h369q158 0 223.5 -66.5t65.5 -176.5zM426.5 303.5q156.5 -158.5 401.5 -158.5t382.5 155.5t137.5 394t-146.5 395.5 t-393.5 157t-392.5 -156t-145.5 -392.5t156.5 -395zM82 696.5q0 153.5 55.5 286.5t153.5 231.5t231 153.5t287 55t287 -55t231 -153.5t153.5 -231.5t55.5 -286.5t-55.5 -287t-153.5 -231.5t-231 -153.5t-287 -55.5t-287 55.5t-231 153.5t-153.5 231.5t-55.5 287z"/>
    <glyph glyph-name="guillemotleft.aalt" horiz-adv-x="1218" d="M74 711l338 460l202 -114l-200 -363l204 -358l-206 -111l-338 461v25zM578 711l337 460l203 -114l-200 -363l204 -358l-207 -111l-337 461v25z"/>
    <glyph glyph-name="bracketleft.aalt" horiz-adv-x="702" d="M635 1618v-195l-225 -26v-1397l225 -27v-194h-502v1839h502z"/>
    <glyph glyph-name="guilsinglright.aalt" horiz-adv-x="714" d="M641 686l-338 -461l-207 111l205 358l-201 363l203 114l338 -460v-25z"/>
    <glyph glyph-name="bar.aalt" horiz-adv-x="491" d="M358 -221h-225v1839h225v-1839z"/>
    <glyph glyph-name="periodcentered.aalt" horiz-adv-x="614" d="M98 700q0 92 56 150t153 59q97 0 153 -58q56 -59 56 -151t-56 -150t-152 -58t-154 58q-56 58 -56 150z"/>
    <glyph glyph-name="bullet.aalt" horiz-adv-x="802" d="M133 696q0 119 73 194q74 75 196 75t195 -75t73 -194q0 -120 -73 -194t-196 -74t-195 74t-73 194z"/>
    <glyph glyph-name="emdash.aalt" horiz-adv-x="1923" d="M121 573v254h1681v-254h-1681z"/>
    <glyph glyph-name="bracketright.aalt" horiz-adv-x="702" d="M569 1618v-1839h-501v194l225 27v1397l-225 26v195h501z"/>
    <glyph glyph-name="endash.aalt" horiz-adv-x="1230" d="M121 573v254h989v-254h-989z"/>
    <glyph glyph-name="hyphen.case" horiz-adv-x="868" d="M121 567v254h627v-254h-627z"/>
    <glyph glyph-name="guillemotright.aalt" horiz-adv-x="1218" d="M641 686l-338 -461l-207 111l205 358l-201 363l203 114l338 -460v-25zM1145 686l-338 -461l-207 111l205 358l-201 363l203 114l338 -460v-25z"/>
    <glyph glyph-name="parenleft.case" horiz-adv-x="641" d="M389 700q0 -461 182 -876l-194 -76q-196 261 -266 665q-25 138 -25 285q0 268 84 530t207 423l194 -76q-182 -414 -182 -875z"/>
    <glyph glyph-name="guilsinglleft.aalt" horiz-adv-x="714" d="M74 711l338 460l202 -114l-200 -363l204 -358l-206 -111l-338 461v25z"/>
    <glyph glyph-name="braceright.aalt" horiz-adv-x="770" d="M258 952v283q0 110 -35 149t-151 39v195h39q239 0 330 -90t91 -309v-248q0 -76 37 -114t140 -38v-241q-101 0 -139 -38t-38 -114v-248q0 -221 -91 -311t-330 -88h-39v194q114 0 150 40t36 149v282q0 96 40 160t146 92v4q-106 28 -146 92t-40 160z"/>
    <glyph glyph-name="braceleft.aalt" horiz-adv-x="770" d="M512 444v-282q0 -110 34 -148q34 -39 152 -41v-194h-39q-241 0 -331 90t-90 309v248q0 76 -37 114t-140 38v241q102 0 140 38q37 38 37 114v248q0 221 90 310t331 89h39v-195q-116 0 -151 -40t-35 -148v-283q0 -96 -40 -159t-146 -93v-4q106 -29 146 -92t40 -160z"/>
    <glyph glyph-name="parenright.case" horiz-adv-x="641" d="M252 700q0 461 -182 875l194 76q196 -262 266 -666q25 -140 25 -287q0 -265 -84 -527t-207 -423l-194 76q182 415 182 876z"/>
    <glyph glyph-name="minus.case" horiz-adv-x="1638" d="M344 582v215h946v-215h-946z"/>
    <glyph glyph-name="zero.frac" horiz-adv-x="737" d="M692 1022q0 -184 -81 -286t-243 -101q-162 0 -242 101q-81 102 -81 286t81 286t243 101q163 1 243 -101t80 -286zM270 1022q0 -115 26 -153t72 -38t72 38t27 153q0 115 -27 153q-26 37 -72 37t-72 -38t-26 -152z"/>
    <glyph glyph-name="one.frac" horiz-adv-x="514" d="M29 1081v199l252 113h165v-740h-215v512h-6l-178 -84h-18z"/>
    <glyph glyph-name="two.frac" horiz-adv-x="684" d="M344 1409q126 0 206 -70t79 -184q0 -78 -37 -138t-125 -116l-88 -55v-4h252v-189h-586v174l264 191q53 41 74 64q20 24 20 56t-19 54t-61 20q-72 -1 -157 -90l-123 146q120 141 301 141z"/>
    <glyph glyph-name="three.frac" horiz-adv-x="679" d="M635 856q0 -219 -332 -219q-164 0 -276 57l55 183q85 -44 207 -45q121 -1 121 57q0 47 -74 47h-160v176h143q70 0 70 47q0 55 -99 55t-184 -34l-61 182q144 47 256 47q315 0 313 -213q0 -70 -32 -106t-88 -58v-2q141 -30 141 -174z"/>
    <glyph glyph-name="four.frac" horiz-adv-x="727" d="M610 1153v-168h86v-188h-86v-144h-215v144h-362v161l153 435h228l-133 -406v-2h114v168h215z"/>
    <glyph glyph-name="five.frac" horiz-adv-x="659" d="M387 897q0 64 -113 66q-80 0 -168 -13l-24 27l33 416h475v-183l-285 -4l-6 -61h31q133 0 209 -55q75 -56 75 -186q-1 -267 -342 -267q-151 0 -249 49l51 186q91 -39 175 -40q83 -2 111 14t27 51z"/>
    <glyph glyph-name="six.frac" horiz-adv-x="684" d="M260 911q0 -88 90 -88t90 88t-90 88t-90 -88zM440 1159q90 0 155 -61q66 -61 66 -184q1 -123 -89 -200t-231 -77t-221 79t-81 199q0 33 9 85t61 124l192 269h254v-11l-190 -235l2 -2q31 14 73 14z"/>
    <glyph glyph-name="seven.frac" horiz-adv-x="645" d="M373 1204h-344v189h596v-179l-293 -561h-240v11l281 538v2z"/>
    <glyph glyph-name="eight.frac" horiz-adv-x="733" d="M74 1199q0 210 293 210t293 -210q0 -104 -109 -146v-2q61 -17 101 -65t40 -139t-78 -151t-247 -59q-168 0 -247 59q-79 58 -79 150q0 165 141 205v2q-108 43 -108 146zM289 1192q-1 -62 77 -62t78 62t-78 61q-78 1 -77 -61zM262 893q0 -78 105 -78q59 0 78 23t20 55 q0 78 -98 78q-59 0 -82 -23t-23 -55z"/>
    <glyph glyph-name="nine.frac" horiz-adv-x="686" d="M426 1135q0 88 -90 88t-90 -88t90 -88t90 88zM246 887q-90 0 -155 62q-66 62 -66 184q0 123 89 199t231 77q141 0 221 -79t81 -200q0 -32 -9 -84t-60 -124l-193 -269h-254v11l191 235l-3 2q-31 -14 -73 -14z"/>
    <glyph glyph-name="comma.numr" horiz-adv-x="389" d="M338 920v-17l-150 -461h-170v15l74 463h246z"/>
    <glyph glyph-name="plus.numr" horiz-adv-x="569" d="M375 1114h145v-180h-145v-143h-180v143h-146v180h146v146h180v-146z"/>
    <glyph glyph-name="hyphen.numr" horiz-adv-x="571" d="M70 934v180h432v-180h-432z"/>
    <glyph glyph-name="minus.numr" horiz-adv-x="610" d="M541 1114v-180h-471v180h471z"/>
    <glyph glyph-name="parenleft.numr" horiz-adv-x="380" d="M223 477q-184 273 -184 529t124 461q32 54 60 98l127 -68q-57 -132 -85 -233q-27 -102 -27 -212t13 -203t44 -173q32 -80 55 -133z"/>
    <glyph glyph-name="period.numr" horiz-adv-x="393" d="M45 788q0 70 41 114t111 44q71 0 111 -44t40 -114t-41 -114t-111 -43q-70 -1 -110 43q-41 44 -41 114z"/>
    <glyph glyph-name="parenright.numr" horiz-adv-x="382" d="M344 1020q0 -232 -124 -445q-32 -55 -60 -98l-129 66q63 145 88 241q26 97 26 206q0 110 -14 207t-46 172t-54 128l129 68q184 -273 184 -545z"/>
    <glyph glyph-name="zero.dnom" horiz-adv-x="737" d="M692 368.5q0 -184.5 -81 -285.5t-242.5 -101t-242.5 101t-81 285.5t81 286t242.5 101.5t242.5 -101.5t81 -286zM270 368.5q0 -114.5 26 -152.5t72 -38t72.5 38t26.5 152.5t-26.5 152.5t-72.5 38t-72 -38t-26 -152.5z"/>
    <glyph glyph-name="one.dnom" horiz-adv-x="512" d="M27 428v199l252 112h165v-739h-215v512h-6l-178 -84h-18z"/>
    <glyph glyph-name="two.dnom" horiz-adv-x="686" d="M629 502q0 -78 -37 -138.5t-125 -115.5l-88 -55v-5h252v-188h-586v174l264 191q53 41 73.5 64t20.5 55t-19 53.5t-61 21.5q-71 0 -157 -90l-123 145q121 142 301 142q124 0 204.5 -70t80.5 -184z"/>
    <glyph glyph-name="three.dnom" horiz-adv-x="679" d="M635 203q0 -219 -332 -219q-164 0 -276 57l55 182q88 -45 182 -45q95 0 120.5 14.5t25.5 43.5q0 47 -74 47h-160v176h143q70 0 70 47q0 55 -101 55t-182 -35l-61 183q144 47 256 47q313 0 313 -213q0 -70 -32.5 -107t-87.5 -57v-2q141 -30 141 -174z"/>
    <glyph glyph-name="four.dnom" horiz-adv-x="727" d="M610 500v-168h86v-189h-86v-143h-215v143h-362v162l153 434h228l-133 -405v-2h114v168h215z"/>
    <glyph glyph-name="five.dnom" horiz-adv-x="657" d="M385 244q0 65 -113 65q-80 0 -168 -12l-24 27l33 415h475v-182l-285 -4l-6 -61h31q133 0 208.5 -55.5t75.5 -185.5q0 -267 -342 -267q-148 0 -250 49l52 186q96 -41 177 -41t108.5 15.5t27.5 50.5z"/>
    <glyph glyph-name="six.dnom" horiz-adv-x="686" d="M260 258q0 -88 90 -88t90 88t-90 88t-90 -88zM440 506q88 0 155 -62t67 -185t-90 -199t-231 -76t-221.5 78.5t-80.5 199.5q0 33 9 85t61 124l192 268h254v-10l-190 -235l2 -2q31 14 73 14z"/>
    <glyph glyph-name="seven.dnom" horiz-adv-x="645" d="M373 551h-344v188h596v-178l-293 -561h-240v10l281 539v2z"/>
    <glyph glyph-name="eight.dnom" horiz-adv-x="733" d="M366.5 756q292.5 0 292.5 -210q0 -103 -108 -147v-2q61 -16 101 -64t40 -139t-78.5 -150.5t-246.5 -59.5t-247 59t-79 151t40 139.5t101 63.5v2q-108 42 -108 146q0 211 292.5 211zM289 538.5q0 -61.5 77.5 -61.5t77.5 61.5t-77.5 61.5t-77.5 -61.5zM262 239.5 q0 -77.5 101.5 -77.5t101.5 77.5t-101.5 77.5t-101.5 -77.5z"/>
    <glyph glyph-name="nine.dnom" horiz-adv-x="686" d="M426 481q0 88 -90 88t-90 -88t90 -88t90 88zM25 507.5q0 95.5 89.5 172t230.5 76.5t221.5 -79t80.5 -200q0 -33 -9 -85t-60 -124l-193 -268h-254v10l191 236l-3 2q-70 -31 -152.5 -0.5t-112 97.5t-29.5 162.5z"/>
    <glyph glyph-name="comma.dnom" horiz-adv-x="387" d="M338 270v-16l-150 -461h-170v14l74 463h246z"/>
    <glyph glyph-name="plus.dnom" horiz-adv-x="561" d="M371 461h145v-180h-145v-144h-181v144h-145v180h145v145h181v-145z"/>
    <glyph glyph-name="parenright.dnom" horiz-adv-x="382" d="M344 386.5q0 -251.5 -78 -385.5t-106 -177l-129 65q59 136 86.5 236.5t27.5 210.5q0 111 -9 175t-24.5 121.5t-37 108t-43.5 103.5l129 67q184 -273 184 -524.5z"/>
    <glyph glyph-name="hyphen.dnom" horiz-adv-x="567" d="M68 281v180h432v-180h-432z"/>
    <glyph glyph-name="minus.dnom" horiz-adv-x="606" d="M539 461v-180h-471v180h471z"/>
    <glyph glyph-name="parenleft.dnom" horiz-adv-x="380" d="M223 -176q-184 273 -184 527t78 385.5t106 174.5l127 -67q-83 -192 -97.5 -295t-14.5 -181q0 -142 26 -236.5t86 -242.5z"/>
    <glyph glyph-name="period.dnom" horiz-adv-x="393" d="M45 135.5q0 69.5 41 113.5t110.5 44t110.5 -44t41 -113.5t-41 -114t-110.5 -44.5t-110.5 44.5t-41 114z"/>
    <glyph glyph-name="minus.sinf" horiz-adv-x="606" d="M539 217v-180h-471v180h471z"/>
    <glyph glyph-name="plus.sinf" horiz-adv-x="561" d="M371 217h145v-180h-145v-143h-181v143h-145v180h145v145h181v-145z"/>
    <glyph glyph-name="glyph715" d="M414 1114v21l141 381h248v-21l-58 -381h-331z"/>
    <glyph glyph-name="glyph716" d="M799 1393v-21l-142 -381h-247v21l57 381h332z"/>
    <glyph glyph-name="glyph717" d="M799 -104v-21l-142 -381h-247v21l57 381h332z"/>
    <glyph glyph-name="glyph718" d="M358 1839h361l127 -295v-20h-287l-201 299v16z"/>
    <glyph glyph-name="glyph719" d="M358 1524v20l127 295h361v-16l-201 -299h-287z"/>
    <glyph glyph-name="glyph720" d="M1028 1524h-299l-129 151l-125 -151h-299v20l250 297h352l250 -297v-20z"/>
    <glyph glyph-name="glyph721" d="M176 1841h299l129 -151l125 151h299v-20l-250 -297h-352l-250 297v20z"/>
    <glyph glyph-name="glyph722" d="M807.5 1757q70.5 0 124.5 68l55 -162q-29 -71 -98 -111.5t-129 -40.5q-59 0 -103.5 15.5t-84.5 35t-76.5 35t-81.5 15.5q-78 0 -142 -72l-55 168q35 68 102 107.5t131 39.5t106 -15t77 -33.5t69.5 -34t105 -15.5z"/>
    <glyph glyph-name="glyph723" d="M684 1682q0 79 48 126t130 47t130 -47t48 -126t-48 -125t-130 -46t-130 46t-48 125zM166 1682q0 79 48 126t130 47t130 -47t48 -126t-48 -125t-130 -46t-130 46t-48 125z"/>
    <glyph glyph-name="glyph724" d="M291 1530v248h627v-248h-627z"/>
    <glyph glyph-name="glyph725" d="M446 1032v21l66 340h344v-17l-139 -344h-271z"/>
    <glyph glyph-name="glyph726" d="M545 1513q-189 0 -328 191l100 160q136 -90 256.5 -90t187 25.5t126.5 64.5l100 -160q-73 -94 -163 -142.5t-279 -48.5z"/>
    <glyph glyph-name="glyph727" d="M330 1712q0 117 75.5 183.5t198.5 66.5t199 -66.5t76 -183.5t-76 -183.5t-199 -66.5t-198.5 66.5t-75.5 183.5zM522 1712q0 -35 22.5 -55.5t59.5 -20.5t59.5 20.5t22.5 55.5t-22.5 55.5t-59.5 20.5t-59.5 -20.5t-22.5 -55.5z"/>
    <glyph glyph-name="glyph728" d="M588 1524v20l182 297h348v-20l-256 -297h-274zM104 1524v20l181 297h348v-20l-254 -297h-275z"/>
    <glyph glyph-name="glyph729" d="M416 1683.5q0 73.5 46 126t140 52.5t140 -52.5t46 -126t-46 -126t-140 -52.5t-140 52.5t-46 126z"/>
    <glyph glyph-name="glyph730" d="M653 -130q0 -71 93 -71q41 0 90 31l22 -221q-112 -45 -248 -45q-135 0 -203.5 60.5t-68.5 154.5q0 138 83 188.5t122 63.5l282 -31q-98 -16 -135 -53t-37 -77z"/>
    </font>
</defs>
</svg>
