<?xml version="1.0" encoding="UTF-8" standalone="no"?>
<!DOCTYPE svg PUBLIC "-//W3C//DTD SVG 1.1//EN" "http://www.w3.org/Graphics/SVG/1.1/DTD/svg11.dtd">
<svg xmlns="http://www.w3.org/2000/svg">
<metadata>
Created by FontPrep 20130207 at Mon Nov 17 10:50:12 2014
 By Christoph Koeberlin
Copyright (c) 2014 by Volkswagen AG. All rights reserved.
</metadata>
<defs>
<font id="194f5394ae2e9c74dc3c441b92862d1d" horiz-adv-x="1024">
  <font-face font-family="Font" font-weight="700" font-stretch="normal" units-per-em="1000" panose-1="2 11 8 3 4 2 0 0 0 3" ascent="800" descent="-200" x-height="482" cap-height="680" bbox="-200 -220 1117 943" underline-thickness="90" underline-position="-20" unicode-range="U+0020-FB02"/>
<missing-glyph horiz-adv-x="513" d="M50 680h413v-680h-413v680zM405 58v564h-297v-564h297z"/>
    <glyph glyph-name=".notdef" horiz-adv-x="513" d="M50 680h413v-680h-413v680zM405 58v564h-297v-564h297z"/>
    <glyph glyph-name=".null" horiz-adv-x="0"/>
    <glyph glyph-name="nonmarkingreturn" horiz-adv-x="225"/>
    <glyph glyph-name="space" unicode=" " horiz-adv-x="225"/>
    <glyph glyph-name="exclam" unicode="!" horiz-adv-x="274" d="M175 235h-76l-29 291v154h133v-154zM59 67q0 36 21 59.5t56 23.5q36 0 57 -23.5t21 -59.5t-21 -59t-57 -23q-35 0 -56 23t-21 59z"/>
    <glyph glyph-name="quotedbl" unicode="&quot;" horiz-adv-x="418" d="M334 405h-75l-26 180v95h127v-95zM159 405h-75l-26 180v95h127v-95z"/>
    <glyph glyph-name="numbersign" unicode="#" horiz-adv-x="674" d="M85 0v10l40 154h-88v85h110l46 178h-83v85h105l43 168h96v-10l-41 -158h136l43 168h97v-10l-41 -158h89v-85h-111l-46 -178h84v-85h-106l-42 -164h-96v10l39 154h-136l-42 -164h-96zM245 249h136l46 178h-136z"/>
    <glyph glyph-name="dollar" unicode="$" d="M95 147q29 -20 68 -35.5t81 -19.5v201l-29 12q-73 29 -109.5 75t-36.5 112q0 40 12 73.5t34.5 59t55 42.5t73.5 24v79h81v-77q35 -5 74 -16.5t72 -27.5l-38 -98q-26 13 -54.5 22t-53.5 13v-195h1q38 -15 69.5 -33.5t53.5 -42t34 -53t12 -65.5q0 -39 -12.5 -72.5 t-35 -60.5t-53.5 -45.5t-69 -26.5v-120h-81v114q-59 3 -105.5 21.5t-84.5 43.5zM186 499q0 -29 16.5 -49t44.5 -34v170q-30 -13 -45.5 -35.5t-15.5 -51.5zM378 187q0 26 -14.5 44.5t-41.5 33.5v-168q26 14 41 36.5t15 53.5z"/>
    <glyph glyph-name="percent" unicode="%" horiz-adv-x="805" d="M126 503q0 -57 16.5 -81.5t41.5 -24.5q29 0 45 24.5t16 81.5q0 55 -16 80.5t-45 25.5q-25 0 -41.5 -26t-16.5 -80zM334 503q0 -38 -9 -71t-27 -58t-46.5 -39.5t-67.5 -14.5q-38 0 -65.5 14.5t-45.5 39.5t-26.5 58t-8.5 71q0 37 8.5 70.5t26.5 58.5t45.5 39.5t65.5 14.5 q39 0 67.5 -14.5t46.5 -39.5t27 -58.5t9 -70.5zM559 175q0 -57 16.5 -81.5t41.5 -24.5q29 0 45 24.5t16 81.5q0 55 -16 80.5t-45 25.5q-25 0 -41.5 -26t-16.5 -80zM767 175q0 -38 -9 -71t-27 -58t-46.5 -39.5t-67.5 -14.5q-38 0 -65.5 14.5t-45.5 39.5t-26.5 58t-8.5 71 q0 37 8.5 70.5t26.5 58.5t45.5 39.5t65.5 14.5q39 0 67.5 -14.5t46.5 -39.5t27 -58.5t9 -70.5zM125 0v10l456 670h104v-10l-456 -670h-104z"/>
    <glyph glyph-name="ampersand" unicode="&amp;" horiz-adv-x="691" d="M643 308l-42 -65q-16 -24 -32 -46.5t-33 -43.5l132 -143v-10h-148l-63 70q-46 -40 -97.5 -62.5t-109.5 -22.5q-46 0 -82.5 13.5t-62.5 37.5t-40 58t-14 75q0 38 14 67t35.5 51.5t46 39t45.5 30.5l7 5l-3 4q-11 13 -24.5 29.5t-24.5 37t-18.5 43t-7.5 47.5q0 35 13 66 t37 54.5t58 37.5t77 14q38 0 70.5 -14t56.5 -37t37.5 -54.5t13.5 -65.5q0 -31 -8.5 -55.5t-23 -44t-33.5 -35.5t-40 -29l-21 -14l107 -116q12 17 24 34.5t25 37.5l45 69zM275 87q34 0 61.5 16.5t56.5 42.5l-128 145l-8 -5q-12 -8 -26 -18.5t-26 -24t-20 -30.5t-8 -38 q0 -36 23.5 -62t74.5 -26zM239 519q0 -21 8 -42.5t28 -43.5l13 -16l27 18q26 17 41.5 37t15.5 47q0 35 -18 54.5t-48 19.5q-33 0 -50 -22t-17 -52z"/>
    <glyph glyph-name="quotesingle" unicode="'" horiz-adv-x="243" d="M159 405h-75l-26 180v95h127v-95z"/>
    <glyph glyph-name="parenleft" unicode="(" horiz-adv-x="280" d="M48 251q0 73 10 139.5t26.5 125t38.5 109t46 91.5l71 -33q-42 -100 -60 -207t-18 -225t18 -225t60 -207l-71 -33q-24 41 -46 91.5t-38.5 109t-26.5 125t-10 139.5v0z"/>
    <glyph glyph-name="parenright" unicode=")" horiz-adv-x="280" d="M232 251q0 -73 -10 -139.5t-26.5 -125t-38.5 -109t-46 -91.5l-71 33q42 100 60 207t18 225t-18 225t-60 207l71 33q24 -41 46 -91.5t38.5 -109t26.5 -125t10 -139.5z"/>
    <glyph glyph-name="asterisk" unicode="*" horiz-adv-x="445" d="M185 462l-90 -67l-48 84l104 45v2l-104 45l47 84l90 -67l2 1l-12 111h97l-13 -111l2 -1l90 67l48 -84l-104 -44v-2l104 -46l-47 -84l-91 68l-2 -1l13 -113h-97l13 112z"/>
    <glyph glyph-name="plus" unicode="+" d="M328 323h182v-103h-182v-194h-107v194h-181v103h181v193h107v-193z"/>
    <glyph glyph-name="comma" unicode="," horiz-adv-x="258" d="M20 -151l60 286h123v-10l-91 -286h-92v10z"/>
    <glyph glyph-name="hyphen" unicode="-" horiz-adv-x="412" d="M65 220v103h282v-103h-282z"/>
    <glyph glyph-name="period" unicode="." horiz-adv-x="265" d="M53 67q0 36 22 59.5t57 23.5q36 0 58 -23.5t22 -59.5t-22 -59t-58 -23q-35 0 -57 23t-22 59z"/>
    <glyph glyph-name="slash" unicode="/" horiz-adv-x="410" d="M25 0v10l255 670h105v-10l-255 -670h-105z"/>
    <glyph glyph-name="zero" unicode="0" d="M153 340q0 -61 6.5 -107.5t20.5 -78t37.5 -47.5t57.5 -16t57 16t37 47.5t20.5 78t6.5 107.5t-6.5 107.5t-20.5 78t-37 47.5t-57 16t-57.5 -16t-37.5 -47.5t-20.5 -78t-6.5 -107.5zM524 340q0 -82 -14 -147.5t-44 -111.5t-77.5 -71t-113.5 -25q-67 0 -114.5 25t-77.5 71 t-44 111.5t-14 147.5t14 147.5t44 111.5t77.5 71t114.5 25q66 0 113.5 -25t77.5 -71t44 -111.5t14 -147.5z"/>
    <glyph glyph-name="one" unicode="1" d="M105 514v110l153 56h90v-577h131v-103h-394v103h138v448h-2l-104 -37h-12z"/>
    <glyph glyph-name="two" unicode="2" d="M216 103h270v-103h-427v94l228 248q13 15 25 29.5t20.5 31t13.5 35.5t5 42q0 21 -6.5 41t-18.5 35t-29.5 24t-40.5 9q-44 0 -75 -21t-59 -49l-65 79q13 15 32 32t44.5 31.5t57.5 24t70 9.5q49 0 89.5 -14.5t69 -42.5t44 -67.5t15.5 -90.5q0 -35 -10.5 -66t-25.5 -56.5 t-32 -46t-30 -34.5l-165 -172v-2z"/>
    <glyph glyph-name="three" unicode="3" d="M139 397h105q27 0 46 7.5t30.5 20t17 30t5.5 38.5q0 20 -6 37.5t-18.5 30.5t-31 20.5t-43.5 7.5q-33 0 -73 -9t-75 -25l-36 95q38 20 89 32.5t95 12.5q113 0 170 -51t57 -141q0 -29 -9 -53.5t-23 -43.5t-31 -32t-33 -19v-2q46 -19 79 -61.5t33 -108.5q0 -45 -15.5 -81.5 t-46.5 -62.5t-76.5 -40t-105.5 -14q-66 0 -112.5 14t-84.5 37l33 97q34 -19 73.5 -30.5t90.5 -11.5q25 0 46.5 7t37.5 20.5t25 32t9 41.5q0 24 -6.5 42.5t-20.5 31t-36.5 19.5t-54.5 7h-104v105z"/>
    <glyph glyph-name="four" unicode="4" d="M450 459v-209h70v-103h-70v-147h-125v147h-302v87l175 446h125l-163 -428v-2h165v209h125z"/>
    <glyph glyph-name="five" unicode="5" d="M94 327l33 353h336v-103h-230l-13 -154q14 1 23.5 1h17.5q49 0 91 -12t72 -37.5t47 -66.5t17 -99q0 -108 -69 -166t-186 -58q-16 0 -38 2.5t-46.5 7.5t-50 12t-48.5 16l28 103q42 -18 85 -26.5t73 -8.5q63 0 93.5 30.5t30.5 87.5q0 108 -114 108q-33 0 -69 -2.5t-65 -5.5 z"/>
    <glyph glyph-name="six" unicode="6" d="M392 670l-151 -245v-2q11 7 30.5 16.5t48.5 9.5q41 0 76 -16.5t60.5 -47t40 -72.5t14.5 -93q0 -48 -15 -91t-44.5 -75t-73 -50.5t-100.5 -18.5q-58 0 -102 18.5t-74 50.5t-45 75t-15 91q0 44 10 85t34 83l170 292h136v-10zM385 220q0 59 -29.5 91t-77.5 32q-50 0 -79 -32 t-29 -91q0 -29 7.5 -53t21.5 -41t34 -26t45 -9q24 0 43.5 9t33.5 26t22 41t8 53z"/>
    <glyph glyph-name="seven" unicode="7" d="M123 10l229 565v2h-287v103h422v-93l-232 -587h-132v10z"/>
    <glyph glyph-name="eight" unicode="8" d="M275 91q57 0 84 30t27 75q0 46 -27 75.5t-84 29.5t-83 -29.5t-26 -75.5q0 -45 26 -75t83 -30zM275 695q55 0 95 -14t66.5 -39t39 -59.5t12.5 -75.5q0 -30 -7.5 -54t-19.5 -42.5t-27.5 -31t-31.5 -20.5v-2q24 -10 44 -26.5t35 -38.5t23.5 -49t8.5 -59q0 -45 -15 -81.5 t-45 -62.5t-74.5 -40.5t-103.5 -14.5t-103.5 14.5t-74.5 40.5t-45 62.5t-15 81.5q0 32 8.5 59t23.5 49t35.5 38.5t43.5 26.5v2q-16 8 -31.5 20.5t-27.5 31t-19.5 42.5t-7.5 54q0 41 12.5 75.5t38.5 59.5t66 39t96 14zM275 406q45 0 66 25t21 67q0 41 -21 66t-66 25t-65 -25 t-20 -66q0 -42 20 -67t65 -25z"/>
    <glyph glyph-name="nine" unicode="9" d="M157 10l152 245q0 1 -0.5 1t-0.5 1q-11 -7 -30 -16.5t-48 -9.5q-41 0 -76.5 16.5t-61 47t-40 72.5t-14.5 93q0 48 15 91t45 75t73.5 50.5t100.5 18.5q58 0 102 -18.5t73.5 -50.5t44.5 -75t15 -91q0 -44 -10 -86t-33 -83l-170 -291h-137v10zM166 460q0 -59 29 -91t77 -32 q49 0 79 32t30 91q0 29 -8 53t-22 41t-34.5 26t-44.5 9t-43.5 -9t-33.5 -26t-21.5 -41t-7.5 -53z"/>
    <glyph glyph-name="colon" unicode=":" horiz-adv-x="289" d="M65 414q0 36 22 59.5t57 23.5q36 0 58 -23.5t22 -59.5t-22 -59t-58 -23q-35 0 -57 23t-22 59zM65 67q0 36 22 59.5t57 23.5q36 0 58 -23.5t22 -59.5t-22 -59t-58 -23q-35 0 -57 23t-22 59z"/>
    <glyph glyph-name="semicolon" unicode=";" horiz-adv-x="289" d="M28 -151l60 286h123v-10l-91 -286h-92v10zM71 414q0 36 22 59.5t57 23.5q36 0 58 -23.5t22 -59.5t-22 -59t-58 -23q-35 0 -57 23t-22 59z"/>
    <glyph glyph-name="less" unicode="&lt;" d="M487 -4l-461 225v99l461 225h9v-109l-362 -164v-3l362 -164v-109h-9z"/>
    <glyph glyph-name="equal" unicode="=" d="M40 333v103h470v-103h-470zM510 210v-103h-470v103h470z"/>
    <glyph glyph-name="greater" unicode="&gt;" d="M54 -4v109l362 164v3l-362 164v109h9l461 -225v-99l-461 -225h-9z"/>
    <glyph glyph-name="question" unicode="?" horiz-adv-x="463" d="M164 235l-6 130q29 11 53 24t41.5 29.5t27 37t9.5 44.5q0 16 -5 31.5t-15 28t-25.5 20t-36.5 7.5q-38 0 -66 -17.5t-56 -42.5l-59 87q13 14 32 28.5t43 26t52.5 19t60.5 7.5q97 0 153.5 -50t56.5 -139q0 -41 -15 -74t-37 -58t-48.5 -42.5t-48.5 -29.5l-12 -67h-99z M136 67q0 36 21 59.5t56 23.5t56 -23.5t21 -59.5t-21 -59t-56 -23t-56 23t-21 59z"/>
    <glyph glyph-name="at" unicode="@" horiz-adv-x="907" d="M641 -109q-34 -13 -79 -22t-102 -9q-95 0 -172 27t-131 80.5t-83 132t-29 180.5q0 85 30 164t86.5 139t138.5 96t186 36q91 0 163 -29.5t121 -80.5t75 -119t26 -144q0 -71 -18.5 -126t-48.5 -92.5t-68.5 -56.5t-77.5 -19q-50 0 -78.5 17.5t-44.5 46.5h-2 q-26 -20 -58.5 -36t-74.5 -16q-35 0 -63.5 12.5t-49 36t-32 55.5t-11.5 71q0 49 14 97.5t40.5 87t65 62.5t88.5 24q42 0 68 -15.5t45 -31.5h1l23 35h78l-48 -266q-4 -23 -4 -41t5.5 -30.5t16.5 -19.5t29 -7q21 0 42.5 12.5t38 38.5t27 66t10.5 94q0 58 -17 111.5t-53.5 94 t-93 64.5t-135.5 24q-83 0 -147.5 -29t-109.5 -77.5t-68.5 -113t-23.5 -135.5q0 -79 21 -142t62 -107.5t101.5 -68t139.5 -23.5q49 0 90.5 9t70.5 17zM543 386q-14 13 -33.5 19.5t-39.5 6.5q-27 0 -48.5 -14t-36.5 -37t-23 -54.5t-8 -65.5q0 -38 17.5 -62t55.5 -24 q10 0 21.5 2t22.5 6t21 9t18 11z"/>
    <glyph glyph-name="A" unicode="A" horiz-adv-x="619" d="M608 0h-134l-42 149h-244l-43 -149h-133l224 680h146zM308 570l-46 -183l-41 -139h176l-42 139l-44 183h-3z"/>
    <glyph glyph-name="B" unicode="B" horiz-adv-x="607" d="M209 103h117q56 0 81.5 24.5t25.5 75.5q0 49 -26 73t-88 24h-110v-197zM308 680q111 0 169 -43t58 -138q0 -57 -26 -93t-59 -51v-2q50 -19 80.5 -58.5t30.5 -103.5q0 -94 -53 -142.5t-171 -48.5h-253v680h224zM209 396h94q27 0 46.5 4.5t32.5 14.5t19 27t6 42 q0 51 -24 72t-82 21h-92v-181z"/>
    <glyph glyph-name="C" unicode="C" horiz-adv-x="564" d="M52 340q0 79 19.5 144.5t57.5 112.5t93.5 72.5t127.5 25.5q43 0 87.5 -11t86.5 -33l-33 -95q-40 21 -74 27t-67 6q-39 0 -70.5 -18.5t-53.5 -51.5t-34 -78.5t-12 -100.5t12 -100.5t34 -78.5t53.5 -51.5t70.5 -18.5q33 0 67 6t74 27l33 -95q-42 -22 -86.5 -33t-87.5 -11 q-72 0 -127.5 25.5t-93.5 72.5t-57.5 112t-19.5 145z"/>
    <glyph glyph-name="D" unicode="D" horiz-adv-x="643" d="M84 680h192q86 0 145.5 -22t97 -65.5t54 -107t16.5 -145.5q0 -83 -16.5 -146t-54 -106.5t-97 -65.5t-145.5 -22h-192v680zM264 103q60 0 98 14.5t60 44t30.5 74t8.5 104.5t-8.5 104.5t-30.5 74t-60 44t-98 14.5h-55v-474h55z"/>
    <glyph glyph-name="E" unicode="E" horiz-adv-x="552" d="M495 680v-103h-286v-181h256v-103h-256v-190h289v-103h-414v680h411z"/>
    <glyph glyph-name="F" unicode="F" horiz-adv-x="531" d="M495 680v-103h-286v-203h256v-103h-256v-271h-125v680h411z"/>
    <glyph glyph-name="G" unicode="G" horiz-adv-x="635" d="M574 358v-311q-21 -13 -48 -24.5t-57 -19.5t-62.5 -13t-64.5 -5q-72 0 -126.5 27t-91 74.5t-55 112.5t-18.5 141q0 73 18.5 137.5t56.5 113t96 76.5t138 28q62 0 116.5 -16.5t90.5 -34.5l-35 -96q-35 17 -79.5 29t-92.5 12t-82 -18.5t-56 -51.5t-32.5 -78.5t-10.5 -100.5 q0 -54 9 -100t29.5 -79t52.5 -51.5t77 -18.5q29 0 54.5 5t47.5 16v143l-109 18v85h234z"/>
    <glyph glyph-name="H" unicode="H" horiz-adv-x="675" d="M466 293h-257v-293h-125v680h125v-284h257v284h125v-680h-125v293z"/>
    <glyph glyph-name="I" unicode="I" horiz-adv-x="293" d="M209 0h-125v680h125v-680z"/>
    <glyph glyph-name="J" unicode="J" horiz-adv-x="453" d="M70 143q21 -20 43.5 -36t59.5 -16q21 0 35 8.5t23 23.5t13 36.5t4 48.5v472h125v-480q0 -112 -53.5 -163.5t-146.5 -51.5q-56 0 -94.5 22t-65.5 49z"/>
    <glyph glyph-name="K" unicode="K" horiz-adv-x="598" d="M209 306v-306h-125v680h125v-330h2l221 330h140v-10l-239 -336l251 -324v-10h-146l-227 306h-2z"/>
    <glyph glyph-name="L" unicode="L" horiz-adv-x="501" d="M209 680v-572h264v-108h-389v680h125z"/>
    <glyph glyph-name="M" unicode="M" horiz-adv-x="804" d="M403 276l55 134l141 270h121v-680h-125v337l14 150h-1l-152 -316h-109l-151 316h-2l15 -149v-338h-125v680h121l140 -270l56 -134h2z"/>
    <glyph glyph-name="N" unicode="N" horiz-adv-x="689" d="M495 167l-15 132v381h125v-680h-132l-276 512h-3l15 -132v-380h-125v680h132l276 -513h3z"/>
    <glyph glyph-name="O" unicode="O" horiz-adv-x="693" d="M180 340q0 -52 9 -97.5t29 -79t52 -53t77 -19.5t77 19.5t51.5 53t28.5 79t9 97.5t-9 97t-28.5 79t-51.5 53.5t-77 19.5t-77 -19.5t-52 -53.5t-29 -79t-9 -97zM641 340q0 -75 -17.5 -139.5t-53.5 -112.5t-91.5 -75.5t-131.5 -27.5q-77 0 -132.5 27.5t-91.5 75.5 t-53.5 112.5t-17.5 139.5t17.5 139.5t53.5 112.5t91.5 75.5t132.5 27.5q76 0 131.5 -27.5t91.5 -75.5t53.5 -112.5t17.5 -139.5z"/>
    <glyph glyph-name="P" unicode="P" horiz-adv-x="558" d="M84 0v680h225q54 0 94 -16.5t66.5 -46t40 -70t13.5 -89.5t-13.5 -89.5t-40.5 -70t-67 -46t-93 -16.5h-100v-236h-125zM209 339h90q46 0 71 34.5t25 84.5q0 51 -25 85t-71 34h-90v-238z"/>
    <glyph glyph-name="Q" unicode="Q" horiz-adv-x="693" d="M641 340q0 -94 -26.5 -170t-83.5 -124l157 -80l-56 -107l-237 129q-11 -2 -23.5 -2.5t-24.5 -0.5q-77 0 -132.5 27.5t-91.5 75.5t-53.5 112.5t-17.5 139.5t17.5 139.5t53.5 112.5t91.5 75.5t132.5 27.5q76 0 131.5 -27.5t91.5 -75.5t53.5 -112.5t17.5 -139.5zM180 340 q0 -52 9 -97.5t29 -79t52 -53t77 -19.5t77 19.5t51.5 53t28.5 79t9 97.5t-9 97t-28.5 79t-51.5 53.5t-77 19.5t-77 -19.5t-52 -53.5t-29 -79t-9 -97z"/>
    <glyph glyph-name="R" unicode="R" horiz-adv-x="617" d="M84 0v680h258q109 0 160.5 -52.5t51.5 -149.5q0 -78 -33 -128t-100 -67l167 -267v-16h-132l-162 274h-85v-274h-125zM336 377q45 0 67.5 28t22.5 73q0 44 -22.5 71.5t-67.5 27.5h-127v-200h127z"/>
    <glyph glyph-name="S" unicode="S" horiz-adv-x="521" d="M81 147q33 -23 78.5 -39.5t92.5 -16.5q49 0 75 26.5t26 69.5q0 32 -20 52.5t-65 38.5l-67 27q-73 29 -109.5 75t-36.5 112q0 46 16 83.5t45.5 64t71.5 41t95 14.5q37 0 85.5 -13t88.5 -33l-38 -98q-33 17 -70.5 27.5t-65.5 10.5q-53 0 -76.5 -26.5t-23.5 -63.5 q0 -29 17 -50t46 -32l66 -26q38 -15 69.5 -33.5t53.5 -42t34 -53t12 -65.5q0 -46 -17 -84.5t-48 -67t-73 -44.5t-91 -16q-66 0 -118 19.5t-94 46.5z"/>
    <glyph glyph-name="T" unicode="T" horiz-adv-x="527" d="M499 680v-103h-173v-577h-125v577h-173v103h471z"/>
    <glyph glyph-name="U" unicode="U" horiz-adv-x="663" d="M203 680v-410q0 -39 7 -72t22 -56.5t39.5 -37t60.5 -13.5q35 0 59.5 13.5t39.5 37t22 56.5t7 72v410h125v-413q0 -136 -60 -209t-193 -73q-134 0 -194 73.5t-60 208.5v413h125z"/>
    <glyph glyph-name="V" unicode="V" horiz-adv-x="614" d="M600 670l-217 -670h-152l-216 670v10h133l113 -388l45 -184h3l46 185l110 387h135v-10z"/>
    <glyph glyph-name="W" unicode="W" horiz-adv-x="930" d="M904 670l-166 -670h-148l-94 400l-29 166h-2l-30 -166l-94 -400h-149l-166 670v10h134l79 -395l30 -169h2l30 169l91 395h146l91 -395l30 -169h2l30 169l79 395h134v-10z"/>
    <glyph glyph-name="X" unicode="X" horiz-adv-x="576" d="M160 680l128 -267h2l128 267h132v-10l-175 -329l175 -331v-10h-133l-127 267h-2l-128 -267h-133v10l174 331l-174 329v10h133z"/>
    <glyph glyph-name="Y" unicode="Y" horiz-adv-x="558" d="M140 680l138 -292h2l138 292h134v-10l-210 -394v-276h-125v276l-211 394v10h134z"/>
    <glyph glyph-name="Z" unicode="Z" horiz-adv-x="541" d="M493 680v-95l-307 -480v-2h307v-103h-453v95l306 480v2h-287v103h434z"/>
    <glyph glyph-name="bracketleft" unicode="[" horiz-adv-x="321" d="M285 700v-63l-104 -23v-726l104 -23v-63h-208v898h208z"/>
    <glyph glyph-name="backslash" unicode="\" horiz-adv-x="410" d="M280 0l-255 670v10h105l255 -670v-10h-105z"/>
    <glyph glyph-name="bracketright" unicode="]" horiz-adv-x="323" d="M246 700v-898h-209v65l105 23v722l-105 23v65h209z"/>
    <glyph glyph-name="asciicircum" unicode="^" horiz-adv-x="468" d="M452 372h-122l-100 209h-3l-100 -209h-122v10l166 318h115l166 -318v-10z"/>
    <glyph glyph-name="underscore" unicode="_" horiz-adv-x="475" d="M65 -107v85h345v-85h-345z"/>
    <glyph glyph-name="grave" unicode="`" horiz-adv-x="531" d="M166 713h128l71 -136v-10h-106l-93 137v9z"/>
    <glyph glyph-name="a" unicode="a" horiz-adv-x="515" d="M258 211q-102 0 -102 -70q0 -27 14 -43.5t48 -16.5q28 0 59.5 10t50.5 23v97h-70zM359 0l-17 43h-2q-25 -20 -65 -39t-84 -19q-75 0 -114 43t-39 109q0 42 15.5 71.5t43.5 47.5t67.5 26.5t87.5 8.5h76v22q0 26 -9 42.5t-22.5 25.5t-28.5 12t-26 3q-40 0 -78.5 -12 t-71.5 -26l-33 94q38 17 88 31t102 14q104 0 153 -53t49 -146v-298h-92z"/>
    <glyph glyph-name="b" unicode="b" horiz-adv-x="553" d="M193 118q17 -14 40 -23t46 -9q27 0 46 12t32 32.5t19 49t6 61.5t-6 61.5t-19 49t-32 32.5t-46 12q-23 0 -46 -9t-40 -23v-246zM193 700v-253h2q20 17 49 33.5t74 16.5q47 0 82.5 -20.5t59.5 -55t36 -81.5t12 -99q0 -53 -12 -99.5t-36 -81t-59.5 -55t-82.5 -20.5 q-24 0 -44 5.5t-37 14t-31 19t-25 19.5h-2l-18 -43h-91v700h123z"/>
    <glyph glyph-name="c" unicode="c" horiz-adv-x="449" d="M43 241q0 57 15.5 104t45.5 81t73.5 52.5t99.5 18.5q40 0 76 -10t57 -20l-24 -92q-19 7 -44.5 14t-51.5 7t-48 -10t-38.5 -29.5t-25.5 -48.5t-9 -67t9 -67t25 -48.5t38.5 -29.5t48.5 -10t51.5 7t44.5 14l24 -92q-21 -10 -57 -20t-76 -10q-56 0 -99.5 18.5t-73.5 52.5 t-45.5 81t-15.5 104z"/>
    <glyph glyph-name="d" unicode="d" horiz-adv-x="553" d="M360 364q-17 14 -40 23t-46 9q-27 0 -46 -12t-32 -32.5t-19 -49t-6 -61.5t6 -61.5t19 -49t32 -32.5t46 -12q23 0 46 9t40 23v246zM483 700v-700h-91l-17 43h-2q-23 -19 -56.5 -38.5t-81.5 -19.5q-47 0 -82.5 20.5t-59.5 55t-36 81t-12 99.5q0 52 12 99t36 81.5t59.5 55 t82.5 20.5q45 0 74.5 -16.5t49.5 -33.5h1v253h123z"/>
    <glyph glyph-name="e" unicode="e" horiz-adv-x="504" d="M163 206q2 -27 11 -49.5t23.5 -39t34.5 -25.5t44 -9q40 0 73.5 9t64.5 23l28 -87q-32 -17 -78 -30t-98 -13q-56 0 -98 20.5t-70 55.5t-41.5 81.5t-13.5 99.5q0 51 14 97t41.5 81.5t68 56t93.5 20.5t91.5 -17t63 -45.5t36.5 -66t12 -79.5q0 -23 -2 -46.5t-4 -36.5h-294z M350 286q1 4 1 8v8q0 21 -4.5 40t-15 34t-28 23.5t-42.5 8.5q-23 0 -40 -10.5t-29 -27.5t-18.5 -39t-7.5 -45h184z"/>
    <glyph glyph-name="f" unicode="f" horiz-adv-x="361" d="M103 0v386h-76v68l76 28v69q0 83 41 118.5t109 35.5q19 0 40.5 -2t35.5 -5v-94q-12 3 -28 5.5t-30 2.5q-24 0 -34.5 -15t-10.5 -49v-66h108v-96h-108v-386h-123z"/>
    <glyph glyph-name="g" unicode="g" d="M358 364q-17 14 -40 23t-46 9q-27 0 -46 -11.5t-31.5 -32t-18.5 -48.5t-6 -61t6 -60.5t18.5 -47.5t31.5 -31t46 -11q23 0 46 8t40 22v241zM481 25q0 -58 -15 -102.5t-44 -74.5t-70.5 -45.5t-95.5 -15.5t-96.5 13.5t-74.5 31.5l36 87q27 -15 60.5 -27t74.5 -12 q53 0 77.5 31.5t24.5 91.5v37h-2q-19 -17 -48 -32.5t-75 -15.5q-47 0 -82.5 19.5t-59 53.5t-35.5 79.5t-12 98.5q0 52 12 98.5t35.5 81t59 54.5t82.5 20q24 0 44 -5.5t37 -14.5t31 -19.5l26 -19.5h2l16 44h92v-457z"/>
    <glyph glyph-name="h" unicode="h" d="M362 0v295q0 48 -19 74.5t-58 26.5q-17 0 -30.5 -4.5t-25 -11.5t-20.5 -15.5t-16 -15.5v-349h-123v700h123v-257h2q9 9 22.5 18.5t30 17.5t35.5 13t41 5q78 0 119.5 -50t41.5 -138v-309h-123z"/>
    <glyph glyph-name="i" unicode="i" horiz-adv-x="263" d="M70 0v482h123v-482h-123zM61 639q0 31 19.5 50t51.5 19q33 0 52.5 -19t19.5 -50t-19.5 -50t-52.5 -19q-32 0 -51.5 19t-19.5 50z"/>
    <glyph glyph-name="j" unicode="j" horiz-adv-x="263" d="M193 482v-525q0 -45 -11.5 -77t-32 -53t-49.5 -30.5t-64 -9.5q-14 0 -31.5 2t-31.5 5v93q12 -4 27.5 -5.5t26.5 -1.5q43 0 43 70v532h123zM61 639q0 31 19.5 50t51.5 19t52 -19t20 -50t-20 -50t-52 -19t-51.5 19t-19.5 50z"/>
    <glyph glyph-name="k" unicode="k" horiz-adv-x="507" d="M193 224v-224h-123v700h123v-435h2l151 217h134v-9l-168 -225l176 -238v-10h-141l-152 224h-2z"/>
    <glyph glyph-name="l" unicode="l" horiz-adv-x="263" d="M70 0v700h123v-700h-123z"/>
    <glyph glyph-name="m" unicode="m" horiz-adv-x="846" d="M168 482l16 -46h2q9 9 22 19.5t30.5 20t39 15.5t48.5 6q48 0 81 -19t53 -53h2q9 9 22.5 21.5t32.5 24t44.5 19t58.5 7.5q81 0 121 -49.5t40 -137.5v-310h-123v295q0 49 -17 75t-60 26q-32 0 -56.5 -16t-40.5 -31q2 -9 2.5 -19.5t0.5 -19.5v-310h-123v295q0 49 -17 75 t-60 26q-32 0 -55 -14t-39 -28v-354h-123v482h98z"/>
    <glyph glyph-name="n" unicode="n" d="M169 482l16 -46h2q9 9 22 19.5t30.5 20t38.5 15.5t47 6q77 0 118.5 -49.5t41.5 -137.5v-310h-123v295q0 49 -19 75t-58 26q-15 0 -28.5 -4t-25.5 -10.5t-21.5 -14t-16.5 -13.5v-354h-123v482h99z"/>
    <glyph glyph-name="o" unicode="o" horiz-adv-x="545" d="M169 241q0 -36 7 -65t20 -49t32 -30.5t44 -10.5t44.5 10.5t32.5 30.5t20 49t7 65t-7 65t-20 49t-32.5 30.5t-44.5 10.5t-44 -10.5t-32 -30.5t-20 -49t-7 -65zM502 241q0 -54 -14.5 -101t-43.5 -81.5t-72 -54t-100 -19.5q-56 0 -98.5 19.5t-71.5 54t-44 81.5t-15 101 t15 101t44 81.5t71.5 54t98.5 19.5q57 0 100 -19.5t72 -54t43.5 -81.5t14.5 -101z"/>
    <glyph glyph-name="p" unicode="p" horiz-adv-x="552" d="M193 118q17 -14 40 -23t46 -9q27 0 46 12t31.5 32.5t18.5 49t6 61.5t-6 61.5t-18.5 49t-31.5 32.5t-46 12q-23 0 -46 -9t-40 -23v-246zM160 482l18 -43h2q23 19 56.5 38.5t81.5 19.5q46 0 81.5 -20.5t59.5 -55t36 -81.5t12 -99q0 -53 -12 -99.5t-36 -81t-59.5 -55 t-81.5 -20.5q-23 0 -41 4.5t-33 12t-27 16.5t-22 17h-2v-233h-123v680h90z"/>
    <glyph glyph-name="q" unicode="q" horiz-adv-x="552" d="M359 364q-17 14 -40 23t-46 9q-27 0 -46 -12t-31.5 -32.5t-18.5 -49t-6 -61.5t6 -61.5t18.5 -49t31.5 -32.5t46 -12q23 0 46 9t40 23v246zM482 -198h-123v233h-2q-10 -8 -22 -17t-27 -16.5t-33 -12t-41 -4.5q-47 0 -82.5 20.5t-59 55t-35.5 81t-12 99.5q0 52 12 99 t35.5 81.5t59 55t82.5 20.5q24 0 44 -5.5t37 -14t31 -19l26 -19.5h2l17 43h91v-680z"/>
    <glyph glyph-name="r" unicode="r" horiz-adv-x="365" d="M170 482l17 -57h2q6 12 16 25t23.5 23.5t30.5 17t39 6.5q12 0 23.5 -2t19.5 -4l-10 -103q-11 2 -23.5 3t-20.5 1q-37 0 -60 -16t-34 -34v-342h-123v482h100z"/>
    <glyph glyph-name="s" unicode="s" horiz-adv-x="440" d="M73 121q32 -18 68.5 -29t71.5 -11t51.5 15t16.5 39q0 23 -15 34.5t-44 19.5l-57 15q-23 6 -44 16.5t-37.5 27t-26.5 40t-10 55.5q0 35 12.5 63.5t35.5 48.5t57 31t76 11q50 0 87 -9t75 -26l-33 -89q-29 13 -61.5 20.5t-64.5 7.5q-33 0 -49 -14t-16 -38q0 -21 14.5 -32 t40.5 -19l56 -15q26 -7 48.5 -18t39 -28t26 -40.5t9.5 -55.5q0 -37 -13 -66t-37 -49t-58 -30.5t-75 -10.5q-28 0 -52 3t-46 9t-42.5 14.5t-39.5 19.5l36 90v0z"/>
    <glyph glyph-name="t" unicode="t" horiz-adv-x="386" d="M230 594v-112h125v-96h-125v-245q0 -27 13 -41t39 -14q14 0 34.5 4t35.5 9v-99q-14 -4 -42 -9.5t-60 -5.5q-73 0 -108 33.5t-35 103.5v264h-79v68l79 28v112h123z"/>
    <glyph glyph-name="u" unicode="u" horiz-adv-x="545" d="M188 482v-295q0 -49 17.5 -75t55.5 -26q15 0 28.5 4t25 10.5t20.5 14t17 13.5v354h123v-482h-100l-17 46h-1q-9 -9 -22 -19.5t-29.5 -20t-37 -15.5t-45.5 -6q-78 0 -118 49.5t-40 137.5v310h123z"/>
    <glyph glyph-name="v" unicode="v" horiz-adv-x="506" d="M486 472l-166 -472h-134l-166 472v10h121l86 -279l25 -101h2l25 101l86 279h121v-10z"/>
    <glyph glyph-name="w" unicode="w" horiz-adv-x="779" d="M752 472l-129 -472h-135l-80 285l-18 99h-2l-18 -99l-80 -285h-134l-129 472v10h118l67 -284l14 -97h2l20 97l75 284h133l75 -284l20 -97h2l14 97l66 284h119v-10z"/>
    <glyph glyph-name="x" unicode="x" horiz-adv-x="501" d="M250 176l-94 -176h-130v10l140 231l-140 231v10h130l94 -177h2l94 177h129v-10l-140 -231l140 -231v-10h-128l-95 176h-2z"/>
    <glyph glyph-name="y" unicode="y" horiz-adv-x="499" d="M478 472l-187 -532q-29 -81 -70.5 -117t-98.5 -36q-24 0 -47.5 4t-38.5 8v90q14 -3 32.5 -6t32.5 -3q29 0 45 16.5t28 52.5l19 56l-175 467v10h125l82 -266l24 -100h3l23 100l78 266h125v-10z"/>
    <glyph glyph-name="z" unicode="z" horiz-adv-x="441" d="M396 482v-68l-208 -319v-2h208v-93h-358v68l207 319v2h-193v93h344z"/>
    <glyph glyph-name="braceleft" unicode="{" horiz-adv-x="349" d="M30 297q35 0 57.5 19.5t22.5 58.5v142q0 43 7.5 77t26.5 57.5t51.5 36t82.5 12.5h33v-70q-26 0 -44.5 -7t-30 -20.5t-17 -33.5t-5.5 -45v-145q0 -57 -17.5 -87.5t-59.5 -39.5v-2q42 -9 59.5 -39.5t17.5 -87.5v-145q0 -25 5.5 -45t17 -33.5t30 -20.5t44.5 -7v-70h-33 q-50 0 -82.5 12.5t-51.5 36t-26.5 57.5t-7.5 77v142q0 39 -22.5 58.5t-57.5 19.5v92z"/>
    <glyph glyph-name="bar" unicode="|" horiz-adv-x="235" d="M158 -198h-81v898h81v-898z"/>
    <glyph glyph-name="braceright" unicode="}" horiz-adv-x="348" d="M319 205q-35 0 -58 -19.5t-23 -58.5v-142q0 -43 -7.5 -77t-26 -57.5t-51 -36t-82.5 -12.5h-33v70q26 0 44.5 7t30 20.5t16.5 33.5t5 45v145q0 57 17.5 87.5t59.5 39.5v2q-42 9 -59.5 39.5t-17.5 87.5v145q0 25 -5 45t-16.5 33.5t-30 20.5t-44.5 7v70h33q50 0 82.5 -12.5 t51 -36t26 -57.5t7.5 -77v-142q0 -39 23 -58.5t58 -19.5v-92z"/>
    <glyph glyph-name="asciitilde" unicode="~" horiz-adv-x="520" d="M44 284q9 14 22 27.5t28.5 24.5t33 18t37.5 7q29 0 55 -11.5t51 -26t50.5 -26t52.5 -11.5q18 0 31 7.5t27 27.5l44 -61q-26 -38 -56.5 -55t-59.5 -17q-26 0 -52.5 11.5t-52 26t-50 26t-47.5 11.5q-18 0 -37.5 -10t-32.5 -30z"/>
    <glyph glyph-name="uni00A0" unicode=" " horiz-adv-x="225"/>
    <glyph glyph-name="exclamdown" unicode="¡" horiz-adv-x="261" d="M93 247h76l29 -291v-154h-133v154zM209 415q0 -36 -21 -59.5t-56 -23.5q-36 0 -57 23.5t-21 59.5t21 59t57 23q35 0 56 -23t21 -59z"/>
    <glyph glyph-name="cent" unicode="¢" d="M90 241q0 51 13 94.5t37.5 76.5t60.5 54t82 28v84h80v-84q29 -5 53.5 -12t40.5 -15l-24 -92q-14 5 -32 10.5t-38 8.5v-306q20 3 38 8.5t32 10.5l24 -92q-16 -8 -40.5 -15t-53.5 -12v-84h-80v84q-93 13 -143 81t-50 172zM216 241q0 -28 4.5 -50.5t13.5 -40.5t21.5 -31 t27.5 -21v285q-15 -8 -27.5 -21t-21.5 -31t-13.5 -40.5t-4.5 -49.5z"/>
    <glyph glyph-name="sterling" unicode="£" d="M260 286q2 -16 2.5 -30.5t0.5 -28.5q0 -33 -13.5 -67.5t-31.5 -54.5v-2h272v-103h-416v90q18 11 29.5 24t18.5 27.5t10 29.5t3 31q0 20 -2 41t-4 43h-75v95h62q-3 25 -4.5 52t-1.5 56q0 49 14 87t41 64.5t67 40.5t92 14q45 0 92 -12t85 -32l-33 -97q-34 16 -70 25.5 t-69 9.5q-42 0 -66.5 -24t-24.5 -62q0 -32 2.5 -62.5t6.5 -59.5h154v-95h-141z"/>
    <glyph glyph-name="currency" unicode="¤" horiz-adv-x="557" d="M445 270q0 -52 -19 -91l85 -92l-65 -70l-85 89q-35 -21 -85 -21q-47 0 -82 19l-82 -87l-66 70l82 90q-10 20 -14.5 43.5t-4.5 49.5t5 50t15 44l-83 91l66 69l83 -88q35 19 81 19q50 0 83 -21l87 90l65 -69l-85 -94q19 -41 19 -91zM211 270q0 -22 5 -39.5t13.5 -29.5 t20.5 -18t26 -6q15 0 27.5 6t21 18t13.5 29.5t5 39.5t-5 39.5t-13.5 29.5t-21 18t-27.5 6q-14 0 -26 -6t-20.5 -18t-13.5 -29.5t-5 -39.5z"/>
    <glyph glyph-name="yen" unicode="¥" d="M504 295h-165v-77h165v-95h-165v-123h-125v123h-169v95h169v77h-169v95h120l-144 280v10h134l120 -272h2l118 272h134v-10l-142 -280h117v-95z"/>
    <glyph glyph-name="brokenbar" unicode="¦" horiz-adv-x="237" d="M159 134v-332h-81v332h81zM78 368v332h81v-332h-81z"/>
    <glyph glyph-name="section" unicode="§" horiz-adv-x="539" d="M211 342q-13 -9 -20 -26t-7 -34q0 -25 11 -42t39 -29l103 -43q14 11 20.5 27.5t6.5 31.5q0 27 -13.5 44.5t-33.5 26.5zM408 133q38 -21 59 -56.5t21 -72.5q0 -44 -16.5 -78t-45.5 -57.5t-70 -36t-89 -12.5q-66 0 -120.5 16t-95.5 36l41 108q33 -18 78.5 -36.5t94.5 -18.5 q46 0 70.5 18t24.5 44q0 21 -13.5 40t-56.5 36l-105 42q-57 23 -91 59t-34 91q0 41 21.5 69.5t57.5 48.5v2q-33 23 -56 57t-23 80q0 40 14.5 73.5t42.5 58t69 38t93 13.5q44 0 91 -7.5t93 -29.5l-37 -103q-37 17 -75 26t-73 9q-48 0 -69 -21t-21 -45q0 -20 12.5 -39 t50.5 -33l87 -33q79 -30 114.5 -69.5t35.5 -94.5q0 -17 -6 -33t-17 -31t-25.5 -29t-31.5 -27v-2z"/>
    <glyph glyph-name="dieresis" unicode="¨" horiz-adv-x="531" d="M293 640q0 31 19.5 50t51.5 19q33 0 52.5 -19t19.5 -50t-19.5 -50t-52.5 -19q-32 0 -51.5 19t-19.5 50zM95 640q0 31 19.5 50t51.5 19q33 0 52.5 -19t19.5 -50t-19.5 -50t-52.5 -19q-32 0 -51.5 19t-19.5 50z"/>
    <glyph glyph-name="copyright" unicode="©" horiz-adv-x="812" d="M51 340q0 75 27 140t75 113t113 75t140 27t140 -27t113 -75t75 -113t27 -140t-27 -140t-75 -113t-113 -75t-140 -27t-140 27t-113 75t-75 113t-27 140zM122 340q0 -61 22.5 -113.5t62 -91t92.5 -60.5t114 -22t111.5 22t87.5 60.5t57.5 91t20.5 113.5t-21.5 113.5 t-59.5 91t-90 60.5t-113 22t-113 -22t-90 -60.5t-59.5 -91t-21.5 -113.5zM219 340q0 88 49.5 141.5t143.5 53.5q27 0 56.5 -6t56.5 -18l-24 -72q-26 12 -45.5 16t-43.5 4q-43 0 -70.5 -33t-27.5 -86t27.5 -86t70.5 -33q24 0 43.5 4t45.5 16l24 -72q-27 -12 -56.5 -18 t-56.5 -6q-94 0 -143.5 53.5t-49.5 141.5z"/>
    <glyph glyph-name="ordfeminine" unicode="ª" horiz-adv-x="407" d="M200 480q-22 0 -33.5 -9t-11.5 -25q0 -15 7 -24t23 -9q15 0 31 6t25 13v48h-41zM264 350l-14 27h-1q-13 -12 -36.5 -24t-49.5 -12q-51 0 -73.5 28t-22.5 68q0 51 32.5 75t91.5 24h50v11q0 19 -10 31t-36 12q-24 0 -48 -5.5t-47 -14.5l-18 69q23 9 54 16.5t64 7.5 q63 0 96 -35t33 -94v-184h-65zM75 201v77h254v-77h-254z"/>
    <glyph glyph-name="guillemotleft" unicode="«" horiz-adv-x="529" d="M36 276l147 219l82 -49l-91 -177l92 -176l-83 -48l-147 219v12zM252 276l147 219l82 -49l-91 -177l92 -176l-83 -48l-147 219v12z"/>
    <glyph glyph-name="logicalnot" unicode="¬" d="M423 220h-387v103h470v-224h-83v121z"/>
    <glyph glyph-name="uni00AD" unicode="­" horiz-adv-x="412" d="M65 220v103h282v-103h-282z"/>
    <glyph glyph-name="registered" unicode="®" horiz-adv-x="556" d="M50 561q0 49 17.5 90.5t48 72.5t72.5 48.5t90 17.5t90 -17.5t72.5 -48.5t48 -72.5t17.5 -90.5q0 -48 -17.5 -90t-48 -72.5t-72.5 -48t-90 -17.5t-90 17.5t-72.5 48t-48 72.5t-17.5 90zM105 561q0 -37 13.5 -69t37.5 -56t56.5 -37.5t70.5 -13.5q37 0 68 13.5t53 37.5 t34.5 56t12.5 69t-13 69t-36 56t-55 37.5t-69 13.5q-38 0 -69.5 -13.5t-54.5 -37.5t-36 -56t-13 -69zM188 455v218h99q42 0 61.5 -18.5t19.5 -50.5q0 -24 -12.5 -41t-36.5 -24l60 -79v-5h-63l-53 80h-20v-80h-55zM284 579q15 0 22 7t7 17q0 11 -7 17.5t-22 6.5h-41v-48h41z "/>
    <glyph glyph-name="macron" unicode="¯" horiz-adv-x="531" d="M135 579v103h261v-103h-261z"/>
    <glyph glyph-name="degree" unicode="°" horiz-adv-x="433" d="M139 530q0 -38 23 -60.5t55 -22.5q33 0 55 22.5t22 60.5q0 35 -22 58.5t-55 23.5q-32 0 -55 -23.5t-23 -58.5zM46 530q0 39 13.5 69.5t36.5 51.5t54 32.5t67 11.5q35 0 66 -11.5t54 -32.5t36.5 -51.5t13.5 -69.5t-13.5 -70.5t-36.5 -53t-54 -33t-66 -11.5q-36 0 -67 11.5 t-54 33t-36.5 53t-13.5 70.5z"/>
    <glyph glyph-name="plusminus" unicode="±" d="M323 433h187v-103h-187v-144h-97v144h-186v103h186v193h97v-193zM510 103v-103h-470v103h470z"/>
    <glyph glyph-name="twosuperior" unicode="²" horiz-adv-x="312" d="M150 522h132v-74h-254v67l136 118q25 21 25 52q0 19 -11.5 31.5t-31.5 12.5q-23 0 -39 -12.5t-32 -28.5l-48 58q7 9 18.5 19.5t26.5 19.5t35 15t44 6q26 0 49 -7.5t40 -21.5t27 -36t10 -50q0 -37 -18.5 -63.5t-44.5 -48.5l-64 -54v-3z"/>
    <glyph glyph-name="threesuperior" unicode="³" horiz-adv-x="310" d="M77 660h64q23 0 33 9t10 26q0 14 -10.5 24t-36.5 10q-20 0 -43.5 -4.5t-40.5 -12.5l-24 71q22 9 49.5 16t60.5 7q64 0 98.5 -25.5t34.5 -73.5q0 -36 -17 -53.5t-36 -21.5v-1q27 -9 44.5 -30t17.5 -58q0 -46 -34 -74.5t-112 -28.5q-34 0 -62.5 7.5t-51.5 19.5l22 73 q17 -9 42 -15.5t50 -6.5q29 0 43.5 9t14.5 29q0 17 -12.5 23.5t-38.5 6.5h-65v74z"/>
    <glyph glyph-name="acute" unicode="´" horiz-adv-x="531" d="M365 704l-93 -137h-106v10l71 136h128v-9z"/>
    <glyph glyph-name="mu" unicode="µ" horiz-adv-x="544" d="M75 -198v680h123v-305q2 -45 19 -68t54 -23q15 0 28.5 4t25 10.5t20.5 14t17 13.5v354h123v-482h-100l-17 46h-1q-9 -9 -22 -19.5t-29.5 -20t-37 -15.5t-45.5 -6q-10 0 -21.5 2.5t-20.5 5.5l7 -64v-127h-123z"/>
    <glyph glyph-name="paragraph" unicode="¶" horiz-adv-x="544" d="M195 328q-35 0 -65 11.5t-53 33.5t-36 55t-13 75t13 75t36 55.5t53 34.5t65 12h321v-75h-86v-803h-79v803h-76v-803h-80v526z"/>
    <glyph glyph-name="periodcentered" unicode="·" horiz-adv-x="269" d="M55 287q0 36 22 59.5t57 23.5q36 0 58 -23.5t22 -59.5t-22 -59t-58 -23q-35 0 -57 23t-22 59z"/>
    <glyph glyph-name="cedilla" unicode="¸" horiz-adv-x="531" d="M206 -88l33 95h72l-21 -52q29 -5 45.5 -23.5t16.5 -49.5q0 -44 -27.5 -69.5t-78.5 -25.5q-20 0 -37.5 3.5t-29.5 8.5l12 63q10 -4 20.5 -6t18.5 -2q16 0 23.5 6t7.5 19q0 10 -5 15.5t-12.5 8t-16.5 3t-18 0.5z"/>
    <glyph glyph-name="onesuperior" unicode="¹" horiz-adv-x="254" d="M19 667v78l123 54h64v-351h-85v259h-1l-94 -40h-7z"/>
    <glyph glyph-name="ordmasculine" unicode="º" horiz-adv-x="412" d="M144 502q0 -46 18.5 -65t43.5 -19q26 0 44 19t18 65q0 45 -18 64.5t-44 19.5q-25 0 -43.5 -19.5t-18.5 -64.5zM358 502q0 -33 -10 -62.5t-29.5 -51t-47.5 -34.5t-65 -13q-36 0 -64.5 13t-48 34.5t-29.5 51t-10 62.5t10 62.5t29.5 51t48 34.5t64.5 13q37 0 65 -13 t47.5 -34.5t29.5 -51t10 -62.5zM78 201v77h255v-77h-255z"/>
    <glyph glyph-name="guillemotright" unicode="»" horiz-adv-x="529" d="M277 264l-147 -219l-82 49l91 177l-92 176l83 48l147 -219v-12zM493 264l-147 -219l-82 49l91 177l-92 176l83 48l147 -219v-12z"/>
    <glyph glyph-name="onequarter" unicode="¼" horiz-adv-x="726" d="M648 238v-89h38v-75h-38v-74h-85v74h-161v68l81 209h87l-75 -201v-1h68v89h85zM36 547v78l123 54h64v-351h-85v259h-1l-94 -40h-7zM83 0v10l456 670h104v-10l-456 -670h-104z"/>
    <glyph glyph-name="onehalf" unicode="½" horiz-adv-x="749" d="M35 545v78l123 54h64v-351h-85v259h-1l-94 -40h-7zM572 74h132v-74h-254v67l136 118q25 21 25 52q0 19 -11.5 31.5t-31.5 12.5q-23 0 -39 -12.5t-32 -28.5l-48 58q7 9 18.5 19.5t26.5 19.5t35 15t44 6q26 0 49 -7.5t40 -21.5t27 -36t10 -50q0 -37 -18.5 -63.5 t-44.5 -48.5l-64 -54v-3zM83 0v10l456 670h104v-10l-456 -670h-104z"/>
    <glyph glyph-name="threequarters" unicode="¾" horiz-adv-x="788" d="M712 238v-89h38v-75h-38v-74h-85v74h-161v68l81 209h87l-75 -201v-1h68v89h85zM95 537h64q23 0 33 9t10 26q0 14 -10.5 24t-36.5 10q-20 0 -43.5 -4.5t-40.5 -12.5l-24 71q22 9 49.5 16t60.5 7q64 0 98.5 -25.5t34.5 -73.5q0 -36 -17 -53.5t-36 -21.5v-1q27 -9 44.5 -30 t17.5 -58q0 -46 -34 -74.5t-112 -28.5q-34 0 -62.5 7.5t-51.5 19.5l22 73q17 -9 42 -15.5t50 -6.5q29 0 43.5 9t14.5 29q0 17 -12.5 23.5t-38.5 6.5h-65v74zM127 0v10l456 670h104v-10l-456 -670h-104z"/>
    <glyph glyph-name="questiondown" unicode="¿" horiz-adv-x="457" d="M295 247l6 -130q-29 -11 -53.5 -24.5t-41.5 -30t-26.5 -36.5t-9.5 -44q0 -16 5 -31.5t15 -28t25.5 -20t36.5 -7.5q38 0 66 17.5t56 42.5l59 -87q-13 -14 -32 -28.5t-43 -26t-52.5 -19t-60.5 -7.5q-97 0 -153.5 50t-56.5 139q0 41 15 74t37 58t48 42.5t49 29.5l12 67h99z M323 415q0 -36 -21 -59.5t-56 -23.5t-56 23.5t-21 59.5t21 59t56 23t56 -23t21 -59z"/>
    <glyph glyph-name="Agrave" unicode="À" horiz-adv-x="619" d="M178 896h136l63 -136v-10h-115l-84 137v9zM608 0h-134l-42 149h-244l-43 -149h-133l224 680h146zM308 570l-46 -183l-41 -139h176l-42 139l-44 183h-3z"/>
    <glyph glyph-name="Aacute" unicode="Á" horiz-adv-x="619" d="M608 0h-134l-42 149h-244l-43 -149h-133l224 680h146zM308 570l-46 -183l-41 -139h176l-42 139l-44 183h-3zM443 887l-84 -137h-115v10l63 136h136v-9z"/>
    <glyph glyph-name="Acircumflex" unicode="Â" horiz-adv-x="619" d="M608 0h-134l-42 149h-244l-43 -149h-133l224 680h146zM308 570l-46 -183l-41 -139h176l-42 139l-44 183h-3zM468 760v-10h-101l-57 79l-56 -79h-101v10l102 136h111z"/>
    <glyph glyph-name="Atilde" unicode="Ã" horiz-adv-x="619" d="M608 0h-134l-42 149h-244l-43 -149h-133l224 680h146zM308 570l-46 -183l-41 -139h176l-42 139l-44 183h-3zM153 831q14 28 40 47t56 19q21 0 38 -7t32.5 -15.5t30.5 -15.5t33 -7q17 0 33 9.5t27 24.5l25 -68q-16 -32 -42.5 -49.5t-52.5 -17.5q-20 0 -38 7t-34.5 15.5 t-32 15.5t-30.5 7q-20 0 -34 -9t-26 -26z"/>
    <glyph glyph-name="Adieresis" unicode="Ä" horiz-adv-x="619" d="M608 0h-134l-42 149h-244l-43 -149h-133l224 680h146zM308 570l-46 -183l-41 -139h176l-42 139l-44 183h-3zM121 818q0 31 19.5 50t51.5 19q33 0 52.5 -19t19.5 -50t-19.5 -50t-52.5 -19q-32 0 -51.5 19t-19.5 50zM355 818q0 31 19.5 50t51.5 19q33 0 52.5 -19t19.5 -50 t-19.5 -50t-52.5 -19q-32 0 -51.5 19t-19.5 50z"/>
    <glyph glyph-name="Aring" unicode="Å" horiz-adv-x="616" d="M196 746q0 52 30.5 82t79.5 30t79 -30t30 -82q0 -26 -11.5 -49t-29.5 -37l232 -660h-134l-42 149h-244l-43 -149h-133l229 658q-19 14 -31 38t-12 50zM306 570l-46 -183l-41 -139h176l-42 139l-44 183h-3zM268 746q0 -19 10.5 -29t27.5 -10t27 10t10 29q0 18 -10 28.5 t-27 10.5t-27.5 -10.5t-10.5 -28.5z"/>
    <glyph glyph-name="AE" unicode="Æ" horiz-adv-x="873" d="M-10 10l363 670h463v-103h-286v-181h256v-103h-256v-190h289v-103h-414v149h-207l-78 -149h-130v10zM410 565l-73 -150l-84 -167h152v167l8 150h-3z"/>
    <glyph glyph-name="Ccedilla" unicode="Ç" horiz-adv-x="564" d="M52 340q0 79 19.5 144.5t57.5 112.5t93.5 72.5t127.5 25.5q43 0 87.5 -11t86.5 -33l-33 -95q-40 21 -74 27t-67 6q-39 0 -70.5 -18.5t-53.5 -51.5t-34 -78.5t-12 -100.5t12 -100.5t34 -78.5t53.5 -51.5t70.5 -18.5q33 0 67 6t74 27l33 -95q-39 -20 -80.5 -31t-82.5 -13 l-11 -30q29 -5 45.5 -23.5t16.5 -49.5q0 -44 -27.5 -69.5t-78.5 -25.5q-20 0 -37.5 3.5t-30.5 8.5l13 63q10 -4 20.5 -6t18.5 -2q15 0 23 6t8 19q0 10 -5 15.5t-12.5 8t-16.5 3t-18 0.5l-4 6l26 78q-58 10 -102.5 39t-75 74.5t-46 105.5t-15.5 131z"/>
    <glyph glyph-name="Egrave" unicode="È" horiz-adv-x="552" d="M495 680v-103h-286v-181h256v-103h-256v-190h289v-103h-414v680h411zM154 896h136l63 -136v-10h-115l-84 137v9z"/>
    <glyph glyph-name="Eacute" unicode="É" horiz-adv-x="552" d="M495 680v-103h-286v-181h256v-103h-256v-190h289v-103h-414v680h411zM431 887l-84 -137h-115v10l63 136h136v-9z"/>
    <glyph glyph-name="Ecircumflex" unicode="Ê" horiz-adv-x="552" d="M495 680v-103h-286v-181h256v-103h-256v-190h289v-103h-414v680h411zM446 760v-10h-101l-57 79l-56 -79h-101v10l102 136h111z"/>
    <glyph glyph-name="Edieresis" unicode="Ë" horiz-adv-x="552" d="M495 680v-103h-286v-181h256v-103h-256v-190h289v-103h-414v680h411zM96 818q0 31 19.5 50t51.5 19q33 0 52.5 -19t19.5 -50t-19.5 -50t-52.5 -19q-32 0 -51.5 19t-19.5 50zM330 818q0 31 19.5 50t51.5 19q33 0 52.5 -19t19.5 -50t-19.5 -50t-52.5 -19q-32 0 -51.5 19 t-19.5 50z"/>
    <glyph glyph-name="Igrave" unicode="Ì" horiz-adv-x="293" d="M209 0h-125v680h125v-680zM7 896h136l63 -136v-10h-115l-84 137v9z"/>
    <glyph glyph-name="Iacute" unicode="Í" horiz-adv-x="293" d="M209 0h-125v680h125v-680zM286 887l-84 -137h-115v10l63 136h136v-9z"/>
    <glyph glyph-name="Icircumflex" unicode="Î" horiz-adv-x="293" d="M209 0h-125v680h125v-680zM303 760v-10h-101l-57 79l-56 -79h-101v10l102 136h111z"/>
    <glyph glyph-name="Idieresis" unicode="Ï" horiz-adv-x="293" d="M209 0h-125v680h125v-680zM-45 818q0 31 19.5 50t51.5 19q33 0 52.5 -19t19.5 -50t-19.5 -50t-52.5 -19q-32 0 -51.5 19t-19.5 50zM189 818q0 31 19.5 50t51.5 19q33 0 52.5 -19t19.5 -50t-19.5 -50t-52.5 -19q-32 0 -51.5 19t-19.5 50z"/>
    <glyph glyph-name="Eth" unicode="Ð" horiz-adv-x="645" d="M42 387h43v293h192q86 0 145.5 -22t97 -65.5t54 -107t16.5 -145.5q0 -83 -16.5 -146t-54 -106.5t-97 -65.5t-145.5 -22h-192v284h-43v103zM265 103q60 0 98 14.5t60 44t30.5 74t8.5 104.5t-8.5 104.5t-30.5 74t-60 44t-98 14.5h-55v-190h102v-103h-102v-181h55z"/>
    <glyph glyph-name="Ntilde" unicode="Ñ" horiz-adv-x="689" d="M495 167l-15 132v381h125v-680h-132l-276 512h-3l15 -132v-380h-125v680h132l276 -513h3zM180 831q14 28 40 47t56 19q21 0 38 -7t32.5 -15.5t30.5 -15.5t33 -7q17 0 33 9.5t27 24.5l25 -68q-16 -32 -42.5 -49.5t-52.5 -17.5q-20 0 -38 7t-34.5 15.5t-32 15.5t-30.5 7 q-20 0 -34 -9t-26 -26z"/>
    <glyph glyph-name="Ograve" unicode="Ò" horiz-adv-x="693" d="M180 340q0 -52 9 -97.5t29 -79t52 -53t77 -19.5t77 19.5t51.5 53t28.5 79t9 97.5t-9 97t-28.5 79t-51.5 53.5t-77 19.5t-77 -19.5t-52 -53.5t-29 -79t-9 -97zM641 340q0 -75 -17.5 -139.5t-53.5 -112.5t-91.5 -75.5t-131.5 -27.5q-77 0 -132.5 27.5t-91.5 75.5 t-53.5 112.5t-17.5 139.5t17.5 139.5t53.5 112.5t91.5 75.5t132.5 27.5q76 0 131.5 -27.5t91.5 -75.5t53.5 -112.5t17.5 -139.5zM224 896h136l63 -136v-10h-115l-84 137v9z"/>
    <glyph glyph-name="Oacute" unicode="Ó" horiz-adv-x="693" d="M180 340q0 -52 9 -97.5t29 -79t52 -53t77 -19.5t77 19.5t51.5 53t28.5 79t9 97.5t-9 97t-28.5 79t-51.5 53.5t-77 19.5t-77 -19.5t-52 -53.5t-29 -79t-9 -97zM641 340q0 -75 -17.5 -139.5t-53.5 -112.5t-91.5 -75.5t-131.5 -27.5q-77 0 -132.5 27.5t-91.5 75.5 t-53.5 112.5t-17.5 139.5t17.5 139.5t53.5 112.5t91.5 75.5t132.5 27.5q76 0 131.5 -27.5t91.5 -75.5t53.5 -112.5t17.5 -139.5zM487 887l-84 -137h-115v10l63 136h136v-9z"/>
    <glyph glyph-name="Ocircumflex" unicode="Ô" horiz-adv-x="693" d="M180 340q0 -52 9 -97.5t29 -79t52 -53t77 -19.5t77 19.5t51.5 53t28.5 79t9 97.5t-9 97t-28.5 79t-51.5 53.5t-77 19.5t-77 -19.5t-52 -53.5t-29 -79t-9 -97zM641 340q0 -75 -17.5 -139.5t-53.5 -112.5t-91.5 -75.5t-131.5 -27.5q-77 0 -132.5 27.5t-91.5 75.5 t-53.5 112.5t-17.5 139.5t17.5 139.5t53.5 112.5t91.5 75.5t132.5 27.5q76 0 131.5 -27.5t91.5 -75.5t53.5 -112.5t17.5 -139.5zM511 760v-10h-101l-57 79l-56 -79h-101v10l102 136h111z"/>
    <glyph glyph-name="Otilde" unicode="Õ" horiz-adv-x="693" d="M180 340q0 -52 9 -97.5t29 -79t52 -53t77 -19.5t77 19.5t51.5 53t28.5 79t9 97.5t-9 97t-28.5 79t-51.5 53.5t-77 19.5t-77 -19.5t-52 -53.5t-29 -79t-9 -97zM641 340q0 -75 -17.5 -139.5t-53.5 -112.5t-91.5 -75.5t-131.5 -27.5q-77 0 -132.5 27.5t-91.5 75.5 t-53.5 112.5t-17.5 139.5t17.5 139.5t53.5 112.5t91.5 75.5t132.5 27.5q76 0 131.5 -27.5t91.5 -75.5t53.5 -112.5t17.5 -139.5zM193 831q14 28 40 47t56 19q21 0 38 -7t32.5 -15.5t30.5 -15.5t33 -7q17 0 33 9.5t27 24.5l25 -68q-16 -32 -42.5 -49.5t-52.5 -17.5 q-20 0 -38 7t-34.5 15.5t-32 15.5t-30.5 7q-20 0 -34 -9t-26 -26z"/>
    <glyph glyph-name="Odieresis" unicode="Ö" horiz-adv-x="693" d="M180 340q0 -52 9 -97.5t29 -79t52 -53t77 -19.5t77 19.5t51.5 53t28.5 79t9 97.5t-9 97t-28.5 79t-51.5 53.5t-77 19.5t-77 -19.5t-52 -53.5t-29 -79t-9 -97zM641 340q0 -75 -17.5 -139.5t-53.5 -112.5t-91.5 -75.5t-131.5 -27.5q-77 0 -132.5 27.5t-91.5 75.5 t-53.5 112.5t-17.5 139.5t17.5 139.5t53.5 112.5t91.5 75.5t132.5 27.5q76 0 131.5 -27.5t91.5 -75.5t53.5 -112.5t17.5 -139.5zM161 818q0 31 19.5 50t51.5 19q33 0 52.5 -19t19.5 -50t-19.5 -50t-52.5 -19q-32 0 -51.5 19t-19.5 50zM395 818q0 31 19.5 50t51.5 19 q33 0 52.5 -19t19.5 -50t-19.5 -50t-52.5 -19q-32 0 -51.5 19t-19.5 50z"/>
    <glyph glyph-name="multiply" unicode="×" d="M274 340l149 157l66 -69l-149 -157l149 -157l-66 -69l-149 157l-148 -157l-65 69l147 157l-147 157l65 69z"/>
    <glyph glyph-name="Oslash" unicode="Ø" horiz-adv-x="693" d="M91 14l40 63q-41 48 -60 116t-19 147q0 75 17.5 139.5t53.5 112.5t91.5 75.5t132.5 27.5q42 0 77.5 -8.5t64.5 -24.5l33 54l74 -44l-40 -64q44 -48 64.5 -117.5t20.5 -150.5q0 -75 -17.5 -139.5t-53.5 -112.5t-91.5 -75.5t-131.5 -27.5q-45 0 -82.5 10t-68.5 27l-35 -53z M513 340q0 44 -6.5 83t-20.5 71l-230 -375q37 -28 91 -28q45 0 77 19.5t51.5 53t28.5 79t9 97.5zM180 340q0 -41 5.5 -78t17.5 -67l227 370q-17 11 -37.5 17.5t-45.5 6.5q-45 0 -77 -19.5t-52 -53.5t-29 -79t-9 -97z"/>
    <glyph glyph-name="Ugrave" unicode="Ù" horiz-adv-x="663" d="M203 680v-410q0 -39 7 -72t22 -56.5t39.5 -37t60.5 -13.5q35 0 59.5 13.5t39.5 37t22 56.5t7 72v410h125v-413q0 -136 -60 -209t-193 -73q-134 0 -194 73.5t-60 208.5v413h125zM194 896h136l63 -136v-10h-115l-84 137v9z"/>
    <glyph glyph-name="Uacute" unicode="Ú" horiz-adv-x="663" d="M203 680v-410q0 -39 7 -72t22 -56.5t39.5 -37t60.5 -13.5q35 0 59.5 13.5t39.5 37t22 56.5t7 72v410h125v-413q0 -136 -60 -209t-193 -73q-134 0 -194 73.5t-60 208.5v413h125zM469 887l-84 -137h-115v10l63 136h136v-9z"/>
    <glyph glyph-name="Ucircumflex" unicode="Û" horiz-adv-x="663" d="M203 680v-410q0 -39 7 -72t22 -56.5t39.5 -37t60.5 -13.5q35 0 59.5 13.5t39.5 37t22 56.5t7 72v410h125v-413q0 -136 -60 -209t-193 -73q-134 0 -194 73.5t-60 208.5v413h125zM485 760v-10h-101l-57 79l-56 -79h-101v10l102 136h111z"/>
    <glyph glyph-name="Udieresis" unicode="Ü" horiz-adv-x="663" d="M203 680v-410q0 -39 7 -72t22 -56.5t39.5 -37t60.5 -13.5q35 0 59.5 13.5t39.5 37t22 56.5t7 72v410h125v-413q0 -136 -60 -209t-193 -73q-134 0 -194 73.5t-60 208.5v413h125zM138 818q0 31 19.5 50t51.5 19q33 0 52.5 -19t19.5 -50t-19.5 -50t-52.5 -19q-32 0 -51.5 19 t-19.5 50zM372 818q0 31 19.5 50t51.5 19q33 0 52.5 -19t19.5 -50t-19.5 -50t-52.5 -19q-32 0 -51.5 19t-19.5 50z"/>
    <glyph glyph-name="Yacute" unicode="Ý" horiz-adv-x="558" d="M140 680l138 -292h2l138 292h134v-10l-210 -394v-276h-125v276l-211 394v10h134zM419 887l-84 -137h-115v10l63 136h136v-9z"/>
    <glyph glyph-name="Thorn" unicode="Þ" horiz-adv-x="568" d="M84 0v680h125v-112h109q55 0 94 -16.5t64 -46t36 -70t11 -89.5t-11.5 -89.5t-36.5 -70t-63.5 -46t-93.5 -16.5h-109v-124h-125zM209 227h99q23 0 39.5 9.5t27 25.5t15.5 37.5t5 46.5q0 50 -20.5 84.5t-66.5 34.5h-99v-238z"/>
    <glyph glyph-name="germandbls" unicode="ß" horiz-adv-x="589" d="M70 482q0 55 15.5 97t43.5 70t68 42t88 14q50 0 90 -14t67.5 -39t42.5 -59.5t15 -74.5q0 -30 -5.5 -53t-15 -40t-22.5 -29.5t-27 -19.5v-2q22 -9 43 -23.5t37.5 -36.5t26.5 -51.5t10 -66.5q0 -54 -15.5 -93.5t-45.5 -66t-74 -39t-102 -12.5q-15 0 -28 1t-21 3v104 q11 -1 24.5 -1.5t24.5 -0.5q57 0 84 27.5t27 85.5q0 50 -29.5 77.5t-89.5 27.5h-24v110h23q34 0 54 22.5t20 68.5q0 42 -19 70t-71 28q-49 0 -70.5 -31t-21.5 -99v-478h-123v482z"/>
    <glyph glyph-name="agrave" unicode="à" horiz-adv-x="515" d="M258 211q-102 0 -102 -70q0 -27 14 -43.5t48 -16.5q28 0 59.5 10t50.5 23v97h-70zM359 0l-17 43h-2q-25 -20 -65 -39t-84 -19q-75 0 -114 43t-39 109q0 42 15.5 71.5t43.5 47.5t67.5 26.5t87.5 8.5h76v22q0 26 -9 42.5t-22.5 25.5t-28.5 12t-26 3q-40 0 -78.5 -12 t-71.5 -26l-33 94q38 17 88 31t102 14q104 0 153 -53t49 -146v-298h-92zM122 713h128l71 -136v-10h-106l-93 137v9z"/>
    <glyph glyph-name="aacute" unicode="á" horiz-adv-x="515" d="M258 211q-102 0 -102 -70q0 -27 14 -43.5t48 -16.5q28 0 59.5 10t50.5 23v97h-70zM359 0l-17 43h-2q-25 -20 -65 -39t-84 -19q-75 0 -114 43t-39 109q0 42 15.5 71.5t43.5 47.5t67.5 26.5t87.5 8.5h76v22q0 26 -9 42.5t-22.5 25.5t-28.5 12t-26 3q-40 0 -78.5 -12 t-71.5 -26l-33 94q38 17 88 31t102 14q104 0 153 -53t49 -146v-298h-92zM395 704l-93 -137h-106v10l71 136h128v-9z"/>
    <glyph glyph-name="acircumflex" unicode="â" horiz-adv-x="515" d="M258 211q-102 0 -102 -70q0 -27 14 -43.5t48 -16.5q28 0 59.5 10t50.5 23v97h-70zM359 0l-17 43h-2q-25 -20 -65 -39t-84 -19q-75 0 -114 43t-39 109q0 42 15.5 71.5t43.5 47.5t67.5 26.5t87.5 8.5h76v22q0 26 -9 42.5t-22.5 25.5t-28.5 12t-26 3q-40 0 -78.5 -12 t-71.5 -26l-33 94q38 17 88 31t102 14q104 0 153 -53t49 -146v-298h-92zM409 577v-10h-101l-48 79l-47 -79h-101v10l82 136h133z"/>
    <glyph glyph-name="atilde" unicode="ã" horiz-adv-x="515" d="M258 211q-102 0 -102 -70q0 -27 14 -43.5t48 -16.5q28 0 59.5 10t50.5 23v97h-70zM359 0l-17 43h-2q-25 -20 -65 -39t-84 -19q-75 0 -114 43t-39 109q0 42 15.5 71.5t43.5 47.5t67.5 26.5t87.5 8.5h76v22q0 26 -9 42.5t-22.5 25.5t-28.5 12t-26 3q-40 0 -78.5 -12 t-71.5 -26l-33 94q38 17 88 31t102 14q104 0 153 -53t49 -146v-298h-92zM102 647q14 28 40 47t56 19q21 0 38 -7t32.5 -15.5t30.5 -15.5t33 -7q17 0 33 9.5t27 24.5l25 -68q-16 -32 -42.5 -49.5t-52.5 -17.5q-20 0 -38 7t-34.5 15.5t-32 15.5t-30.5 7q-20 0 -34 -9t-26 -26z "/>
    <glyph glyph-name="adieresis" unicode="ä" horiz-adv-x="515" d="M258 211q-102 0 -102 -70q0 -27 14 -43.5t48 -16.5q28 0 59.5 10t50.5 23v97h-70zM359 0l-17 43h-2q-25 -20 -65 -39t-84 -19q-75 0 -114 43t-39 109q0 42 15.5 71.5t43.5 47.5t67.5 26.5t87.5 8.5h76v22q0 26 -9 42.5t-22.5 25.5t-28.5 12t-26 3q-40 0 -78.5 -12 t-71.5 -26l-33 94q38 17 88 31t102 14q104 0 153 -53t49 -146v-298h-92zM287 640q0 31 19.5 50t51.5 19q33 0 52.5 -19t19.5 -50t-19.5 -50t-52.5 -19q-32 0 -51.5 19t-19.5 50zM89 640q0 31 19.5 50t51.5 19q33 0 52.5 -19t19.5 -50t-19.5 -50t-52.5 -19q-32 0 -51.5 19 t-19.5 50z"/>
    <glyph glyph-name="aring" unicode="å" horiz-adv-x="515" d="M258 211q-102 0 -102 -70q0 -27 14 -43.5t48 -16.5q28 0 59.5 10t50.5 23v97h-70zM359 0l-17 43h-2q-25 -20 -65 -39t-84 -19q-75 0 -114 43t-39 109q0 42 15.5 71.5t43.5 47.5t67.5 26.5t87.5 8.5h76v22q0 26 -9 42.5t-22.5 25.5t-28.5 12t-26 3q-40 0 -78.5 -12 t-71.5 -26l-33 94q38 17 88 31t102 14q104 0 153 -53t49 -146v-298h-92zM222 643q0 -19 10.5 -29.5t27.5 -10.5t27 10.5t10 29.5q0 18 -10 29.5t-27 11.5t-27.5 -11.5t-10.5 -29.5zM150 643q0 52 30.5 80.5t79.5 28.5t79 -28.5t30 -80.5q0 -53 -30 -81.5t-79 -28.5 t-79.5 28.5t-30.5 81.5z"/>
    <glyph glyph-name="ae" unicode="æ" horiz-adv-x="784" d="M251 211q-46 0 -70.5 -17.5t-24.5 -50.5q0 -32 16 -47t44 -15q21 0 40.5 9t35.5 26t25.5 41t9.5 54h-76zM380 73q-14 -17 -30.5 -32.5t-38.5 -28t-50 -20t-65 -7.5q-76 0 -117 41.5t-41 110.5q0 42 15.5 71.5t43 47.5t66.5 26.5t86 8.5h79v22q0 26 -9.5 42.5t-23 25.5 t-29 12t-26.5 3q-40 0 -77.5 -12t-70.5 -26l-33 94q38 17 87 31t101 14q49 0 88.5 -17.5t62.5 -49.5q26 32 61 49.5t86 17.5q53 0 90.5 -17t61.5 -45.5t35 -66t11 -79.5q0 -23 -2 -46.5t-4 -36.5h-284q4 -54 31.5 -88.5t76.5 -34.5q40 0 71 9t62 23l28 -87 q-32 -17 -75.5 -30t-95.5 -13q-62 0 -102.5 23t-68.5 65zM630 286q1 4 1 8v8q0 21 -4 40t-13.5 34t-26 23.5t-41.5 8.5q-22 0 -38.5 -10.5t-27.5 -27.5t-17 -39t-7 -45h174z"/>
    <glyph glyph-name="ccedilla" unicode="ç" horiz-adv-x="451" d="M44 241q0 57 15.5 104t45.5 81t73.5 52.5t99.5 18.5q40 0 76 -10t57 -20l-24 -92q-19 7 -44.5 14t-51.5 7t-48 -10t-38.5 -29.5t-25.5 -48.5t-9 -67t9 -67t25 -48.5t38.5 -29.5t48.5 -10t51.5 7t44.5 14l24 -92q-20 -9 -52 -18.5t-69 -11.5l-11 -30q29 -5 45.5 -23.5 t16.5 -49.5q0 -44 -27.5 -69.5t-78.5 -25.5q-20 0 -37.5 3.5t-29.5 8.5l12 63q10 -4 20.5 -6t18.5 -2q16 0 23.5 6t7.5 19q0 10 -5 15.5t-12.5 8t-16.5 3t-18 0.5l-3 6l26 79q-42 9 -75 30.5t-55.5 53.5t-34.5 74t-12 92z"/>
    <glyph glyph-name="egrave" unicode="è" horiz-adv-x="504" d="M163 206q2 -27 11 -49.5t23.5 -39t34.5 -25.5t44 -9q40 0 73.5 9t64.5 23l28 -87q-32 -17 -78 -30t-98 -13q-56 0 -98 20.5t-70 55.5t-41.5 81.5t-13.5 99.5q0 51 14 97t41.5 81.5t68 56t93.5 20.5t91.5 -17t63 -45.5t36.5 -66t12 -79.5q0 -23 -2 -46.5t-4 -36.5h-294z M350 286q1 4 1 8v8q0 21 -4.5 40t-15 34t-28 23.5t-42.5 8.5q-23 0 -40 -10.5t-29 -27.5t-18.5 -39t-7.5 -45h184zM136 713h128l71 -136v-10h-106l-93 137v9z"/>
    <glyph glyph-name="eacute" unicode="é" horiz-adv-x="504" d="M163 206q2 -27 11 -49.5t23.5 -39t34.5 -25.5t44 -9q40 0 73.5 9t64.5 23l28 -87q-32 -17 -78 -30t-98 -13q-56 0 -98 20.5t-70 55.5t-41.5 81.5t-13.5 99.5q0 51 14 97t41.5 81.5t68 56t93.5 20.5t91.5 -17t63 -45.5t36.5 -66t12 -79.5q0 -23 -2 -46.5t-4 -36.5h-294z M350 286q1 4 1 8v8q0 21 -4.5 40t-15 34t-28 23.5t-42.5 8.5q-23 0 -40 -10.5t-29 -27.5t-18.5 -39t-7.5 -45h184zM409 704l-93 -137h-106v10l71 136h128v-9z"/>
    <glyph glyph-name="ecircumflex" unicode="ê" horiz-adv-x="504" d="M163 206q2 -27 11 -49.5t23.5 -39t34.5 -25.5t44 -9q40 0 73.5 9t64.5 23l28 -87q-32 -17 -78 -30t-98 -13q-56 0 -98 20.5t-70 55.5t-41.5 81.5t-13.5 99.5q0 51 14 97t41.5 81.5t68 56t93.5 20.5t91.5 -17t63 -45.5t36.5 -66t12 -79.5q0 -23 -2 -46.5t-4 -36.5h-294z M350 286q1 4 1 8v8q0 21 -4.5 40t-15 34t-28 23.5t-42.5 8.5q-23 0 -40 -10.5t-29 -27.5t-18.5 -39t-7.5 -45h184zM414 577v-10h-101l-48 79l-47 -79h-101v10l82 136h133z"/>
    <glyph glyph-name="edieresis" unicode="ë" horiz-adv-x="504" d="M163 206q2 -27 11 -49.5t23.5 -39t34.5 -25.5t44 -9q40 0 73.5 9t64.5 23l28 -87q-32 -17 -78 -30t-98 -13q-56 0 -98 20.5t-70 55.5t-41.5 81.5t-13.5 99.5q0 51 14 97t41.5 81.5t68 56t93.5 20.5t91.5 -17t63 -45.5t36.5 -66t12 -79.5q0 -23 -2 -46.5t-4 -36.5h-294z M350 286q1 4 1 8v8q0 21 -4.5 40t-15 34t-28 23.5t-42.5 8.5q-23 0 -40 -10.5t-29 -27.5t-18.5 -39t-7.5 -45h184zM293 640q0 31 19.5 50t51.5 19q33 0 52.5 -19t19.5 -50t-19.5 -50t-52.5 -19q-32 0 -51.5 19t-19.5 50zM95 640q0 31 19.5 50t51.5 19q33 0 52.5 -19 t19.5 -50t-19.5 -50t-52.5 -19q-32 0 -51.5 19t-19.5 50z"/>
    <glyph glyph-name="igrave" unicode="ì" horiz-adv-x="263" d="M70 0v482h123v-482h-123zM-9 713h128l71 -136v-10h-106l-93 137v9z"/>
    <glyph glyph-name="iacute" unicode="í" horiz-adv-x="263" d="M70 0v482h123v-482h-123zM274 704l-93 -137h-106v10l71 136h128v-9z"/>
    <glyph glyph-name="icircumflex" unicode="î" horiz-adv-x="263" d="M70 0v482h123v-482h-123zM280 577v-10h-101l-48 79l-47 -79h-101v10l82 136h133z"/>
    <glyph glyph-name="idieresis" unicode="ï" horiz-adv-x="263" d="M70 0v482h123v-482h-123zM159 640q0 31 19.5 50t51.5 19q33 0 52.5 -19t19.5 -50t-19.5 -50t-52.5 -19q-32 0 -51.5 19t-19.5 50zM-39 640q0 31 19.5 50t51.5 19q33 0 52.5 -19t19.5 -50t-19.5 -50t-52.5 -19q-32 0 -51.5 19t-19.5 50z"/>
    <glyph glyph-name="eth" unicode="ð" horiz-adv-x="559" d="M381 588q25 -37 49 -78.5t42.5 -85t30 -87.5t11.5 -86q0 -58 -15 -106.5t-45 -84t-74 -55.5t-102 -20q-57 0 -100.5 19.5t-73.5 53.5t-45 80t-15 98q0 54 15 99.5t41.5 77.5t63.5 50t82 18q39 0 66.5 -12t41.5 -24l1 2q-14 26 -29.5 53.5t-38.5 53.5l-111 -30l-22 70 l88 23q-14 17 -32 37.5t-33 35.5v10h116q8 -10 21 -25t20 -25l86 23l21 -69zM169 236q0 -70 27 -107.5t82 -37.5q57 0 84 37.5t27 107.5q0 69 -27 104t-84 35q-55 0 -82 -35t-27 -104z"/>
    <glyph glyph-name="ntilde" unicode="ñ" d="M169 482l16 -46h2q9 9 22 19.5t30.5 20t38.5 15.5t47 6q77 0 118.5 -49.5t41.5 -137.5v-310h-123v295q0 49 -19 75t-58 26q-15 0 -28.5 -4t-25.5 -10.5t-21.5 -14t-16.5 -13.5v-354h-123v482h99zM116 647q14 28 40 47t56 19q21 0 38 -7t32.5 -15.5t30.5 -15.5t33 -7 q17 0 33 9.5t27 24.5l25 -68q-16 -32 -42.5 -49.5t-52.5 -17.5q-20 0 -38 7t-34.5 15.5t-32 15.5t-30.5 7q-20 0 -34 -9t-26 -26z"/>
    <glyph glyph-name="ograve" unicode="ò" horiz-adv-x="545" d="M169 241q0 -36 7 -65t20 -49t32 -30.5t44 -10.5t44.5 10.5t32.5 30.5t20 49t7 65t-7 65t-20 49t-32.5 30.5t-44.5 10.5t-44 -10.5t-32 -30.5t-20 -49t-7 -65zM502 241q0 -54 -14.5 -101t-43.5 -81.5t-72 -54t-100 -19.5q-56 0 -98.5 19.5t-71.5 54t-44 81.5t-15 101 t15 101t44 81.5t71.5 54t98.5 19.5q57 0 100 -19.5t72 -54t43.5 -81.5t14.5 -101zM130 713h128l71 -136v-10h-106l-93 137v9z"/>
    <glyph glyph-name="oacute" unicode="ó" horiz-adv-x="545" d="M169 241q0 -36 7 -65t20 -49t32 -30.5t44 -10.5t44.5 10.5t32.5 30.5t20 49t7 65t-7 65t-20 49t-32.5 30.5t-44.5 10.5t-44 -10.5t-32 -30.5t-20 -49t-7 -65zM502 241q0 -54 -14.5 -101t-43.5 -81.5t-72 -54t-100 -19.5q-56 0 -98.5 19.5t-71.5 54t-44 81.5t-15 101 t15 101t44 81.5t71.5 54t98.5 19.5q57 0 100 -19.5t72 -54t43.5 -81.5t14.5 -101zM417 704l-93 -137h-106v10l71 136h128v-9z"/>
    <glyph glyph-name="ocircumflex" unicode="ô" horiz-adv-x="545" d="M169 241q0 -36 7 -65t20 -49t32 -30.5t44 -10.5t44.5 10.5t32.5 30.5t20 49t7 65t-7 65t-20 49t-32.5 30.5t-44.5 10.5t-44 -10.5t-32 -30.5t-20 -49t-7 -65zM502 241q0 -54 -14.5 -101t-43.5 -81.5t-72 -54t-100 -19.5q-56 0 -98.5 19.5t-71.5 54t-44 81.5t-15 101 t15 101t44 81.5t71.5 54t98.5 19.5q57 0 100 -19.5t72 -54t43.5 -81.5t14.5 -101zM420 577v-10h-101l-48 79l-47 -79h-101v10l82 136h133z"/>
    <glyph glyph-name="otilde" unicode="õ" horiz-adv-x="545" d="M169 241q0 -36 7 -65t20 -49t32 -30.5t44 -10.5t44.5 10.5t32.5 30.5t20 49t7 65t-7 65t-20 49t-32.5 30.5t-44.5 10.5t-44 -10.5t-32 -30.5t-20 -49t-7 -65zM502 241q0 -54 -14.5 -101t-43.5 -81.5t-72 -54t-100 -19.5q-56 0 -98.5 19.5t-71.5 54t-44 81.5t-15 101 t15 101t44 81.5t71.5 54t98.5 19.5q57 0 100 -19.5t72 -54t43.5 -81.5t14.5 -101zM114 647q14 28 40 47t56 19q21 0 38 -7t32.5 -15.5t30.5 -15.5t33 -7q17 0 33 9.5t27 24.5l25 -68q-16 -32 -42.5 -49.5t-52.5 -17.5q-20 0 -38 7t-34.5 15.5t-32 15.5t-30.5 7q-20 0 -34 -9 t-26 -26z"/>
    <glyph glyph-name="odieresis" unicode="ö" horiz-adv-x="545" d="M169 241q0 -36 7 -65t20 -49t32 -30.5t44 -10.5t44.5 10.5t32.5 30.5t20 49t7 65t-7 65t-20 49t-32.5 30.5t-44.5 10.5t-44 -10.5t-32 -30.5t-20 -49t-7 -65zM502 241q0 -54 -14.5 -101t-43.5 -81.5t-72 -54t-100 -19.5q-56 0 -98.5 19.5t-71.5 54t-44 81.5t-15 101 t15 101t44 81.5t71.5 54t98.5 19.5q57 0 100 -19.5t72 -54t43.5 -81.5t14.5 -101zM300 640q0 31 19.5 50t51.5 19q33 0 52.5 -19t19.5 -50t-19.5 -50t-52.5 -19q-32 0 -51.5 19t-19.5 50zM102 640q0 31 19.5 50t51.5 19q33 0 52.5 -19t19.5 -50t-19.5 -50t-52.5 -19 q-32 0 -51.5 19t-19.5 50z"/>
    <glyph glyph-name="divide" unicode="÷" d="M195 67q0 36 22 59.5t57 23.5q36 0 58 -23.5t22 -59.5t-22 -59t-58 -23q-35 0 -57 23t-22 59zM195 477q0 36 22 59.5t57 23.5q36 0 58 -23.5t22 -59.5t-22 -59t-58 -23q-35 0 -57 23t-22 59zM510 323v-103h-470v103h470z"/>
    <glyph glyph-name="oslash" unicode="ø" horiz-adv-x="545" d="M57 16l38 51q-26 34 -39 78.5t-13 95.5q0 54 15 101t44 81.5t71.5 54t98.5 19.5q33 0 62 -7t53 -21l33 46l67 -49l-38 -50q26 -34 39.5 -78.5t13.5 -96.5q0 -54 -14.5 -101t-43.5 -81.5t-72 -54t-100 -19.5q-34 0 -63.5 8.5t-53.5 21.5l-35 -49zM381 244q0 20 -2 37.5 t-5 32.5l-159 -220q11 -8 25 -12t30 -4q27 0 47.5 11.5t35 32.5t21.5 52t7 70zM164 238q0 -39 6 -67l158 217q-24 16 -54 16q-27 0 -47.5 -11.5t-34.5 -32.5t-21 -52t-7 -70z"/>
    <glyph glyph-name="ugrave" unicode="ù" horiz-adv-x="545" d="M188 482v-295q0 -49 17.5 -75t55.5 -26q15 0 28.5 4t25 10.5t20.5 14t17 13.5v354h123v-482h-100l-17 46h-1q-9 -9 -22 -19.5t-29.5 -20t-37 -15.5t-45.5 -6q-78 0 -118 49.5t-40 137.5v310h123zM127 713h128l71 -136v-10h-106l-93 137v9z"/>
    <glyph glyph-name="uacute" unicode="ú" horiz-adv-x="545" d="M188 482v-295q0 -49 17.5 -75t55.5 -26q15 0 28.5 4t25 10.5t20.5 14t17 13.5v354h123v-482h-100l-17 46h-1q-9 -9 -22 -19.5t-29.5 -20t-37 -15.5t-45.5 -6q-78 0 -118 49.5t-40 137.5v310h123zM415 704l-93 -137h-106v10l71 136h128v-9z"/>
    <glyph glyph-name="ucircumflex" unicode="û" horiz-adv-x="545" d="M188 482v-295q0 -49 17.5 -75t55.5 -26q15 0 28.5 4t25 10.5t20.5 14t17 13.5v354h123v-482h-100l-17 46h-1q-9 -9 -22 -19.5t-29.5 -20t-37 -15.5t-45.5 -6q-78 0 -118 49.5t-40 137.5v310h123zM416 577v-10h-101l-48 79l-47 -79h-101v10l82 136h133z"/>
    <glyph glyph-name="udieresis" unicode="ü" horiz-adv-x="545" d="M188 482v-295q0 -49 17.5 -75t55.5 -26q15 0 28.5 4t25 10.5t20.5 14t17 13.5v354h123v-482h-100l-17 46h-1q-9 -9 -22 -19.5t-29.5 -20t-37 -15.5t-45.5 -6q-78 0 -118 49.5t-40 137.5v310h123zM298 640q0 31 19.5 50t51.5 19q33 0 52.5 -19t19.5 -50t-19.5 -50 t-52.5 -19q-32 0 -51.5 19t-19.5 50zM100 640q0 31 19.5 50t51.5 19q33 0 52.5 -19t19.5 -50t-19.5 -50t-52.5 -19q-32 0 -51.5 19t-19.5 50z"/>
    <glyph glyph-name="yacute" unicode="ý" horiz-adv-x="499" d="M478 472l-187 -532q-29 -81 -70.5 -117t-98.5 -36q-24 0 -47.5 4t-38.5 8v90q14 -3 32.5 -6t32.5 -3q29 0 45 16.5t28 52.5l19 56l-175 467v10h125l82 -266l24 -100h3l23 100l78 266h125v-10zM394 704l-93 -137h-106v10l71 136h128v-9z"/>
    <glyph glyph-name="thorn" unicode="þ" horiz-adv-x="552" d="M70 700h123v-253h2q20 16 49 33t74 17q47 0 82.5 -20.5t59.5 -55t35.5 -81.5t11.5 -99q0 -53 -12 -99.5t-35.5 -81t-59 -55t-82.5 -20.5q-23 0 -41 5t-33 12.5t-27 16t-22 16.5h-2v-233h-123v898zM193 118q17 -14 39.5 -23t45.5 -9q27 0 46 12t32 32.5t19 49t6 61.5 t-6 61.5t-19 49t-32 32.5t-46 12q-23 0 -45.5 -9t-39.5 -23v-246z"/>
    <glyph glyph-name="ydieresis" unicode="ÿ" horiz-adv-x="499" d="M478 472l-187 -532q-29 -81 -70.5 -117t-98.5 -36q-24 0 -47.5 4t-38.5 8v90q14 -3 32.5 -6t32.5 -3q29 0 45 16.5t28 52.5l19 56l-175 467v10h125l82 -266l24 -100h3l23 100l78 266h125v-10zM280 640q0 31 19.5 50t51.5 19q33 0 52.5 -19t19.5 -50t-19.5 -50t-52.5 -19 q-32 0 -51.5 19t-19.5 50zM82 640q0 31 19.5 50t51.5 19q33 0 52.5 -19t19.5 -50t-19.5 -50t-52.5 -19q-32 0 -51.5 19t-19.5 50z"/>
    <glyph glyph-name="Amacron" unicode="Ā" horiz-adv-x="619" d="M608 0h-134l-42 149h-244l-43 -149h-133l224 680h146zM308 570l-46 -183l-41 -139h176l-42 139l-44 183h-3zM179 759v103h261v-103h-261z"/>
    <glyph glyph-name="amacron" unicode="ā" horiz-adv-x="515" d="M258 211q-102 0 -102 -70q0 -27 14 -43.5t48 -16.5q28 0 59.5 10t50.5 23v97h-70zM359 0l-17 43h-2q-25 -20 -65 -39t-84 -19q-75 0 -114 43t-39 109q0 42 15.5 71.5t43.5 47.5t67.5 26.5t87.5 8.5h76v22q0 26 -9 42.5t-22.5 25.5t-28.5 12t-26 3q-40 0 -78.5 -12 t-71.5 -26l-33 94q38 17 88 31t102 14q104 0 153 -53t49 -146v-298h-92zM129 579v103h261v-103h-261z"/>
    <glyph glyph-name="Abreve" unicode="Ă" horiz-adv-x="619" d="M608 0h-134l-42 149h-244l-43 -149h-133l224 680h146zM308 570l-46 -183l-41 -139h176l-42 139l-44 183h-3zM309 857q38 0 67 9.5t53 24.5l29 -74q-12 -12 -27 -23.5t-34 -21.5t-41 -16t-47 -6t-46.5 6t-40 16t-33.5 21.5t-27 23.5l29 74q24 -15 53 -24.5t65 -9.5z"/>
    <glyph glyph-name="abreve" unicode="ă" horiz-adv-x="515" d="M258 211q-102 0 -102 -70q0 -27 14 -43.5t48 -16.5q28 0 59.5 10t50.5 23v97h-70zM359 0l-17 43h-2q-25 -20 -65 -39t-84 -19q-75 0 -114 43t-39 109q0 42 15.5 71.5t43.5 47.5t67.5 26.5t87.5 8.5h76v22q0 26 -9 42.5t-22.5 25.5t-28.5 12t-26 3q-40 0 -78.5 -12 t-71.5 -26l-33 94q38 17 88 31t102 14q104 0 153 -53t49 -146v-298h-92zM258 674q38 0 67 9.5t53 24.5l29 -74q-12 -12 -27 -23.5t-34 -21.5t-41 -16t-47 -6t-46.5 6t-40 16t-33.5 21.5t-27 23.5l29 74q24 -15 53 -24.5t65 -9.5z"/>
    <glyph glyph-name="Aogonek" unicode="Ą" horiz-adv-x="619" d="M516 -213q-26 0 -45.5 8t-33.5 21.5t-21 32.5t-7 41q0 38 19 65.5t45 45.5l-41 148h-244l-43 -149h-133l224 680h146l226 -680q-57 -12 -80 -38t-23 -48q0 -23 9.5 -31.5t27.5 -8.5q14 0 27.5 5.5t21.5 12.5l10 -80q-14 -10 -39 -17.5t-46 -7.5zM308 570l-46 -183 l-41 -139h176l-42 139l-44 183h-3z"/>
    <glyph glyph-name="aogonek" unicode="ą" horiz-adv-x="515" d="M451 0q-14 -6 -27.5 -16t-24 -22t-17 -24.5t-6.5 -23.5q0 -23 9.5 -31.5t27.5 -8.5q14 0 27.5 5.5t21.5 12.5l10 -80q-14 -10 -39 -17.5t-46 -7.5q-51 0 -79 29t-28 74q0 19 7 36t18 31t24.5 25.5t27.5 20.5l-15 40h-2q-25 -20 -65 -39t-84 -19q-75 0 -114 43t-39 109 q0 42 15.5 71.5t43.5 47.5t67.5 26.5t87.5 8.5h76v22q0 26 -9 42.5t-22.5 25.5t-28.5 12t-26 3q-40 0 -78.5 -12t-71.5 -26l-33 94q38 17 88 31t102 14q104 0 153 -53t49 -146v-298zM258 211q-102 0 -102 -70q0 -27 14 -43.5t48 -16.5q28 0 59.5 10t50.5 23v97h-70z"/>
    <glyph glyph-name="Cacute" unicode="Ć" horiz-adv-x="564" d="M52 340q0 79 19.5 144.5t57.5 112.5t93.5 72.5t127.5 25.5q43 0 87.5 -11t86.5 -33l-33 -95q-40 21 -74 27t-67 6q-39 0 -70.5 -18.5t-53.5 -51.5t-34 -78.5t-12 -100.5t12 -100.5t34 -78.5t53.5 -51.5t70.5 -18.5q33 0 67 6t74 27l33 -95q-42 -22 -86.5 -33t-87.5 -11 q-72 0 -127.5 25.5t-93.5 72.5t-57.5 112t-19.5 145zM477 887l-84 -137h-115v10l63 136h136v-9z"/>
    <glyph glyph-name="cacute" unicode="ć" horiz-adv-x="449" d="M43 241q0 57 15.5 104t45.5 81t73.5 52.5t99.5 18.5q40 0 76 -10t57 -20l-24 -92q-19 7 -44.5 14t-51.5 7t-48 -10t-38.5 -29.5t-25.5 -48.5t-9 -67t9 -67t25 -48.5t38.5 -29.5t48.5 -10t51.5 7t44.5 14l24 -92q-21 -10 -57 -20t-76 -10q-56 0 -99.5 18.5t-73.5 52.5 t-45.5 81t-15.5 104zM414 704l-93 -137h-106v10l71 136h128v-9z"/>
    <glyph glyph-name="Ccircumflex" unicode="Ĉ" horiz-adv-x="564" d="M52 340q0 79 19.5 144.5t57.5 112.5t93.5 72.5t127.5 25.5q43 0 87.5 -11t86.5 -33l-33 -95q-40 21 -74 27t-67 6q-39 0 -70.5 -18.5t-53.5 -51.5t-34 -78.5t-12 -100.5t12 -100.5t34 -78.5t53.5 -51.5t70.5 -18.5q33 0 67 6t74 27l33 -95q-42 -22 -86.5 -33t-87.5 -11 q-72 0 -127.5 25.5t-93.5 72.5t-57.5 112t-19.5 145zM502 760v-10h-101l-57 79l-56 -79h-101v10l102 136h111z"/>
    <glyph glyph-name="ccircumflex" unicode="ĉ" horiz-adv-x="449" d="M43 241q0 57 15.5 104t45.5 81t73.5 52.5t99.5 18.5q40 0 76 -10t57 -20l-24 -92q-19 7 -44.5 14t-51.5 7t-48 -10t-38.5 -29.5t-25.5 -48.5t-9 -67t9 -67t25 -48.5t38.5 -29.5t48.5 -10t51.5 7t44.5 14l24 -92q-21 -10 -57 -20t-76 -10q-56 0 -99.5 18.5t-73.5 52.5 t-45.5 81t-15.5 104zM410 577v-10h-101l-48 79l-47 -79h-101v10l82 136h133z"/>
    <glyph glyph-name="Cdotaccent" unicode="Ċ" horiz-adv-x="564" d="M52 340q0 79 19.5 144.5t57.5 112.5t93.5 72.5t127.5 25.5q43 0 87.5 -11t86.5 -33l-33 -95q-40 21 -74 27t-67 6q-39 0 -70.5 -18.5t-53.5 -51.5t-34 -78.5t-12 -100.5t12 -100.5t34 -78.5t53.5 -51.5t70.5 -18.5q33 0 67 6t74 27l33 -95q-42 -22 -86.5 -33t-87.5 -11 q-72 0 -127.5 25.5t-93.5 72.5t-57.5 112t-19.5 145zM276 818q0 31 19.5 50t51.5 19q33 0 52.5 -19t19.5 -50t-19.5 -50t-52.5 -19q-32 0 -51.5 19t-19.5 50z"/>
    <glyph glyph-name="cdotaccent" unicode="ċ" horiz-adv-x="449" d="M43 241q0 57 15.5 104t45.5 81t73.5 52.5t99.5 18.5q40 0 76 -10t57 -20l-24 -92q-19 7 -44.5 14t-51.5 7t-48 -10t-38.5 -29.5t-25.5 -48.5t-9 -67t9 -67t25 -48.5t38.5 -29.5t48.5 -10t51.5 7t44.5 14l24 -92q-21 -10 -57 -20t-76 -10q-56 0 -99.5 18.5t-73.5 52.5 t-45.5 81t-15.5 104zM189 639q0 31 19.5 50t51.5 19q33 0 52.5 -19t19.5 -50t-19.5 -50t-52.5 -19q-32 0 -51.5 19t-19.5 50z"/>
    <glyph glyph-name="Ccaron" unicode="Č" horiz-adv-x="564" d="M52 340q0 79 19.5 144.5t57.5 112.5t93.5 72.5t127.5 25.5q43 0 87.5 -11t86.5 -33l-33 -95q-40 21 -74 27t-67 6q-39 0 -70.5 -18.5t-53.5 -51.5t-34 -78.5t-12 -100.5t12 -100.5t34 -78.5t53.5 -51.5t70.5 -18.5q33 0 67 6t74 27l33 -95q-42 -22 -86.5 -33t-87.5 -11 q-72 0 -127.5 25.5t-93.5 72.5t-57.5 112t-19.5 145zM185 886v10h101l57 -79l56 79h101v-10l-102 -136h-111z"/>
    <glyph glyph-name="ccaron" unicode="č" horiz-adv-x="449" d="M43 241q0 57 15.5 104t45.5 81t73.5 52.5t99.5 18.5q40 0 76 -10t57 -20l-24 -92q-19 7 -44.5 14t-51.5 7t-48 -10t-38.5 -29.5t-25.5 -48.5t-9 -67t9 -67t25 -48.5t38.5 -29.5t48.5 -10t51.5 7t44.5 14l24 -92q-21 -10 -57 -20t-76 -10q-56 0 -99.5 18.5t-73.5 52.5 t-45.5 81t-15.5 104zM113 703v10h101l48 -79l47 79h101v-10l-82 -136h-133z"/>
    <glyph glyph-name="Dcaron" unicode="Ď" horiz-adv-x="643" d="M84 680h192q86 0 145.5 -22t97 -65.5t54 -107t16.5 -145.5q0 -83 -16.5 -146t-54 -106.5t-97 -65.5t-145.5 -22h-192v680zM264 103q60 0 98 14.5t60 44t30.5 74t8.5 104.5t-8.5 104.5t-30.5 74t-60 44t-98 14.5h-55v-474h55zM145 886v10h101l57 -79l56 79h101v-10 l-102 -136h-111z"/>
    <glyph glyph-name="dcaron" unicode="ď" horiz-adv-x="553" d="M360 364q-17 14 -40 23t-46 9q-27 0 -46 -12t-32 -32.5t-19 -49t-6 -61.5t6 -61.5t19 -49t32 -32.5t46 -12q23 0 46 9t40 23v246zM483 700v-700h-91l-17 43h-2q-23 -19 -56.5 -38.5t-81.5 -19.5q-47 0 -82.5 20.5t-59.5 55t-36 81t-12 99.5q0 52 12 99t36 81.5t59.5 55 t82.5 20.5q45 0 74.5 -16.5t49.5 -33.5h1v253h123zM528 524l22 156h122v-10l-53 -156h-91v10z"/>
    <glyph glyph-name="Dcroat" unicode="Đ" horiz-adv-x="645" d="M42 387h43v293h192q86 0 145.5 -22t97 -65.5t54 -107t16.5 -145.5q0 -83 -16.5 -146t-54 -106.5t-97 -65.5t-145.5 -22h-192v284h-43v103zM265 103q60 0 98 14.5t60 44t30.5 74t8.5 104.5t-8.5 104.5t-30.5 74t-60 44t-98 14.5h-55v-190h102v-103h-102v-181h55z"/>
    <glyph glyph-name="dcroat" unicode="đ" horiz-adv-x="553" d="M483 700v-61h43v-93h-43v-546h-91l-17 43h-2q-23 -19 -56.5 -38.5t-81.5 -19.5q-47 0 -82.5 20.5t-59.5 55t-36 81t-12 99.5q0 52 12 99t36 81.5t59.5 55t82.5 20.5q45 0 74.5 -16.5t49.5 -33.5h1v99h-95v93h95v61h123zM360 364q-17 14 -40 23t-46 9q-27 0 -46 -12 t-32 -32.5t-19 -49t-6 -61.5t6 -61.5t19 -49t32 -32.5t46 -12q23 0 46 9t40 23v246z"/>
    <glyph glyph-name="Emacron" unicode="Ē" horiz-adv-x="552" d="M495 680v-103h-286v-181h256v-103h-256v-190h289v-103h-414v680h411zM158 759v103h261v-103h-261z"/>
    <glyph glyph-name="emacron" unicode="ē" horiz-adv-x="504" d="M163 206q2 -27 11 -49.5t23.5 -39t34.5 -25.5t44 -9q40 0 73.5 9t64.5 23l28 -87q-32 -17 -78 -30t-98 -13q-56 0 -98 20.5t-70 55.5t-41.5 81.5t-13.5 99.5q0 51 14 97t41.5 81.5t68 56t93.5 20.5t91.5 -17t63 -45.5t36.5 -66t12 -79.5q0 -23 -2 -46.5t-4 -36.5h-294z M350 286q1 4 1 8v8q0 21 -4.5 40t-15 34t-28 23.5t-42.5 8.5q-23 0 -40 -10.5t-29 -27.5t-18.5 -39t-7.5 -45h184zM135 579v103h261v-103h-261z"/>
    <glyph glyph-name="Ebreve" unicode="Ĕ" horiz-adv-x="552" d="M495 680v-103h-286v-181h256v-103h-256v-190h289v-103h-414v680h411zM293 857q38 0 67 9.5t53 24.5l29 -74q-12 -12 -27 -23.5t-34 -21.5t-41 -16t-47 -6t-46.5 6t-40 16t-33.5 21.5t-27 23.5l29 74q24 -15 53 -24.5t65 -9.5z"/>
    <glyph glyph-name="ebreve" unicode="ĕ" horiz-adv-x="504" d="M163 206q2 -27 11 -49.5t23.5 -39t34.5 -25.5t44 -9q40 0 73.5 9t64.5 23l28 -87q-32 -17 -78 -30t-98 -13q-56 0 -98 20.5t-70 55.5t-41.5 81.5t-13.5 99.5q0 51 14 97t41.5 81.5t68 56t93.5 20.5t91.5 -17t63 -45.5t36.5 -66t12 -79.5q0 -23 -2 -46.5t-4 -36.5h-294z M350 286q1 4 1 8v8q0 21 -4.5 40t-15 34t-28 23.5t-42.5 8.5q-23 0 -40 -10.5t-29 -27.5t-18.5 -39t-7.5 -45h184zM269 674q38 0 67 9.5t53 24.5l29 -74q-12 -12 -27 -23.5t-34 -21.5t-41 -16t-47 -6t-46.5 6t-40 16t-33.5 21.5t-27 23.5l29 74q24 -15 53 -24.5t65 -9.5z "/>
    <glyph glyph-name="Edotaccent" unicode="Ė" horiz-adv-x="552" d="M495 680v-103h-286v-181h256v-103h-256v-190h289v-103h-414v680h411zM222 818q0 31 19.5 50t51.5 19q33 0 52.5 -19t19.5 -50t-19.5 -50t-52.5 -19q-32 0 -51.5 19t-19.5 50z"/>
    <glyph glyph-name="edotaccent" unicode="ė" horiz-adv-x="504" d="M163 206q2 -27 11 -49.5t23.5 -39t34.5 -25.5t44 -9q40 0 73.5 9t64.5 23l28 -87q-32 -17 -78 -30t-98 -13q-56 0 -98 20.5t-70 55.5t-41.5 81.5t-13.5 99.5q0 51 14 97t41.5 81.5t68 56t93.5 20.5t91.5 -17t63 -45.5t36.5 -66t12 -79.5q0 -23 -2 -46.5t-4 -36.5h-294z M350 286q1 4 1 8v8q0 21 -4.5 40t-15 34t-28 23.5t-42.5 8.5q-23 0 -40 -10.5t-29 -27.5t-18.5 -39t-7.5 -45h184zM194 639q0 31 19.5 50t51.5 19q33 0 52.5 -19t19.5 -50t-19.5 -50t-52.5 -19q-32 0 -51.5 19t-19.5 50z"/>
    <glyph glyph-name="Eogonek" unicode="Ę" horiz-adv-x="552" d="M429 -213q-26 0 -45.5 8t-33.5 21.5t-21 32.5t-7 41q0 19 6.5 35t17 29.5t23 25t25.5 20.5h-310v680h411v-103h-286v-181h256v-103h-256v-190h289v-103q-16 -6 -30.5 -16t-25.5 -22t-17.5 -24.5t-6.5 -23.5q0 -23 9.5 -31.5t27.5 -8.5q14 0 27.5 5.5t21.5 12.5l10 -80 q-14 -10 -39 -17.5t-46 -7.5z"/>
    <glyph glyph-name="eogonek" unicode="ę" horiz-adv-x="504" d="M291 -14q-7 0 -13 -0.5t-12 -0.5q-56 0 -98 20.5t-70 55.5t-41.5 81.5t-13.5 99.5q0 51 14 97t41.5 81.5t68 56t93.5 20.5t91.5 -17t63 -45.5t36.5 -66t12 -79.5q0 -23 -2 -46.5t-4 -36.5h-294q2 -27 11 -49.5t23.5 -39t34.5 -25.5t44 -9q40 0 73.5 9t64.5 23l28 -87 q-8 -5 -18 -10t-18 -10q-29 -19 -43 -43t-14 -50q0 -41 37 -41q14 0 27.5 5.5t21.5 12.5l10 -80q-14 -10 -39 -17.5t-46 -7.5q-26 0 -45.5 8t-33.5 21.5t-21 32.5t-7 41q0 27 10.5 51t27.5 43v2zM350 286q1 4 1 8v8q0 21 -4.5 40t-15 34t-28 23.5t-42.5 8.5q-23 0 -40 -10.5 t-29 -27.5t-18.5 -39t-7.5 -45h184z"/>
    <glyph glyph-name="Ecaron" unicode="Ě" horiz-adv-x="552" d="M495 680v-103h-286v-181h256v-103h-256v-190h289v-103h-414v680h411zM138 886v10h101l57 -79l56 79h101v-10l-102 -136h-111z"/>
    <glyph glyph-name="ecaron" unicode="ě" horiz-adv-x="504" d="M163 206q2 -27 11 -49.5t23.5 -39t34.5 -25.5t44 -9q40 0 73.5 9t64.5 23l28 -87q-32 -17 -78 -30t-98 -13q-56 0 -98 20.5t-70 55.5t-41.5 81.5t-13.5 99.5q0 51 14 97t41.5 81.5t68 56t93.5 20.5t91.5 -17t63 -45.5t36.5 -66t12 -79.5q0 -23 -2 -46.5t-4 -36.5h-294z M350 286q1 4 1 8v8q0 21 -4.5 40t-15 34t-28 23.5t-42.5 8.5q-23 0 -40 -10.5t-29 -27.5t-18.5 -39t-7.5 -45h184zM117 703v10h101l48 -79l47 79h101v-10l-82 -136h-133z"/>
    <glyph glyph-name="Gcircumflex" unicode="Ĝ" horiz-adv-x="635" d="M574 358v-311q-21 -13 -48 -24.5t-57 -19.5t-62.5 -13t-64.5 -5q-72 0 -126.5 27t-91 74.5t-55 112.5t-18.5 141q0 73 18.5 137.5t56.5 113t96 76.5t138 28q62 0 116.5 -16.5t90.5 -34.5l-35 -96q-35 17 -79.5 29t-92.5 12t-82 -18.5t-56 -51.5t-32.5 -78.5t-10.5 -100.5 q0 -54 9 -100t29.5 -79t52.5 -51.5t77 -18.5q29 0 54.5 5t47.5 16v143l-109 18v85h234zM499 760v-10h-101l-57 79l-56 -79h-101v10l102 136h111z"/>
    <glyph glyph-name="gcircumflex" unicode="ĝ" d="M358 364q-17 14 -40 23t-46 9q-27 0 -46 -11.5t-31.5 -32t-18.5 -48.5t-6 -61t6 -60.5t18.5 -47.5t31.5 -31t46 -11q23 0 46 8t40 22v241zM481 25q0 -58 -15 -102.5t-44 -74.5t-70.5 -45.5t-95.5 -15.5t-96.5 13.5t-74.5 31.5l36 87q27 -15 60.5 -27t74.5 -12 q53 0 77.5 31.5t24.5 91.5v37h-2q-19 -17 -48 -32.5t-75 -15.5q-47 0 -82.5 19.5t-59 53.5t-35.5 79.5t-12 98.5q0 52 12 98.5t35.5 81t59 54.5t82.5 20q24 0 44 -5.5t37 -14.5t31 -19.5l26 -19.5h2l16 44h92v-457zM431 577v-10h-101l-48 79l-47 -79h-101v10l82 136h133z "/>
    <glyph glyph-name="Gbreve" unicode="Ğ" horiz-adv-x="635" d="M574 358v-311q-21 -13 -48 -24.5t-57 -19.5t-62.5 -13t-64.5 -5q-72 0 -126.5 27t-91 74.5t-55 112.5t-18.5 141q0 73 18.5 137.5t56.5 113t96 76.5t138 28q62 0 116.5 -16.5t90.5 -34.5l-35 -96q-35 17 -79.5 29t-92.5 12t-82 -18.5t-56 -51.5t-32.5 -78.5t-10.5 -100.5 q0 -54 9 -100t29.5 -79t52.5 -51.5t77 -18.5q29 0 54.5 5t47.5 16v143l-109 18v85h234zM343 857q38 0 67 9.5t53 24.5l29 -74q-12 -12 -27 -23.5t-34 -21.5t-41 -16t-47 -6t-46.5 6t-40 16t-33.5 21.5t-27 23.5l29 74q24 -15 53 -24.5t65 -9.5z"/>
    <glyph glyph-name="gbreve" unicode="ğ" d="M358 364q-17 14 -40 23t-46 9q-27 0 -46 -11.5t-31.5 -32t-18.5 -48.5t-6 -61t6 -60.5t18.5 -47.5t31.5 -31t46 -11q23 0 46 8t40 22v241zM481 25q0 -58 -15 -102.5t-44 -74.5t-70.5 -45.5t-95.5 -15.5t-96.5 13.5t-74.5 31.5l36 87q27 -15 60.5 -27t74.5 -12 q53 0 77.5 31.5t24.5 91.5v37h-2q-19 -17 -48 -32.5t-75 -15.5q-47 0 -82.5 19.5t-59 53.5t-35.5 79.5t-12 98.5q0 52 12 98.5t35.5 81t59 54.5t82.5 20q24 0 44 -5.5t37 -14.5t31 -19.5l26 -19.5h2l16 44h92v-457zM282 674q38 0 67 9.5t53 24.5l29 -74q-12 -12 -27 -23.5 t-34 -21.5t-41 -16t-47 -6t-46.5 6t-40 16t-33.5 21.5t-27 23.5l29 74q24 -15 53 -24.5t65 -9.5z"/>
    <glyph glyph-name="Gdotaccent" unicode="Ġ" horiz-adv-x="635" d="M574 358v-311q-21 -13 -48 -24.5t-57 -19.5t-62.5 -13t-64.5 -5q-72 0 -126.5 27t-91 74.5t-55 112.5t-18.5 141q0 73 18.5 137.5t56.5 113t96 76.5t138 28q62 0 116.5 -16.5t90.5 -34.5l-35 -96q-35 17 -79.5 29t-92.5 12t-82 -18.5t-56 -51.5t-32.5 -78.5t-10.5 -100.5 q0 -54 9 -100t29.5 -79t52.5 -51.5t77 -18.5q29 0 54.5 5t47.5 16v143l-109 18v85h234zM271 818q0 31 19.5 50t51.5 19q33 0 52.5 -19t19.5 -50t-19.5 -50t-52.5 -19q-32 0 -51.5 19t-19.5 50z"/>
    <glyph glyph-name="gdotaccent" unicode="ġ" d="M358 364q-17 14 -40 23t-46 9q-27 0 -46 -11.5t-31.5 -32t-18.5 -48.5t-6 -61t6 -60.5t18.5 -47.5t31.5 -31t46 -11q23 0 46 8t40 22v241zM481 25q0 -58 -15 -102.5t-44 -74.5t-70.5 -45.5t-95.5 -15.5t-96.5 13.5t-74.5 31.5l36 87q27 -15 60.5 -27t74.5 -12 q53 0 77.5 31.5t24.5 91.5v37h-2q-19 -17 -48 -32.5t-75 -15.5q-47 0 -82.5 19.5t-59 53.5t-35.5 79.5t-12 98.5q0 52 12 98.5t35.5 81t59 54.5t82.5 20q24 0 44 -5.5t37 -14.5t31 -19.5l26 -19.5h2l16 44h92v-457zM210 639q0 31 19.5 50t51.5 19q33 0 52.5 -19t19.5 -50 t-19.5 -50t-52.5 -19q-32 0 -51.5 19t-19.5 50z"/>
    <glyph glyph-name="Gcommaaccent" unicode="Ģ" horiz-adv-x="635" d="M574 358v-311q-21 -13 -48 -24.5t-57 -19.5t-62.5 -13t-64.5 -5q-72 0 -126.5 27t-91 74.5t-55 112.5t-18.5 141q0 73 18.5 137.5t56.5 113t96 76.5t138 28q62 0 116.5 -16.5t90.5 -34.5l-35 -96q-35 17 -79.5 29t-92.5 12t-82 -18.5t-56 -51.5t-32.5 -78.5t-10.5 -100.5 q0 -54 9 -100t29.5 -79t52.5 -51.5t77 -18.5q29 0 54.5 5t47.5 16v143l-109 18v85h234zM261 -208l22 156h122v-10l-53 -156h-91v10z"/>
    <glyph glyph-name="gcommaaccent" unicode="ģ" d="M358 364q-17 14 -40 23t-46 9q-27 0 -46 -11.5t-31.5 -32t-18.5 -48.5t-6 -61t6 -60.5t18.5 -47.5t31.5 -31t46 -11q23 0 46 8t40 22v241zM481 25q0 -58 -15 -102.5t-44 -74.5t-70.5 -45.5t-95.5 -15.5t-96.5 13.5t-74.5 31.5l36 87q27 -15 60.5 -27t74.5 -12 q53 0 77.5 31.5t24.5 91.5v37h-2q-19 -17 -48 -32.5t-75 -15.5q-47 0 -82.5 19.5t-59 53.5t-35.5 79.5t-12 98.5q0 52 12 98.5t35.5 81t59 54.5t82.5 20q24 0 44 -5.5t37 -14.5t31 -19.5l26 -19.5h2l16 44h92v-457zM364 713l-23 -156h-121v10l53 156h91v-10z"/>
    <glyph glyph-name="Hcircumflex" unicode="Ĥ" horiz-adv-x="675" d="M466 293h-257v-293h-125v680h125v-284h257v284h125v-680h-125v293zM492 760v-10h-101l-57 79l-56 -79h-101v10l102 136h111z"/>
    <glyph glyph-name="hcircumflex" unicode="ĥ" d="M362 0v295q0 48 -19 74.5t-58 26.5q-17 0 -30.5 -4.5t-25 -11.5t-20.5 -15.5t-16 -15.5v-349h-123v700h123v-257h2q9 9 22.5 18.5t30 17.5t35.5 13t41 5q78 0 119.5 -50t41.5 -138v-309h-123zM433 760v-10h-101l-57 79l-56 -79h-101v10l102 136h111z"/>
    <glyph glyph-name="Hbar" unicode="Ħ" horiz-adv-x="680" d="M593 495v-495h-125v293h-257v-293h-125v495h-47v103h47v82h125v-82h257v82h125v-82h48v-103h-48zM468 396v99h-257v-99h257z"/>
    <glyph glyph-name="hbar" unicode="ħ" d="M362 0v295q0 48 -19 74.5t-58 26.5q-17 0 -30.5 -4.5t-25 -11.5t-20.5 -15.5t-16 -15.5v-349h-123v545h-44v93h44v62h123v-62h94v-93h-94v-102h2q9 9 22.5 18.5t30 17.5t35.5 13t41 5q78 0 119.5 -50t41.5 -138v-309h-123z"/>
    <glyph glyph-name="Itilde" unicode="Ĩ" horiz-adv-x="293" d="M209 0h-125v680h125v-680zM-12 831q14 28 40 47t56 19q21 0 38 -7t32.5 -15.5t30.5 -15.5t33 -7q17 0 33 9.5t27 24.5l25 -68q-16 -32 -42.5 -49.5t-52.5 -17.5q-20 0 -38 7t-34.5 15.5t-32 15.5t-30.5 7q-20 0 -34 -9t-26 -26z"/>
    <glyph glyph-name="itilde" unicode="ĩ" horiz-adv-x="263" d="M70 0v482h123v-482h-123zM-26 647q14 28 40 47t56 19q21 0 38 -7t32.5 -15.5t30.5 -15.5t33 -7q17 0 33 9.5t27 24.5l25 -68q-16 -32 -42.5 -49.5t-52.5 -17.5q-20 0 -38 7t-34.5 15.5t-32 15.5t-30.5 7q-20 0 -34 -9t-26 -26z"/>
    <glyph glyph-name="Imacron" unicode="Ī" horiz-adv-x="293" d="M209 0h-125v680h125v-680zM13 759v103h261v-103h-261z"/>
    <glyph glyph-name="imacron" unicode="ī" horiz-adv-x="263" d="M70 0v482h123v-482h-123zM1 579v103h261v-103h-261z"/>
    <glyph glyph-name="Ibreve" unicode="Ĭ" horiz-adv-x="293" d="M209 0h-125v680h125v-680zM145 857q38 0 67 9.5t53 24.5l29 -74q-12 -12 -27 -23.5t-34 -21.5t-41 -16t-47 -6t-46.5 6t-40 16t-33.5 21.5t-27 23.5l29 74q24 -15 53 -24.5t65 -9.5z"/>
    <glyph glyph-name="ibreve" unicode="ĭ" horiz-adv-x="263" d="M70 0v482h123v-482h-123zM131 674q38 0 67 9.5t53 24.5l29 -74q-12 -12 -27 -23.5t-34 -21.5t-41 -16t-47 -6t-46.5 6t-40 16t-33.5 21.5t-27 23.5l29 74q24 -15 53 -24.5t65 -9.5z"/>
    <glyph glyph-name="Iogonek" unicode="Į" horiz-adv-x="293" d="M128 -213q-26 0 -45.5 8t-33.5 21.5t-21 32.5t-7 41q0 38 18.5 64.5t44.5 45.5v680h125v-680q-49 -12 -70.5 -38t-21.5 -48q0 -23 9.5 -31.5t27.5 -8.5q14 0 27.5 5.5t21.5 12.5l10 -80q-14 -10 -39 -17.5t-46 -7.5z"/>
    <glyph glyph-name="iogonek" unicode="į" horiz-adv-x="263" d="M113 -213q-26 0 -45.5 8t-33.5 21.5t-21 32.5t-7 41q0 38 19 65t45 46v481h123v-482q-48 -12 -69.5 -38t-21.5 -48q0 -23 9.5 -31.5t27.5 -8.5q14 0 27.5 5.5t21.5 12.5l10 -80q-14 -10 -39 -17.5t-46 -7.5zM61 639q0 31 19.5 50t51.5 19q33 0 52.5 -19t19.5 -50 t-19.5 -50t-52.5 -19q-32 0 -51.5 19t-19.5 50z"/>
    <glyph glyph-name="Idotaccent" unicode="İ" horiz-adv-x="293" d="M209 0h-125v680h125v-680zM74 818q0 31 19.5 50t51.5 19q33 0 52.5 -19t19.5 -50t-19.5 -50t-52.5 -19q-32 0 -51.5 19t-19.5 50z"/>
    <glyph glyph-name="dotlessi" unicode="ı" horiz-adv-x="263" d="M70 0v482h123v-482h-123z"/>
    <glyph glyph-name="IJ" unicode="Ĳ" horiz-adv-x="746" d="M209 0h-125v680h125v-680zM363 143q21 -20 43.5 -36t59.5 -16q21 0 35 8.5t23 23.5t13 36.5t4 48.5v472h125v-480q0 -112 -53.5 -163.5t-146.5 -51.5q-56 0 -94.5 22t-65.5 49z"/>
    <glyph glyph-name="ij" unicode="ĳ" horiz-adv-x="526" d="M70 0v482h123v-482h-123zM61 639q0 31 19.5 50t51.5 19q33 0 52.5 -19t19.5 -50t-19.5 -50t-52.5 -19q-32 0 -51.5 19t-19.5 50zM456 482v-525q0 -45 -11.5 -77t-32 -53t-49.5 -30.5t-64 -9.5q-14 0 -31.5 2t-31.5 5v93q12 -4 27.5 -5.5t26.5 -1.5q43 0 43 70v532h123z M324 639q0 31 19.5 50t51.5 19t52 -19t20 -50t-20 -50t-52 -19t-51.5 19t-19.5 50z"/>
    <glyph glyph-name="Jcircumflex" unicode="Ĵ" horiz-adv-x="453" d="M70 143q21 -20 43.5 -36t59.5 -16q21 0 35 8.5t23 23.5t13 36.5t4 48.5v472h125v-480q0 -112 -53.5 -163.5t-146.5 -51.5q-56 0 -94.5 22t-65.5 49zM471 760v-10h-101l-57 79l-56 -79h-101v10l102 136h111z"/>
    <glyph glyph-name="jcircumflex" unicode="ĵ" horiz-adv-x="263" d="M193 482v-525q0 -45 -11.5 -77t-32 -53t-49.5 -30.5t-64 -9.5q-14 0 -31.5 2t-31.5 5v93q12 -4 27.5 -5.5t26.5 -1.5q43 0 43 70v532h123zM282 577v-10h-101l-48 79l-47 -79h-101v10l82 136h133z"/>
    <glyph glyph-name="Kcommaaccent" unicode="Ķ" horiz-adv-x="598" d="M209 306v-306h-125v680h125v-330h2l221 330h140v-10l-239 -336l251 -324v-10h-146l-227 306h-2zM217 -208l22 156h122v-10l-53 -156h-91v10z"/>
    <glyph glyph-name="kcommaaccent" unicode="ķ" horiz-adv-x="507" d="M193 224v-224h-123v700h123v-435h2l151 217h134v-9l-168 -225l176 -238v-10h-141l-152 224h-2zM177 -208l22 156h122v-10l-53 -156h-91v10z"/>
    <glyph glyph-name="kgreenlandic" unicode="ĸ" horiz-adv-x="507" d="M193 221v-221h-123v482h123v-220h2l151 220h134v-9l-168 -228l176 -235v-10h-141l-152 221h-2z"/>
    <glyph glyph-name="Lacute" unicode="Ĺ" horiz-adv-x="501" d="M209 680v-572h264v-108h-389v680h125zM286 887l-84 -137h-115v10l63 136h136v-9z"/>
    <glyph glyph-name="lacute" unicode="ĺ" horiz-adv-x="263" d="M70 0v700h123v-700h-123zM268 887l-84 -137h-115v10l63 136h136v-9z"/>
    <glyph glyph-name="Lcommaaccent" unicode="Ļ" horiz-adv-x="501" d="M209 680v-572h264v-108h-389v680h125zM198 -208l22 156h122v-10l-53 -156h-91v10z"/>
    <glyph glyph-name="lcommaaccent" unicode="ļ" horiz-adv-x="263" d="M70 0v700h123v-700h-123zM45 -208l22 156h122v-10l-53 -156h-91v10z"/>
    <glyph glyph-name="Lcaron" unicode="Ľ" horiz-adv-x="501" d="M209 680v-572h264v-108h-389v680h125zM285 524l22 156h122v-10l-53 -156h-91v10z"/>
    <glyph glyph-name="lcaron" unicode="ľ" horiz-adv-x="263" d="M70 0v700h123v-700h-123zM235 524l22 156h122v-10l-53 -156h-91v10z"/>
    <glyph glyph-name="Ldot" unicode="Ŀ" horiz-adv-x="503" d="M209 680v-572h264v-108h-389v680h125zM302 357q0 36 22 59.5t57 23.5q36 0 58 -23.5t22 -59.5t-22 -59t-58 -23q-35 0 -57 23t-22 59z"/>
    <glyph glyph-name="ldot" unicode="ŀ" horiz-adv-x="369" d="M70 0v700h123v-700h-123zM237 357q0 36 22 59.5t57 23.5q36 0 58 -23.5t22 -59.5t-22 -59t-58 -23q-35 0 -57 23t-22 59z"/>
    <glyph glyph-name="Lslash" unicode="Ł" horiz-adv-x="526" d="M234 680v-251l96 54h9v-109l-105 -59v-207h264v-108h-389v246l-63 -35h-9v109l72 40v320h125z"/>
    <glyph glyph-name="lslash" unicode="ł" horiz-adv-x="313" d="M88 0v238l-55 -29h-9v109l64 34v348h123v-279l72 40h9v-109l-81 -45v-307h-123z"/>
    <glyph glyph-name="Nacute" unicode="Ń" horiz-adv-x="689" d="M495 167l-15 132v381h125v-680h-132l-276 512h-3l15 -132v-380h-125v680h132l276 -513h3zM479 887l-84 -137h-115v10l63 136h136v-9z"/>
    <glyph glyph-name="nacute" unicode="ń" d="M169 482l16 -46h2q9 9 22 19.5t30.5 20t38.5 15.5t47 6q77 0 118.5 -49.5t41.5 -137.5v-310h-123v295q0 49 -19 75t-58 26q-15 0 -28.5 -4t-25.5 -10.5t-21.5 -14t-16.5 -13.5v-354h-123v482h99zM424 704l-93 -137h-106v10l71 136h128v-9z"/>
    <glyph glyph-name="Ncommaaccent" unicode="Ņ" horiz-adv-x="689" d="M495 167l-15 132v381h125v-680h-132l-276 512h-3l15 -132v-380h-125v680h132l276 -513h3zM257 -208l22 156h122v-10l-53 -156h-91v10z"/>
    <glyph glyph-name="ncommaaccent" unicode="ņ" d="M169 482l16 -46h2q9 9 22 19.5t30.5 20t38.5 15.5t47 6q77 0 118.5 -49.5t41.5 -137.5v-310h-123v295q0 49 -19 75t-58 26q-15 0 -28.5 -4t-25.5 -10.5t-21.5 -14t-16.5 -13.5v-354h-123v482h99zM191 -208l22 156h122v-10l-53 -156h-91v10z"/>
    <glyph glyph-name="Ncaron" unicode="Ň" horiz-adv-x="689" d="M495 167l-15 132v381h125v-680h-132l-276 512h-3l15 -132v-380h-125v680h132l276 -513h3zM186 886v10h101l57 -79l56 79h101v-10l-102 -136h-111z"/>
    <glyph glyph-name="ncaron" unicode="ň" d="M169 482l16 -46h2q9 9 22 19.5t30.5 20t38.5 15.5t47 6q77 0 118.5 -49.5t41.5 -137.5v-310h-123v295q0 49 -19 75t-58 26q-15 0 -28.5 -4t-25.5 -10.5t-21.5 -14t-16.5 -13.5v-354h-123v482h99zM131 703v10h101l48 -79l47 79h101v-10l-82 -136h-133z"/>
    <glyph glyph-name="napostrophe" unicode="ŉ" d="M169 482l16 -46h2q9 9 22 19.5t30.5 20t38.5 15.5t47 6q77 0 118.5 -49.5t41.5 -137.5v-310h-123v295q0 49 -19 75t-58 26q-15 0 -28.5 -4t-25.5 -10.5t-21.5 -14t-16.5 -13.5v-354h-123v482h99zM-28 524l22 156h122v-10l-53 -156h-91v10z"/>
    <glyph glyph-name="Eng" unicode="Ŋ" horiz-adv-x="689" d="M495 170l-15 129v381h125v-723q0 -45 -11.5 -77t-32 -53t-49.5 -30.5t-64 -9.5q-14 0 -31.5 2t-31.5 5v93q12 -4 27.5 -5.5t26.5 -1.5q42 0 42 70v53l-284 509h-3l15 -132v-380h-125v680h132l276 -510h3z"/>
    <glyph glyph-name="eng" unicode="ŋ" d="M169 482l16 -46h2q9 9 22 19.5t30.5 20t38.5 15.5t47 6q77 0 118.5 -49.5t41.5 -137.5v-353q0 -45 -11.5 -77t-32 -53t-49.5 -30.5t-64 -9.5q-14 0 -31.5 2t-31.5 5v93q12 -4 27.5 -5.5t26.5 -1.5q43 0 43 70v345q0 49 -19 75t-58 26q-15 0 -28.5 -4t-25.5 -10.5 t-21.5 -14t-16.5 -13.5v-354h-123v482h99z"/>
    <glyph glyph-name="Omacron" unicode="Ō" horiz-adv-x="693" d="M180 340q0 -52 9 -97.5t29 -79t52 -53t77 -19.5t77 19.5t51.5 53t28.5 79t9 97.5t-9 97t-28.5 79t-51.5 53.5t-77 19.5t-77 -19.5t-52 -53.5t-29 -79t-9 -97zM641 340q0 -75 -17.5 -139.5t-53.5 -112.5t-91.5 -75.5t-131.5 -27.5q-77 0 -132.5 27.5t-91.5 75.5 t-53.5 112.5t-17.5 139.5t17.5 139.5t53.5 112.5t91.5 75.5t132.5 27.5q76 0 131.5 -27.5t91.5 -75.5t53.5 -112.5t17.5 -139.5zM217 759v103h261v-103h-261z"/>
    <glyph glyph-name="omacron" unicode="ō" horiz-adv-x="545" d="M169 241q0 -36 7 -65t20 -49t32 -30.5t44 -10.5t44.5 10.5t32.5 30.5t20 49t7 65t-7 65t-20 49t-32.5 30.5t-44.5 10.5t-44 -10.5t-32 -30.5t-20 -49t-7 -65zM502 241q0 -54 -14.5 -101t-43.5 -81.5t-72 -54t-100 -19.5q-56 0 -98.5 19.5t-71.5 54t-44 81.5t-15 101 t15 101t44 81.5t71.5 54t98.5 19.5q57 0 100 -19.5t72 -54t43.5 -81.5t14.5 -101zM140 579v103h261v-103h-261z"/>
    <glyph glyph-name="Obreve" unicode="Ŏ" horiz-adv-x="693" d="M180 340q0 -52 9 -97.5t29 -79t52 -53t77 -19.5t77 19.5t51.5 53t28.5 79t9 97.5t-9 97t-28.5 79t-51.5 53.5t-77 19.5t-77 -19.5t-52 -53.5t-29 -79t-9 -97zM641 340q0 -75 -17.5 -139.5t-53.5 -112.5t-91.5 -75.5t-131.5 -27.5q-77 0 -132.5 27.5t-91.5 75.5 t-53.5 112.5t-17.5 139.5t17.5 139.5t53.5 112.5t91.5 75.5t132.5 27.5q76 0 131.5 -27.5t91.5 -75.5t53.5 -112.5t17.5 -139.5zM349 857q38 0 67 9.5t53 24.5l29 -74q-12 -12 -27 -23.5t-34 -21.5t-41 -16t-47 -6t-46.5 6t-40 16t-33.5 21.5t-27 23.5l29 74 q24 -15 53 -24.5t65 -9.5z"/>
    <glyph glyph-name="obreve" unicode="ŏ" horiz-adv-x="545" d="M169 241q0 -36 7 -65t20 -49t32 -30.5t44 -10.5t44.5 10.5t32.5 30.5t20 49t7 65t-7 65t-20 49t-32.5 30.5t-44.5 10.5t-44 -10.5t-32 -30.5t-20 -49t-7 -65zM502 241q0 -54 -14.5 -101t-43.5 -81.5t-72 -54t-100 -19.5q-56 0 -98.5 19.5t-71.5 54t-44 81.5t-15 101 t15 101t44 81.5t71.5 54t98.5 19.5q57 0 100 -19.5t72 -54t43.5 -81.5t14.5 -101zM270 674q38 0 67 9.5t53 24.5l29 -74q-12 -12 -27 -23.5t-34 -21.5t-41 -16t-47 -6t-46.5 6t-40 16t-33.5 21.5t-27 23.5l29 74q24 -15 53 -24.5t65 -9.5z"/>
    <glyph glyph-name="Ohungarumlaut" unicode="Ő" horiz-adv-x="693" d="M180 340q0 -52 9 -97.5t29 -79t52 -53t77 -19.5t77 19.5t51.5 53t28.5 79t9 97.5t-9 97t-28.5 79t-51.5 53.5t-77 19.5t-77 -19.5t-52 -53.5t-29 -79t-9 -97zM641 340q0 -75 -17.5 -139.5t-53.5 -112.5t-91.5 -75.5t-131.5 -27.5q-77 0 -132.5 27.5t-91.5 75.5 t-53.5 112.5t-17.5 139.5t17.5 139.5t53.5 112.5t91.5 75.5t132.5 27.5q76 0 131.5 -27.5t91.5 -75.5t53.5 -112.5t17.5 -139.5zM405 886l-92 -136h-106v10l71 136h127v-10zM594 886l-92 -136h-106v10l71 136h127v-10z"/>
    <glyph glyph-name="ohungarumlaut" unicode="ő" horiz-adv-x="545" d="M169 241q0 -36 7 -65t20 -49t32 -30.5t44 -10.5t44.5 10.5t32.5 30.5t20 49t7 65t-7 65t-20 49t-32.5 30.5t-44.5 10.5t-44 -10.5t-32 -30.5t-20 -49t-7 -65zM502 241q0 -54 -14.5 -101t-43.5 -81.5t-72 -54t-100 -19.5q-56 0 -98.5 19.5t-71.5 54t-44 81.5t-15 101 t15 101t44 81.5t71.5 54t98.5 19.5q57 0 100 -19.5t72 -54t43.5 -81.5t14.5 -101zM319 704l-92 -137h-106v10l71 136h127v-9zM508 704l-92 -137h-106v10l71 136h127v-9z"/>
    <glyph glyph-name="OE" unicode="Œ" horiz-adv-x="912" d="M347 695q56 0 101 -15h407v-103h-285v-181h256v-103h-256v-190h288v-103h-411q-23 -7 -47.5 -11t-52.5 -4q-77 0 -132.5 27.5t-91.5 75.5t-53.5 113t-17.5 139t17.5 139t53.5 113t91.5 75.5t132.5 27.5zM347 91q31 0 55.5 6t42.5 17v452q-19 11 -43 17t-55 6 q-46 0 -77.5 -20t-51.5 -54t-29 -79.5t-9 -95.5t9 -95.5t29 -79.5t51.5 -54t77.5 -20z"/>
    <glyph glyph-name="oe" unicode="œ" horiz-adv-x="842" d="M501 206q2 -27 11 -49.5t23.5 -39t34.5 -25.5t44 -9q40 0 73.5 9t64.5 23l28 -87q-32 -17 -78 -30t-98 -13q-57 0 -101 23t-68 59q-27 -32 -68.5 -57t-94.5 -25q-56 0 -99 20.5t-72 55t-43.5 81t-14.5 99.5q0 52 14.5 99t43.5 81.5t72 55t99 20.5q53 0 94.5 -25.5 t68.5 -57.5q26 35 67.5 59t95.5 24q53 0 91.5 -17t63 -45.5t36.5 -66t12 -79.5q0 -23 -2 -46.5t-4 -36.5h-294zM169 241q0 -36 7 -65t20 -49t32 -30.5t44 -10.5t44.5 10.5t32.5 30.5t20 49t7 65t-7 65t-20 49t-32.5 30.5t-44.5 10.5t-44 -10.5t-32 -30.5t-20 -49t-7 -65z M688 286q1 4 1 8v8q0 21 -4.5 40t-15 34t-28 23.5t-42.5 8.5q-23 0 -40 -10.5t-29 -27.5t-18.5 -39t-7.5 -45h184z"/>
    <glyph glyph-name="Racute" unicode="Ŕ" horiz-adv-x="617" d="M84 0v680h258q109 0 160.5 -52.5t51.5 -149.5q0 -78 -33 -128t-100 -67l167 -267v-16h-132l-162 274h-85v-274h-125zM336 377q45 0 67.5 28t22.5 73q0 44 -22.5 71.5t-67.5 27.5h-127v-200h127zM428 887l-84 -137h-115v10l63 136h136v-9z"/>
    <glyph glyph-name="racute" unicode="ŕ" horiz-adv-x="365" d="M170 482l17 -57h2q6 12 16 25t23.5 23.5t30.5 17t39 6.5q12 0 23.5 -2t19.5 -4l-10 -103q-11 2 -23.5 3t-20.5 1q-37 0 -60 -16t-34 -34v-342h-123v482h100zM327 704l-93 -137h-106v10l71 136h128v-9z"/>
    <glyph glyph-name="Rcommaaccent" unicode="Ŗ" horiz-adv-x="617" d="M84 0v680h258q109 0 160.5 -52.5t51.5 -149.5q0 -78 -33 -128t-100 -67l167 -267v-16h-132l-162 274h-85v-274h-125zM336 377q45 0 67.5 28t22.5 73q0 44 -22.5 71.5t-67.5 27.5h-127v-200h127zM221 -208l22 156h122v-10l-53 -156h-91v10z"/>
    <glyph glyph-name="rcommaaccent" unicode="ŗ" horiz-adv-x="365" d="M170 482l17 -57h2q6 12 16 25t23.5 23.5t30.5 17t39 6.5q12 0 23.5 -2t19.5 -4l-10 -103q-11 2 -23.5 3t-20.5 1q-37 0 -60 -16t-34 -34v-342h-123v482h100zM47 -208l22 156h122v-10l-53 -156h-91v10z"/>
    <glyph glyph-name="Rcaron" unicode="Ř" horiz-adv-x="617" d="M84 0v680h258q109 0 160.5 -52.5t51.5 -149.5q0 -78 -33 -128t-100 -67l167 -267v-16h-132l-162 274h-85v-274h-125zM336 377q45 0 67.5 28t22.5 73q0 44 -22.5 71.5t-67.5 27.5h-127v-200h127zM136 886v10h101l57 -79l56 79h101v-10l-102 -136h-111z"/>
    <glyph glyph-name="rcaron" unicode="ř" horiz-adv-x="365" d="M170 482l17 -57h2q6 12 16 25t23.5 23.5t30.5 17t39 6.5q12 0 23.5 -2t19.5 -4l-10 -103q-11 2 -23.5 3t-20.5 1q-37 0 -60 -16t-34 -34v-342h-123v482h100zM49 703v10h101l48 -79l47 79h101v-10l-82 -136h-133z"/>
    <glyph glyph-name="Sacute" unicode="Ś" horiz-adv-x="521" d="M81 147q33 -23 78.5 -39.5t92.5 -16.5q49 0 75 26.5t26 69.5q0 32 -20 52.5t-65 38.5l-67 27q-73 29 -109.5 75t-36.5 112q0 46 16 83.5t45.5 64t71.5 41t95 14.5q37 0 85.5 -13t88.5 -33l-38 -98q-33 17 -70.5 27.5t-65.5 10.5q-53 0 -76.5 -26.5t-23.5 -63.5 q0 -29 17 -50t46 -32l66 -26q38 -15 69.5 -33.5t53.5 -42t34 -53t12 -65.5q0 -46 -17 -84.5t-48 -67t-73 -44.5t-91 -16q-66 0 -118 19.5t-94 46.5zM406 887l-84 -137h-115v10l63 136h136v-9z"/>
    <glyph glyph-name="sacute" unicode="ś" horiz-adv-x="440" d="M73 121q32 -18 68.5 -29t71.5 -11t51.5 15t16.5 39q0 23 -15 34.5t-44 19.5l-57 15q-23 6 -44 16.5t-37.5 27t-26.5 40t-10 55.5q0 35 12.5 63.5t35.5 48.5t57 31t76 11q50 0 87 -9t75 -26l-33 -89q-29 13 -61.5 20.5t-64.5 7.5q-33 0 -49 -14t-16 -38q0 -21 14.5 -32 t40.5 -19l56 -15q26 -7 48.5 -18t39 -28t26 -40.5t9.5 -55.5q0 -37 -13 -66t-37 -49t-58 -30.5t-75 -10.5q-28 0 -52 3t-46 9t-42.5 14.5t-39.5 19.5l36 90v0zM358 704l-93 -137h-106v10l71 136h128v-9z"/>
    <glyph glyph-name="Scircumflex" unicode="Ŝ" horiz-adv-x="521" d="M81 147q33 -23 78.5 -39.5t92.5 -16.5q49 0 75 26.5t26 69.5q0 32 -20 52.5t-65 38.5l-67 27q-73 29 -109.5 75t-36.5 112q0 46 16 83.5t45.5 64t71.5 41t95 14.5q37 0 85.5 -13t88.5 -33l-38 -98q-33 17 -70.5 27.5t-65.5 10.5q-53 0 -76.5 -26.5t-23.5 -63.5 q0 -29 17 -50t46 -32l66 -26q38 -15 69.5 -33.5t53.5 -42t34 -53t12 -65.5q0 -46 -17 -84.5t-48 -67t-73 -44.5t-91 -16q-66 0 -118 19.5t-94 46.5zM421 760v-10h-101l-57 79l-56 -79h-101v10l102 136h111z"/>
    <glyph glyph-name="scircumflex" unicode="ŝ" horiz-adv-x="440" d="M73 121q32 -18 68.5 -29t71.5 -11t51.5 15t16.5 39q0 23 -15 34.5t-44 19.5l-57 15q-23 6 -44 16.5t-37.5 27t-26.5 40t-10 55.5q0 35 12.5 63.5t35.5 48.5t57 31t76 11q50 0 87 -9t75 -26l-33 -89q-29 13 -61.5 20.5t-64.5 7.5q-33 0 -49 -14t-16 -38q0 -21 14.5 -32 t40.5 -19l56 -15q26 -7 48.5 -18t39 -28t26 -40.5t9.5 -55.5q0 -37 -13 -66t-37 -49t-58 -30.5t-75 -10.5q-28 0 -52 3t-46 9t-42.5 14.5t-39.5 19.5l36 90v0zM370 577v-10h-101l-48 79l-47 -79h-101v10l82 136h133z"/>
    <glyph glyph-name="Scedilla" unicode="Ş" horiz-adv-x="522" d="M81 147q33 -23 78.5 -39.5t92.5 -16.5q49 0 75 26.5t26 69.5q0 32 -20 52.5t-65 38.5l-67 27q-73 29 -109.5 75t-36.5 112q0 46 16 83.5t45.5 64t71.5 41t95 14.5q37 0 85.5 -13t88.5 -33l-38 -98q-33 17 -70.5 27.5t-65.5 10.5q-53 0 -76.5 -26.5t-23.5 -63.5 q0 -29 17 -50t46 -32l66 -26q38 -15 69.5 -33.5t53.5 -42t34 -53t12 -65.5q0 -41 -14 -77t-39.5 -63.5t-60.5 -45t-77 -23.5l-13 -33q29 -5 45.5 -23.5t16.5 -49.5q0 -44 -27.5 -69.5t-78.5 -25.5q-20 0 -37.5 3.5t-29.5 8.5l12 63q10 -4 20.5 -6t18.5 -2q16 0 23.5 6 t7.5 19q0 10 -5 15.5t-12.5 8t-16.5 3t-18 0.5l-3 6l26 75q-55 5 -99 22.5t-80 41.5z"/>
    <glyph glyph-name="scedilla" unicode="ş" horiz-adv-x="441" d="M74 121q32 -18 68.5 -29t71.5 -11t51.5 15t16.5 39q0 23 -15 34.5t-44 19.5l-57 15q-23 6 -44 16.5t-37.5 27t-26.5 40t-10 55.5q0 35 12.5 63.5t35.5 48.5t57 31t76 11q50 0 87 -9t75 -26l-33 -89q-29 13 -61.5 20.5t-64.5 7.5q-33 0 -49 -14t-16 -38q0 -21 14.5 -32 t40.5 -19l56 -15q26 -7 48.5 -18t39 -28t26 -40.5t9.5 -55.5q0 -66 -40 -105.5t-107 -48.5l-12 -32q28 -5 45 -23.5t17 -49.5q0 -44 -28 -69.5t-78 -25.5q-20 0 -38 3.5t-30 8.5l13 63q9 -4 19.5 -6t18.5 -2q16 0 24 6t8 19q0 10 -5 15.5t-12.5 8t-17 3t-17.5 0.5l-4 6 l26 75q-43 3 -78 14.5t-67 29.5l36 90v0z"/>
    <glyph glyph-name="Scaron" unicode="Š" horiz-adv-x="521" d="M81 147q33 -23 78.5 -39.5t92.5 -16.5q49 0 75 26.5t26 69.5q0 32 -20 52.5t-65 38.5l-67 27q-73 29 -109.5 75t-36.5 112q0 46 16 83.5t45.5 64t71.5 41t95 14.5q37 0 85.5 -13t88.5 -33l-38 -98q-33 17 -70.5 27.5t-65.5 10.5q-53 0 -76.5 -26.5t-23.5 -63.5 q0 -29 17 -50t46 -32l66 -26q38 -15 69.5 -33.5t53.5 -42t34 -53t12 -65.5q0 -46 -17 -84.5t-48 -67t-73 -44.5t-91 -16q-66 0 -118 19.5t-94 46.5zM108 886v10h101l57 -79l56 79h101v-10l-102 -136h-111z"/>
    <glyph glyph-name="scaron" unicode="š" horiz-adv-x="440" d="M73 121q32 -18 68.5 -29t71.5 -11t51.5 15t16.5 39q0 23 -15 34.5t-44 19.5l-57 15q-23 6 -44 16.5t-37.5 27t-26.5 40t-10 55.5q0 35 12.5 63.5t35.5 48.5t57 31t76 11q50 0 87 -9t75 -26l-33 -89q-29 13 -61.5 20.5t-64.5 7.5q-33 0 -49 -14t-16 -38q0 -21 14.5 -32 t40.5 -19l56 -15q26 -7 48.5 -18t39 -28t26 -40.5t9.5 -55.5q0 -37 -13 -66t-37 -49t-58 -30.5t-75 -10.5q-28 0 -52 3t-46 9t-42.5 14.5t-39.5 19.5l36 90v0zM74 703v10h101l48 -79l47 79h101v-10l-82 -136h-133z"/>
    <glyph glyph-name="Tcommaaccent" unicode="Ţ" horiz-adv-x="527" d="M499 680v-103h-173v-577h-27l-20 -45q29 -5 45.5 -23.5t16.5 -49.5q0 -44 -27.5 -69.5t-78.5 -25.5q-20 0 -37.5 3.5t-29.5 8.5l12 63q10 -4 20.5 -6t18.5 -2q16 0 23.5 6t7.5 19q0 10 -5 15.5t-12.5 8t-16.5 3t-18 0.5l-3 6l32 88h-26v577h-173v103h471z"/>
    <glyph glyph-name="tcommaaccent" unicode="ţ" horiz-adv-x="386" d="M230 594v-112h125v-96h-125v-245q0 -27 13 -41t39 -14q14 0 34.5 4t35.5 9v-99q-14 -4 -41 -9t-58 -6l-12 -30q29 -5 46 -23.5t17 -49.5q0 -44 -28 -69.5t-79 -25.5q-20 0 -37.5 3.5t-29.5 8.5l12 63q10 -4 20.5 -6t18.5 -2q16 0 24 6t8 19q0 10 -5 15.5t-13 8t-17 3 t-18 0.5l-3 6l28 82q-40 13 -59 44.5t-19 83.5v264h-79v68l79 28v112h123z"/>
    <glyph glyph-name="Tcaron" unicode="Ť" horiz-adv-x="527" d="M499 680v-103h-173v-577h-125v577h-173v103h471zM107 886v10h101l57 -79l56 79h101v-10l-102 -136h-111z"/>
    <glyph glyph-name="tcaron" unicode="ť" horiz-adv-x="386" d="M230 594v-112h125v-96h-125v-245q0 -27 13 -41t39 -14q14 0 34.5 4t35.5 9v-99q-14 -4 -42 -9.5t-60 -5.5q-73 0 -108 33.5t-35 103.5v264h-79v68l79 28v112h123zM300 524l22 156h122v-10l-53 -156h-91v10z"/>
    <glyph glyph-name="Tbar" unicode="Ŧ" horiz-adv-x="527" d="M499 680v-103h-173v-163h104v-96h-104v-318h-125v318h-104v96h104v163h-173v103h471z"/>
    <glyph glyph-name="tbar" unicode="ŧ" horiz-adv-x="387" d="M231 594v-112h125v-96h-125v-79h78v-93h-78v-73q0 -27 13 -41t39 -14q14 0 34.5 4t35.5 9v-99q-14 -4 -42 -9.5t-60 -5.5q-73 0 -108 33.5t-35 103.5v92h-60v93h60v79h-79v68l79 28v112h123z"/>
    <glyph glyph-name="Utilde" unicode="Ũ" horiz-adv-x="663" d="M203 680v-410q0 -39 7 -72t22 -56.5t39.5 -37t60.5 -13.5q35 0 59.5 13.5t39.5 37t22 56.5t7 72v410h125v-413q0 -136 -60 -209t-193 -73q-134 0 -194 73.5t-60 208.5v413h125zM170 831q14 28 40 47t56 19q21 0 38 -7t32.5 -15.5t30.5 -15.5t33 -7q17 0 33 9.5t27 24.5 l25 -68q-16 -32 -42.5 -49.5t-52.5 -17.5q-20 0 -38 7t-34.5 15.5t-32 15.5t-30.5 7q-20 0 -34 -9t-26 -26z"/>
    <glyph glyph-name="utilde" unicode="ũ" horiz-adv-x="545" d="M188 482v-295q0 -49 17.5 -75t55.5 -26q15 0 28.5 4t25 10.5t20.5 14t17 13.5v354h123v-482h-100l-17 46h-1q-9 -9 -22 -19.5t-29.5 -20t-37 -15.5t-45.5 -6q-78 0 -118 49.5t-40 137.5v310h123zM112 647q14 28 40 47t56 19q21 0 38 -7t32.5 -15.5t30.5 -15.5t33 -7 q17 0 33 9.5t27 24.5l25 -68q-16 -32 -42.5 -49.5t-52.5 -17.5q-20 0 -38 7t-34.5 15.5t-32 15.5t-30.5 7q-20 0 -34 -9t-26 -26z"/>
    <glyph glyph-name="Umacron" unicode="Ū" horiz-adv-x="663" d="M203 680v-410q0 -39 7 -72t22 -56.5t39.5 -37t60.5 -13.5q35 0 59.5 13.5t39.5 37t22 56.5t7 72v410h125v-413q0 -136 -60 -209t-193 -73q-134 0 -194 73.5t-60 208.5v413h125zM197 759v103h261v-103h-261z"/>
    <glyph glyph-name="umacron" unicode="ū" horiz-adv-x="545" d="M188 482v-295q0 -49 17.5 -75t55.5 -26q15 0 28.5 4t25 10.5t20.5 14t17 13.5v354h123v-482h-100l-17 46h-1q-9 -9 -22 -19.5t-29.5 -20t-37 -15.5t-45.5 -6q-78 0 -118 49.5t-40 137.5v310h123zM140 579v103h261v-103h-261z"/>
    <glyph glyph-name="Ubreve" unicode="Ŭ" horiz-adv-x="663" d="M203 680v-410q0 -39 7 -72t22 -56.5t39.5 -37t60.5 -13.5q35 0 59.5 13.5t39.5 37t22 56.5t7 72v410h125v-413q0 -136 -60 -209t-193 -73q-134 0 -194 73.5t-60 208.5v413h125zM326 857q38 0 67 9.5t53 24.5l29 -74q-12 -12 -27 -23.5t-34 -21.5t-41 -16t-47 -6t-46.5 6 t-40 16t-33.5 21.5t-27 23.5l29 74q24 -15 53 -24.5t65 -9.5z"/>
    <glyph glyph-name="ubreve" unicode="ŭ" horiz-adv-x="545" d="M188 482v-295q0 -49 17.5 -75t55.5 -26q15 0 28.5 4t25 10.5t20.5 14t17 13.5v354h123v-482h-100l-17 46h-1q-9 -9 -22 -19.5t-29.5 -20t-37 -15.5t-45.5 -6q-78 0 -118 49.5t-40 137.5v310h123zM270 674q38 0 67 9.5t53 24.5l29 -74q-12 -12 -27 -23.5t-34 -21.5 t-41 -16t-47 -6t-46.5 6t-40 16t-33.5 21.5t-27 23.5l29 74q24 -15 53 -24.5t65 -9.5z"/>
    <glyph glyph-name="Uring" unicode="Ů" horiz-adv-x="663" d="M203 680v-410q0 -39 7 -72t22 -56.5t39.5 -37t60.5 -13.5q35 0 59.5 13.5t39.5 37t22 56.5t7 72v410h125v-413q0 -136 -60 -209t-193 -73q-134 0 -194 73.5t-60 208.5v413h125zM290 834q0 -19 10.5 -30t27.5 -11t27 11t10 30q0 18 -10 29.5t-27 11.5t-27.5 -11.5 t-10.5 -29.5zM218 834q0 52 30.5 80.5t79.5 28.5t79 -28.5t30 -80.5q0 -53 -30 -81.5t-79 -28.5t-79.5 28.5t-30.5 81.5z"/>
    <glyph glyph-name="uring" unicode="ů" horiz-adv-x="545" d="M188 482v-295q0 -49 17.5 -75t55.5 -26q15 0 28.5 4t25 10.5t20.5 14t17 13.5v354h123v-482h-100l-17 46h-1q-9 -9 -22 -19.5t-29.5 -20t-37 -15.5t-45.5 -6q-78 0 -118 49.5t-40 137.5v310h123zM229 643q0 -19 10.5 -29.5t27.5 -10.5t27 10.5t10 29.5q0 18 -10 29.5 t-27 11.5t-27.5 -11.5t-10.5 -29.5zM157 643q0 52 30.5 80.5t79.5 28.5t79 -28.5t30 -80.5q0 -53 -30 -81.5t-79 -28.5t-79.5 28.5t-30.5 81.5z"/>
    <glyph glyph-name="Uhungarumlaut" unicode="Ű" horiz-adv-x="663" d="M203 680v-410q0 -39 7 -72t22 -56.5t39.5 -37t60.5 -13.5q35 0 59.5 13.5t39.5 37t22 56.5t7 72v410h125v-413q0 -136 -60 -209t-193 -73q-134 0 -194 73.5t-60 208.5v413h125zM376 886l-92 -136h-106v10l71 136h127v-10zM565 886l-92 -136h-106v10l71 136h127v-10z"/>
    <glyph glyph-name="uhungarumlaut" unicode="ű" horiz-adv-x="545" d="M188 482v-295q0 -49 17.5 -75t55.5 -26q15 0 28.5 4t25 10.5t20.5 14t17 13.5v354h123v-482h-100l-17 46h-1q-9 -9 -22 -19.5t-29.5 -20t-37 -15.5t-45.5 -6q-78 0 -118 49.5t-40 137.5v310h123zM317 704l-92 -137h-106v10l71 136h127v-9zM506 704l-92 -137h-106v10 l71 136h127v-9z"/>
    <glyph glyph-name="Uogonek" unicode="Ų" horiz-adv-x="663" d="M203 680v-410q0 -39 7 -72t22 -56.5t39.5 -37t60.5 -13.5q35 0 59.5 13.5t39.5 37t22 56.5t7 72v410h125v-413q0 -125 -50.5 -197t-160.5 -83q-10 -3 -16 -10t-9.5 -16.5t-5 -21t-1.5 -21.5q0 -44 37 -44q14 0 26.5 5.5t20.5 12.5l10 -80q-14 -10 -38 -17.5t-45 -7.5 q-25 0 -45 8t-33.5 21.5t-20.5 32.5t-7 41q0 34 13.5 57t34.5 40q-114 10 -165.5 82.5t-51.5 197.5v413h125z"/>
    <glyph glyph-name="uogonek" unicode="ų" horiz-adv-x="545" d="M408 -213q-26 0 -45.5 8t-33.5 21.5t-21 32.5t-7 41q0 19 6.5 35.5t17 30t23.5 24.5t26 20l-16 46h-1q-9 -9 -22 -19.5t-29.5 -20t-37 -15.5t-45.5 -6q-78 0 -118 49.5t-40 137.5v310h123v-295q0 -49 17.5 -75t55.5 -26q15 0 28.5 4t25 10.5t20.5 14t17 13.5v354h123 v-482q-15 -6 -29.5 -16t-25 -22t-17 -24.5t-6.5 -23.5q0 -23 9.5 -31.5t27.5 -8.5q14 0 27.5 5.5t21.5 12.5l10 -80q-14 -10 -39 -17.5t-46 -7.5z"/>
    <glyph glyph-name="Wcircumflex" unicode="Ŵ" horiz-adv-x="930" d="M904 670l-166 -670h-148l-94 400l-29 166h-2l-30 -166l-94 -400h-149l-166 670v10h134l79 -395l30 -169h2l30 169l91 395h146l91 -395l30 -169h2l30 169l79 395h134v-10zM625 760v-10h-101l-57 79l-56 -79h-101v10l102 136h111z"/>
    <glyph glyph-name="wcircumflex" unicode="ŵ" horiz-adv-x="779" d="M752 472l-129 -472h-135l-80 285l-18 99h-2l-18 -99l-80 -285h-134l-129 472v10h118l67 -284l14 -97h2l20 97l75 284h133l75 -284l20 -97h2l14 97l66 284h119v-10zM538 577v-10h-101l-48 79l-47 -79h-101v10l82 136h133z"/>
    <glyph glyph-name="Ycircumflex" unicode="Ŷ" horiz-adv-x="558" d="M140 680l138 -292h2l138 292h134v-10l-210 -394v-276h-125v276l-211 394v10h134zM440 760v-10h-101l-57 79l-56 -79h-101v10l102 136h111z"/>
    <glyph glyph-name="ycircumflex" unicode="ŷ" horiz-adv-x="499" d="M478 472l-187 -532q-29 -81 -70.5 -117t-98.5 -36q-24 0 -47.5 4t-38.5 8v90q14 -3 32.5 -6t32.5 -3q29 0 45 16.5t28 52.5l19 56l-175 467v10h125l82 -266l24 -100h3l23 100l78 266h125v-10zM401 577v-10h-101l-48 79l-47 -79h-101v10l82 136h133z"/>
    <glyph glyph-name="Ydieresis" unicode="Ÿ" horiz-adv-x="558" d="M140 680l138 -292h2l138 292h134v-10l-210 -394v-276h-125v276l-211 394v10h134zM93 818q0 31 19.5 50t51.5 19q33 0 52.5 -19t19.5 -50t-19.5 -50t-52.5 -19q-32 0 -51.5 19t-19.5 50zM327 818q0 31 19.5 50t51.5 19q33 0 52.5 -19t19.5 -50t-19.5 -50t-52.5 -19 q-32 0 -51.5 19t-19.5 50z"/>
    <glyph glyph-name="Zacute" unicode="Ź" horiz-adv-x="541" d="M493 680v-95l-307 -480v-2h307v-103h-453v95l306 480v2h-287v103h434zM411 887l-84 -137h-115v10l63 136h136v-9z"/>
    <glyph glyph-name="zacute" unicode="ź" horiz-adv-x="441" d="M396 482v-68l-208 -319v-2h208v-93h-358v68l207 319v2h-193v93h344zM367 704l-93 -137h-106v10l71 136h128v-9z"/>
    <glyph glyph-name="Zdotaccent" unicode="Ż" horiz-adv-x="541" d="M493 680v-95l-307 -480v-2h307v-103h-453v95l306 480v2h-287v103h434zM213 818q0 31 19.5 50t51.5 19q33 0 52.5 -19t19.5 -50t-19.5 -50t-52.5 -19q-32 0 -51.5 19t-19.5 50z"/>
    <glyph glyph-name="zdotaccent" unicode="ż" horiz-adv-x="441" d="M396 482v-68l-208 -319v-2h208v-93h-358v68l207 319v2h-193v93h344zM155 639q0 31 19.5 50t51.5 19q33 0 52.5 -19t19.5 -50t-19.5 -50t-52.5 -19q-32 0 -51.5 19t-19.5 50z"/>
    <glyph glyph-name="Zcaron" unicode="Ž" horiz-adv-x="541" d="M493 680v-95l-307 -480v-2h307v-103h-453v95l306 480v2h-287v103h434zM122 886v10h101l57 -79l56 79h101v-10l-102 -136h-111z"/>
    <glyph glyph-name="zcaron" unicode="ž" horiz-adv-x="441" d="M396 482v-68l-208 -319v-2h208v-93h-358v68l207 319v2h-193v93h344zM79 703v10h101l48 -79l47 79h101v-10l-82 -136h-133z"/>
    <glyph glyph-name="florin" unicode="ƒ" d="M140 288l15 96h81l24 152q13 84 54.5 121.5t108.5 37.5q19 0 43 -2t38 -5l-13 -93q-11 3 -28.5 5t-29.5 2q-24 0 -36 -19.5t-17 -52.5l-22 -146h99l-16 -96h-99l-55 -342q-14 -84 -55 -121.5t-108 -37.5q-18 0 -42 2t-38 5l13 93q11 -3 28 -5t28 -2q24 0 36.5 19.5 t17.5 52.5l54 336h-81z"/>
    <glyph glyph-name="Aringacute" unicode="Ǻ" horiz-adv-x="616" d="M196 746q0 52 30.5 82t79.5 30t79 -30t30 -82q0 -26 -11.5 -49t-29.5 -37l232 -660h-134l-42 149h-244l-43 -149h-133l229 658q-19 14 -31 38t-12 50zM306 570l-46 -183l-41 -139h176l-42 139l-44 183h-3zM268 746q0 -19 10.5 -29t27.5 -10t27 10t10 29q0 18 -10 28.5 t-27 10.5t-27.5 -10.5t-10.5 -28.5zM441.476 909.25l-80.0215 -102.75h-109.554v7.5l60.0166 102h129.559v-6.75z"/>
    <glyph glyph-name="aringacute" unicode="ǻ" horiz-adv-x="515" d="M219 635q0 -19 10.5 -29t27.5 -10q37 0 37 39q0 18 -10 28.5t-27 10.5t-27.5 -10.5t-10.5 -28.5zM147 635q0 52 30.5 79.5t79.5 27.5t79 -27.5t30 -79.5q0 -54 -30 -81t-79 -27t-79.5 27t-30.5 81zM394 873l-80 -103h-109v8l60 102h129v-7zM258 211q-102 0 -102 -70 q0 -27 14 -43.5t48 -16.5q28 0 59.5 10t50.5 23v97h-70zM359 0l-17 43h-2q-25 -20 -65 -39t-84 -19q-75 0 -114 43t-39 109q0 42 15.5 71.5t43.5 47.5t67.5 26.5t87.5 8.5h76v22q0 26 -9 42.5t-22.5 25.5t-28.5 12t-26 3q-40 0 -78.5 -12t-71.5 -26l-33 94q38 17 88 31 t102 14q104 0 153 -53t49 -146v-298h-92z"/>
    <glyph glyph-name="AEacute" unicode="Ǽ" horiz-adv-x="873" d="M-10 10l363 670h463v-103h-286v-181h256v-103h-256v-190h289v-103h-414v149h-207l-78 -149h-130v10zM410 565l-73 -150l-84 -167h152v167l8 150h-3zM715 887l-84 -137h-115v10l63 136h136v-9z"/>
    <glyph glyph-name="aeacute" unicode="ǽ" horiz-adv-x="784" d="M251 211q-46 0 -70.5 -17.5t-24.5 -50.5q0 -32 16 -47t44 -15q21 0 40.5 9t35.5 26t25.5 41t9.5 54h-76zM380 73q-14 -17 -30.5 -32.5t-38.5 -28t-50 -20t-65 -7.5q-76 0 -117 41.5t-41 110.5q0 42 15.5 71.5t43 47.5t66.5 26.5t86 8.5h79v22q0 26 -9.5 42.5t-23 25.5 t-29 12t-26.5 3q-40 0 -77.5 -12t-70.5 -26l-33 94q38 17 87 31t101 14q49 0 88.5 -17.5t62.5 -49.5q26 32 61 49.5t86 17.5q53 0 90.5 -17t61.5 -45.5t35 -66t11 -79.5q0 -23 -2 -46.5t-4 -36.5h-284q4 -54 31.5 -88.5t76.5 -34.5q40 0 71 9t62 23l28 -87 q-32 -17 -75.5 -30t-95.5 -13q-62 0 -102.5 23t-68.5 65zM630 286q1 4 1 8v8q0 21 -4 40t-13.5 34t-26 23.5t-41.5 8.5q-22 0 -38.5 -10.5t-27.5 -27.5t-17 -39t-7 -45h174zM554 704l-93 -137h-106v10l71 136h128v-9z"/>
    <glyph glyph-name="Oslashacute" unicode="Ǿ" horiz-adv-x="693" d="M91 14l40 63q-41 48 -60 116t-19 147q0 75 17.5 139.5t53.5 112.5t91.5 75.5t132.5 27.5q42 0 77.5 -8.5t64.5 -24.5l33 54l74 -44l-40 -64q44 -48 64.5 -117.5t20.5 -150.5q0 -75 -17.5 -139.5t-53.5 -112.5t-91.5 -75.5t-131.5 -27.5q-45 0 -82.5 10t-68.5 27l-35 -53z M513 340q0 44 -6.5 83t-20.5 71l-230 -375q37 -28 91 -28q45 0 77 19.5t51.5 53t28.5 79t9 97.5zM180 340q0 -41 5.5 -78t17.5 -67l227 370q-17 11 -37.5 17.5t-45.5 6.5q-45 0 -77 -19.5t-52 -53.5t-29 -79t-9 -97zM497 887l-84 -137h-115v10l63 136h136v-9z"/>
    <glyph glyph-name="oslashacute" unicode="ǿ" horiz-adv-x="545" d="M57 16l38 51q-26 34 -39 78.5t-13 95.5q0 54 15 101t44 81.5t71.5 54t98.5 19.5q33 0 62 -7t53 -21l33 46l67 -49l-38 -50q26 -34 39.5 -78.5t13.5 -96.5q0 -54 -14.5 -101t-43.5 -81.5t-72 -54t-100 -19.5q-34 0 -63.5 8.5t-53.5 21.5l-35 -49zM381 244q0 20 -2 37.5 t-5 32.5l-159 -220q11 -8 25 -12t30 -4q27 0 47.5 11.5t35 32.5t21.5 52t7 70zM164 238q0 -39 6 -67l158 217q-24 16 -54 16q-27 0 -47.5 -11.5t-34.5 -32.5t-21 -52t-7 -70zM417 704l-93 -137h-106v10l71 136h128v-9z"/>
    <glyph glyph-name="Scommaaccent" unicode="Ș" horiz-adv-x="521" d="M81 147q33 -23 78.5 -39.5t92.5 -16.5q49 0 75 26.5t26 69.5q0 32 -20 52.5t-65 38.5l-67 27q-73 29 -109.5 75t-36.5 112q0 46 16 83.5t45.5 64t71.5 41t95 14.5q37 0 85.5 -13t88.5 -33l-38 -98q-33 17 -70.5 27.5t-65.5 10.5q-53 0 -76.5 -26.5t-23.5 -63.5 q0 -29 17 -50t46 -32l66 -26q38 -15 69.5 -33.5t53.5 -42t34 -53t12 -65.5q0 -46 -17 -84.5t-48 -67t-73 -44.5t-91 -16q-66 0 -118 19.5t-94 46.5zM186 -208l22 156h122v-10l-53 -156h-91v10z"/>
    <glyph glyph-name="scommaaccent" unicode="ș" horiz-adv-x="440" d="M73 121q32 -18 68.5 -29t71.5 -11t51.5 15t16.5 39q0 23 -15 34.5t-44 19.5l-57 15q-23 6 -44 16.5t-37.5 27t-26.5 40t-10 55.5q0 35 12.5 63.5t35.5 48.5t57 31t76 11q50 0 87 -9t75 -26l-33 -89q-29 13 -61.5 20.5t-64.5 7.5q-33 0 -49 -14t-16 -38q0 -21 14.5 -32 t40.5 -19l56 -15q26 -7 48.5 -18t39 -28t26 -40.5t9.5 -55.5q0 -37 -13 -66t-37 -49t-58 -30.5t-75 -10.5q-28 0 -52 3t-46 9t-42.5 14.5t-39.5 19.5l36 90v0zM151 -208l22 156h122v-10l-53 -156h-91v10z"/>
    <glyph glyph-name="uni021A" unicode="Ț" horiz-adv-x="527" d="M499 680v-103h-173v-577h-125v577h-173v103h471zM182 -208l22 156h122v-10l-53 -156h-91v10z"/>
    <glyph glyph-name="uni021B" unicode="ț" horiz-adv-x="386" d="M230 594v-112h125v-96h-125v-245q0 -27 13 -41t39 -14q14 0 34.5 4t35.5 9v-99q-14 -4 -42 -9.5t-60 -5.5q-73 0 -108 33.5t-35 103.5v264h-79v68l79 28v112h123zM135 -208l22 156h122v-10l-53 -156h-91v10z"/>
    <glyph glyph-name="dotlessj" unicode="ȷ" horiz-adv-x="263" d="M193 482v-525q0 -45 -11.5 -77t-32 -53t-49.5 -30.5t-64 -9.5q-14 0 -31.5 2t-31.5 5v93q12 -4 27.5 -5.5t26.5 -1.5q43 0 43 70v532h123z"/>
    <glyph glyph-name="circumflex" unicode="ˆ" horiz-adv-x="531" d="M414 577v-10h-101l-48 79l-47 -79h-101v10l82 136h133z"/>
    <glyph glyph-name="caron" unicode="ˇ" horiz-adv-x="531" d="M117 703v10h101l48 -79l47 79h101v-10l-82 -136h-133z"/>
    <glyph glyph-name="uni02C9" unicode="ˉ" horiz-adv-x="531" d="M135 589v103h261v-103h-261z"/>
    <glyph glyph-name="breve" unicode="˘" horiz-adv-x="531" d="M265 674q38 0 67 9.5t53 24.5l29 -74q-12 -12 -27 -23.5t-34 -21.5t-41 -16t-47 -6t-46.5 6t-40 16t-33.5 21.5t-27 23.5l29 74q24 -15 53 -24.5t65 -9.5z"/>
    <glyph glyph-name="dotaccent" unicode="˙" horiz-adv-x="531" d="M194 639q0 31 19.5 50t51.5 19q33 0 52.5 -19t19.5 -50t-19.5 -50t-52.5 -19q-32 0 -51.5 19t-19.5 50z"/>
    <glyph glyph-name="ring" unicode="˚" horiz-adv-x="531" d="M228 643q0 -19 10.5 -29.5t27.5 -10.5t27 10.5t10 29.5q0 18 -10 29.5t-27 11.5t-27.5 -11.5t-10.5 -29.5zM156 643q0 52 30.5 80.5t79.5 28.5t79 -28.5t30 -80.5q0 -53 -30 -81.5t-79 -28.5t-79.5 28.5t-30.5 81.5z"/>
    <glyph glyph-name="ogonek" unicode="˛" horiz-adv-x="531" d="M277 -213q-26 0 -45.5 8t-33.5 21.5t-21 32.5t-7 41q0 28 10.5 50t27.5 39t37.5 29.5t40.5 21.5l44 -24q-11 -5 -22.5 -14t-20.5 -20t-15 -23.5t-6 -24.5q0 -23 9.5 -31.5t27.5 -8.5q14 0 27.5 5.5t21.5 12.5l10 -90q-14 -10 -39 -17.5t-46 -7.5z"/>
    <glyph glyph-name="tilde" unicode="˜" horiz-adv-x="531" d="M108 647q14 28 40 47t56 19q21 0 38 -7t32.5 -15.5t30.5 -15.5t33 -7q17 0 33 9.5t27 24.5l25 -68q-16 -32 -42.5 -49.5t-52.5 -17.5q-20 0 -38 7t-34.5 15.5t-32 15.5t-30.5 7q-20 0 -34 -9t-26 -26z"/>
    <glyph glyph-name="hungarumlaut" unicode="˝" horiz-adv-x="531" d="M270 704l-92 -137h-106v10l71 136h127v-9zM459 704l-92 -137h-106v10l71 136h127v-9z"/>
    <glyph glyph-name="tonos" unicode="΄" horiz-adv-x="590" d="M400 716l-56 -157h-96v10l32 156h120v-9z"/>
    <glyph glyph-name="dieresistonos" unicode="΅" horiz-adv-x="590" d="M59 606q0 32 21.5 53t56.5 21q36 0 57.5 -21t21.5 -53t-21.5 -53t-57.5 -21q-35 0 -56.5 21t-21.5 53zM414 606q0 32 21.5 53t56.5 21q36 0 57.5 -21t21.5 -53t-21.5 -53t-57.5 -21q-35 0 -56.5 21t-21.5 53zM403 701l-53 -167h-109v10l29 166h133v-9z"/>
    <glyph glyph-name="Alphatonos" unicode="Ά" horiz-adv-x="671" d="M660 0h-134l-42 149h-244l-43 -149h-133l224 680h146zM360 570l-46 -183l-41 -139h176l-42 139l-44 183h-3zM191 671l-53 -157h-103v10l29 156h127v-9z"/>
    <glyph glyph-name="anoteleia" unicode="·" horiz-adv-x="269" d="M55 287q0 36 22 59.5t57 23.5q36 0 58 -23.5t22 -59.5t-22 -59t-58 -23q-35 0 -57 23t-22 59z"/>
    <glyph glyph-name="Epsilontonos" unicode="Έ" horiz-adv-x="697" d="M640 680v-103h-286v-181h256v-103h-256v-190h289v-103h-414v680h411zM169 671l-53 -157h-103v10l29 156h127v-9z"/>
    <glyph glyph-name="Etatonos" unicode="Ή" horiz-adv-x="820" d="M611 293h-257v-293h-125v680h125v-284h257v284h125v-680h-125v293zM169 671l-53 -157h-103v10l29 156h127v-9z"/>
    <glyph glyph-name="Iotatonos" unicode="Ί" horiz-adv-x="438" d="M354 0h-125v680h125v-680zM169 671l-53 -157h-103v10l29 156h127v-9z"/>
    <glyph glyph-name="Omicrontonos" unicode="Ό" horiz-adv-x="813" d="M300 340q0 -52 9 -97.5t29 -79t52 -53t77 -19.5t77 19.5t51.5 53t28.5 79t9 97.5t-9 97t-28.5 79t-51.5 53.5t-77 19.5t-77 -19.5t-52 -53.5t-29 -79t-9 -97zM761 340q0 -75 -17.5 -139.5t-53.5 -112.5t-91.5 -75.5t-131.5 -27.5q-77 0 -132.5 27.5t-91.5 75.5 t-53.5 112.5t-17.5 139.5t17.5 139.5t53.5 112.5t91.5 75.5t132.5 27.5q76 0 131.5 -27.5t91.5 -75.5t53.5 -112.5t17.5 -139.5zM174 671l-53 -157h-103v10l29 156h127v-9z"/>
    <glyph glyph-name="Upsilontonos" unicode="Ύ" horiz-adv-x="784" d="M366 680l138 -292h2l138 292h134v-10l-210 -394v-276h-125v276l-211 394v10h134zM180 671l-53 -157h-103v10l29 156h127v-9z"/>
    <glyph glyph-name="Omegatonos" unicode="Ώ" horiz-adv-x="823" d="M169 103h131q-25 15 -48 41t-40.5 60t-28 75t-10.5 86q0 65 17.5 124.5t53.5 105.5t91.5 73t132.5 27q76 0 131.5 -27t92 -73t54 -105.5t17.5 -124.5q0 -45 -10.5 -85.5t-28.5 -75t-41 -60.5t-48 -41h131v-103h-259v93q63 40 94 97.5t31 149.5q0 50 -8.5 95.5t-28 79.5 t-51 54t-76.5 20q-46 0 -77.5 -20t-51 -54t-28 -79.5t-8.5 -95.5q0 -92 31.5 -149.5t93.5 -97.5v-93h-259v103zM175 671l-53 -157h-103v10l29 156h127v-9z"/>
    <glyph glyph-name="iotadieresistonos" unicode="ΐ" horiz-adv-x="293" d="M192 482v-349q0 -23 9 -35t29 -12q8 0 18 1.5t21 5.5v-100q-13 -3 -32.5 -5.5t-41.5 -2.5q-60 0 -92.5 35.5t-32.5 110.5v351h122zM-100 606q0 32 21.5 53t56.5 21q36 0 57.5 -21t21.5 -53t-21.5 -53t-57.5 -21q-35 0 -56.5 21t-21.5 53zM255 606q0 32 21.5 53t56.5 21 q36 0 57.5 -21t21.5 -53t-21.5 -53t-57.5 -21q-35 0 -56.5 21t-21.5 53zM244 701l-53 -167h-109v10l29 166h133v-9z"/>
    <glyph glyph-name="Alpha" unicode="Α" horiz-adv-x="619" d="M608 0h-134l-42 149h-244l-43 -149h-133l224 680h146zM308 570l-46 -183l-41 -139h176l-42 139l-44 183h-3z"/>
    <glyph glyph-name="Beta" unicode="Β" horiz-adv-x="607" d="M209 103h117q56 0 81.5 24.5t25.5 75.5q0 49 -26 73t-88 24h-110v-197zM308 680q111 0 169 -43t58 -138q0 -57 -26 -93t-59 -51v-2q50 -19 80.5 -58.5t30.5 -103.5q0 -94 -53 -142.5t-171 -48.5h-253v680h224zM209 396h94q27 0 46.5 4.5t32.5 14.5t19 27t6 42 q0 51 -24 72t-82 21h-92v-181z"/>
    <glyph glyph-name="Gamma" unicode="Γ" horiz-adv-x="500" d="M84 0v680h389v-108h-264v-572h-125z"/>
    <glyph glyph-name="uni0394" unicode="Δ" horiz-adv-x="618" d="M606 0h-592v5l223 675h146l223 -675v-5zM308 570l-46 -180l-85 -291h268l-90 291l-44 180h-3z"/>
    <glyph glyph-name="Epsilon" unicode="Ε" horiz-adv-x="552" d="M495 680v-103h-286v-181h256v-103h-256v-190h289v-103h-414v680h411z"/>
    <glyph glyph-name="Zeta" unicode="Ζ" horiz-adv-x="541" d="M493 680v-95l-307 -480v-2h307v-103h-453v95l306 480v2h-287v103h434z"/>
    <glyph glyph-name="Eta" unicode="Η" horiz-adv-x="675" d="M466 293h-257v-293h-125v680h125v-284h257v284h125v-680h-125v293z"/>
    <glyph glyph-name="Theta" unicode="Θ" horiz-adv-x="693" d="M237 285v116h216v-116h-216zM180 340q0 -52 9 -97.5t29 -79t52 -53t77 -19.5t77 19.5t51.5 53t28.5 79t9 97.5t-9 97t-28.5 79t-51.5 53.5t-77 19.5t-77 -19.5t-52 -53.5t-29 -79t-9 -97zM641 340q0 -75 -17.5 -139.5t-53.5 -112.5t-91.5 -75.5t-131.5 -27.5 q-77 0 -132.5 27.5t-91.5 75.5t-53.5 112.5t-17.5 139.5t17.5 139.5t53.5 112.5t91.5 75.5t132.5 27.5q76 0 131.5 -27.5t91.5 -75.5t53.5 -112.5t17.5 -139.5z"/>
    <glyph glyph-name="Iota" unicode="Ι" horiz-adv-x="293" d="M209 0h-125v680h125v-680z"/>
    <glyph glyph-name="Kappa" unicode="Κ" horiz-adv-x="598" d="M209 306v-306h-125v680h125v-330h2l221 330h140v-10l-239 -336l251 -324v-10h-146l-227 306h-2z"/>
    <glyph glyph-name="Lambda" unicode="Λ" horiz-adv-x="619" d="M145 0h-133l224 680h146l226 -680h-134l-119 387l-44 173h-3l-46 -173z"/>
    <glyph glyph-name="Mu" unicode="Μ" horiz-adv-x="804" d="M403 276l55 134l141 270h121v-680h-125v337l14 150h-1l-152 -316h-109l-151 316h-2l15 -149v-338h-125v680h121l140 -270l56 -134h2z"/>
    <glyph glyph-name="Nu" unicode="Ν" horiz-adv-x="689" d="M495 167l-15 132v381h125v-680h-132l-276 512h-3l15 -132v-380h-125v680h132l276 -513h3z"/>
    <glyph glyph-name="Xi" unicode="Ξ" horiz-adv-x="543" d="M488 109v-109h-431v109h431zM87 288v109h369v-109h-369zM57 571v109h428v-109h-428z"/>
    <glyph glyph-name="Omicron" unicode="Ο" horiz-adv-x="693" d="M180 340q0 -52 9 -97.5t29 -79t52 -53t77 -19.5t77 19.5t51.5 53t28.5 79t9 97.5t-9 97t-28.5 79t-51.5 53.5t-77 19.5t-77 -19.5t-52 -53.5t-29 -79t-9 -97zM641 340q0 -75 -17.5 -139.5t-53.5 -112.5t-91.5 -75.5t-131.5 -27.5q-77 0 -132.5 27.5t-91.5 75.5 t-53.5 112.5t-17.5 139.5t17.5 139.5t53.5 112.5t91.5 75.5t132.5 27.5q76 0 131.5 -27.5t91.5 -75.5t53.5 -112.5t17.5 -139.5z"/>
    <glyph glyph-name="Pi" unicode="Π" horiz-adv-x="676" d="M467 577h-258v-577h-125v680h508v-680h-125v577z"/>
    <glyph glyph-name="Rho" unicode="Ρ" horiz-adv-x="558" d="M84 0v680h225q54 0 94 -16.5t66.5 -46t40 -70t13.5 -89.5t-13.5 -89.5t-40.5 -70t-67 -46t-93 -16.5h-100v-236h-125zM209 339h90q46 0 71 34.5t25 84.5q0 51 -25 85t-71 34h-90v-238z"/>
    <glyph glyph-name="Sigma" unicode="Σ" horiz-adv-x="548" d="M42 93l156 253l-142 240v94h445v-103h-304l137 -227l-153 -247h320v-103h-459v93z"/>
    <glyph glyph-name="Tau" unicode="Τ" horiz-adv-x="527" d="M499 680v-103h-173v-577h-125v577h-173v103h471z"/>
    <glyph glyph-name="Upsilon" unicode="Υ" horiz-adv-x="558" d="M140 680l138 -292h2l138 292h134v-10l-210 -394v-276h-125v276l-211 394v10h134z"/>
    <glyph glyph-name="Phi" unicode="Φ" horiz-adv-x="757" d="M442 620q75 -7 127.5 -30.5t85.5 -60.5t48 -85t15 -104t-15 -104t-48 -85t-85.5 -60.5t-127.5 -30.5v-60h-125v59q-76 7 -129 30.5t-86.5 60.5t-48.5 85t-15 105q0 56 15 104.5t48.5 85t86.5 60t129 30.5v60h125v-60zM169 340q0 -34 7 -65t23.5 -56t45 -42t72.5 -23v372 q-44 -6 -72.5 -23.5t-45 -42t-23.5 -55.5t-7 -65zM587 340q0 34 -7 64.5t-23.5 55.5t-44.5 42t-70 23v-371q42 7 70 24t44.5 42t23.5 55.5t7 64.5z"/>
    <glyph glyph-name="Chi" unicode="Χ" horiz-adv-x="576" d="M160 680l128 -267h2l128 267h132v-10l-175 -329l175 -331v-10h-133l-127 267h-2l-128 -267h-133v10l174 331l-174 329v10h133z"/>
    <glyph glyph-name="Psi" unicode="Ψ" horiz-adv-x="708" d="M417 263q60 5 85 44.5t25 124.5v248h126v-248q0 -134 -56 -202t-180 -74v-156h-125v156q-125 4 -181 73t-56 203v248h125v-248q0 -85 25 -125t87 -44v417h125v-417z"/>
    <glyph glyph-name="uni03A9" unicode="Ω" horiz-adv-x="711" d="M58 103h131q-25 15 -48 41t-40.5 60t-28 75t-10.5 86q0 65 17.5 124.5t53.5 105.5t91.5 73t132.5 27q76 0 131.5 -27t92 -73t54 -105.5t17.5 -124.5q0 -45 -10.5 -85.5t-28.5 -75t-41 -60.5t-48 -41h131v-103h-259v93q63 40 94 97.5t31 149.5q0 50 -8.5 95.5t-28 79.5 t-51 54t-76.5 20q-46 0 -77.5 -20t-51 -54t-28 -79.5t-8.5 -95.5q0 -92 31.5 -149.5t93.5 -97.5v-93h-259v103z"/>
    <glyph glyph-name="Iotadieresis" unicode="Ϊ" horiz-adv-x="293" d="M209 0h-125v680h125v-680zM-39 818q0 31 19.5 50t51.5 19q33 0 52.5 -19t19.5 -50t-19.5 -50t-52.5 -19q-32 0 -51.5 19t-19.5 50zM195 818q0 31 19.5 50t51.5 19q33 0 52.5 -19t19.5 -50t-19.5 -50t-52.5 -19q-32 0 -51.5 19t-19.5 50z"/>
    <glyph glyph-name="Upsilondieresis" unicode="Ϋ" horiz-adv-x="558" d="M140 680l138 -292h2l138 292h134v-10l-210 -394v-276h-125v276l-211 394v10h134zM83 818q0 31 19.5 50t51.5 19q33 0 52.5 -19t19.5 -50t-19.5 -50t-52.5 -19q-32 0 -51.5 19t-19.5 50zM317 818q0 31 19.5 50t51.5 19q33 0 52.5 -19t19.5 -50t-19.5 -50t-52.5 -19 q-32 0 -51.5 19t-19.5 50z"/>
    <glyph glyph-name="alphatonos" unicode="ά" horiz-adv-x="578" d="M535 0h-121l-13 83h-2q-8 -17 -20 -34.5t-30 -31.5t-42.5 -23t-55.5 -9q-46 0 -84 18t-65.5 51.5t-42.5 81t-15 105.5t15 105.5t42.5 81t65.5 51.5t84 18q31 0 55.5 -9t42.5 -23t30 -31.5t20 -34.5h2l13 83h121l-61 -240zM366 241q-8 32 -19 60.5t-24.5 49.5t-29.5 33 t-34 12q-20 0 -37 -10.5t-29 -31t-18.5 -49t-6.5 -64.5t6.5 -64.5t18.5 -49t29 -31t37 -10.5q18 0 34 12t29.5 33t24.5 49.5t19 60.5zM409 716l-56 -157h-96v10l32 156h120v-9z"/>
    <glyph glyph-name="epsilontonos" unicode="έ" horiz-adv-x="461" d="M355 194h-121q-35 0 -50.5 -12.5t-15.5 -35.5q0 -29 20 -46t68 -17q38 0 81 8.5t72 22.5l21 -92q-32 -16 -76 -26.5t-98 -10.5q-57 0 -97.5 10.5t-66 29.5t-37 45.5t-11.5 58.5q0 48 20.5 78t57.5 44v2q-29 12 -46 37.5t-17 68.5q0 65 46.5 102.5t152.5 37.5 q39 0 82.5 -9.5t76.5 -23.5l-23 -90q-30 11 -69 18t-68 7q-22 0 -36.5 -4.5t-23 -13t-12 -19.5t-3.5 -24q0 -11 3.5 -20.5t10.5 -16t18 -10t27 -3.5h114v-96zM371 716l-56 -157h-96v10l32 156h120v-9z"/>
    <glyph glyph-name="etatonos" unicode="ή" d="M169 482l16 -46h2q9 9 22 19.5t30.5 20t38.5 15.5t47 6q77 0 118.5 -49.5t41.5 -137.5v-508h-123v493q0 49 -19 75t-58 26q-15 0 -28.5 -4t-25.5 -10.5t-21.5 -14t-16.5 -13.5v-354h-123v482h99zM400 716l-56 -157h-96v10l32 156h120v-9z"/>
    <glyph glyph-name="iotatonos" unicode="ί" horiz-adv-x="293" d="M192 482v-349q0 -23 9 -35t29 -12q8 0 18 1.5t21 5.5v-100q-13 -3 -32.5 -5.5t-41.5 -2.5q-60 0 -92.5 35.5t-32.5 110.5v351h122zM241 716l-56 -157h-96v10l32 156h120v-9z"/>
    <glyph glyph-name="upsilondieresistonos" unicode="ΰ" horiz-adv-x="533" d="M186 203q0 -59 21 -88t66 -29q39 0 63 39t24 114q0 60 -10.5 120t-27.5 123h124q7 -28 14 -55.5t11.5 -56.5t7.5 -61.5t3 -69.5q0 -133 -55.5 -193.5t-153.5 -60.5q-103 0 -156 57t-53 156v284h122v-279zM372 716l-56 -157h-96v10l32 156h120v-9z"/>
    <glyph glyph-name="alpha" unicode="α" horiz-adv-x="578" d="M535 0h-121l-13 83h-2q-8 -17 -20 -34.5t-30 -31.5t-42.5 -23t-55.5 -9q-46 0 -84 18t-65.5 51.5t-42.5 81t-15 105.5t15 105.5t42.5 81t65.5 51.5t84 18q31 0 55.5 -9t42.5 -23t30 -31.5t20 -34.5h2l13 83h121l-61 -240zM366 241q-8 32 -19 60.5t-24.5 49.5t-29.5 33 t-34 12q-20 0 -37 -10.5t-29 -31t-18.5 -49t-6.5 -64.5t6.5 -64.5t18.5 -49t29 -31t37 -10.5q18 0 34 12t29.5 33t24.5 49.5t19 60.5z"/>
    <glyph glyph-name="beta" unicode="β" d="M190 23v-221h-121v671q0 121 52.5 176.5t155.5 55.5q43 0 77.5 -14t58 -39t36 -60.5t12.5 -77.5q0 -28 -7 -50.5t-18.5 -40t-25.5 -30.5t-29 -20v-2q22 -7 44.5 -21t41 -36t30 -51.5t11.5 -67.5q0 -54 -16 -93.5t-43.5 -65.5t-64 -38.5t-78.5 -12.5q-35 0 -64.5 10.5 t-49.5 27.5h-2zM190 117q14 -14 38 -22.5t56 -8.5q49 0 74.5 31.5t25.5 87.5q0 48 -29.5 79t-90.5 31h-27v93h26q35 0 54.5 25.5t19.5 71.5q0 18 -4.5 36t-13.5 32t-22.5 22.5t-31.5 8.5q-35 0 -55 -29.5t-20 -98.5v-359z"/>
    <glyph glyph-name="gamma" unicode="γ" horiz-adv-x="500" d="M182 -198v201l-162 469v10h122l77 -264l23 -101h2q5 10 9.5 23.5l9 27t8.5 26.5t8 23q26 63 43.5 125.5t30.5 139.5h122v-10q-20 -112 -64.5 -230.5t-107.5 -243.5v-196h-121z"/>
    <glyph glyph-name="delta" unicode="δ" horiz-adv-x="542" d="M402 595q-12 3 -33 6t-37 3q-35 0 -52.5 -14t-17.5 -41q0 -18 17.5 -35.5t44 -38t57.5 -45t57.5 -56t44 -71.5t17.5 -92q0 -41 -14.5 -81.5t-44 -72.5t-73.5 -52t-102 -20q-54 0 -96 20t-70.5 52.5t-43 74t-14.5 85.5q0 86 41 143.5t104 92.5q-17 20 -32 44.5t-15 55.5 q0 39 14.5 68t38.5 47.5t55.5 27.5t64.5 9q9 0 21.5 -1l25 -2t24 -3t18.5 -3v-101zM376 211q0 31 -9.5 58t-25.5 49.5t-36 42t-41 36.5q-21 -15 -39 -34t-31 -42t-20.5 -49.5t-7.5 -56.5q0 -27 7.5 -50.5t21 -41t31.5 -27.5t40 -10q26 0 46.5 10t34.5 27.5t21.5 40t7.5 47.5 z"/>
    <glyph glyph-name="epsilon" unicode="ε" horiz-adv-x="461" d="M355 194h-121q-35 0 -50.5 -12.5t-15.5 -35.5q0 -29 20 -46t68 -17q38 0 81 8.5t72 22.5l21 -92q-32 -16 -76 -26.5t-98 -10.5q-57 0 -97.5 10.5t-66 29.5t-37 45.5t-11.5 58.5q0 48 20.5 78t57.5 44v2q-29 12 -46 37.5t-17 68.5q0 65 46.5 102.5t152.5 37.5 q39 0 82.5 -9.5t76.5 -23.5l-23 -90q-30 11 -69 18t-68 7q-22 0 -36.5 -4.5t-23 -13t-12 -19.5t-3.5 -24q0 -11 3.5 -20.5t10.5 -16t18 -10t27 -3.5h114v-96z"/>
    <glyph glyph-name="zeta" unicode="ζ" horiz-adv-x="437" d="M419 700v-87q-71 -89 -120 -150.5t-79.5 -105.5t-44 -74.5t-13.5 -55.5q0 -33 17 -53.5t42 -35.5t54.5 -28t54.5 -32t42 -47t17 -73q0 -43 -23.5 -80.5t-55.5 -63.5l-82 64q16 15 26.5 31.5t10.5 32.5q0 23 -17 38t-42 28.5t-54.5 28.5t-54.5 37t-42 54.5t-17 80.5 q0 44 17 85.5t48.5 87.5t75.5 99t98 121v2h-220v96h362z"/>
    <glyph glyph-name="eta" unicode="η" d="M169 482l16 -46h2q9 9 22 19.5t30.5 20t38.5 15.5t47 6q77 0 118.5 -49.5t41.5 -137.5v-508h-123v493q0 49 -19 75t-58 26q-15 0 -28.5 -4t-25.5 -10.5t-21.5 -14t-16.5 -13.5v-354h-123v482h99z"/>
    <glyph glyph-name="theta" unicode="θ" d="M499 345q0 -82 -12 -148.5t-38 -113.5t-69 -72.5t-104 -25.5q-62 0 -105 25.5t-69.5 72.5t-38.5 113.5t-12 148.5t12 148.5t38.5 113.5t69.5 72.5t105 25.5q61 0 104 -25.5t69 -72.5t38 -113.5t12 -148.5zM276 604q-25 0 -43.5 -14t-31 -41.5t-19.5 -67.5t-9 -91h205 q-2 51 -9 91t-19 67.5t-30.5 41.5t-43.5 14zM276 86q25 0 43 13.5t30.5 40.5t19 66t8.5 90h-204q2 -51 9 -90t20 -66t31 -40.5t43 -13.5z"/>
    <glyph glyph-name="iota" unicode="ι" horiz-adv-x="293" d="M192 482v-349q0 -23 9 -35t29 -12q8 0 18 1.5t21 5.5v-100q-13 -3 -32.5 -5.5t-41.5 -2.5q-60 0 -92.5 35.5t-32.5 110.5v351h122z"/>
    <glyph glyph-name="kappa" unicode="κ" horiz-adv-x="502" d="M188 211v-211h-118v482h118v-230h2l155 230h131v-7l-169 -237l177 -231v-7h-134l-160 211h-2z"/>
    <glyph glyph-name="lambda" unicode="λ" horiz-adv-x="497" d="M477 0h-126l-69 227l-30 121h-3l-32 -119l-72 -229h-126v10l175 467l-24 71q-8 24 -19.5 40t-33.5 16q-8 0 -18.5 -1.5t-19.5 -3.5v97q10 3 22 6t38 3q22 0 42 -6t37 -19.5t31 -34.5t24 -51l204 -584v-10z"/>
    <glyph glyph-name="uni03BC" unicode="μ" d="M71 -198v680h123v-305q2 -45 19 -68t54 -23q15 0 28.5 4t25 10.5t20.5 14t17 13.5v354h123v-482h-100l-17 46h-1q-9 -9 -22 -19.5t-29.5 -20t-37 -15.5t-45.5 -6q-10 0 -21.5 2.5t-20.5 5.5l7 -64v-127h-123z"/>
    <glyph glyph-name="nu" unicode="ν" horiz-adv-x="502" d="M477 472q-20 -114 -61.5 -229.5t-104.5 -242.5h-132l-157 472v10h122l77 -264l23 -101h2q5 10 9.5 23.5t9 27.5t9 27.5t8.5 23.5q25 62 42.5 124.5t30.5 138.5h122v-10z"/>
    <glyph glyph-name="xi" unicode="ξ" horiz-adv-x="453" d="M124 607h-93v93h393v-93h-123q-30 0 -51.5 -8.5t-35.5 -23.5t-21 -34.5t-7 -41.5q0 -23 6.5 -42t21 -33t36.5 -21.5t52 -7.5h68v-96h-67q-36 0 -62 -6.5t-42 -18.5t-23.5 -30t-7.5 -41q0 -31 18.5 -49t46.5 -30.5t61 -23.5t61 -28t46.5 -43t18.5 -68q0 -43 -24.5 -82 t-58.5 -65l-82 64q7 7 14.5 15t13.5 16.5t9.5 16.5t3.5 16q0 22 -18.5 36.5t-46.5 27t-61 25.5t-61 33t-46.5 49.5t-18.5 75.5q0 67 33 106.5t83 57.5v2q-18 6 -35.5 17.5t-31.5 29.5t-22.5 41t-8.5 51q0 31 16.5 63.5t45.5 47.5v2z"/>
    <glyph glyph-name="omicron" unicode="ο" horiz-adv-x="545" d="M169 241q0 -36 7 -65t20 -49t32 -30.5t44 -10.5t44.5 10.5t32.5 30.5t20 49t7 65t-7 65t-20 49t-32.5 30.5t-44.5 10.5t-44 -10.5t-32 -30.5t-20 -49t-7 -65zM502 241q0 -54 -14.5 -101t-43.5 -81.5t-72 -54t-100 -19.5q-56 0 -98.5 19.5t-71.5 54t-44 81.5t-15 101 t15 101t44 81.5t71.5 54t98.5 19.5q57 0 100 -19.5t72 -54t43.5 -81.5t14.5 -101z"/>
    <glyph glyph-name="pi" unicode="π" horiz-adv-x="575" d="M553 482v-96h-87v-253q0 -23 9.5 -35t29.5 -12q8 0 18 1.5t21 5.5v-100q-14 -3 -33 -5.5t-41 -2.5q-60 0 -92.5 35.5t-32.5 110.5v255h-125v-386h-122v386h-88v96h543z"/>
    <glyph glyph-name="rho" unicode="ρ" horiz-adv-x="545" d="M184 120q14 -14 38 -24t49 -10q29 0 49.5 12t33 33t18 49.5t5.5 60.5t-5.5 60.5t-18 49.5t-33 33t-49.5 12q-40 0 -63.5 -36t-23.5 -93v-147zM63 -198v462q0 60 16 104t43.5 72.5t65.5 42.5t83 14q60 0 103.5 -20.5t71.5 -55t41.5 -81.5t13.5 -99q0 -53 -13 -99.5 t-38.5 -81t-63 -55t-87.5 -20.5q-39 0 -67.5 13t-45.5 32h-2v-228h-121z"/>
    <glyph glyph-name="sigma1" unicode="ς" horiz-adv-x="434" d="M385 375q-19 7 -46 14t-57 7q-22 0 -42.5 -9.5t-36 -28.5t-25 -47.5t-9.5 -67.5q0 -37 16.5 -60.5t41 -40.5t53.5 -31t53.5 -33t41 -46.5t16.5 -70.5t-24 -82t-56 -65l-81 64q7 7 14 15t11.5 16.5t7.5 16.5t3 16q0 22 -16.5 36.5t-41 28t-53.5 29.5t-53.5 42t-41 64.5 t-16.5 97.5q0 58 15.5 105.5t44.5 81.5t72 52t99 18q39 0 76 -10t59 -19l-25 -93v0z"/>
    <glyph glyph-name="sigma" unicode="σ" horiz-adv-x="561" d="M436 377q16 -11 28 -28.5t20 -39t12.5 -46t4.5 -48.5q0 -44 -14.5 -85.5t-43.5 -73.5t-71.5 -51.5t-99.5 -19.5q-56 0 -99 19.5t-72 53.5t-43.5 79.5t-14.5 96.5t14.5 96.5t43.5 79t72 53t99 19.5h249v-103h-85v-2zM167 234q0 -35 7.5 -61t21.5 -43t33 -25.5t43 -8.5 t43.5 8.5t33 25.5t21 43t7.5 61t-7.5 61t-21 43t-33 25t-43.5 8t-43 -8t-33 -25t-21.5 -43t-7.5 -61z"/>
    <glyph glyph-name="tau" unicode="τ" horiz-adv-x="453" d="M419 482v-96h-146v-245q0 -26 8.5 -40.5t34.5 -14.5q15 0 35 4.5t35 9.5v-100q-14 -4 -42 -9.5t-60 -5.5q-72 0 -102 34t-30 107v260h-126v96h393z"/>
    <glyph glyph-name="upsilon" unicode="υ" horiz-adv-x="533" d="M186 203q0 -59 21 -88t66 -29q39 0 63 39t24 114q0 60 -10.5 120t-27.5 123h124q7 -28 14 -55.5t11.5 -56.5t7.5 -61.5t3 -69.5q0 -133 -55.5 -193.5t-153.5 -60.5q-103 0 -156 57t-53 156v284h122v-279z"/>
    <glyph glyph-name="phi" unicode="φ" horiz-adv-x="671" d="M221 482q-12 -30 -22 -60.5t-17 -60.5t-10.5 -59t-3.5 -57q0 -32 5.5 -59t18 -47t32.5 -33.5t49 -18.5v193q0 109 43 163t126 54q51 0 86.5 -22.5t57 -57.5t31.5 -77.5t10 -83.5q0 -53 -13 -97.5t-40.5 -78.5t-72 -56.5t-107.5 -30.5v-191h-121v189q-62 7 -105 29 t-70 55.5t-39 76.5t-12 93q0 35 4 66.5t10.5 60t15.5 56t19 54.5h125zM394 88q29 6 50 19.5t34 35t19 50t6 63.5q0 26 -3.5 51.5t-11 45t-18 31.5t-25.5 12q-14 0 -23.5 -6.5t-15.5 -20.5t-9 -36.5t-3 -54.5v-190z"/>
    <glyph glyph-name="chi" unicode="χ" horiz-adv-x="496" d="M142 482l74 -172l32 -94h1l33 96l74 170h125v-10l-156 -329l156 -331v-10h-127l-72 170l-33 97h-1l-33 -97l-72 -170h-127v10l155 331l-155 329v10h126z"/>
    <glyph glyph-name="psi" unicode="ψ" horiz-adv-x="692" d="M410 83q21 0 41 10.5t35.5 30t24.5 48.5t9 67q0 60 -12 120t-31 123h125q8 -28 15.5 -55.5t13 -56.5t8.5 -61.5t3 -69.5q0 -66 -16 -113.5t-46 -78t-73 -45t-97 -14.5v-186h-122v186q-110 0 -166.5 56t-56.5 154v284h122v-279q0 -65 26.5 -92.5t74.5 -27.5v617h122v-617z "/>
    <glyph glyph-name="omega" unicode="ω" horiz-adv-x="762" d="M650 482q12 -28 24 -55.5t21.5 -56.5t15 -61.5t5.5 -69.5q0 -133 -52.5 -193.5t-145.5 -60.5q-50 0 -84.5 30t-51.5 69h-2q-17 -39 -51.5 -69t-84.5 -30q-92 0 -144.5 60.5t-52.5 193.5q0 37 5.5 69.5t14.5 61.5t21 56.5t25 55.5h129v-10q-33 -60 -53.5 -117t-20.5 -116 q0 -75 21.5 -114t54.5 -39q34 0 55.5 29t21.5 88v156h121v-162q0 -56 21.5 -83.5t54.5 -27.5q34 0 55 39t21 114q0 59 -20.5 116t-53.5 117v10h130z"/>
    <glyph glyph-name="iotadieresis" unicode="ϊ" horiz-adv-x="293" d="M192 482v-349q0 -23 9 -35t29 -12q8 0 18 1.5t21 5.5v-100q-13 -3 -32.5 -5.5t-41.5 -2.5q-60 0 -92.5 35.5t-32.5 110.5v351h122zM160 640q0 31 19.5 50t51.5 19q33 0 52.5 -19t19.5 -50t-19.5 -50t-52.5 -19q-32 0 -51.5 19t-19.5 50zM-38 640q0 31 19.5 50t51.5 19 q33 0 52.5 -19t19.5 -50t-19.5 -50t-52.5 -19q-32 0 -51.5 19t-19.5 50z"/>
    <glyph glyph-name="upsilondieresis" unicode="ϋ" horiz-adv-x="533" d="M186 203q0 -59 21 -88t66 -29q39 0 63 39t24 114q0 60 -10.5 120t-27.5 123h124q7 -28 14 -55.5t11.5 -56.5t7.5 -61.5t3 -69.5q0 -133 -55.5 -193.5t-153.5 -60.5q-103 0 -156 57t-53 156v284h122v-279zM288 640q0 31 19.5 50t51.5 19q33 0 52.5 -19t19.5 -50t-19.5 -50 t-52.5 -19q-32 0 -51.5 19t-19.5 50zM90 640q0 31 19.5 50t51.5 19q33 0 52.5 -19t19.5 -50t-19.5 -50t-52.5 -19q-32 0 -51.5 19t-19.5 50z"/>
    <glyph glyph-name="omicrontonos" unicode="ό" horiz-adv-x="546" d="M169 241q0 -36 7 -65t20 -49t32 -30.5t44 -10.5t44.5 10.5t32.5 30.5t20 49t7 65t-7 65t-20 49t-32.5 30.5t-44.5 10.5t-44 -10.5t-32 -30.5t-20 -49t-7 -65zM502 241q0 -54 -14.5 -101t-43.5 -81.5t-72 -54t-100 -19.5q-56 0 -98.5 19.5t-71.5 54t-44 81.5t-15 101 t15 101t44 81.5t71.5 54t98.5 19.5q57 0 100 -19.5t72 -54t43.5 -81.5t14.5 -101zM379 716l-56 -157h-96v10l32 156h120v-9z"/>
    <glyph glyph-name="upsilontonos" unicode="ύ" horiz-adv-x="533" d="M186 203q0 -59 21 -88t66 -29q39 0 63 39t24 114q0 60 -10.5 120t-27.5 123h124q7 -28 14 -55.5t11.5 -56.5t7.5 -61.5t3 -69.5q0 -133 -55.5 -193.5t-153.5 -60.5q-103 0 -156 57t-53 156v284h122v-279zM378 716l-56 -157h-96v10l32 156h120v-9z"/>
    <glyph glyph-name="omegatonos" unicode="ώ" horiz-adv-x="762" d="M650 482q12 -28 24 -55.5t21.5 -56.5t15 -61.5t5.5 -69.5q0 -133 -52.5 -193.5t-145.5 -60.5q-50 0 -84.5 30t-51.5 69h-2q-17 -39 -51.5 -69t-84.5 -30q-92 0 -144.5 60.5t-52.5 193.5q0 37 5.5 69.5t14.5 61.5t21 56.5t25 55.5h129v-10q-33 -60 -53.5 -117t-20.5 -116 q0 -75 21.5 -114t54.5 -39q34 0 55.5 29t21.5 88v156h121v-162q0 -56 21.5 -83.5t54.5 -27.5q34 0 55 39t21 114q0 59 -20.5 116t-53.5 117v10h130zM491 716l-56 -157h-96v10l32 156h120v-9z"/>
    <glyph glyph-name="uni0400" unicode="Ѐ" horiz-adv-x="552" d="M495 680v-103h-286v-181h256v-103h-256v-190h289v-103h-414v680h411zM168 896h136l63 -136v-10h-115l-84 137v9z"/>
    <glyph glyph-name="uni0401" unicode="Ё" horiz-adv-x="552" d="M495 680v-103h-286v-181h256v-103h-256v-190h289v-103h-414v680h411zM104 818q0 31 19.5 50t51.5 19q33 0 52.5 -19t19.5 -50t-19.5 -50t-52.5 -19q-32 0 -51.5 19t-19.5 50zM338 818q0 31 19.5 50t51.5 19q33 0 52.5 -19t19.5 -50t-19.5 -50t-52.5 -19q-32 0 -51.5 19 t-19.5 50z"/>
    <glyph glyph-name="uni0402" unicode="Ђ" horiz-adv-x="651" d="M375 -63q19 24 39 54t36 63t26 68t10 70q0 23 -5 45t-16.5 39t-31 27t-47.5 10q-29 0 -57 -5.5t-55 -13.5v-294h-125v577h-123v103h424v-103h-176v-180q26 8 60.5 13.5t69.5 5.5q53 0 93 -16t66.5 -45.5t40 -70.5t13.5 -92q0 -52 -15.5 -100.5t-38.5 -91t-48.5 -78.5 t-46.5 -62z"/>
    <glyph glyph-name="uni0403" unicode="Ѓ" horiz-adv-x="520" d="M494 680v-103h-285v-577h-125v680h410zM441 887l-84 -137h-115v10l63 136h136v-9z"/>
    <glyph glyph-name="uni0404" unicode="Є" horiz-adv-x="560" d="M51 340q0 79 19.5 144.5t57.5 112.5t93.5 72.5t127.5 25.5q43 0 87.5 -11t86.5 -33l-33 -95q-40 21 -74 27t-67 6q-34 0 -62.5 -14t-50 -40t-35.5 -62.5t-19 -80.5h243v-104h-243q5 -44 19 -80.5t35.5 -62.5t50 -40t62.5 -14q33 0 67 6t74 27l33 -95q-42 -22 -86.5 -33 t-87.5 -11q-72 0 -127.5 25.5t-93.5 72.5t-57.5 112t-19.5 145z"/>
    <glyph glyph-name="uni0405" unicode="Ѕ" horiz-adv-x="521" d="M81 147q33 -23 78.5 -39.5t92.5 -16.5q49 0 75 26.5t26 69.5q0 32 -20 52.5t-65 38.5l-67 27q-73 29 -109.5 75t-36.5 112q0 46 16 83.5t45.5 64t71.5 41t95 14.5q37 0 85.5 -13t88.5 -33l-38 -98q-33 17 -70.5 27.5t-65.5 10.5q-53 0 -76.5 -26.5t-23.5 -63.5 q0 -29 17 -50t46 -32l66 -26q38 -15 69.5 -33.5t53.5 -42t34 -53t12 -65.5q0 -46 -17 -84.5t-48 -67t-73 -44.5t-91 -16q-66 0 -118 19.5t-94 46.5z"/>
    <glyph glyph-name="uni0406" unicode="І" horiz-adv-x="293" d="M209 0h-125v680h125v-680z"/>
    <glyph glyph-name="uni0407" unicode="Ї" horiz-adv-x="293" d="M209 0h-125v680h125v-680zM-45 818q0 31 19.5 50t51.5 19q33 0 52.5 -19t19.5 -50t-19.5 -50t-52.5 -19q-32 0 -51.5 19t-19.5 50zM189 818q0 31 19.5 50t51.5 19q33 0 52.5 -19t19.5 -50t-19.5 -50t-52.5 -19q-32 0 -51.5 19t-19.5 50z"/>
    <glyph glyph-name="uni0408" unicode="Ј" horiz-adv-x="453" d="M70 143q21 -20 43.5 -36t59.5 -16q21 0 35 8.5t23 23.5t13 36.5t4 48.5v472h125v-480q0 -112 -53.5 -163.5t-146.5 -51.5q-56 0 -94.5 22t-65.5 49z"/>
    <glyph glyph-name="uni0409" unicode="Љ" horiz-adv-x="925" d="M543 680v-257h127q106 0 159.5 -53t53.5 -159q0 -104 -53.5 -157.5t-159.5 -53.5h-252v577h-160l-11 -221q-4 -80 -13 -138t-22.5 -99t-32 -66t-43 -39t-54.5 -19t-66 -5v107q24 0 43.5 9t34 37t23.5 80.5t13 140.5l12 316h401zM543 103h118q48 0 69.5 31t21.5 77 q0 47 -21 78t-70 31h-118v-217z"/>
    <glyph glyph-name="uni040A" unicode="Њ" horiz-adv-x="947" d="M566 680v-256h126q106 0 160 -53.5t54 -159.5q0 -104 -54 -157.5t-160 -53.5h-252v321h-231v-321h-125v680h125v-256h231v256h126zM566 103h117q49 0 70.5 31t21.5 77q0 23 -5 43t-16 35t-28.5 23.5t-42.5 8.5h-117v-218z"/>
    <glyph glyph-name="uni040B" unicode="Ћ" horiz-adv-x="665" d="M490 0v255q0 46 -22 74t-73 28q-19 0 -37 -2.5t-33.5 -6t-28 -8.5t-21.5 -9v-331h-125v577h-124v103h425v-103h-176v-145q27 11 65.5 20t89.5 9q88 0 136.5 -50t48.5 -138v-273h-125z"/>
    <glyph glyph-name="uni040C" unicode="Ќ" horiz-adv-x="598" d="M209 306v-306h-125v680h125v-330h2l221 330h140v-10l-239 -336l251 -324v-10h-146l-227 306h-2zM447 887l-84 -137h-115v10l63 136h136v-9z"/>
    <glyph glyph-name="uni040D" unicode="Ѝ" horiz-adv-x="679" d="M197 167l263 513h135v-680h-125v380l15 132h-3l-263 -512h-135v680h125v-381l-15 -132h3zM204 896h136l63 -136v-10h-115l-84 137v9z"/>
    <glyph glyph-name="uni040E" unicode="Ў" horiz-adv-x="529" d="M518 670l-190 -505q-19 -50 -39 -82t-45 -50.5t-57 -25.5t-74 -7h-38v103h28q42 0 64.5 16.5t37.5 58.5l9 25l-195 467v10h138l77 -215l39 -131h2l38 131l73 215h132v-10zM275 857q38 0 67 9.5t53 24.5l29 -74q-12 -12 -27 -23.5t-34 -21.5t-41 -16t-47 -6t-46.5 6 t-40 16t-33.5 21.5t-27 23.5l29 74q24 -15 53 -24.5t65 -9.5z"/>
    <glyph glyph-name="uni040F" unicode="Џ" horiz-adv-x="667" d="M288 -141l-10 141h-194v680h125v-577h249v577h125v-680h-194l-10 -141h-91z"/>
    <glyph glyph-name="uni0410" unicode="А" horiz-adv-x="619" d="M608 0h-134l-42 149h-244l-43 -149h-133l224 680h146zM308 570l-46 -183l-41 -139h176l-42 139l-44 183h-3z"/>
    <glyph glyph-name="uni0411" unicode="Б" horiz-adv-x="592" d="M503 680v-103h-294v-153h127q106 0 159.5 -53.5t53.5 -159.5q0 -104 -53.5 -157.5t-159.5 -53.5h-252v680h419zM209 103h118q49 0 70.5 31t21.5 77q0 23 -5 43t-16 35t-28.5 23.5t-42.5 8.5h-118v-218z"/>
    <glyph glyph-name="uni0412" unicode="В" horiz-adv-x="607" d="M209 103h117q56 0 81.5 24.5t25.5 75.5q0 49 -26 73t-88 24h-110v-197zM308 680q111 0 169 -43t58 -138q0 -57 -26 -93t-59 -51v-2q50 -19 80.5 -58.5t30.5 -103.5q0 -94 -53 -142.5t-171 -48.5h-253v680h224zM209 396h94q27 0 46.5 4.5t32.5 14.5t19 27t6 42 q0 51 -24 72t-82 21h-92v-181z"/>
    <glyph glyph-name="uni0413" unicode="Г" horiz-adv-x="520" d="M494 680v-103h-285v-577h-125v680h410z"/>
    <glyph glyph-name="uni0414" unicode="Д" horiz-adv-x="669" d="M27 -141l-18 244h56q17 24 29.5 55.5t21 69.5t13.5 83.5t8 97.5l12 271h410v-577h70l-18 -244h-91l-9 141h-385l-8 -141h-91zM434 103v474h-171l-9 -169q-3 -53 -7 -99.5t-10 -85t-14 -69t-20 -51.5h231z"/>
    <glyph glyph-name="uni0415" unicode="Е" horiz-adv-x="552" d="M495 680v-103h-286v-181h256v-103h-256v-190h289v-103h-414v680h411z"/>
    <glyph glyph-name="uni0416" unicode="Ж" horiz-adv-x="905" d="M388 304l-228 -304h-146v10l247 324l-235 336v10h140l222 -329h1v329h126v-329h2l222 329h140v-10l-235 -336l247 -324v-10h-146l-228 304h-2v-304h-126v304h-1z"/>
    <glyph glyph-name="uni0417" unicode="З" horiz-adv-x="518" d="M126 397h105q27 0 46 7.5t30.5 20t17 30t5.5 38.5q0 20 -6 37.5t-18.5 30.5t-31 20.5t-43.5 7.5q-33 0 -73 -9t-75 -25l-36 95q38 20 89 32.5t95 12.5q113 0 170 -51t57 -141q0 -29 -9 -53.5t-23 -43.5t-31 -32t-33 -19v-2q46 -19 79 -61.5t33 -108.5q0 -45 -15.5 -81.5 t-46.5 -62.5t-76.5 -40t-105.5 -14q-66 0 -112.5 14t-84.5 37l33 97q34 -19 73.5 -30.5t90.5 -11.5q25 0 46.5 7t37.5 20.5t25 32t9 41.5q0 24 -6.5 42.5t-20.5 31t-36.5 19.5t-54.5 7h-104v105z"/>
    <glyph glyph-name="uni0418" unicode="И" horiz-adv-x="679" d="M197 167l263 513h135v-680h-125v380l15 132h-3l-263 -512h-135v680h125v-381l-15 -132h3z"/>
    <glyph glyph-name="uni0419" unicode="Й" horiz-adv-x="679" d="M354 857q38 0 67 9.5t53 24.5l29 -74q-12 -12 -27 -23.5t-34 -21.5t-41 -16t-47 -6t-46.5 6t-40 16t-33.5 21.5t-27 23.5l29 74q24 -15 53 -24.5t65 -9.5zM197 167l263 513h135v-680h-125v380l15 132h-3l-263 -512h-135v680h125v-381l-15 -132h3z"/>
    <glyph glyph-name="uni041A" unicode="К" horiz-adv-x="598" d="M209 306v-306h-125v680h125v-330h2l221 330h140v-10l-239 -336l251 -324v-10h-146l-227 306h-2z"/>
    <glyph glyph-name="uni041B" unicode="Л" horiz-adv-x="663" d="M454 577h-196l-11 -221q-4 -80 -13 -138t-22.5 -99t-32 -66t-43 -39t-54.5 -19t-66 -5v106q24 0 43.5 9t34 37.5t23.5 81t13 140.5l12 316h437v-680h-125v577z"/>
    <glyph glyph-name="uni041C" unicode="М" horiz-adv-x="804" d="M403 276l55 134l141 270h121v-680h-125v337l14 150h-1l-152 -316h-109l-151 316h-2l15 -149v-338h-125v680h121l140 -270l56 -134h2z"/>
    <glyph glyph-name="uni041D" unicode="Н" horiz-adv-x="675" d="M466 293h-257v-293h-125v680h125v-284h257v284h125v-680h-125v293z"/>
    <glyph glyph-name="uni041E" unicode="О" horiz-adv-x="693" d="M180 340q0 -52 9 -97.5t29 -79t52 -53t77 -19.5t77 19.5t51.5 53t28.5 79t9 97.5t-9 97t-28.5 79t-51.5 53.5t-77 19.5t-77 -19.5t-52 -53.5t-29 -79t-9 -97zM641 340q0 -75 -17.5 -139.5t-53.5 -112.5t-91.5 -75.5t-131.5 -27.5q-77 0 -132.5 27.5t-91.5 75.5 t-53.5 112.5t-17.5 139.5t17.5 139.5t53.5 112.5t91.5 75.5t132.5 27.5q76 0 131.5 -27.5t91.5 -75.5t53.5 -112.5t17.5 -139.5z"/>
    <glyph glyph-name="uni041F" unicode="П" horiz-adv-x="676" d="M467 577h-258v-577h-125v680h508v-680h-125v577z"/>
    <glyph glyph-name="uni0420" unicode="Р" horiz-adv-x="558" d="M84 0v680h225q54 0 94 -16.5t66.5 -46t40 -70t13.5 -89.5t-13.5 -89.5t-40.5 -70t-67 -46t-93 -16.5h-100v-236h-125zM209 339h90q46 0 71 34.5t25 84.5q0 51 -25 85t-71 34h-90v-238z"/>
    <glyph glyph-name="uni0421" unicode="С" horiz-adv-x="564" d="M52 340q0 79 19.5 144.5t57.5 112.5t93.5 72.5t127.5 25.5q43 0 87.5 -11t86.5 -33l-33 -95q-40 21 -74 27t-67 6q-39 0 -70.5 -18.5t-53.5 -51.5t-34 -78.5t-12 -100.5t12 -100.5t34 -78.5t53.5 -51.5t70.5 -18.5q33 0 67 6t74 27l33 -95q-42 -22 -86.5 -33t-87.5 -11 q-72 0 -127.5 25.5t-93.5 72.5t-57.5 112t-19.5 145z"/>
    <glyph glyph-name="uni0422" unicode="Т" horiz-adv-x="527" d="M499 680v-103h-173v-577h-125v577h-173v103h471z"/>
    <glyph glyph-name="uni0423" unicode="У" horiz-adv-x="529" d="M518 670l-190 -505q-19 -50 -39 -82t-45 -50.5t-57 -25.5t-74 -7h-38v103h28q42 0 64.5 16.5t37.5 58.5l9 25l-195 467v10h138l77 -215l39 -131h2l38 131l73 215h132v-10z"/>
    <glyph glyph-name="uni0424" unicode="Ф" horiz-adv-x="757" d="M442 620q75 -7 127.5 -30.5t85.5 -60.5t48 -85t15 -104t-15 -104t-48 -85t-85.5 -60.5t-127.5 -30.5v-60h-125v59q-76 7 -129 30.5t-86.5 60.5t-48.5 85t-15 105q0 56 15 104.5t48.5 85t86.5 60t129 30.5v60h125v-60zM169 340q0 -34 7 -65t23.5 -56t45 -42t72.5 -23v372 q-44 -6 -72.5 -23.5t-45 -42t-23.5 -55.5t-7 -65zM587 340q0 34 -7 64.5t-23.5 55.5t-44.5 42t-70 23v-371q42 7 70 24t44.5 42t23.5 55.5t7 64.5z"/>
    <glyph glyph-name="uni0425" unicode="Х" horiz-adv-x="576" d="M160 680l128 -267h2l128 267h132v-10l-175 -329l175 -331v-10h-133l-127 267h-2l-128 -267h-133v10l174 331l-174 329v10h133z"/>
    <glyph glyph-name="uni0426" unicode="Ц" horiz-adv-x="693" d="M544 -141l-9 141h-451v680h125v-577h249v577h125v-577h70l-18 -244h-91z"/>
    <glyph glyph-name="uni0427" unicode="Ч" horiz-adv-x="609" d="M185 680v-291q0 -46 22 -70.5t72 -24.5q19 0 37 2.5t34 6t28.5 8t21.5 9.5v360h125v-680h-125v218q-27 -11 -65.5 -20t-90.5 -9q-88 0 -136 50t-48 138v303h125z"/>
    <glyph glyph-name="uni0428" unicode="Ш" horiz-adv-x="950" d="M84 0v680h125v-577h204v577h125v-577h203v577h125v-680h-782z"/>
    <glyph glyph-name="uni0429" unicode="Щ" horiz-adv-x="976" d="M827 -141l-9 141h-734v680h125v-577h204v577h125v-577h203v577h125v-577h70l-18 -244h-91z"/>
    <glyph glyph-name="uni042A" unicode="Ъ" horiz-adv-x="651" d="M27 680h242v-256h127q106 0 159.5 -53.5t53.5 -159.5q0 -104 -53.5 -157.5t-159.5 -53.5h-252v577h-117v103zM269 103h118q48 0 69.5 31t21.5 77q0 47 -21 78.5t-70 31.5h-118v-218z"/>
    <glyph glyph-name="uni042B" unicode="Ы" horiz-adv-x="833" d="M749 0h-125v680h125v-680zM84 680h125v-256h127q106 0 159.5 -53.5t53.5 -159.5q0 -104 -53.5 -157.5t-159.5 -53.5h-252v680zM209 103h118q48 0 69.5 31t21.5 77q0 47 -21 78.5t-70 31.5h-118v-218z"/>
    <glyph glyph-name="uni042C" unicode="Ь" horiz-adv-x="590" d="M84 680h125v-256h127q106 0 159.5 -53.5t53.5 -159.5q0 -104 -53.5 -157.5t-159.5 -53.5h-252v680zM209 103h118q48 0 69.5 31t21.5 77q0 47 -21 78.5t-70 31.5h-118v-218z"/>
    <glyph glyph-name="uni042D" unicode="Э" horiz-adv-x="564" d="M512 340q0 -80 -19.5 -145t-57.5 -112t-93.5 -72.5t-127.5 -25.5q-43 0 -87.5 11t-86.5 33l33 95q40 -21 74 -27t67 -6q34 0 62.5 14t50 40t35.5 62.5t19 80.5h-243v104h243q-5 44 -19 80.5t-35.5 62.5t-50 40t-62.5 14q-33 0 -67 -6t-74 -27l-33 95q42 22 86.5 33 t87.5 11q72 0 127.5 -25.5t93.5 -72.5t57.5 -112.5t19.5 -144.5z"/>
    <glyph glyph-name="uni042E" unicode="Ю" horiz-adv-x="979" d="M927 340q0 -75 -17.5 -139.5t-53.5 -112.5t-91.5 -75.5t-131.5 -27.5q-71 0 -123.5 23t-88.5 64t-56 97t-25 122h-131v-291h-125v680h125v-286h131q6 64 26.5 119.5t56.5 95.5t88 63t122 23q76 0 131.5 -27.5t91.5 -75.5t53.5 -112.5t17.5 -139.5zM466 340q0 -52 9 -97.5 t29 -79t52 -53t77 -19.5t77 19.5t51.5 53t28.5 79t9 97.5t-9 97t-28.5 79t-51.5 53.5t-77 19.5t-77 -19.5t-52 -53.5t-29 -79t-9 -97z"/>
    <glyph glyph-name="uni042F" unicode="Я" horiz-adv-x="620" d="M411 0v266h-85l-162 -266h-132v16l167 259q-67 17 -100 69t-33 130q0 97 51.5 151.5t160.5 54.5h258v-680h-125zM411 369v208h-127q-45 0 -67.5 -29.5t-22.5 -73.5q0 -45 22.5 -75t67.5 -30h127z"/>
    <glyph glyph-name="uni0430" unicode="а" horiz-adv-x="515" d="M258 211q-102 0 -102 -70q0 -27 14 -43.5t48 -16.5q28 0 59.5 10t50.5 23v97h-70zM359 0l-17 43h-2q-25 -20 -65 -39t-84 -19q-75 0 -114 43t-39 109q0 42 15.5 71.5t43.5 47.5t67.5 26.5t87.5 8.5h76v22q0 26 -9 42.5t-22.5 25.5t-28.5 12t-26 3q-40 0 -78.5 -12 t-71.5 -26l-33 94q38 17 88 31t102 14q104 0 153 -53t49 -146v-298h-92z"/>
    <glyph glyph-name="uni0431" unicode="б" horiz-adv-x="556" d="M172 378q9 15 22 28t30.5 23t38.5 16t47 6q47 0 84 -17t63 -47.5t40 -72.5t14 -93q0 -48 -14.5 -91t-43 -75.5t-71 -51t-99.5 -18.5q-116 0 -172.5 76t-56.5 212q0 101 10.5 173.5t34 121.5t60 77t88.5 40q25 6 60.5 10t71 7.5t65 6t44.5 5.5v-112q-14 -4 -40 -6 t-55.5 -4.5l-59 -5t-50.5 -6.5q-35 -7 -56.5 -22.5t-34.5 -40.5t-18 -59.5t-5 -79.5h3zM387 221q0 28 -7.5 51.5t-21 41t-32.5 27t-43 9.5t-43.5 -9.5t-33 -27t-21 -41t-7.5 -51.5q0 -29 7.5 -53.5t21 -42.5t33 -28.5t43.5 -10.5t43 10.5t32.5 28.5t21 42.5t7.5 53.5z"/>
    <glyph glyph-name="uni0432" unicode="в" horiz-adv-x="504" d="M188 86h87q19 0 32 6t20 15t10 20t3 22q0 22 -13 39.5t-52 17.5h-87v-120zM282 482q72 0 115 -31t43 -99q0 -44 -18 -68t-42 -37v-1q33 -11 56.5 -38t23.5 -72q0 -71 -43.5 -103.5t-125.5 -32.5h-221v482h212zM188 285h67q41 0 53 16.5t12 36.5q0 10 -2.5 20t-9 18.5 t-19.5 14t-34 5.5h-67v-111z"/>
    <glyph glyph-name="uni0433" unicode="г" horiz-adv-x="422" d="M397 482v-96h-209v-386h-118v482h327z"/>
    <glyph glyph-name="uni0434" unicode="д" horiz-adv-x="565" d="M36 -120l-18 218h49q12 15 20.5 39t14 51.5t8.5 57.5t5 57l8 179h351v-384h49l-17 -218h-82l-11 120h-285l-10 -120h-82zM356 98v288h-123l-5 -81q-2 -29 -4 -59.5t-5.5 -58.5t-8.5 -51t-12 -38h158z"/>
    <glyph glyph-name="uni0435" unicode="е" horiz-adv-x="505" d="M164 206q2 -27 11 -49.5t23.5 -39t34.5 -25.5t44 -9q40 0 73.5 9t64.5 23l28 -87q-32 -17 -78 -30t-98 -13q-56 0 -98 20.5t-70 55.5t-41.5 81.5t-13.5 99.5q0 51 14 97t41.5 81.5t68 56t93.5 20.5t91.5 -17t63 -45.5t36.5 -66t12 -79.5q0 -23 -2 -46.5t-4 -36.5h-294z M351 286q1 4 1 8v8q0 21 -4.5 40t-15 34t-28 23.5t-42.5 8.5q-23 0 -40 -10.5t-29 -27.5t-18.5 -39t-7.5 -45h184z"/>
    <glyph glyph-name="uni0436" unicode="ж" horiz-adv-x="747" d="M312 211l-160 -211h-134v7l182 231l-174 237v7h131l155 -230h1v230h121v-230h2l155 230h130v-7l-173 -237l181 -231v-7h-134l-159 211h-2v-211h-121v211h-1z"/>
    <glyph glyph-name="uni0437" unicode="з" horiz-adv-x="456" d="M106 290h112q31 0 44 13.5t13 36.5q0 13 -3.5 24t-12 19.5t-22.5 13t-35 4.5q-14 0 -31.5 -2t-35.5 -5t-35 -7.5t-32 -10.5l-23 90q32 14 75 23.5t81 9.5q104 0 150 -37.5t46 -102.5q0 -43 -16 -68.5t-45 -37.5v-2q36 -14 56 -44t20 -78q0 -32 -11.5 -58.5t-36.5 -45.5 t-64.5 -29.5t-96.5 -10.5q-53 0 -96 10.5t-75 26.5l21 92q29 -14 70.5 -22.5t79.5 -8.5q47 0 66 17t19 46q0 23 -14.5 35.5t-48.5 12.5h-119v96z"/>
    <glyph glyph-name="uni0438" unicode="и" horiz-adv-x="556" d="M186 160l33 73l134 249h133v-482h-118v228l4 94h-3l-43 -94l-123 -228h-133v482h118v-250l-5 -72h3z"/>
    <glyph glyph-name="uni0439" unicode="й" horiz-adv-x="556" d="M186 160l33 73l134 249h133v-482h-118v228l4 94h-3l-43 -94l-123 -228h-133v482h118v-250l-5 -72h3zM289 674q38 0 67 9.5t53 24.5l29 -74q-12 -12 -27 -23.5t-34 -21.5t-41 -16t-47 -6t-46.5 6t-40 16t-33.5 21.5t-27 23.5l29 74q24 -15 53 -24.5t65 -9.5z"/>
    <glyph glyph-name="uni043A" unicode="к" horiz-adv-x="502" d="M188 211v-211h-118v482h118v-230h2l155 230h131v-7l-169 -237l177 -231v-7h-134l-160 211h-2z"/>
    <glyph glyph-name="uni043B" unicode="л" horiz-adv-x="554" d="M366 386h-134l-10 -141q-6 -78 -20.5 -127t-38.5 -76.5t-58.5 -38t-80.5 -10.5v99q18 0 33 7t26.5 25.5t19 50t10.5 81.5l10 226h361v-482h-118v386z"/>
    <glyph glyph-name="uni043C" unicode="м" horiz-adv-x="642" d="M322 221l28 62l108 199h114v-482h-118v208l5 88h-1l-37 -82l-52 -99h-96l-51 99l-37 82h-2l5 -88v-208h-118v482h114l108 -199l28 -62h2z"/>
    <glyph glyph-name="uni043D" unicode="н" d="M363 192h-175v-192h-118v482h118v-192h175v192h117v-482h-117v192z"/>
    <glyph glyph-name="uni043E" unicode="о" horiz-adv-x="545" d="M169 241q0 -36 7 -65t20 -49t32 -30.5t44 -10.5t44.5 10.5t32.5 30.5t20 49t7 65t-7 65t-20 49t-32.5 30.5t-44.5 10.5t-44 -10.5t-32 -30.5t-20 -49t-7 -65zM502 241q0 -54 -14.5 -101t-43.5 -81.5t-72 -54t-100 -19.5q-56 0 -98.5 19.5t-71.5 54t-44 81.5t-15 101 t15 101t44 81.5t71.5 54t98.5 19.5q57 0 100 -19.5t72 -54t43.5 -81.5t14.5 -101z"/>
    <glyph glyph-name="uni043F" unicode="п" d="M363 386h-175v-386h-118v482h410v-482h-117v386z"/>
    <glyph glyph-name="uni0440" unicode="р" horiz-adv-x="552" d="M193 118q17 -14 40 -23t46 -9q27 0 46 12t31.5 32.5t18.5 49t6 61.5t-6 61.5t-18.5 49t-31.5 32.5t-46 12q-23 0 -46 -9t-40 -23v-246zM160 482l18 -43h2q23 19 56.5 38.5t81.5 19.5q46 0 81.5 -20.5t59.5 -55t36 -81.5t12 -99q0 -53 -12 -99.5t-36 -81t-59.5 -55 t-81.5 -20.5q-23 0 -41 4.5t-33 12t-27 16.5t-22 17h-2v-233h-123v680h90z"/>
    <glyph glyph-name="uni0441" unicode="с" horiz-adv-x="449" d="M43 241q0 57 15.5 104t45.5 81t73.5 52.5t99.5 18.5q40 0 76 -10t57 -20l-24 -92q-19 7 -44.5 14t-51.5 7t-48 -10t-38.5 -29.5t-25.5 -48.5t-9 -67t9 -67t25 -48.5t38.5 -29.5t48.5 -10t51.5 7t44.5 14l24 -92q-21 -10 -57 -20t-76 -10q-56 0 -99.5 18.5t-73.5 52.5 t-45.5 81t-15.5 104z"/>
    <glyph glyph-name="uni0442" unicode="т" horiz-adv-x="429" d="M403 482v-96h-130v-386h-118v386h-129v96h377z"/>
    <glyph glyph-name="uni0443" unicode="у" horiz-adv-x="499" d="M478 472l-187 -532q-29 -81 -70.5 -117t-98.5 -36q-24 0 -47.5 4t-38.5 8v90q14 -3 32.5 -6t32.5 -3q29 0 45 16.5t28 52.5l19 56l-175 467v10h125l82 -266l24 -100h3l23 100l78 266h125v-10z"/>
    <glyph glyph-name="uni0444" unicode="ф" horiz-adv-x="796" d="M459 105q17 -9 35 -14t39 -5q27 0 45 12t29 33t15.5 49.5t4.5 60.5t-4.5 60.5t-15.5 49.5t-29 33t-45 12q-21 0 -39 -5t-35 -14v-272zM337 377q-35 19 -75 19q-27 0 -45 -12t-28.5 -33t-15 -49.5t-4.5 -60.5t4.5 -60.5t15 -49.5t28.5 -33t45 -12q40 0 75 19v272zM461 465 q21 15 46 23.5t64 8.5q47 0 81 -20.5t56 -55t32.5 -81.5t10.5 -99q0 -53 -10.5 -99.5t-32.5 -81t-56 -55t-81 -20.5q-43 0 -67 11t-44 25h-1v-219h-122v219h-2q-20 -14 -44 -25t-66 -11q-47 0 -81 20.5t-56 55t-32.5 81t-10.5 99.5q0 52 10.5 99t32.5 81.5t56 55t81 20.5 q38 0 63.5 -9t46.5 -23h2v235h122v-235h2z"/>
    <glyph glyph-name="uni0445" unicode="х" horiz-adv-x="501" d="M250 176l-94 -176h-130v10l140 231l-140 231v10h130l94 -177h2l94 177h129v-10l-140 -231l140 -231v-10h-128l-95 176h-2z"/>
    <glyph glyph-name="uni0446" unicode="ц" horiz-adv-x="569" d="M436 -120l-11 120h-355v482h118v-387h167v387h119v-387h62l-18 -215h-82z"/>
    <glyph glyph-name="uni0447" unicode="ч" horiz-adv-x="494" d="M167 482v-198q0 -25 14 -40t47 -15q29 0 46.5 4.5t31.5 12.5v236h118v-482h-118v152q-23 -11 -49 -16.5t-59 -5.5q-37 0 -65 11.5t-46.5 31t-28 46t-9.5 55.5v208h118z"/>
    <glyph glyph-name="uni0448" unicode="ш" horiz-adv-x="760" d="M70 0v482h118v-387h133v387h118v-387h132v387h119v-482h-620z"/>
    <glyph glyph-name="uni0449" unicode="щ" horiz-adv-x="785" d="M652 -120l-11 120h-571v482h118v-387h133v387h118v-387h132v387h119v-387h62l-18 -215h-82z"/>
    <glyph glyph-name="uni044A" unicode="ъ" horiz-adv-x="529" d="M29 482h203v-167h90q87 0 129 -39.5t42 -119.5t-42 -118t-129 -38h-208v386h-85v96zM232 92h83q17 0 27.5 6.5t16.5 16t8 21t2 20.5t-2 20.5t-8 21.5t-16.5 16.5t-27.5 6.5h-83v-129z"/>
    <glyph glyph-name="uni044B" unicode="ы" horiz-adv-x="704" d="M188 482v-168h90q86 0 128.5 -39t42.5 -119t-42.5 -118t-128.5 -38h-208v482h118zM188 92h83q17 0 27.5 6.5t16.5 16t8 21t2 20.5t-2 20.5t-8 21.5t-16.5 16.5t-27.5 6.5h-83v-129zM511 0v482h123v-482h-123z"/>
    <glyph glyph-name="uni044C" unicode="ь" horiz-adv-x="485" d="M188 482v-168h90q86 0 128.5 -39t42.5 -119t-42.5 -118t-128.5 -38h-208v482h118zM188 92h83q17 0 27.5 6.5t16.5 16t8 21t2 20.5t-2 20.5t-8 21.5t-16.5 16.5t-27.5 6.5h-83v-129z"/>
    <glyph glyph-name="uni044D" unicode="э" horiz-adv-x="458" d="M414 241q0 -56 -15.5 -102.5t-45.5 -79.5t-74.5 -51.5t-101.5 -18.5q-34 0 -70 7.5t-69 24.5l31 93q30 -13 54 -19.5t54 -6.5q42 0 71.5 28t37.5 76h-170v96h170q-8 48 -37.5 77.5t-71.5 29.5q-30 0 -54 -7t-54 -20l-31 94q33 16 69 23.5t70 7.5q57 0 101.5 -18.5 t74.5 -51.5t45.5 -79.5t15.5 -102.5v0z"/>
    <glyph glyph-name="uni044E" unicode="ю" horiz-adv-x="785" d="M741 241q0 -54 -14.5 -101t-43.5 -81.5t-72 -54t-100 -19.5q-50 0 -89.5 15.5t-68 43t-45.5 66t-23 84.5h-97v-194h-118v482h118v-192h97q6 45 23.5 83t46 65.5t67.5 43t89 15.5q57 0 100 -19.5t72 -54t43.5 -81.5t14.5 -101zM408 241q0 -36 7 -65t20 -49t32 -30.5 t44 -10.5t44.5 10.5t32.5 30.5t20 49t7 65t-7 65t-20 49t-32.5 30.5t-44.5 10.5t-44 -10.5t-32 -30.5t-20 -49t-7 -65z"/>
    <glyph glyph-name="uni044F" unicode="я" horiz-adv-x="515" d="M327 0v159h-48l-125 -159h-124v11l125 157q-53 16 -77 57.5t-24 95.5q0 35 10 64.5t31 51t54 33.5t79 12h217v-482h-118zM327 386h-93q-29 0 -42.5 -19t-13.5 -46t13.5 -46.5t42.5 -19.5h93v131z"/>
    <glyph glyph-name="uni0450" unicode="ѐ" horiz-adv-x="505" d="M164 206q2 -27 11 -49.5t23.5 -39t34.5 -25.5t44 -9q40 0 73.5 9t64.5 23l28 -87q-32 -17 -78 -30t-98 -13q-56 0 -98 20.5t-70 55.5t-41.5 81.5t-13.5 99.5q0 51 14 97t41.5 81.5t68 56t93.5 20.5t91.5 -17t63 -45.5t36.5 -66t12 -79.5q0 -23 -2 -46.5t-4 -36.5h-294z M351 286q1 4 1 8v8q0 21 -4.5 40t-15 34t-28 23.5t-42.5 8.5q-23 0 -40 -10.5t-29 -27.5t-18.5 -39t-7.5 -45h184zM141 713h128l71 -136v-10h-106l-93 137v9z"/>
    <glyph glyph-name="uni0451" unicode="ё" horiz-adv-x="505" d="M164 206q2 -27 11 -49.5t23.5 -39t34.5 -25.5t44 -9q40 0 73.5 9t64.5 23l28 -87q-32 -17 -78 -30t-98 -13q-56 0 -98 20.5t-70 55.5t-41.5 81.5t-13.5 99.5q0 51 14 97t41.5 81.5t68 56t93.5 20.5t91.5 -17t63 -45.5t36.5 -66t12 -79.5q0 -23 -2 -46.5t-4 -36.5h-294z M351 286q1 4 1 8v8q0 21 -4.5 40t-15 34t-28 23.5t-42.5 8.5q-23 0 -40 -10.5t-29 -27.5t-18.5 -39t-7.5 -45h184zM297 640q0 31 19.5 50t51.5 19q33 0 52.5 -19t19.5 -50t-19.5 -50t-52.5 -19q-32 0 -51.5 19t-19.5 50zM99 640q0 31 19.5 50t51.5 19q33 0 52.5 -19 t19.5 -50t-19.5 -50t-52.5 -19q-32 0 -51.5 19t-19.5 50z"/>
    <glyph glyph-name="uni0452" unicode="ђ" horiz-adv-x="538" d="M70 0v545h-45v93h45v62h121v-62h95v-93h-95v-103h2q9 9 22.5 18.5t30 17.5t36 13.5t41.5 5.5q39 0 69 -15t51 -45t32 -75.5t11 -106.5q0 -54 -7 -107.5t-19 -105.5t-28.5 -102t-35.5 -97l-100 51q31 81 48.5 177t17.5 184q0 72 -19 106.5t-58 34.5q-17 0 -31 -4.5 t-26 -11t-21 -15t-16 -15.5v-350h-121z"/>
    <glyph glyph-name="uni0453" unicode="ѓ" horiz-adv-x="422" d="M397 482v-96h-209v-386h-118v482h327zM382 704l-93 -137h-106v10l71 136h128v-9z"/>
    <glyph glyph-name="uni0454" unicode="є" horiz-adv-x="456" d="M44 241q0 56 15.5 102.5t45.5 79.5t74.5 51.5t101.5 18.5q34 0 70 -7.5t69 -23.5l-31 -94q-30 13 -54 20t-54 7q-42 0 -71.5 -29.5t-37.5 -77.5h170v-96h-170q8 -48 37.5 -76t71.5 -28q30 0 54 6.5t54 19.5l31 -93q-33 -17 -69 -24.5t-70 -7.5q-57 0 -101.5 18.5 t-74.5 51.5t-45.5 79.5t-15.5 102.5v0z"/>
    <glyph glyph-name="uni0455" unicode="ѕ" horiz-adv-x="440" d="M73 121q32 -18 68.5 -29t71.5 -11t51.5 15t16.5 39q0 23 -15 34.5t-44 19.5l-57 15q-23 6 -44 16.5t-37.5 27t-26.5 40t-10 55.5q0 35 12.5 63.5t35.5 48.5t57 31t76 11q50 0 87 -9t75 -26l-33 -89q-29 13 -61.5 20.5t-64.5 7.5q-33 0 -49 -14t-16 -38q0 -21 14.5 -32 t40.5 -19l56 -15q26 -7 48.5 -18t39 -28t26 -40.5t9.5 -55.5q0 -37 -13 -66t-37 -49t-58 -30.5t-75 -10.5q-28 0 -52 3t-46 9t-42.5 14.5t-39.5 19.5l36 90v0z"/>
    <glyph glyph-name="uni0456" unicode="і" horiz-adv-x="263" d="M70 0v482h123v-482h-123zM61 639q0 31 19.5 50t51.5 19q33 0 52.5 -19t19.5 -50t-19.5 -50t-52.5 -19q-32 0 -51.5 19t-19.5 50z"/>
    <glyph glyph-name="uni0457" unicode="ї" horiz-adv-x="263" d="M70 0v482h123v-482h-123zM159 640q0 31 19.5 50t51.5 19q33 0 52.5 -19t19.5 -50t-19.5 -50t-52.5 -19q-32 0 -51.5 19t-19.5 50zM-39 640q0 31 19.5 50t51.5 19q33 0 52.5 -19t19.5 -50t-19.5 -50t-52.5 -19q-32 0 -51.5 19t-19.5 50z"/>
    <glyph glyph-name="uni0458" unicode="ј" horiz-adv-x="263" d="M193 482v-525q0 -45 -11.5 -77t-32 -53t-49.5 -30.5t-64 -9.5q-14 0 -31.5 2t-31.5 5v93q12 -4 27.5 -5.5t26.5 -1.5q43 0 43 70v532h123zM61 639q0 31 19.5 50t51.5 19t52 -19t20 -50t-20 -50t-52 -19t-51.5 19t-19.5 50z"/>
    <glyph glyph-name="uni0459" unicode="љ" horiz-adv-x="749" d="M452 482v-168h90q86 0 128.5 -39t42.5 -119t-42.5 -118t-128.5 -38h-208v386h-102l-9 -141q-6 -78 -20.5 -127t-39 -76.5t-59 -38t-80.5 -10.5v99q18 0 33 7t26.5 25.5t19 50t10.5 81.5l11 226h328zM452 95h83q17 0 27.5 6t16.5 15t8 20t2 20t-2 20t-8 20.5t-16.5 15.5 t-27.5 6h-83v-123z"/>
    <glyph glyph-name="uni045A" unicode="њ" horiz-adv-x="762" d="M465 482v-168h90q86 0 128.5 -39t42.5 -119t-42.5 -118t-128.5 -38h-208v218h-159v-218h-118v482h118v-168h159v168h118zM465 95h83q17 0 27.5 6t16.5 15t8 20t2 20t-2 20t-8 20.5t-16.5 15.5t-27.5 6h-83v-123z"/>
    <glyph glyph-name="uni045B" unicode="ћ" d="M362 0v295q0 48 -19 74.5t-58 26.5q-17 0 -30.5 -4.5t-25 -11.5t-20.5 -15.5t-16 -15.5v-349h-123v545h-44v93h44v62h123v-62h94v-93h-94v-102h2q9 9 22.5 18.5t30 17.5t35.5 13t41 5q78 0 119.5 -50t41.5 -138v-309h-123z"/>
    <glyph glyph-name="uni045C" unicode="ќ" horiz-adv-x="502" d="M188 211v-211h-118v482h118v-230h2l155 230h131v-7l-169 -237l177 -231v-7h-134l-160 211h-2zM405 704l-93 -137h-106v10l71 136h128v-9z"/>
    <glyph glyph-name="uni045D" unicode="ѝ" horiz-adv-x="556" d="M186 160l33 73l134 249h133v-482h-118v228l4 94h-3l-43 -94l-123 -228h-133v482h118v-250l-5 -72h3zM154 713h128l71 -136v-10h-106l-93 137v9z"/>
    <glyph glyph-name="uni045E" unicode="ў" horiz-adv-x="499" d="M478 472l-187 -532q-29 -81 -70.5 -117t-98.5 -36q-24 0 -47.5 4t-38.5 8v90q14 -3 32.5 -6t32.5 -3q29 0 45 16.5t28 52.5l19 56l-175 467v10h125l82 -266l24 -100h3l23 100l78 266h125v-10zM262 674q38 0 67 9.5t53 24.5l29 -74q-12 -12 -27 -23.5t-34 -21.5t-41 -16 t-47 -6t-46.5 6t-40 16t-33.5 21.5t-27 23.5l29 74q24 -15 53 -24.5t65 -9.5z"/>
    <glyph glyph-name="uni045F" unicode="џ" horiz-adv-x="544" d="M232 -120l-13 120h-149v482h118v-387h167v387h119v-482h-148l-12 -120h-82z"/>
    <glyph glyph-name="uni0462" unicode="Ѣ" horiz-adv-x="660" d="M283 680v-61h174v-103h-174v-92h127q106 0 159.5 -53.5t53.5 -159.5q0 -104 -53.5 -157.5t-159.5 -53.5h-252v516h-125v103h125v61h125zM283 103h118q48 0 69.5 31t21.5 77q0 47 -21 78.5t-70 31.5h-118v-218z"/>
    <glyph glyph-name="uni0463" unicode="ѣ" horiz-adv-x="526" d="M233 701v-219h143v-96h-143v-72h90q86 0 128.5 -39t42.5 -119t-42.5 -118t-128.5 -38h-208v386h-86v96h86v219h118zM233 95h83q17 0 27.5 6t16.5 15t8 20t2 20t-2 20t-8 20.5t-16.5 15.5t-27.5 6h-83v-123z"/>
    <glyph glyph-name="uni0472" unicode="Ѳ" horiz-adv-x="693" d="M641 340q0 -75 -17.5 -139.5t-53.5 -112.5t-91.5 -75.5t-131.5 -27.5q-77 0 -132.5 27.5t-91.5 75.5t-53.5 112.5t-17.5 139.5t17.5 139.5t53.5 112.5t91.5 75.5t132.5 27.5q76 0 131.5 -27.5t91.5 -75.5t53.5 -112.5t17.5 -139.5zM347 91q40 0 69.5 15.5t49.5 42.5 t31 64.5t14 81.5h-330q4 -44 15 -81.5t31 -64.5t49.5 -42.5t70.5 -15.5zM347 589q-40 0 -69 -15t-49 -41t-31.5 -62.5t-15.5 -78.5h329q-4 42 -15.5 78.5t-31.5 62.5t-49 41t-68 15z"/>
    <glyph glyph-name="uni0473" unicode="ѳ" horiz-adv-x="546" d="M502 241q0 -54 -14.5 -101t-43.5 -81.5t-72 -54t-100 -19.5q-56 0 -98.5 19.5t-71.5 54t-44 81.5t-15 101t15 101t44 81.5t71.5 54t98.5 19.5q57 0 100 -19.5t72 -54t43.5 -81.5t14.5 -101zM272 86q21 0 38 7.5t29.5 21.5t21 34.5t12.5 46.5h-201q4 -26 12 -46.5 t21 -34.5t29.5 -21.5t37.5 -7.5zM272 396q-21 0 -37.5 -7.5t-29.5 -21.5t-21 -34.5t-12 -46.5h201q-4 26 -12.5 46.5t-21 34.5t-29.5 21.5t-38 7.5z"/>
    <glyph glyph-name="uni0474" unicode="Ѵ" horiz-adv-x="628" d="M383 0h-152l-216 670v10h133l113 -388l45 -184h3l46 185l75 265q10 36 24 61.5t34.5 42.5t49.5 25t68 8v-106q-26 0 -41 -20.5t-25 -53.5z"/>
    <glyph glyph-name="uni0475" unicode="ѵ" horiz-adv-x="513" d="M334 385q8 25 19 45.5t28.5 34t42.5 21t61 7.5v-98q-19 0 -29 -16.5t-15 -31.5l-121 -347h-134l-166 472v10h121l86 -279l25 -101h2l25 101z"/>
    <glyph glyph-name="uni0490" unicode="Ґ" horiz-adv-x="517" d="M479 821l15 -244h-285v-577h-125v680h283l15 141h97z"/>
    <glyph glyph-name="uni0491" unicode="ґ" horiz-adv-x="420" d="M388 588l9 -202h-209v-386h-118v482h219l15 106h84z"/>
    <glyph glyph-name="uni0E3F" unicode="฿" d="M313 678q85 -7 130.5 -50.5t45.5 -131.5q0 -55 -21 -90t-50 -51v-2q45 -19 69.5 -57.5t24.5 -101.5q0 -95 -46 -142.5t-153 -51.5v-108h-73v108h-173v680h173v90h73v-92zM380 204q0 41 -15 66.5t-52 26.5v-190q35 0 51 27.5t16 69.5zM194 106h46v193h-46v-193zM194 399 h46v175h-46v-175zM367 483q0 38 -13.5 62.5t-40.5 26.5v-171q26 1 40 22.5t14 59.5z"/>
    <glyph glyph-name="Wgrave" unicode="Ẁ" horiz-adv-x="930" d="M904 670l-166 -670h-148l-94 400l-29 166h-2l-30 -166l-94 -400h-149l-166 670v10h134l79 -395l30 -169h2l30 169l91 395h146l91 -395l30 -169h2l30 169l79 395h134v-10zM325 896h136l63 -136v-10h-115l-84 137v9z"/>
    <glyph glyph-name="wgrave" unicode="ẁ" horiz-adv-x="779" d="M752 472l-129 -472h-135l-80 285l-18 99h-2l-18 -99l-80 -285h-134l-129 472v10h118l67 -284l14 -97h2l20 97l75 284h133l75 -284l20 -97h2l14 97l66 284h119v-10zM241 713h128l71 -136v-10h-106l-93 137v9z"/>
    <glyph glyph-name="Wacute" unicode="Ẃ" horiz-adv-x="930" d="M904 670l-166 -670h-148l-94 400l-29 166h-2l-30 -166l-94 -400h-149l-166 670v10h134l79 -395l30 -169h2l30 169l91 395h146l91 -395l30 -169h2l30 169l79 395h134v-10zM611 887l-84 -137h-115v10l63 136h136v-9z"/>
    <glyph glyph-name="wacute" unicode="ẃ" horiz-adv-x="779" d="M752 472l-129 -472h-135l-80 285l-18 99h-2l-18 -99l-80 -285h-134l-129 472v10h118l67 -284l14 -97h2l20 97l75 284h133l75 -284l20 -97h2l14 97l66 284h119v-10zM540 704l-93 -137h-106v10l71 136h128v-9z"/>
    <glyph glyph-name="Wdieresis" unicode="Ẅ" horiz-adv-x="930" d="M904 670l-166 -670h-148l-94 400l-29 166h-2l-30 -166l-94 -400h-149l-166 670v10h134l79 -395l30 -169h2l30 169l91 395h146l91 -395l30 -169h2l30 169l79 395h134v-10zM278 818q0 31 19.5 50t51.5 19q33 0 52.5 -19t19.5 -50t-19.5 -50t-52.5 -19q-32 0 -51.5 19 t-19.5 50zM512 818q0 31 19.5 50t51.5 19q33 0 52.5 -19t19.5 -50t-19.5 -50t-52.5 -19q-32 0 -51.5 19t-19.5 50z"/>
    <glyph glyph-name="wdieresis" unicode="ẅ" horiz-adv-x="779" d="M752 472l-129 -472h-135l-80 285l-18 99h-2l-18 -99l-80 -285h-134l-129 472v10h118l67 -284l14 -97h2l20 97l75 284h133l75 -284l20 -97h2l14 97l66 284h119v-10zM417 640q0 31 19.5 50t51.5 19q33 0 52.5 -19t19.5 -50t-19.5 -50t-52.5 -19q-32 0 -51.5 19t-19.5 50z M219 640q0 31 19.5 50t51.5 19q33 0 52.5 -19t19.5 -50t-19.5 -50t-52.5 -19q-32 0 -51.5 19t-19.5 50z"/>
    <glyph glyph-name="uni1E9E" unicode="ẞ" horiz-adv-x="649" d="M79 441q0 58 14.5 105t45.5 80t79.5 51t116.5 18q59 0 115 -21t100 -50v-83l-102 -150v-2q36 -6 66 -21t51 -39t32.5 -56.5t11.5 -72.5q0 -49 -15.5 -89t-43 -68t-66.5 -43t-87 -15q-36 0 -61 3t-47 7v105q17 -3 39 -6.5t45 -3.5q27 0 46.5 8.5t32 23t19 35t6.5 44.5 q0 39 -21.5 67t-71.5 28h-65v88l111 175q-19 11 -45.5 19t-55.5 8q-62 0 -93 -36t-31 -107v-443h-126v441z"/>
    <glyph glyph-name="Ygrave" unicode="Ỳ" horiz-adv-x="558" d="M140 680l138 -292h2l138 292h134v-10l-210 -394v-276h-125v276l-211 394v10h134zM139 896h136l63 -136v-10h-115l-84 137v9z"/>
    <glyph glyph-name="ygrave" unicode="ỳ" horiz-adv-x="499" d="M478 472l-187 -532q-29 -81 -70.5 -117t-98.5 -36q-24 0 -47.5 4t-38.5 8v90q14 -3 32.5 -6t32.5 -3q29 0 45 16.5t28 52.5l19 56l-175 467v10h125l82 -266l24 -100h3l23 100l78 266h125v-10zM104 713h128l71 -136v-10h-106l-93 137v9z"/>
    <glyph glyph-name="endash" unicode="–" horiz-adv-x="545" d="M65 220v103h415v-103h-415z"/>
    <glyph glyph-name="emdash" unicode="—" horiz-adv-x="841" d="M65 220v103h711v-103h-711z"/>
    <glyph glyph-name="quoteleft" unicode="‘" horiz-adv-x="270" d="M228 670l-60 -286h-123v10l91 286h92v-10z"/>
    <glyph glyph-name="quoteright" unicode="’" horiz-adv-x="267" d="M50 394l60 286h123v-10l-91 -286h-92v10z"/>
    <glyph glyph-name="quotesinglbase" unicode="‚" horiz-adv-x="258" d="M20 -151l60 286h123v-10l-91 -286h-92v10z"/>
    <glyph glyph-name="quotedblleft" unicode="“" horiz-adv-x="479" d="M437 670l-60 -286h-123v10l91 286h92v-10zM228 670l-60 -286h-123v10l91 286h92v-10z"/>
    <glyph glyph-name="quotedblright" unicode="”" horiz-adv-x="477" d="M50 394l60 286h123v-10l-91 -286h-92v10zM260 394l60 286h123v-10l-91 -286h-92v10z"/>
    <glyph glyph-name="quotedblbase" unicode="„" horiz-adv-x="468" d="M20 -151l60 286h123v-10l-91 -286h-92v10zM230 -151l60 286h123v-10l-91 -286h-92v10z"/>
    <glyph glyph-name="dagger" unicode="†" horiz-adv-x="433" d="M177 482v218h80v-218h149v-81h-149v-599h-80v599h-150v81h150z"/>
    <glyph glyph-name="daggerdbl" unicode="‡" horiz-adv-x="474" d="M198 482v218h80v-218h148v-81h-148v-300h148v-81h-148v-218h-80v218h-150v81h150v300h-150v81h150z"/>
    <glyph glyph-name="bullet" unicode="•" horiz-adv-x="378" d="M76 291q0 50 30.5 82t82.5 32t82.5 -32t30.5 -82t-30.5 -82t-82.5 -32t-82.5 32t-30.5 82z"/>
    <glyph glyph-name="ellipsis" unicode="…" horiz-adv-x="747" d="M53 67q0 36 22 59.5t57 23.5q36 0 58 -23.5t22 -59.5t-22 -59t-58 -23q-35 0 -57 23t-22 59zM295 67q0 36 22 59.5t57 23.5q36 0 58 -23.5t22 -59.5t-22 -59t-58 -23q-35 0 -57 23t-22 59zM535 67q0 36 22 59.5t57 23.5q36 0 58 -23.5t22 -59.5t-22 -59t-58 -23 q-35 0 -57 23t-22 59z"/>
    <glyph glyph-name="perthousand" unicode="‰" horiz-adv-x="1151" d="M909 175q0 -57 16.5 -81.5t41.5 -24.5q29 0 45 24.5t16 81.5q0 55 -16 80.5t-45 25.5q-25 0 -41.5 -26t-16.5 -80zM1117 175q0 -38 -9 -71t-27 -58t-46.5 -39.5t-67.5 -14.5q-38 0 -65.5 14.5t-45.5 39.5t-26.5 58t-8.5 71q0 37 8.5 70.5t26.5 58.5t45.5 39.5t65.5 14.5 q39 0 67.5 -14.5t46.5 -39.5t27 -58.5t9 -70.5zM126 503q0 -57 16.5 -81.5t41.5 -24.5q29 0 45 24.5t16 81.5q0 55 -16 80.5t-45 25.5q-25 0 -41.5 -26t-16.5 -80zM334 503q0 -38 -9 -71t-27 -58t-46.5 -39.5t-67.5 -14.5q-38 0 -65.5 14.5t-45.5 39.5t-26.5 58t-8.5 71 q0 37 8.5 70.5t26.5 58.5t45.5 39.5t65.5 14.5q39 0 67.5 -14.5t46.5 -39.5t27 -58.5t9 -70.5zM559 175q0 -57 16.5 -81.5t41.5 -24.5q29 0 45 24.5t16 81.5q0 55 -16 80.5t-45 25.5q-25 0 -41.5 -26t-16.5 -80zM767 175q0 -38 -9 -71t-27 -58t-46.5 -39.5t-67.5 -14.5 q-38 0 -65.5 14.5t-45.5 39.5t-26.5 58t-8.5 71q0 37 8.5 70.5t26.5 58.5t45.5 39.5t65.5 14.5q39 0 67.5 -14.5t46.5 -39.5t27 -58.5t9 -70.5zM125 0v10l456 670h104v-10l-456 -670h-104z"/>
    <glyph glyph-name="guilsinglleft" unicode="‹" horiz-adv-x="313" d="M36 276l147 219l82 -49l-91 -177l92 -176l-83 -48l-147 219v12z"/>
    <glyph glyph-name="guilsinglright" unicode="›" horiz-adv-x="313" d="M277 264l-147 -219l-82 49l91 177l-92 176l83 48l147 -219v-12z"/>
    <glyph glyph-name="fraction" unicode="⁄" horiz-adv-x="160" d="M-200 0v10l456 670h104v-10l-456 -670h-104z"/>
    <glyph glyph-name="zerosuperior" unicode="⁰" horiz-adv-x="352" d="M117 623q0 -57 16.5 -81.5t41.5 -24.5q29 0 45 24.5t16 81.5q0 55 -16 80.5t-45 25.5q-25 0 -41.5 -26t-16.5 -80zM325 623q0 -38 -9 -71t-27 -58t-46.5 -39.5t-67.5 -14.5q-38 0 -65.5 14.5t-45.5 39.5t-26.5 58t-8.5 71q0 37 8.5 70.5t26.5 58.5t45.5 39.5t65.5 14.5 q39 0 67.5 -14.5t46.5 -39.5t27 -58.5t9 -70.5z"/>
    <glyph glyph-name="foursuperior" unicode="⁴" horiz-adv-x="327" d="M265 686v-89h38v-75h-38v-74h-85v74h-161v68l81 209h87l-75 -201v-1h68v89h85z"/>
    <glyph glyph-name="fivesuperior" unicode="⁵" horiz-adv-x="300" d="M45 603l16 196h199v-76h-125l-4 -47h15q56 0 91 -25.5t35 -88.5q0 -57 -37 -89.5t-109 -32.5q-14 0 -44.5 3t-62.5 14l19 79q22 -10 45.5 -14t45.5 -4q31 0 42.5 11.5t11.5 31.5q0 18 -12.5 28.5t-41.5 10.5q-20 0 -38.5 -1.5t-35.5 -3.5z"/>
    <glyph glyph-name="sixsuperior" unicode="⁶" horiz-adv-x="317" d="M239 793l-85 -117v-1q7 2 18.5 4t24.5 2q39 0 68.5 -29t29.5 -85q0 -28 -9.5 -51.5t-27 -40t-42.5 -26t-56 -9.5q-35 0 -60.5 10.5t-42 28.5t-24.5 41t-8 47q0 17 6 39.5t23 50.5l90 142h95v-6zM208 567q0 23 -12 35t-36 12q-23 0 -36 -12t-13 -35q0 -26 13 -38.5 t36 -12.5q24 0 36 12.5t12 38.5z"/>
    <glyph glyph-name="sevensuperior" unicode="⁷" horiz-adv-x="288" d="M44 453l137 269v1h-160v76h252v-70l-140 -281h-89v5z"/>
    <glyph glyph-name="eightsuperior" unicode="⁸" horiz-adv-x="326" d="M164 509q29 0 40.5 12t11.5 29t-11.5 30t-40.5 13q-31 0 -42 -13t-11 -30t11.5 -29t41.5 -12zM164 806q57 0 89.5 -28t32.5 -71q0 -32 -16 -49t-34 -25v-1q28 -10 46 -31.5t18 -56.5q0 -48 -37.5 -76t-98.5 -28q-62 0 -99 28t-37 76q0 35 18 56.5t45 31.5v1 q-18 8 -33.5 25t-15.5 49q0 43 33 71t89 28zM164 662q23 0 33 11t10 28q0 15 -10 26.5t-33 11.5t-33 -11.5t-10 -26.5q0 -17 10 -28t33 -11z"/>
    <glyph glyph-name="ninesuperior" unicode="⁹" horiz-adv-x="316" d="M78 454l85 117v1q-8 -2 -19.5 -4t-24.5 -2q-19 0 -36.5 7t-31 21.5t-21.5 35.5t-8 49t9.5 52t27 40.5t42 26t55.5 9.5q35 0 61 -10.5t42.5 -28.5t24.5 -41t8 -48q0 -17 -6 -39t-23 -50l-90 -142h-95v6zM109 681q0 -23 12 -36t35 -13t36.5 13t13.5 36q0 26 -13.5 38 t-36.5 12t-35 -12t-12 -38z"/>
    <glyph glyph-name="plussuperior" unicode="⁺" horiz-adv-x="243" d="M155 661h61v-68h-61v-71h-69v71h-59v68h59v72h69v-72z"/>
    <glyph glyph-name="minussuperior" unicode="⁻" horiz-adv-x="269" d="M41 593v68h189v-68h-189z"/>
    <glyph glyph-name="parenleftsuperior" unicode="⁽" horiz-adv-x="172" d="M25 623q0 42 7 79.5t18.5 69t25 58t26.5 47.5l50 -29q-21 -50 -35.5 -102.5t-14.5 -122.5q0 -69 14.5 -121.5t35.5 -103.5l-50 -28q-13 21 -26.5 47.5t-25 58t-18.5 68.5t-7 79z"/>
    <glyph glyph-name="parenrightsuperior" unicode="⁾" horiz-adv-x="171" d="M147 623q0 -42 -7.5 -79t-18.5 -68.5t-24.5 -58t-26.5 -47.5l-50 28q21 51 35.5 103.5t14.5 121.5q0 70 -14.5 122.5t-35.5 102.5l50 29q13 -21 26.5 -47.5t24.5 -58t18.5 -69t7.5 -79.5v0z"/>
    <glyph glyph-name="zeroinferior" unicode="₀" horiz-adv-x="353" d="M117 56q0 -57 16.5 -81.5t41.5 -24.5q29 0 45 24.5t16 81.5q0 55 -16 80.5t-45 25.5q-25 0 -41.5 -26t-16.5 -80zM325 56q0 -38 -9 -71t-27 -58t-46.5 -39.5t-67.5 -14.5q-38 0 -65.5 14.5t-45.5 39.5t-26.5 58t-8.5 71q0 37 8.5 70.5t26.5 58.5t45.5 39.5t65.5 14.5 q39 0 67.5 -14.5t46.5 -39.5t27 -58.5t9 -70.5z"/>
    <glyph glyph-name="oneinferior" unicode="₁" horiz-adv-x="253" d="M18 100v78l123 54h64v-351h-85v259h-1l-94 -40h-7z"/>
    <glyph glyph-name="twoinferior" unicode="₂" horiz-adv-x="312" d="M150 -45h132v-74h-254v67l136 118q25 21 25 52q0 19 -11.5 31.5t-31.5 12.5q-23 0 -39 -12.5t-32 -28.5l-48 58q7 9 18.5 19.5t26.5 19.5t35 15t44 6q26 0 49 -7.5t40 -21.5t27 -36t10 -50q0 -37 -18.5 -63.5t-44.5 -48.5l-64 -54v-3z"/>
    <glyph glyph-name="threeinferior" unicode="₃" horiz-adv-x="310" d="M77 93h64q23 0 33 9t10 26q0 14 -10.5 24t-36.5 10q-20 0 -43.5 -4.5t-40.5 -12.5l-24 71q22 9 49.5 16t60.5 7q64 0 98.5 -25.5t34.5 -73.5q0 -36 -17 -53.5t-36 -21.5v-1q27 -9 44.5 -30t17.5 -58q0 -46 -34 -74.5t-112 -28.5q-34 0 -62.5 7.5t-51.5 19.5l22 73 q17 -9 42 -15.5t50 -6.5q29 0 43.5 9t14.5 29q0 17 -12.5 23.5t-38.5 6.5h-65v74z"/>
    <glyph glyph-name="fourinferior" unicode="₄" horiz-adv-x="327" d="M264 119v-89h38v-75h-38v-74h-85v74h-161v68l81 209h87l-75 -201v-1h68v89h85z"/>
    <glyph glyph-name="fiveinferior" unicode="₅" horiz-adv-x="300" d="M44 36l16 196h199v-76h-125l-4 -47h15q56 0 91 -25.5t35 -88.5q0 -57 -37 -89.5t-109 -32.5q-14 0 -44.5 3t-62.5 14l19 79q22 -10 45.5 -14t45.5 -4q31 0 42.5 11.5t11.5 31.5q0 18 -12.5 28.5t-41.5 10.5q-20 0 -38.5 -1.5t-35.5 -3.5z"/>
    <glyph glyph-name="sixinferior" unicode="₆" horiz-adv-x="317" d="M239 226l-85 -117v-1q7 2 18.5 4t24.5 2q39 0 68.5 -29t29.5 -85q0 -28 -9.5 -51.5t-27 -40t-42.5 -26t-56 -9.5q-35 0 -60.5 10.5t-42 28.5t-24.5 41t-8 47q0 17 6 39.5t23 50.5l90 142h95v-6zM208 0q0 23 -12 35t-36 12q-23 0 -36 -12t-13 -35q0 -26 13 -38.5t36 -12.5 q24 0 36 12.5t12 38.5z"/>
    <glyph glyph-name="seveninferior" unicode="₇" horiz-adv-x="289" d="M44 -114l137 269v1h-160v76h252v-70l-140 -281h-89v5z"/>
    <glyph glyph-name="eightinferior" unicode="₈" horiz-adv-x="328" d="M164 -58q29 0 40.5 12t11.5 29t-11.5 30t-40.5 13q-31 0 -42 -13t-11 -30t11.5 -29t41.5 -12zM164 239q57 0 89.5 -28t32.5 -71q0 -32 -16 -49t-34 -25v-1q28 -10 46 -31.5t18 -56.5q0 -48 -37.5 -76t-98.5 -28q-62 0 -99 28t-37 76q0 35 18 56.5t45 31.5v1 q-18 8 -33.5 25t-15.5 49q0 43 33 71t89 28zM164 95q23 0 33 11t10 28q0 15 -10 26.5t-33 11.5t-33 -11.5t-10 -26.5q0 -17 10 -28t33 -11z"/>
    <glyph glyph-name="nineinferior" unicode="₉" horiz-adv-x="317" d="M78 -113l85 117v1q-8 -2 -19.5 -4t-24.5 -2q-19 0 -36.5 7t-31 21.5t-21.5 35.5t-8 49t9.5 52t27 40.5t42 26t55.5 9.5q35 0 61 -10.5t42.5 -28.5t24.5 -41t8 -48q0 -17 -6 -39t-23 -50l-90 -142h-95v6zM109 114q0 -23 12 -36t35 -13t36.5 13t13.5 36q0 26 -13.5 38 t-36.5 12t-35 -12t-12 -38z"/>
    <glyph glyph-name="parenleftinferior" unicode="₍" horiz-adv-x="172" d="M25 56q0 42 7 79.5t18.5 69t25 58t26.5 47.5l50 -29q-21 -50 -35.5 -102.5t-14.5 -122.5q0 -69 14.5 -121.5t35.5 -103.5l-50 -28q-13 21 -26.5 47.5t-25 58t-18.5 68.5t-7 79z"/>
    <glyph glyph-name="parenrightinferior" unicode="₎" horiz-adv-x="171" d="M147 56q0 -42 -7.5 -79t-18.5 -68.5t-24.5 -58t-26.5 -47.5l-50 28q21 51 35.5 103.5t14.5 121.5q0 70 -14.5 122.5t-35.5 102.5l50 29q13 -21 26.5 -47.5t24.5 -58t18.5 -69t7.5 -79.5v0z"/>
    <glyph glyph-name="uni20A1" unicode="₡" d="M460 675q14 -5 28.5 -11t28.5 -13l-34 -100q-12 5 -22.5 9.5t-21.5 8.5l-79 -475q31 2 59.5 10t63.5 25l34 -100q-42 -22 -88 -33t-88 -11h-1h-1l-17 -93h-63l17 99q-11 2 -22 5l-22 6l-19 -110h-64l24 139q-67 44 -102 123.5t-35 185.5q0 72 16.5 132.5t48.5 106.5 t79 74.5t109 37.5l14 79h64l-14 -75q12 -1 22.5 -2t22.5 -3l14 80h64zM254 119q10 -6 20.5 -11.5t22.5 -8.5l81 485q-9 1 -18.5 1.5t-18.5 0.5h-4.5h-4.5zM164 340q0 -53 11.5 -98t26.5 -74l63 411q-46 -26 -73.5 -89t-27.5 -150z"/>
    <glyph glyph-name="lira" unicode="₤" horiz-adv-x="542" d="M263 206q-2 -14 -6.5 -28t-10.5 -27.5t-13.5 -25.5t-15.5 -20v-2h273v-103h-424v86q18 11 30.5 24t20 27t10.5 29t3 31v9h-73v95h63q-2 15 -4 37.5t-4 39.5h-55v95h49v7v7q0 109 54.5 158.5t163.5 49.5q44 0 92 -12.5t88 -32.5l-34 -104q-35 16 -71 26t-75 10 q-41 0 -62 -22.5t-21 -72.5v-7v-7h174v-95h-165l8 -77h157v-95h-152z"/>
    <glyph glyph-name="uni20A6" unicode="₦" horiz-adv-x="635" d="M567 221v-221h-181l-79 221h-122v-221h-118v221h-45v83h45v75h-45v83h45v218h182l74 -218h126v218h118v-218h46v-83h-46v-75h46v-83h-46zM380 304h72l-2 75h-96zM181 379l3 -75h93l-26 75h-70zM459 97l-4 124h-43l44 -124h3zM170 589l7 -127h42l-46 127h-3z"/>
    <glyph glyph-name="rupee" unicode="₨" d="M389 410q-5 -34 -19 -62t-36.5 -48t-52.5 -33t-67 -17l197 -228v-16h-137l-213 261v86h98q43 0 68.5 14t32.5 43h-212l27 100h185q-7 29 -33 44.5t-68 15.5h-111l27 116h438l-27 -95h-166v-2q30 -14 44 -37t20 -42h129l-27 -100h-97z"/>
    <glyph glyph-name="uni20AA" unicode="₪" horiz-adv-x="700" d="M375 194v227q0 42 -5.5 71.5t-18 47.5t-34.5 26t-55 8h-86v-574h-129v680h215q69 0 112 -15.5t68 -47.5t34 -81.5t9 -117.5v-224h-110zM658 681v-419q0 -68 -12 -117.5t-40 -81.5t-74.5 -47.5t-115.5 -15.5h-196v486h111v-380h85q33 0 55 8t35 26t18 47.5t5 71.5v422h129 z"/>
    <glyph glyph-name="dong" unicode="₫" d="M464 575v-445h-100l-12 27h-2q-23 -15 -53 -27t-76 -12q-45 0 -79.5 16.5t-57.5 45t-35 66.5t-12 81q0 42 12 80t35 66.5t57.5 45t79.5 16.5q43 0 70 -10t45 -21h2v71h-89v81h89v44h126v-44h41v-81h-41zM338 419q-16 7 -36 12t-41 5q-24 0 -42 -8t-30 -22.5t-18 -34.5 t-6 -44t6 -44.5t18 -35.5t30 -23t42 -8q21 0 41 6t36 11v186zM68 0v81h395v-81h-395z"/>
    <glyph glyph-name="Euro" unicode="€" d="M227 206q14 -54 48 -81t81 -27q35 0 64.5 7.5t67.5 27.5l34 -104q-40 -22 -82.5 -33t-83.5 -11q-106 0 -171.5 59.5t-91.5 161.5h-73l28 95h31q-1 9 -1 19v20v19t1 19h-59l27 95h46q13 51 35.5 92t55.5 70t76 44.5t96 15.5q41 0 85 -11t81 -33l-34 -104q-37 19 -67 27 t-65 8q-46 0 -80 -27.5t-48 -81.5h237l-27 -95h-232v-19v-19v-20.5v-18.5h219l-27 -95h-171z"/>
    <glyph glyph-name="uni20AD" unicode="₭" d="M365 287l169 -277v-10h-149l-157 287h-25v-287h-130v287h-49v95h49v298h130v-298h25l151 298h145v-10l-162 -288h138v-95h-135z"/>
    <glyph glyph-name="uni20AE" unicode="₮" d="M430 240l-90 -34v-206h-130v159l-89 -33v83l89 33v67l-89 -33v83l89 33v182h-177v106h485v-106h-178v-135l90 34v-83l-90 -34v-67l90 34v-83z"/>
    <glyph glyph-name="uni20B1" unicode="₱" d="M468 308q-22 -73 -75.5 -116t-138.5 -43h-46v-149h-129v308h-45v80h45v55h-45v80h45v157h175q86 0 139.5 -42.5t75.5 -114.5h61v-80h-47q1 -5 1 -14v-14v-13.5t-1 -13.5h47v-80h-62zM355 415v14t-1 14h-150v-55h150q1 5 1 13.5v13.5zM250 253q34 0 56.5 18t27.5 39h-130 v-57h46zM204 521h127q-5 20 -26 37.5t-55 17.5h-46v-55z"/>
    <glyph glyph-name="uni20B2" unicode="₲" d="M317 695q51 -2 98.5 -17t76.5 -32l-34 -98q-26 15 -62.5 26t-78.5 12v-492q14 2 34.5 6t33.5 12v143l-38 11v99h154v-321q-34 -23 -83.5 -39t-100.5 -19v-94h-77v98q-50 9 -88.5 38.5t-64.5 75t-39.5 105.5t-13.5 131q0 63 12.5 120t38 103.5t64 79t91.5 45.5v82h77v-75z M164 340q0 -44 5.5 -82t15 -69t23.5 -53t32 -32v468q-18 -12 -32 -34t-24 -52.5t-15 -67.5t-5 -78z"/>
    <glyph glyph-name="uni20B4" unicode="₴" d="M198 206q-1 -5 -1 -9v-9q0 -43 22 -69.5t70 -26.5q19 0 41.5 5t45 13.5t42.5 18.5t33 20l38 -99q-18 -12 -42 -23.5t-51 -21t-54.5 -15t-52.5 -5.5q-53 0 -93.5 14.5t-67.5 41t-41 63t-14 81.5v10t1 11h-33v95h97q11 11 27.5 24.5t26.5 21.5l41 31h-192v95h307q2 7 2 13 v13q0 18 -5.5 34t-16 28.5t-27.5 19.5t-39 7q-26 0 -66 -12.5t-72 -30.5l-37 101q22 12 45.5 21t47 15t44.5 9.5t38 3.5q54 0 93.5 -15t66 -40.5t39.5 -59.5t13 -72q0 -6 -0.5 -16.5t-2.5 -18.5h34v-95h-99q-11 -10 -26 -23t-27 -21l-48 -33h200v-95h-307z"/>
    <glyph glyph-name="uni20B5" unicode="₵" d="M353 695q40 -2 82 -13t81 -31l-34 -100q-36 17 -66 25t-63 10v-492q33 2 63 10t66 25l34 -100q-39 -20 -81 -31t-82 -13v-93h-81v99q-58 11 -102.5 40.5t-74.5 74.5t-45.5 104.5t-15.5 129.5t15.5 129t45.5 104t74.5 75t102.5 41v81h81v-75zM162 340q0 -41 8 -80 t22.5 -70.5t34.5 -54.5t45 -33v477q-25 -10 -45 -33t-34.5 -55.5t-22.5 -71t-8 -79.5z"/>
    <glyph glyph-name="afii61289" unicode="ℓ" horiz-adv-x="383" d="M354 26q-25 -21 -56 -31t-63 -10q-54 0 -85.5 31.5t-31.5 96.5v107q-3 -3 -10 -9t-15.5 -13t-17 -13.5t-15.5 -11.5l-41 74q12 9 27 21t28.5 24t25.5 23t18 18v215q0 43 9.5 75t27 52t41 30t52.5 10q53 0 82.5 -34.5t29.5 -99.5q0 -78 -40 -152.5t-114 -144.5v-147 q0 -14 3 -25t9 -18t14 -10.5t18 -3.5q19 0 38 8t37 22zM270 569q0 29 -10 40.5t-23 11.5q-14 0 -22.5 -11.5t-8.5 -43.5v-167q31 33 47.5 80t16.5 90z"/>
    <glyph glyph-name="afii61352" unicode="№" horiz-adv-x="1017" d="M495 167l-15 132v381h125v-680h-132l-276 512h-3l15 -132v-380h-125v680h132l276 -513h3zM758 502q0 -46 18.5 -65t43.5 -19q26 0 44 19t18 65q0 45 -18 64.5t-44 19.5q-25 0 -43.5 -19.5t-18.5 -64.5zM972 502q0 -33 -10 -62.5t-29.5 -51t-47.5 -34.5t-65 -13 q-36 0 -64.5 13t-48 34.5t-29.5 51t-10 62.5t10 62.5t29.5 51t48 34.5t64.5 13q37 0 65 -13t47.5 -34.5t29.5 -51t10 -62.5zM692 201v77h255v-77h-255z"/>
    <glyph glyph-name="uni2117" unicode="℗" horiz-adv-x="812" d="M51 340q0 75 27 140t75 113t113 75t140 27t140 -27t113 -75t75 -113t27 -140t-27 -140t-75 -113t-113 -75t-140 -27t-140 27t-113 75t-75 113t-27 140zM122 340q0 -61 22.5 -113.5t62 -91t92.5 -60.5t114 -22t111.5 22t87.5 60.5t57.5 91t20.5 113.5t-21.5 113.5 t-59.5 91t-90 60.5t-113 22t-113 -22t-90 -60.5t-59.5 -91t-21.5 -113.5zM285 153v374h152q36 0 61.5 -10t41.5 -27.5t23 -41t7 -50.5t-7.5 -50.5t-23 -41t-41 -27.5t-61.5 -10h-61v-116h-91zM376 343h50q27 0 38 14t11 41q0 28 -11 41.5t-38 13.5h-50v-110z"/>
    <glyph glyph-name="trademark" unicode="™" horiz-adv-x="743" d="M303 700v-64h-82v-216h-80v216h-83v64h245zM512 546l27 64l46 90h87v-280h-81v97l10 91h-1l-55 -131h-66l-56 131h-1l10 -91v-97h-79v280h88l43 -88l27 -66h1z"/>
    <glyph glyph-name="Omega" unicode="Ω" horiz-adv-x="716" d="M59 103h131q-25 15 -48 41t-40.5 60t-28 75t-10.5 86q0 65 17.5 124.5t53.5 105.5t91.5 73t132.5 27q76 0 131.5 -27t92 -73t54 -105.5t17.5 -124.5q0 -45 -10.5 -85.5t-28.5 -75t-41 -60.5t-48 -41h131v-103h-259v93q63 40 94 97.5t31 149.5q0 50 -8.5 95.5t-28 79.5 t-51 54t-76.5 20q-46 0 -77.5 -20t-51 -54t-28 -79.5t-8.5 -95.5q0 -92 31.5 -149.5t93.5 -97.5v-93h-259v103z"/>
    <glyph glyph-name="estimated" unicode="℮" horiz-adv-x="665" d="M581 106q-47 -65 -104.5 -93t-137.5 -28q-65 0 -117 24t-89.5 65.5t-57.5 97t-20 118.5q0 64 20 119t57.5 95.5t89.5 64t117 23.5q63 0 115 -21.5t89.5 -60t59 -92t23.5 -118.5l-7 -10h-445v-201q32 -31 74.5 -46.5t90.5 -15.5q62 0 114.5 24t90.5 82zM505 491 q-35 33 -77.5 48t-88.5 15q-48 0 -90.5 -15t-74.5 -48v-161h331v161z"/>
    <glyph glyph-name="onethird" unicode="⅓" horiz-adv-x="761" d="M515 212h64q23 0 33 9t10 26q0 14 -10.5 24t-36.5 10q-20 0 -43.5 -4.5t-40.5 -12.5l-24 71q22 9 49.5 16t60.5 7q64 0 98.5 -25.5t34.5 -73.5q0 -36 -17 -53.5t-36 -21.5v-1q27 -9 44.5 -30t17.5 -58q0 -46 -34 -74.5t-112 -28.5q-34 0 -62.5 7.5t-51.5 19.5l22 73 q17 -9 42 -15.5t50 -6.5q29 0 43.5 9t14.5 29q0 17 -12.5 23.5t-38.5 6.5h-65v74zM36 547v78l123 54h64v-351h-85v259h-1l-94 -40h-7zM83 0v10l456 670h104v-10l-456 -670h-104z"/>
    <glyph glyph-name="twothirds" unicode="⅔" horiz-adv-x="815" d="M569 212h64q23 0 33 9t10 26q0 14 -10.5 24t-36.5 10q-20 0 -43.5 -4.5t-40.5 -12.5l-24 71q22 9 49.5 16t60.5 7q64 0 98.5 -25.5t34.5 -73.5q0 -36 -17 -53.5t-36 -21.5v-1q27 -9 44.5 -30t17.5 -58q0 -46 -34 -74.5t-112 -28.5q-34 0 -62.5 7.5t-51.5 19.5l22 73 q17 -9 42 -15.5t50 -6.5q29 0 43.5 9t14.5 29q0 17 -12.5 23.5t-38.5 6.5h-65v74zM169 400h132v-74h-254v67l136 118q25 21 25 52q0 19 -11.5 31.5t-31.5 12.5q-23 0 -39 -12.5t-32 -28.5l-48 58q7 9 18.5 19.5t26.5 19.5t35 15t44 6q26 0 49 -7.5t40 -21.5t27 -36t10 -50 q0 -37 -18.5 -63.5t-44.5 -48.5l-64 -54v-3zM137 0v10l456 670h104v-10l-456 -670h-104z"/>
    <glyph glyph-name="oneeighth" unicode="⅛" horiz-adv-x="760" d="M36 547v78l123 54h64v-351h-85v259h-1l-94 -40h-7zM83 0v10l456 670h104v-10l-456 -670h-104zM585 61q29 0 40.5 12t11.5 29t-11.5 30t-40.5 13q-31 0 -42 -13t-11 -30t11.5 -29t41.5 -12zM585 358q57 0 89.5 -28t32.5 -71q0 -32 -16 -49t-34 -25v-1q28 -10 46 -31.5 t18 -56.5q0 -48 -37.5 -76t-98.5 -28q-62 0 -99 28t-37 76q0 35 18 56.5t45 31.5v1q-18 8 -33.5 25t-15.5 49q0 43 33 71t89 28zM585 214q23 0 33 11t10 28q0 15 -10 26.5t-33 11.5t-33 -11.5t-10 -26.5q0 -17 10 -28t33 -11z"/>
    <glyph glyph-name="threeeighths" unicode="⅜" horiz-adv-x="803" d="M628 61q29 0 40.5 12t11.5 29t-11.5 30t-40.5 13q-31 0 -42 -13t-11 -30t11.5 -29t41.5 -12zM628 358q57 0 89.5 -28t32.5 -71q0 -32 -16 -49t-34 -25v-1q28 -10 46 -31.5t18 -56.5q0 -48 -37.5 -76t-98.5 -28q-62 0 -99 28t-37 76q0 35 18 56.5t45 31.5v1 q-18 8 -33.5 25t-15.5 49q0 43 33 71t89 28zM628 214q23 0 33 11t10 28q0 15 -10 26.5t-33 11.5t-33 -11.5t-10 -26.5q0 -17 10 -28t33 -11zM95 537h64q23 0 33 9t10 26q0 14 -10.5 24t-36.5 10q-20 0 -43.5 -4.5t-40.5 -12.5l-24 71q22 9 49.5 16t60.5 7q64 0 98.5 -25.5 t34.5 -73.5q0 -36 -17 -53.5t-36 -21.5v-1q27 -9 44.5 -30t17.5 -58q0 -46 -34 -74.5t-112 -28.5q-34 0 -62.5 7.5t-51.5 19.5l22 73q17 -9 42 -15.5t50 -6.5q29 0 43.5 9t14.5 29q0 17 -12.5 23.5t-38.5 6.5h-65v74zM126 0v10l456 670h104v-10l-456 -670h-104z"/>
    <glyph glyph-name="fiveeighths" unicode="⅝" horiz-adv-x="785" d="M610 61q29 0 40.5 12t11.5 29t-11.5 30t-40.5 13q-31 0 -42 -13t-11 -30t11.5 -29t41.5 -12zM610 358q57 0 89.5 -28t32.5 -71q0 -32 -16 -49t-34 -25v-1q28 -10 46 -31.5t18 -56.5q0 -48 -37.5 -76t-98.5 -28q-62 0 -99 28t-37 76q0 35 18 56.5t45 31.5v1 q-18 8 -33.5 25t-15.5 49q0 43 33 71t89 28zM610 214q23 0 33 11t10 28q0 15 -10 26.5t-33 11.5t-33 -11.5t-10 -26.5q0 -17 10 -28t33 -11zM63 483l16 196h199v-76h-125l-4 -47h15q56 0 91 -25.5t35 -88.5q0 -57 -37 -89.5t-109 -32.5q-14 0 -44.5 3t-62.5 14l19 79 q22 -10 45.5 -14t45.5 -4q31 0 42.5 11.5t11.5 31.5q0 18 -12.5 28.5t-41.5 10.5q-20 0 -38.5 -1.5t-35.5 -3.5zM108 0v10l456 670h104v-10l-456 -670h-104z"/>
    <glyph glyph-name="seveneighths" unicode="⅞" horiz-adv-x="744" d="M569 61q29 0 40.5 12t11.5 29t-11.5 30t-40.5 13q-31 0 -42 -13t-11 -30t11.5 -29t41.5 -12zM569 358q57 0 89.5 -28t32.5 -71q0 -32 -16 -49t-34 -25v-1q28 -10 46 -31.5t18 -56.5q0 -48 -37.5 -76t-98.5 -28q-62 0 -99 28t-37 76q0 35 18 56.5t45 31.5v1 q-18 8 -33.5 25t-15.5 49q0 43 33 71t89 28zM569 214q23 0 33 11t10 28q0 15 -10 26.5t-33 11.5t-33 -11.5t-10 -26.5q0 -17 10 -28t33 -11zM67 333l137 269v1h-160v76h252v-70l-140 -281h-89v5zM67 0v10l456 670h104v-10l-456 -670h-104z"/>
    <glyph glyph-name="arrowleft" unicode="←" horiz-adv-x="892" d="M420 719l89 -89l-248 -232h631v-118h-631l248 -232l-89 -89l-380 380z"/>
    <glyph glyph-name="arrowup" unicode="↑" horiz-adv-x="892" d="M845 383l-89 -89l-232 249l-1 -631h-118l1 631l-232 -249l-89 89l380 380z"/>
    <glyph glyph-name="arrowright" unicode="→" horiz-adv-x="892" d="M512 -41l-89 89l248 232h-631v118h631l-248 232l89 89l380 -380z"/>
    <glyph glyph-name="arrowdown" unicode="↓" horiz-adv-x="892" d="M85 292l89 89l232 -249l1 631h118l-1 -631l232 249l89 -89l-380 -380z"/>
    <glyph glyph-name="uni2196" unicode="↖" horiz-adv-x="888" d="M697 662v-126l-339 11l446 -445l-85 -85l-446 447l12 -340h-126v538h538z"/>
    <glyph glyph-name="uni2197" unicode="↗" horiz-adv-x="888" d="M804 124h-126l11 339l-445 -446l-85 85l447 446l-340 -11v125h538v-538z"/>
    <glyph glyph-name="uni2198" unicode="↘" horiz-adv-x="888" d="M266 18v126l339 -11l-446 445l85 85l446 -447l-12 340h126v-538h-538z"/>
    <glyph glyph-name="uni2199" unicode="↙" horiz-adv-x="888" d="M159 556h126l-11 -339l445 446l85 -85l-447 -446l340 12v-126h-538v538z"/>
    <glyph glyph-name="partialdiff" unicode="∂" horiz-adv-x="566" d="M170 700q85 0 149 -26.5t107 -75t64.5 -116.5t21.5 -151q0 -76 -17 -139.5t-49.5 -109.5t-79.5 -71.5t-107 -25.5q-52 0 -93 19.5t-69 53t-42.5 78.5t-14.5 95q0 62 16 108.5t43 78t62 47.5t73 16q34 0 59 -7.5t43 -18.5t30.5 -24t21.5 -24l2 2q-6 42 -24 75.5 t-47.5 57.5t-70.5 37.5t-93 14.5zM386 304q-9 12 -20 25t-25 23t-31.5 16.5t-38.5 6.5q-48 0 -76.5 -38.5t-28.5 -105.5q0 -34 7.5 -60t21.5 -44t32.5 -27t41.5 -9q54 0 85.5 55.5t31.5 157.5z"/>
    <glyph glyph-name="Delta" unicode="∆" horiz-adv-x="644" d="M618 0h-592v5l223 675h146l223 -675v-5zM320 570l-46 -180l-85 -291h268l-90 291l-44 180h-3z"/>
    <glyph glyph-name="product" unicode="∏" horiz-adv-x="670" d="M464 597h-258v-795h-125v898h508v-898h-125v795z"/>
    <glyph glyph-name="summation" unicode="∑" horiz-adv-x="565" d="M39 -95l247 353l-233 338v104h458v-103h-327l237 -335l-253 -357h357v-103h-486v103z"/>
    <glyph glyph-name="minus" unicode="−" d="M510 323v-103h-470v103h470z"/>
    <glyph glyph-name="uni2215" unicode="∕" horiz-adv-x="576" d="M8 0v10l456 670h104v-10l-456 -670h-104z"/>
    <glyph glyph-name="uni2219" unicode="∙" horiz-adv-x="269" d="M55 287q0 36 22 59.5t57 23.5q36 0 58 -23.5t22 -59.5t-22 -59t-58 -23q-35 0 -57 23t-22 59z"/>
    <glyph glyph-name="radical" unicode="√" horiz-adv-x="598" d="M18 222h114l75 -192l34 -118h2l29 121l205 647h111l-281 -878h-126l-163 410v10z"/>
    <glyph glyph-name="infinity" unicode="∞" horiz-adv-x="689" d="M493 118q-21 0 -38.5 3.5t-34.5 12.5t-35 25t-39 42q-23 -26 -41.5 -42t-36 -25t-35.5 -12.5t-38 -3.5q-30 0 -56 10.5t-45.5 30.5t-30.5 48.5t-11 63.5t11 63.5t30.5 48t46 30t57.5 10.5q19 0 36 -3t34 -12t35.5 -25.5t42.5 -43.5q24 27 42.5 43.5t35 25.5t33 12t36.5 3 q30 0 56.5 -10.5t46 -30t31 -47.5t11.5 -64q0 -35 -11 -63t-30.5 -48t-46 -31t-56.5 -11zM484 211q25 0 40 17.5t15 42.5q0 23 -15 41t-40 18q-17 0 -33.5 -13.5t-42.5 -46.5q27 -32 43 -45.5t33 -13.5zM206 211q16 0 33 14t42 46q-26 32 -42 45.5t-33 13.5q-26 0 -41 -17.5 t-15 -41.5q0 -26 15 -43t41 -17z"/>
    <glyph glyph-name="integral" unicode="∫" horiz-adv-x="488" d="M230 536q14 84 55 121.5t108 37.5q19 0 43 -2t38 -5l-13 -93q-11 3 -28.5 5t-29.5 2q-24 0 -36 -19.5t-17 -52.5l-93 -584q-14 -84 -55 -121.5t-108 -37.5q-18 0 -42 2t-38 5l13 93q11 -3 28 -5t28 -2q24 0 36.5 19.5t17.5 52.5z"/>
    <glyph glyph-name="approxequal" unicode="≈" d="M45 398q21 33 49.5 49t67.5 16q29 0 59.5 -8.5t60.5 -19t59 -19t54 -8.5q22 0 35.5 5t27.5 19l44 -63q-22 -33 -50 -48.5t-66 -15.5q-26 0 -56.5 8.5t-61.5 19t-61 19t-55 8.5q-23 0 -37.5 -6t-25.5 -19zM45 173q21 33 49.5 49t67.5 16q29 0 59.5 -8.5t60.5 -19t59 -19 t54 -8.5q22 0 35.5 5t27.5 19l44 -63q-22 -33 -50 -48.5t-66 -15.5q-26 0 -56.5 8.5t-61.5 19t-61 19t-55 8.5q-23 0 -37.5 -6t-25.5 -19z"/>
    <glyph glyph-name="notequal" unicode="≠" d="M199 210l47 123h-207v103h246l40 105h99v-10l-36 -95h121v-103h-160l-47 -123h207v-103h-246l-40 -107h-99v10l36 97h-121v103h160z"/>
    <glyph glyph-name="lessequal" unicode="≤" d="M495 136l-460 195v99l460 195h9v-109l-352 -134v-3l352 -134v-109h-9zM504 103v-103h-469v103h469z"/>
    <glyph glyph-name="greaterequal" unicode="≥" d="M46 136v109l352 134v3l-352 134v109h9l460 -195v-99l-460 -195h-9zM515 103v-103h-469v103h469z"/>
    <glyph glyph-name="lozenge" unicode="◊" horiz-adv-x="528" d="M26 327l191 353h91l195 -333l-190 -347h-93zM382 340l-120 213l-115 -221l121 -206z"/>
    <glyph glyph-name="whitecircle" unicode="○" horiz-adv-x="800" d="M60 340q0 72 26 134.5t71.5 108t108 71.5t134.5 26t134.5 -26t108 -71.5t71.5 -108t26 -134.5t-26 -134.5t-71.5 -108t-108 -71.5t-134.5 -26t-134.5 26t-108 71.5t-71.5 108t-26 134.5zM125 340q0 -59 21 -109t57.5 -87.5t87 -58.5t109.5 -21q58 0 108.5 21t87 58.5 t57.5 87.5t21 109q0 58 -21 108.5t-57.5 88t-87 58.5t-108.5 21q-59 0 -109.5 -21t-87 -58.5t-57.5 -88t-21 -108.5z"/>
    <glyph glyph-name="blackcircle" unicode="●" horiz-adv-x="800" d="M60 341q0 72 26 134t71.5 107.5t107.5 71.5t134 26t134.5 -26t108.5 -71.5t72 -107.5t26 -134t-26 -134.5t-72 -108.5t-108.5 -72t-134.5 -26t-134 26t-107.5 72t-71.5 108.5t-26 134.5z"/>
    <glyph glyph-name="uni25DC" unicode="◜" horiz-adv-x="340" d="M340 616q-59 0 -109.5 -21t-87 -58.5t-57.5 -88t-21 -108.5h-65q0 72 26 134.5t71.5 108t108 71.5t134.5 26v-64z"/>
    <glyph glyph-name="uni25DD" unicode="◝" horiz-adv-x="340" d="M0 680q72 0 134.5 -26t108 -71.5t71.5 -108t26 -134.5h-66q0 58 -21 108.5t-57.5 88t-87 58.5t-108.5 21v64z"/>
    <glyph glyph-name="uni25DE" unicode="◞" horiz-adv-x="340" d="M0 64q58 0 108.5 21t87 58.5t57.5 87.5t21 109h66q0 -72 -26 -134.5t-71.5 -108t-108 -71.5t-134.5 -26v64z"/>
    <glyph glyph-name="uni25DF" unicode="◟" horiz-adv-x="340" d="M340 0q-72 0 -134.5 26t-108 71.5t-71.5 108t-26 134.5h65q0 -59 21 -109t57.5 -87.5t87 -58.5t109.5 -21v-64z"/>
    <glyph glyph-name="uniEA01" unicode="" horiz-adv-x="1000" d="M69 765h861v-861h-861v861zM857 -23v715h-715v-715h715zM589 298h-176v-188h-116v469h116v-188h176v188h115v-469h-115v188z"/>
    <glyph glyph-name="uniEA02" unicode="" horiz-adv-x="1000" d="M69 765h861v-861h-861v861zM857 -23v715h-715v-715h715zM287 344q0 55 15.5 100t45.5 77t74 50t101 18q34 0 69.5 -7.5t68.5 -22.5l-30 -92q-32 15 -55 20.5t-53 5.5q-48 0 -81 -37t-33 -112q0 -37 9 -65t24 -46.5t36 -27.5t45 -9q30 0 53 5.5t55 19.5l30 -92 q-33 -14 -68.5 -22t-69.5 -8q-57 0 -101 17.5t-74 50t-45.5 77.5t-15.5 100z"/>
    <glyph glyph-name="uniEA03" unicode="" horiz-adv-x="1000" d="M69 765h861v-861h-861v861zM857 -23v715h-715v-715h715zM349 233q12 -7 29.5 -14t36.5 -12.5t38.5 -9t37.5 -3.5q64 0 64 47q0 17 -12 26.5t-49 21.5l-54 17q-66 22 -90.5 57t-24.5 79q0 69 48 108t129 39q28 0 68 -6t81 -24l-30 -92q-29 14 -61.5 21t-57.5 7 q-31 0 -44.5 -12.5t-13.5 -32.5q0 -14 8.5 -23.5t34.5 -17.5l52 -16q68 -21 101.5 -52t33.5 -86q0 -37 -14 -66t-38.5 -49t-57.5 -30.5t-70 -10.5q-51 0 -97 13t-77 29z"/>
    <glyph glyph-name="uniEA04" unicode="" horiz-adv-x="1000" d="M69 765h861v-861h-861v861zM589 110h115v469h-115v-188h-176v188h-116v-469h116v188h176v-188z"/>
    <glyph glyph-name="uniEA05" unicode="" horiz-adv-x="1000" d="M69 765h861v-861h-861v861zM287 344q0 -55 15.5 -100t45.5 -77.5t74 -50t101 -17.5q34 0 69.5 8t68.5 22l-30 92q-32 -14 -55 -19.5t-53 -5.5q-24 0 -45 9t-36 27.5t-24 46.5t-9 65q0 75 33 112t81 37q30 0 53 -5.5t55 -20.5l30 92q-33 15 -68.5 22.5t-69.5 7.5 q-57 0 -101 -18t-74 -50t-45.5 -77t-15.5 -100z"/>
    <glyph glyph-name="uniEA06" unicode="" horiz-adv-x="1000" d="M69 765h861v-861h-861v861zM320 141q31 -16 77 -29t97 -13q37 0 70 10.5t57.5 30.5t38.5 49t14 66q0 55 -33.5 86t-101.5 52l-52 16q-26 8 -34.5 17.5t-8.5 23.5q0 20 13.5 32.5t44.5 12.5q25 0 57.5 -7t61.5 -21l30 92q-41 18 -81 24t-68 6q-81 0 -129 -39t-48 -108 q0 -44 24.5 -79t90.5 -57l54 -17q37 -12 49 -21.5t12 -26.5q0 -47 -64 -47q-18 0 -37.5 3.5t-38.5 9t-36.5 12.5t-29.5 14z"/>
    <glyph glyph-name="commaaccent" unicode="" horiz-adv-x="531" d="M194 -208l22 156h122v-10l-53 -156h-91v10z"/>
    <glyph glyph-name="commainferior" unicode="" horiz-adv-x="185" d="M16 -212l36 215h99v-8l-60 -215h-75v8z"/>
    <glyph glyph-name="commasuperior" unicode="" horiz-adv-x="186" d="M16 354l36 215h99v-8l-60 -215h-75v8z"/>
    <glyph glyph-name="hypheninferior" unicode="" horiz-adv-x="253" d="M41 26v68h171v-68h-171z"/>
    <glyph glyph-name="hyphensuperior" unicode="" horiz-adv-x="251" d="M41 593v68h171v-68h-171z"/>
    <glyph glyph-name="periodinferior" unicode="" horiz-adv-x="186" d="M31 -63q0 30 17.5 47t44.5 17t44.5 -17t17.5 -47q0 -29 -17.5 -45.5t-44.5 -16.5t-44.5 16.5t-17.5 45.5z"/>
    <glyph glyph-name="periodsuperior" unicode="" horiz-adv-x="188" d="M32 504q0 30 17.5 47t44.5 17t44.5 -17t17.5 -47q0 -29 -17.5 -45.5t-44.5 -16.5t-44.5 16.5t-17.5 45.5z"/>
    <glyph glyph-name="uniF8FF" unicode="" horiz-adv-x="571" d="M79 680h413v-680h-413v680zM434 58v564h-297v-564h297z"/>
    <glyph glyph-name="fi" unicode="ﬁ" horiz-adv-x="600" d="M410 0v379h-184v-379h-122v379h-76v73l76 30v64q0 83 40.5 121t107.5 38q18 0 40.5 -2t36.5 -5v-111q-12 3 -29.5 5t-28.5 2q-25 0 -35 -10.5t-10 -43.5v-58h306v-482h-122zM401 630q0 32 19 53t51 21t51.5 -21t19.5 -53t-19.5 -53t-51.5 -21t-51 21t-19 53z"/>
    <glyph glyph-name="fl" unicode="ﬂ" horiz-adv-x="607" d="M103 0v386h-76v68l76 28v69q0 83 41 118.5t109 35.5q19 0 40.5 -2t35.5 -5v-94q-12 3 -28 5.5t-30 2.5q-24 0 -34.5 -15t-10.5 -49v-66h108v-96h-108v-386h-123zM414 0v700h123v-700h-123z"/>
    <glyph glyph-name="zero.lf" horiz-adv-x="613" d="M185 340q0 -61 6.5 -107.5t20.5 -78t37.5 -47.5t57.5 -16t57 16t37 47.5t20.5 78t6.5 107.5t-6.5 107.5t-20.5 78t-37 47.5t-57 16t-57.5 -16t-37.5 -47.5t-20.5 -78t-6.5 -107.5zM556 340q0 -82 -14 -147.5t-44 -111.5t-77.5 -71t-113.5 -25q-67 0 -114.5 25t-77.5 71 t-44 111.5t-14 147.5t14 147.5t44 111.5t77.5 71t114.5 25q66 0 113.5 -25t77.5 -71t44 -111.5t14 -147.5z"/>
    <glyph glyph-name="one.lf" horiz-adv-x="392" d="M34 506v109l184 65h90v-680h-125v555h-2l-135 -49h-12z"/>
    <glyph glyph-name="two.lf" horiz-adv-x="528" d="M206 103h270v-103h-427v94l228 248q13 15 25 29.5t20.5 31t13.5 35.5t5 42q0 21 -6.5 41t-18.5 35t-29.5 24t-40.5 9q-44 0 -75 -21t-59 -49l-65 79q13 15 32 32t44.5 31.5t57.5 24t70 9.5q49 0 89.5 -14.5t69 -42.5t44 -67.5t15.5 -90.5q0 -35 -10.5 -66t-25.5 -56.5 t-32 -46t-30 -34.5l-165 -172v-2z"/>
    <glyph glyph-name="three.lf" horiz-adv-x="535" d="M132 397h105q27 0 46 7.5t30.5 20t17 30t5.5 38.5q0 20 -6 37.5t-18.5 30.5t-31 20.5t-43.5 7.5q-33 0 -73 -9t-75 -25l-36 95q38 20 89 32.5t95 12.5q113 0 170 -51t57 -141q0 -29 -9 -53.5t-23 -43.5t-31 -32t-33 -19v-2q46 -19 79 -61.5t33 -108.5q0 -45 -15.5 -81.5 t-46.5 -62.5t-76.5 -40t-105.5 -14q-66 0 -112.5 14t-84.5 37l33 97q34 -19 73.5 -30.5t90.5 -11.5q25 0 46.5 7t37.5 20.5t25 32t9 41.5q0 24 -6.5 42.5t-20.5 31t-36.5 19.5t-54.5 7h-104v105z"/>
    <glyph glyph-name="four.lf" horiz-adv-x="588" d="M472 459v-209h78v-103h-78v-147h-125v147h-315v87l179 446h125l-167 -428v-2h178v209h125z"/>
    <glyph glyph-name="five.lf" horiz-adv-x="523" d="M81 327l33 353h336v-103h-230l-13 -154q14 1 23.5 1h17.5q49 0 91 -12t72 -37.5t47 -66.5t17 -99q0 -108 -69 -166t-186 -58q-16 0 -38 2.5t-46.5 7.5t-50 12t-48.5 16l28 103q42 -18 85 -26.5t73 -8.5q63 0 93.5 30.5t30.5 87.5q0 108 -114 108q-33 0 -69 -2.5t-65 -5.5 z"/>
    <glyph glyph-name="six.lf" horiz-adv-x="549" d="M392 670l-151 -245v-2q11 7 30.5 16.5t48.5 9.5q41 0 76 -16.5t60.5 -47t40 -72.5t14.5 -93q0 -48 -15 -91t-44.5 -75t-73 -50.5t-100.5 -18.5q-58 0 -102 18.5t-74 50.5t-45 75t-15 91q0 44 10 85t34 83l170 292h136v-10zM385 220q0 59 -29.5 91t-77.5 32q-50 0 -79 -32 t-29 -91q0 -29 7.5 -53t21.5 -41t34 -26t45 -9q24 0 43.5 9t33.5 26t22 41t8 53z"/>
    <glyph glyph-name="seven.lf" horiz-adv-x="489" d="M93 10l229 565v2h-287v103h422v-93l-232 -587h-132v10z"/>
    <glyph glyph-name="eight.lf" horiz-adv-x="582" d="M291 91q57 0 84 30t27 75q0 46 -27 75.5t-84 29.5t-83 -29.5t-26 -75.5q0 -45 26 -75t83 -30zM291 695q55 0 95 -14t66.5 -39t39 -59.5t12.5 -75.5q0 -30 -7.5 -54t-19.5 -42.5t-27.5 -31t-31.5 -20.5v-2q24 -10 44 -26.5t35 -38.5t23.5 -49t8.5 -59q0 -45 -15 -81.5 t-45 -62.5t-74.5 -40.5t-103.5 -14.5t-103.5 14.5t-74.5 40.5t-45 62.5t-15 81.5q0 32 8.5 59t23.5 49t35.5 38.5t43.5 26.5v2q-16 8 -31.5 20.5t-27.5 31t-19.5 42.5t-7.5 54q0 41 12.5 75.5t38.5 59.5t66 39t96 14zM291 406q45 0 66 25t21 67q0 41 -21 66t-66 25t-65 -25 t-20 -66q0 -42 20 -67t65 -25z"/>
    <glyph glyph-name="nine.lf" d="M157 10l152 245q0 1 -0.5 1t-0.5 1q-11 -7 -30 -16.5t-48 -9.5q-41 0 -76.5 16.5t-61 47t-40 72.5t-14.5 93q0 48 15 91t45 75t73.5 50.5t100.5 18.5q58 0 102 -18.5t73.5 -50.5t44.5 -75t15 -91q0 -44 -10 -86t-33 -83l-170 -291h-137v10zM166 460q0 -59 29 -91t77 -32 q49 0 79 32t30 91q0 29 -8 53t-22 41t-34.5 26t-44.5 9t-43.5 -9t-33.5 -26t-21.5 -41t-7.5 -53z"/>
    <glyph glyph-name="a.alt" horiz-adv-x="552" d="M358 359q-17 14 -39.5 23t-45.5 9q-27 0 -46 -11t-31.5 -31t-18.5 -47.5t-6 -60.5t6 -60.5t18.5 -47.5t31.5 -31t46 -11q23 0 45.5 9t39.5 23v236zM482 0h-92l-16 43h-2l-26 -19.5t-31 -19t-37 -14t-44 -5.5q-47 0 -82.5 20.5t-59 55t-35.5 81t-12 99.5q0 52 12 99 t35.5 81.5t59 55t82.5 20.5q24 0 44 -5.5t37 -14t31 -19l26 -19.5h2l16 43h92v-482z"/>
    <glyph glyph-name="agrave.alt" horiz-adv-x="552" d="M358 359q-17 14 -39.5 23t-45.5 9q-27 0 -46 -11t-31.5 -31t-18.5 -47.5t-6 -60.5t6 -60.5t18.5 -47.5t31.5 -31t46 -11q23 0 45.5 9t39.5 23v236zM482 0h-92l-16 43h-2l-26 -19.5t-31 -19t-37 -14t-44 -5.5q-47 0 -82.5 20.5t-59 55t-35.5 81t-12 99.5q0 52 12 99 t35.5 81.5t59 55t82.5 20.5q24 0 44 -5.5t37 -14t31 -19l26 -19.5h2l16 43h92v-482zM149 713h128l71 -136v-10h-106l-93 137v9z"/>
    <glyph glyph-name="aacute.alt" horiz-adv-x="552" d="M358 359q-17 14 -39.5 23t-45.5 9q-27 0 -46 -11t-31.5 -31t-18.5 -47.5t-6 -60.5t6 -60.5t18.5 -47.5t31.5 -31t46 -11q23 0 45.5 9t39.5 23v236zM482 0h-92l-16 43h-2l-26 -19.5t-31 -19t-37 -14t-44 -5.5q-47 0 -82.5 20.5t-59 55t-35.5 81t-12 99.5q0 52 12 99 t35.5 81.5t59 55t82.5 20.5q24 0 44 -5.5t37 -14t31 -19l26 -19.5h2l16 43h92v-482zM428 704l-93 -137h-106v10l71 136h128v-9z"/>
    <glyph glyph-name="acircumflex.alt" horiz-adv-x="552" d="M358 359q-17 14 -39.5 23t-45.5 9q-27 0 -46 -11t-31.5 -31t-18.5 -47.5t-6 -60.5t6 -60.5t18.5 -47.5t31.5 -31t46 -11q23 0 45.5 9t39.5 23v236zM482 0h-92l-16 43h-2l-26 -19.5t-31 -19t-37 -14t-44 -5.5q-47 0 -82.5 20.5t-59 55t-35.5 81t-12 99.5q0 52 12 99 t35.5 81.5t59 55t82.5 20.5q24 0 44 -5.5t37 -14t31 -19l26 -19.5h2l16 43h92v-482zM435 577v-10h-101l-48 79l-47 -79h-101v10l82 136h133z"/>
    <glyph glyph-name="atilde.alt" horiz-adv-x="552" d="M358 359q-17 14 -39.5 23t-45.5 9q-27 0 -46 -11t-31.5 -31t-18.5 -47.5t-6 -60.5t6 -60.5t18.5 -47.5t31.5 -31t46 -11q23 0 45.5 9t39.5 23v236zM482 0h-92l-16 43h-2l-26 -19.5t-31 -19t-37 -14t-44 -5.5q-47 0 -82.5 20.5t-59 55t-35.5 81t-12 99.5q0 52 12 99 t35.5 81.5t59 55t82.5 20.5q24 0 44 -5.5t37 -14t31 -19l26 -19.5h2l16 43h92v-482zM129 647q14 28 40 47t56 19q21 0 38 -7t32.5 -15.5t30.5 -15.5t33 -7q17 0 33 9.5t27 24.5l25 -68q-16 -32 -42.5 -49.5t-52.5 -17.5q-20 0 -38 7t-34.5 15.5t-32 15.5t-30.5 7 q-20 0 -34 -9t-26 -26z"/>
    <glyph glyph-name="adieresis.alt" horiz-adv-x="552" d="M358 359q-17 14 -39.5 23t-45.5 9q-27 0 -46 -11t-31.5 -31t-18.5 -47.5t-6 -60.5t6 -60.5t18.5 -47.5t31.5 -31t46 -11q23 0 45.5 9t39.5 23v236zM482 0h-92l-16 43h-2l-26 -19.5t-31 -19t-37 -14t-44 -5.5q-47 0 -82.5 20.5t-59 55t-35.5 81t-12 99.5q0 52 12 99 t35.5 81.5t59 55t82.5 20.5q24 0 44 -5.5t37 -14t31 -19l26 -19.5h2l16 43h92v-482zM314 640q0 31 19.5 50t51.5 19q33 0 52.5 -19t19.5 -50t-19.5 -50t-52.5 -19q-32 0 -51.5 19t-19.5 50zM116 640q0 31 19.5 50t51.5 19q33 0 52.5 -19t19.5 -50t-19.5 -50t-52.5 -19 q-32 0 -51.5 19t-19.5 50z"/>
    <glyph glyph-name="aring.alt" horiz-adv-x="552" d="M358 359q-17 14 -39.5 23t-45.5 9q-27 0 -46 -11t-31.5 -31t-18.5 -47.5t-6 -60.5t6 -60.5t18.5 -47.5t31.5 -31t46 -11q23 0 45.5 9t39.5 23v236zM482 0h-92l-16 43h-2l-26 -19.5t-31 -19t-37 -14t-44 -5.5q-47 0 -82.5 20.5t-59 55t-35.5 81t-12 99.5q0 52 12 99 t35.5 81.5t59 55t82.5 20.5q24 0 44 -5.5t37 -14t31 -19l26 -19.5h2l16 43h92v-482zM249 643q0 -19 10.5 -29.5t27.5 -10.5t27 10.5t10 29.5q0 18 -10 29.5t-27 11.5t-27.5 -11.5t-10.5 -29.5zM177 643q0 52 30.5 80.5t79.5 28.5t79 -28.5t30 -80.5q0 -53 -30 -81.5 t-79 -28.5t-79.5 28.5t-30.5 81.5z"/>
    <glyph glyph-name="amacron.alt" horiz-adv-x="552" d="M358 359q-17 14 -39.5 23t-45.5 9q-27 0 -46 -11t-31.5 -31t-18.5 -47.5t-6 -60.5t6 -60.5t18.5 -47.5t31.5 -31t46 -11q23 0 45.5 9t39.5 23v236zM482 0h-92l-16 43h-2l-26 -19.5t-31 -19t-37 -14t-44 -5.5q-47 0 -82.5 20.5t-59 55t-35.5 81t-12 99.5q0 52 12 99 t35.5 81.5t59 55t82.5 20.5q24 0 44 -5.5t37 -14t31 -19l26 -19.5h2l16 43h92v-482zM156 579v103h261v-103h-261z"/>
    <glyph glyph-name="abreve.alt" horiz-adv-x="552" d="M358 359q-17 14 -39.5 23t-45.5 9q-27 0 -46 -11t-31.5 -31t-18.5 -47.5t-6 -60.5t6 -60.5t18.5 -47.5t31.5 -31t46 -11q23 0 45.5 9t39.5 23v236zM482 0h-92l-16 43h-2l-26 -19.5t-31 -19t-37 -14t-44 -5.5q-47 0 -82.5 20.5t-59 55t-35.5 81t-12 99.5q0 52 12 99 t35.5 81.5t59 55t82.5 20.5q24 0 44 -5.5t37 -14t31 -19l26 -19.5h2l16 43h92v-482zM285 674q38 0 67 9.5t53 24.5l29 -74q-12 -12 -27 -23.5t-34 -21.5t-41 -16t-47 -6t-46.5 6t-40 16t-33.5 21.5t-27 23.5l29 74q24 -15 53 -24.5t65 -9.5z"/>
    <glyph glyph-name="aogonek.alt" horiz-adv-x="552" d="M428 -213q-26 0 -45.5 8t-33.5 21.5t-21 32.5t-7 41q0 40 20 67.5t47 45.5l-14 40h-2l-26 -19.5t-31 -19t-37 -14t-44 -5.5q-47 0 -82.5 20.5t-59 55t-35.5 81t-12 99.5q0 52 12 99t35.5 81.5t59 55t82.5 20.5q24 0 44 -5.5t37 -14t31 -19l26 -19.5h2l16 43h92v-482 q-29 -12 -47 -33t-18 -43q0 -23 9.5 -31.5t27.5 -8.5q14 0 27.5 5.5t21.5 12.5l10 -90q-14 -10 -39 -17.5t-46 -7.5zM358 359q-17 14 -39.5 23t-45.5 9q-27 0 -46 -11t-31.5 -31t-18.5 -47.5t-6 -60.5t6 -60.5t18.5 -47.5t31.5 -31t46 -11q23 0 45.5 9t39.5 23v236z"/>
    <glyph glyph-name="aringacute.alt" horiz-adv-x="552" d="M248 635q0 -19 10.5 -29t27.5 -10t27 10t10 29q0 18 -10 28.5t-27 10.5t-27.5 -10.5t-10.5 -28.5zM176 635q0 52 30.5 79.5t79.5 27.5t79 -27.5t30 -79.5q0 -53 -30 -80.5t-79 -27.5t-79.5 27.5t-30.5 80.5zM358 359q-17 14 -39.5 23t-45.5 9q-27 0 -46 -11t-31.5 -31 t-18.5 -47.5t-6 -60.5t6 -60.5t18.5 -47.5t31.5 -31t46 -11q23 0 45.5 9t39.5 23v236zM482 0h-92l-16 43h-2l-26 -19.5t-31 -19t-37 -14t-44 -5.5q-47 0 -82.5 20.5t-59 55t-35.5 81t-12 99.5q0 52 12 99t35.5 81.5t59 55t82.5 20.5q24 0 44 -5.5t37 -14t31 -19l26 -19.5h2 l16 43h92v-482zM424 873l-80 -103h-109v8l60 102h129v-7z"/>
    <glyph glyph-name="uni0444.alt" horiz-adv-x="667" d="M44 241q0 47 12.5 89.5t40 75.5t70.5 55.5t105 29.5v209h122v-211q63 -8 106.5 -30t70.5 -55t39.5 -75t12.5 -88q0 -47 -12.5 -88.5t-39.5 -74.5t-70.5 -55t-106.5 -30v-191h-122v189q-62 7 -105 29t-70.5 55.5t-40 75.5t-12.5 90zM168 241q0 -30 5.5 -54.5t18 -42.5 t32 -30t48.5 -17v287q-29 -5 -48.5 -17t-32 -30t-18 -42t-5.5 -54zM499 241q0 29 -5.5 53t-18 42t-32.5 29.5t-49 17.5v-285q29 6 49 18t32.5 30t18 42t5.5 53z"/>
    <glyph glyph-name="Euro.alt" d="M228 206q14 -54 48 -81t81 -27q35 0 64.5 7.5t67.5 27.5l34 -104q-40 -22 -82.5 -33t-83.5 -11q-106 0 -171.5 59.5t-91.5 161.5h-63v95h49q-1 9 -1 19v20v19t1 19h-49v95h63q13 51 35.5 92t55.5 70t76 44.5t96 15.5q41 0 85 -11t81 -33l-34 -104q-37 19 -67 27t-65 8 q-46 0 -80 -27.5t-48 -81.5h175v-95h-197v-19v-19v-20.5v-18.5h197v-95h-176z"/>
    <glyph glyph-name="rupee.alt" d="M418 407q-6 -34 -19.5 -62.5t-36 -49.5t-53.5 -34t-71 -17l221 -228v-16h-149l-242 261v86h104q49 0 77 15.5t36 44.5h-217l-1 95h218q-8 29 -36.5 48.5t-76.5 19.5h-104l-1 110h420v-95h-131v-2q24 -16 37.5 -39t19.5 -42h74v-95h-69z"/>
    <glyph glyph-name="registered.alt" horiz-adv-x="812" d="M51 340q0 75 27 140t75 113t113 75t140 27t140 -27t113 -75t75 -113t27 -140t-27 -140t-75 -113t-113 -75t-140 -27t-140 27t-113 75t-75 113t-27 140zM122 340q0 -61 22.5 -113.5t62 -91t92.5 -60.5t114 -22t111.5 22t87.5 60.5t57.5 91t20.5 113.5t-21.5 113.5 t-59.5 91t-90 60.5t-113 22t-113 -22t-90 -60.5t-59.5 -91t-21.5 -113.5zM250 153v374h171q73 0 105.5 -31t32.5 -85q0 -42 -20 -71t-62 -40l102 -138v-9h-100l-97 141h-41v-141h-91zM417 368q26 0 36.5 12.5t10.5 30.5t-10.5 30t-36.5 12h-76v-85h76z"/>
    <glyph glyph-name="guillemotleft.case" horiz-adv-x="530" d="M44 347l147 219l82 -49l-91 -177l92 -176l-83 -48l-147 219v12zM243 347l147 219l82 -49l-91 -177l92 -176l-83 -48l-147 219v12z"/>
    <glyph glyph-name="bracketleft.case" horiz-adv-x="329" d="M289 790v-63l-104 -23v-726l104 -23v-63h-208v898h208z"/>
    <glyph glyph-name="guilsinglright.case" horiz-adv-x="330" d="M286 335l-147 -219l-82 49l91 177l-92 176l83 48l147 -219v-12z"/>
    <glyph glyph-name="bar.case" horiz-adv-x="243" d="M162 -108h-81v898h81v-898z"/>
    <glyph glyph-name="periodcentered.case" horiz-adv-x="277" d="M59 336q0 36 22 59.5t57 23.5q36 0 58 -23.5t22 -59.5t-22 -59t-58 -23q-35 0 -57 23t-22 59z"/>
    <glyph glyph-name="bullet.case" horiz-adv-x="376" d="M76 340q0 50 30.5 82t82.5 32t82.5 -32t30.5 -82t-30.5 -82t-82.5 -32t-82.5 32t-30.5 82z"/>
    <glyph glyph-name="emdash.case" horiz-adv-x="851" d="M70 291v103h711v-103h-711z"/>
    <glyph glyph-name="bracketright.case" horiz-adv-x="330" d="M249 790v-898h-209v65l105 23v722l-105 23v65h209z"/>
    <glyph glyph-name="endash.case" horiz-adv-x="555" d="M70 291v103h415v-103h-415z"/>
    <glyph glyph-name="hyphen.case" horiz-adv-x="422" d="M70 289v103h282v-103h-282z"/>
    <glyph glyph-name="guillemotright.case" horiz-adv-x="529" d="M286 335l-147 -219l-82 49l91 177l-92 176l83 48l147 -219v-12zM485 335l-147 -219l-82 49l91 177l-92 176l83 48l147 -219v-12z"/>
    </font>
</defs>
</svg>
